<svg xmlns="http://www.w3.org/2000/svg" width="190" height="190" viewBox="0 0 190 190"><g transform="translate(-284.668 -2394)"><rect width="190" height="190" transform="translate(284.668 2394)" fill="none"/><g transform="translate(-840 984.841)"><g transform="translate(825.668 301.501)"><g transform="translate(-325.617 254.355)"><g transform="translate(644.088 862.303)"><g transform="translate(6.446 6.446)"><path d="M67.834,0A67.833,67.833,0,1,1,0,67.833,67.833,67.833,0,0,1,67.834,0Z" transform="translate(0 0)" fill="#7a8045" opacity="0.444" style="mix-blend-mode:multiply;isolation:isolate"/><g transform="translate(26.485 28.042)"><path d="M416.056,51.1a.922.922,0,1,1-.922-.88A.9.9,0,0,1,416.056,51.1Z" transform="translate(-414.214 -50.224)" fill="#fff"/><path d="M424.5,51.1a.922.922,0,1,1-.92-.88A.9.9,0,0,1,424.5,51.1Z" transform="translate(-414.37 -50.224)" fill="#fff"/><path d="M432.948,51.1a.922.922,0,1,1-.921-.88A.9.9,0,0,1,432.948,51.1Z" transform="translate(-414.527 -50.224)" fill="#fff"/><path d="M441.4,51.1a.922.922,0,1,1-.922-.88A.9.9,0,0,1,441.4,51.1Z" transform="translate(-414.683 -50.224)" fill="#fff"/><path d="M449.841,51.1a.922.922,0,1,1-.921-.88A.9.9,0,0,1,449.841,51.1Z" transform="translate(-414.84 -50.224)" fill="#fff"/><path d="M458.287,51.1a.922.922,0,1,1-.921-.88A.9.9,0,0,1,458.287,51.1Z" transform="translate(-414.996 -50.224)" fill="#fff"/><path d="M466.734,51.1a.922.922,0,1,1-.922-.88A.9.9,0,0,1,466.734,51.1Z" transform="translate(-415.152 -50.224)" fill="#fff"/><path d="M475.18,51.1a.922.922,0,1,1-.921-.88A.9.9,0,0,1,475.18,51.1Z" transform="translate(-415.309 -50.224)" fill="#fff"/><path d="M483.626,51.1a.922.922,0,1,1-.921-.88A.9.9,0,0,1,483.626,51.1Z" transform="translate(-415.465 -50.224)" fill="#fff"/><path d="M492.073,51.1a.922.922,0,1,1-.922-.88A.9.9,0,0,1,492.073,51.1Z" transform="translate(-415.622 -50.224)" fill="#fff"/><path d="M500.519,51.1a.922.922,0,1,1-.922-.88A.9.9,0,0,1,500.519,51.1Z" transform="translate(-415.778 -50.224)" fill="#fff"/><g transform="translate(0 7.047)"><path d="M416.056,58.612a.922.922,0,1,1-.922-.88A.9.9,0,0,1,416.056,58.612Z" transform="translate(-414.214 -57.732)" fill="#fff"/><path d="M424.5,58.612a.922.922,0,1,1-.92-.88A.9.9,0,0,1,424.5,58.612Z" transform="translate(-414.37 -57.732)" fill="#fff"/><path d="M432.948,58.612a.922.922,0,1,1-.921-.88A.9.9,0,0,1,432.948,58.612Z" transform="translate(-414.527 -57.732)" fill="#fff"/><path d="M441.4,58.612a.922.922,0,1,1-.922-.88A.9.9,0,0,1,441.4,58.612Z" transform="translate(-414.683 -57.732)" fill="#fff"/><path d="M449.841,58.612a.922.922,0,1,1-.921-.88A.9.9,0,0,1,449.841,58.612Z" transform="translate(-414.84 -57.732)" fill="#fff"/><path d="M458.287,58.612a.922.922,0,1,1-.921-.88A.9.9,0,0,1,458.287,58.612Z" transform="translate(-414.996 -57.732)" fill="#fff"/><path d="M466.734,58.612a.922.922,0,1,1-.922-.88A.9.9,0,0,1,466.734,58.612Z" transform="translate(-415.152 -57.732)" fill="#fff"/><path d="M475.18,58.612a.922.922,0,1,1-.921-.88A.9.9,0,0,1,475.18,58.612Z" transform="translate(-415.309 -57.732)" fill="#fff"/><path d="M483.626,58.612a.922.922,0,1,1-.921-.88A.9.9,0,0,1,483.626,58.612Z" transform="translate(-415.465 -57.732)" fill="#fff"/><path d="M492.073,58.612a.922.922,0,1,1-.922-.88A.9.9,0,0,1,492.073,58.612Z" transform="translate(-415.622 -57.732)" fill="#fff"/><path d="M500.519,58.612a.922.922,0,1,1-.922-.88A.9.9,0,0,1,500.519,58.612Z" transform="translate(-415.778 -57.732)" fill="#fff"/></g><g transform="translate(0 14.094)"><ellipse cx="0.921" cy="0.881" rx="0.921" ry="0.881" fill="#fff"/><path d="M424.5,66.12a.922.922,0,1,1-.92-.88A.9.9,0,0,1,424.5,66.12Z" transform="translate(-414.37 -65.24)" fill="#fff"/><ellipse cx="0.921" cy="0.881" rx="0.921" ry="0.881" transform="translate(16.58)" fill="#fff"/><path d="M441.4,66.12a.922.922,0,1,1-.922-.88A.9.9,0,0,1,441.4,66.12Z" transform="translate(-414.683 -65.24)" fill="#fff"/><path d="M449.841,66.12a.922.922,0,1,1-.921-.88A.9.9,0,0,1,449.841,66.12Z" transform="translate(-414.84 -65.24)" fill="#fff"/><ellipse cx="0.921" cy="0.881" rx="0.921" ry="0.881" transform="translate(41.45)" fill="#fff"/><path d="M466.734,66.12a.922.922,0,1,1-.922-.88A.9.9,0,0,1,466.734,66.12Z" transform="translate(-415.152 -65.24)" fill="#fff"/><ellipse cx="0.921" cy="0.881" rx="0.921" ry="0.881" transform="translate(58.029)" fill="#fff"/><ellipse cx="0.921" cy="0.881" rx="0.921" ry="0.881" transform="translate(66.319)" fill="#fff"/><path d="M492.073,66.12a.922.922,0,1,1-.922-.88A.9.9,0,0,1,492.073,66.12Z" transform="translate(-415.622 -65.24)" fill="#fff"/><path d="M500.519,66.12a.922.922,0,1,1-.922-.88A.9.9,0,0,1,500.519,66.12Z" transform="translate(-415.778 -65.24)" fill="#fff"/></g><g transform="translate(0 21.14)"><ellipse cx="0.921" cy="0.881" rx="0.921" ry="0.881" transform="translate(0 0)" fill="#fff"/><path d="M424.5,73.628a.922.922,0,1,1-.92-.881A.9.9,0,0,1,424.5,73.628Z" transform="translate(-414.37 -72.747)" fill="#fff"/><ellipse cx="0.921" cy="0.881" rx="0.921" ry="0.881" transform="translate(16.58 0)" fill="#fff"/><path d="M441.4,73.628a.922.922,0,1,1-.922-.881A.9.9,0,0,1,441.4,73.628Z" transform="translate(-414.683 -72.747)" fill="#fff"/><path d="M449.841,73.628a.922.922,0,1,1-.921-.881A.9.9,0,0,1,449.841,73.628Z" transform="translate(-414.84 -72.747)" fill="#fff"/><ellipse cx="0.921" cy="0.881" rx="0.921" ry="0.881" transform="translate(41.45 0)" fill="#fff"/><path d="M466.734,73.628a.922.922,0,1,1-.922-.881A.9.9,0,0,1,466.734,73.628Z" transform="translate(-415.152 -72.747)" fill="#fff"/><ellipse cx="0.921" cy="0.881" rx="0.921" ry="0.881" transform="translate(58.029 0)" fill="#fff"/><ellipse cx="0.921" cy="0.881" rx="0.921" ry="0.881" transform="translate(66.319 0)" fill="#fff"/><path d="M492.073,73.628a.922.922,0,1,1-.922-.881A.9.9,0,0,1,492.073,73.628Z" transform="translate(-415.622 -72.747)" fill="#fff"/><path d="M500.519,73.628a.922.922,0,1,1-.922-.881A.9.9,0,0,1,500.519,73.628Z" transform="translate(-415.778 -72.747)" fill="#fff"/></g><g transform="translate(0 28.187)"><path d="M416.056,81.136a.922.922,0,1,1-.922-.881A.9.9,0,0,1,416.056,81.136Z" transform="translate(-414.214 -80.255)" fill="#fff"/><path d="M424.5,81.136a.922.922,0,1,1-.92-.881A.9.9,0,0,1,424.5,81.136Z" transform="translate(-414.37 -80.255)" fill="#fff"/><path d="M432.948,81.136a.922.922,0,1,1-.921-.881A.9.9,0,0,1,432.948,81.136Z" transform="translate(-414.527 -80.255)" fill="#fff"/><path d="M441.4,81.136a.922.922,0,1,1-.922-.881A.9.9,0,0,1,441.4,81.136Z" transform="translate(-414.683 -80.255)" fill="#fff"/><path d="M449.841,81.136a.922.922,0,1,1-.921-.881A.9.9,0,0,1,449.841,81.136Z" transform="translate(-414.84 -80.255)" fill="#fff"/><path d="M458.287,81.136a.922.922,0,1,1-.921-.881A.9.9,0,0,1,458.287,81.136Z" transform="translate(-414.996 -80.255)" fill="#fff"/><path d="M466.734,81.136a.922.922,0,1,1-.922-.881A.9.9,0,0,1,466.734,81.136Z" transform="translate(-415.152 -80.255)" fill="#fff"/><path d="M475.18,81.136a.922.922,0,1,1-.921-.881A.9.9,0,0,1,475.18,81.136Z" transform="translate(-415.309 -80.255)" fill="#fff"/><path d="M483.626,81.136a.922.922,0,1,1-.921-.881A.9.9,0,0,1,483.626,81.136Z" transform="translate(-415.465 -80.255)" fill="#fff"/><path d="M492.073,81.136a.922.922,0,1,1-.922-.881A.9.9,0,0,1,492.073,81.136Z" transform="translate(-415.622 -80.255)" fill="#fff"/><path d="M500.519,81.136a.922.922,0,1,1-.922-.881A.9.9,0,0,1,500.519,81.136Z" transform="translate(-415.778 -80.255)" fill="#fff"/></g><g transform="translate(0 35.234)"><ellipse cx="0.921" cy="0.881" rx="0.921" ry="0.881" transform="translate(0 0)" fill="#fff"/><path d="M424.5,88.644a.922.922,0,1,1-.92-.881A.9.9,0,0,1,424.5,88.644Z" transform="translate(-414.37 -87.763)" fill="#fff"/><ellipse cx="0.921" cy="0.881" rx="0.921" ry="0.881" transform="translate(16.58 0)" fill="#fff"/><path d="M441.4,88.644a.922.922,0,1,1-.922-.881A.9.9,0,0,1,441.4,88.644Z" transform="translate(-414.683 -87.763)" fill="#fff"/><path d="M449.841,88.644a.922.922,0,1,1-.921-.881A.9.9,0,0,1,449.841,88.644Z" transform="translate(-414.84 -87.763)" fill="#fff"/><ellipse cx="0.921" cy="0.881" rx="0.921" ry="0.881" transform="translate(41.45 0)" fill="#fff"/><path d="M466.734,88.644a.922.922,0,1,1-.922-.881A.9.9,0,0,1,466.734,88.644Z" transform="translate(-415.152 -87.763)" fill="#fff"/><ellipse cx="0.921" cy="0.881" rx="0.921" ry="0.881" transform="translate(58.029 0)" fill="#fff"/><ellipse cx="0.921" cy="0.881" rx="0.921" ry="0.881" transform="translate(66.319 0)" fill="#fff"/><path d="M492.073,88.644a.922.922,0,1,1-.922-.881A.9.9,0,0,1,492.073,88.644Z" transform="translate(-415.622 -87.763)" fill="#fff"/><path d="M500.519,88.644a.922.922,0,1,1-.922-.881A.9.9,0,0,1,500.519,88.644Z" transform="translate(-415.778 -87.763)" fill="#fff"/></g><g transform="translate(0 42.281)"><ellipse cx="0.921" cy="0.881" rx="0.921" ry="0.881" fill="#fff"/><path d="M424.5,96.151a.922.922,0,1,1-.92-.88A.9.9,0,0,1,424.5,96.151Z" transform="translate(-414.37 -95.271)" fill="#fff"/><ellipse cx="0.921" cy="0.881" rx="0.921" ry="0.881" transform="translate(16.58)" fill="#fff"/><path d="M441.4,96.151a.922.922,0,1,1-.922-.88A.9.9,0,0,1,441.4,96.151Z" transform="translate(-414.683 -95.271)" fill="#fff"/><path d="M449.841,96.151a.922.922,0,1,1-.921-.88A.9.9,0,0,1,449.841,96.151Z" transform="translate(-414.84 -95.271)" fill="#fff"/><ellipse cx="0.921" cy="0.881" rx="0.921" ry="0.881" transform="translate(41.45)" fill="#fff"/><path d="M466.734,96.151a.922.922,0,1,1-.922-.88A.9.9,0,0,1,466.734,96.151Z" transform="translate(-415.152 -95.271)" fill="#fff"/><ellipse cx="0.921" cy="0.881" rx="0.921" ry="0.881" transform="translate(58.029)" fill="#fff"/><ellipse cx="0.921" cy="0.881" rx="0.921" ry="0.881" transform="translate(66.319)" fill="#fff"/><path d="M492.073,96.151a.922.922,0,1,1-.922-.88A.9.9,0,0,1,492.073,96.151Z" transform="translate(-415.622 -95.271)" fill="#fff"/><path d="M500.519,96.151a.922.922,0,1,1-.922-.88A.9.9,0,0,1,500.519,96.151Z" transform="translate(-415.778 -95.271)" fill="#fff"/></g><g transform="translate(0 49.328)"><path d="M416.056,103.659a.922.922,0,1,1-.922-.88A.9.9,0,0,1,416.056,103.659Z" transform="translate(-414.214 -102.779)" fill="#fff"/><path d="M424.5,103.659a.922.922,0,1,1-.92-.88A.9.9,0,0,1,424.5,103.659Z" transform="translate(-414.37 -102.779)" fill="#fff"/><path d="M432.948,103.659a.922.922,0,1,1-.921-.88A.9.9,0,0,1,432.948,103.659Z" transform="translate(-414.527 -102.779)" fill="#fff"/><path d="M441.4,103.659a.922.922,0,1,1-.922-.88A.9.9,0,0,1,441.4,103.659Z" transform="translate(-414.683 -102.779)" fill="#fff"/><path d="M449.841,103.659a.922.922,0,1,1-.921-.88A.9.9,0,0,1,449.841,103.659Z" transform="translate(-414.84 -102.779)" fill="#fff"/><path d="M458.287,103.659a.922.922,0,1,1-.921-.88A.9.9,0,0,1,458.287,103.659Z" transform="translate(-414.996 -102.779)" fill="#fff"/><path d="M466.734,103.659a.922.922,0,1,1-.922-.88A.9.9,0,0,1,466.734,103.659Z" transform="translate(-415.152 -102.779)" fill="#fff"/><path d="M475.18,103.659a.922.922,0,1,1-.921-.88A.9.9,0,0,1,475.18,103.659Z" transform="translate(-415.309 -102.779)" fill="#fff"/><path d="M483.626,103.659a.922.922,0,1,1-.921-.88A.9.9,0,0,1,483.626,103.659Z" transform="translate(-415.465 -102.779)" fill="#fff"/><path d="M492.073,103.659a.922.922,0,1,1-.922-.88A.9.9,0,0,1,492.073,103.659Z" transform="translate(-415.622 -102.779)" fill="#fff"/><path d="M500.519,103.659a.922.922,0,1,1-.922-.88A.9.9,0,0,1,500.519,103.659Z" transform="translate(-415.778 -102.779)" fill="#fff"/></g><g transform="translate(0 56.375)"><ellipse cx="0.921" cy="0.881" rx="0.921" ry="0.881" fill="#fff"/><path d="M424.5,111.167a.922.922,0,1,1-.92-.88A.9.9,0,0,1,424.5,111.167Z" transform="translate(-414.37 -110.287)" fill="#fff"/><ellipse cx="0.921" cy="0.881" rx="0.921" ry="0.881" transform="translate(16.58)" fill="#fff"/><path d="M441.4,111.167a.922.922,0,1,1-.922-.88A.9.9,0,0,1,441.4,111.167Z" transform="translate(-414.683 -110.287)" fill="#fff"/><path d="M449.841,111.167a.922.922,0,1,1-.921-.88A.9.9,0,0,1,449.841,111.167Z" transform="translate(-414.84 -110.287)" fill="#fff"/><ellipse cx="0.921" cy="0.881" rx="0.921" ry="0.881" transform="translate(41.45)" fill="#fff"/><path d="M466.734,111.167a.922.922,0,1,1-.922-.88A.9.9,0,0,1,466.734,111.167Z" transform="translate(-415.152 -110.287)" fill="#fff"/><ellipse cx="0.921" cy="0.881" rx="0.921" ry="0.881" transform="translate(58.029)" fill="#fff"/><ellipse cx="0.921" cy="0.881" rx="0.921" ry="0.881" transform="translate(66.319)" fill="#fff"/><path d="M492.073,111.167a.922.922,0,1,1-.922-.88A.9.9,0,0,1,492.073,111.167Z" transform="translate(-415.622 -110.287)" fill="#fff"/><path d="M500.519,111.167a.922.922,0,1,1-.922-.88A.9.9,0,0,1,500.519,111.167Z" transform="translate(-415.778 -110.287)" fill="#fff"/></g><g transform="translate(0 63.421)"><path d="M416.056,118.675a.922.922,0,1,1-.922-.881A.9.9,0,0,1,416.056,118.675Z" transform="translate(-414.214 -117.794)" fill="#fff"/><path d="M424.5,118.675a.922.922,0,1,1-.92-.881A.9.9,0,0,1,424.5,118.675Z" transform="translate(-414.37 -117.794)" fill="#fff"/><path d="M432.948,118.675a.922.922,0,1,1-.921-.881A.9.9,0,0,1,432.948,118.675Z" transform="translate(-414.527 -117.794)" fill="#fff"/><path d="M441.4,118.675a.922.922,0,1,1-.922-.881A.9.9,0,0,1,441.4,118.675Z" transform="translate(-414.683 -117.794)" fill="#fff"/><path d="M449.841,118.675a.922.922,0,1,1-.921-.881A.9.9,0,0,1,449.841,118.675Z" transform="translate(-414.84 -117.794)" fill="#fff"/><path d="M458.287,118.675a.922.922,0,1,1-.921-.881A.9.9,0,0,1,458.287,118.675Z" transform="translate(-414.996 -117.794)" fill="#fff"/><path d="M466.734,118.675a.922.922,0,1,1-.922-.881A.9.9,0,0,1,466.734,118.675Z" transform="translate(-415.152 -117.794)" fill="#fff"/><path d="M475.18,118.675a.922.922,0,1,1-.921-.881A.9.9,0,0,1,475.18,118.675Z" transform="translate(-415.309 -117.794)" fill="#fff"/><path d="M483.626,118.675a.922.922,0,1,1-.921-.881A.9.9,0,0,1,483.626,118.675Z" transform="translate(-415.465 -117.794)" fill="#fff"/><path d="M492.073,118.675a.922.922,0,1,1-.922-.881A.9.9,0,0,1,492.073,118.675Z" transform="translate(-415.622 -117.794)" fill="#fff"/><path d="M500.519,118.675a.922.922,0,1,1-.922-.881A.9.9,0,0,1,500.519,118.675Z" transform="translate(-415.778 -117.794)" fill="#fff"/></g><g transform="translate(0 70.468)"><ellipse cx="0.921" cy="0.881" rx="0.921" ry="0.881" transform="translate(0 0)" fill="#fff"/><path d="M424.5,126.183a.922.922,0,1,1-.92-.881A.9.9,0,0,1,424.5,126.183Z" transform="translate(-414.37 -125.302)" fill="#fff"/><ellipse cx="0.921" cy="0.881" rx="0.921" ry="0.881" transform="translate(16.58 0)" fill="#fff"/><path d="M441.4,126.183a.922.922,0,1,1-.922-.881A.9.9,0,0,1,441.4,126.183Z" transform="translate(-414.683 -125.302)" fill="#fff"/><path d="M449.841,126.183a.922.922,0,1,1-.921-.881A.9.9,0,0,1,449.841,126.183Z" transform="translate(-414.84 -125.302)" fill="#fff"/><ellipse cx="0.921" cy="0.881" rx="0.921" ry="0.881" transform="translate(41.45 0)" fill="#fff"/><path d="M466.734,126.183a.922.922,0,1,1-.922-.881A.9.9,0,0,1,466.734,126.183Z" transform="translate(-415.152 -125.302)" fill="#fff"/><ellipse cx="0.921" cy="0.881" rx="0.921" ry="0.881" transform="translate(58.029 0)" fill="#fff"/><ellipse cx="0.921" cy="0.881" rx="0.921" ry="0.881" transform="translate(66.319 0)" fill="#fff"/><path d="M492.073,126.183a.922.922,0,1,1-.922-.881A.9.9,0,0,1,492.073,126.183Z" transform="translate(-415.622 -125.302)" fill="#fff"/><path d="M500.519,126.183a.922.922,0,1,1-.922-.881A.9.9,0,0,1,500.519,126.183Z" transform="translate(-415.778 -125.302)" fill="#fff"/></g><g transform="translate(0 77.516)"><ellipse cx="0.921" cy="0.881" rx="0.921" ry="0.881" transform="translate(0 0)" fill="#fff"/><path d="M424.5,133.691a.922.922,0,1,1-.92-.881A.9.9,0,0,1,424.5,133.691Z" transform="translate(-414.37 -132.81)" fill="#fff"/><ellipse cx="0.921" cy="0.881" rx="0.921" ry="0.881" transform="translate(16.58 0)" fill="#fff"/><path d="M441.4,133.691a.922.922,0,1,1-.922-.881A.9.9,0,0,1,441.4,133.691Z" transform="translate(-414.683 -132.81)" fill="#fff"/><path d="M449.841,133.691a.922.922,0,1,1-.921-.881A.9.9,0,0,1,449.841,133.691Z" transform="translate(-414.84 -132.81)" fill="#fff"/><ellipse cx="0.921" cy="0.881" rx="0.921" ry="0.881" transform="translate(41.45 0)" fill="#fff"/><path d="M466.734,133.691a.922.922,0,1,1-.922-.881A.9.9,0,0,1,466.734,133.691Z" transform="translate(-415.152 -132.81)" fill="#fff"/><ellipse cx="0.921" cy="0.881" rx="0.921" ry="0.881" transform="translate(58.029 0)" fill="#fff"/><ellipse cx="0.921" cy="0.881" rx="0.921" ry="0.881" transform="translate(66.319 0)" fill="#fff"/><path d="M492.073,133.691a.922.922,0,1,1-.922-.881A.9.9,0,0,1,492.073,133.691Z" transform="translate(-415.622 -132.81)" fill="#fff"/><path d="M500.519,133.691a.922.922,0,1,1-.922-.881A.9.9,0,0,1,500.519,133.691Z" transform="translate(-415.778 -132.81)" fill="#fff"/></g></g></g><path d="M90.1,1.675a1,1,0,0,1,.213.023q.553.12,1.1.248h.006l.024.006.008,0,.022.005.009,0,.019,0,.011,0,.018,0,.012,0,.017,0,.012,0,.017,0,.013,0,.015,0,.014,0,.014,0,.016,0,.01,0,.046.011h0l.021.005.008,0,.022.005.007,0,.021.005.008,0,.021.005.007,0,.022.005.007,0,.022.005h.006l.023.005h.005l.024.006h0q2.187.527,4.32,1.181h0l.025.008h0l.024.007h0l.024.007h0l.024.007h0l.162.05h0l.022.007.006,0,.022.007.005,0,.022.007.006,0,.021.007.007,0,.02.006.008,0,.02.006.008,0,.02.006.008,0,.02.006.007,0,.021.007h0l.078.025h0l.021.007.008,0,.019.006.009,0,.019.006.01,0,.018.006.011,0L97,3.482l.011,0,.018.006.01,0,.019.006.009,0,.02.006.007,0,.021.007.005,0,.1.031.01,0,.017.006.011,0,.017.005.012,0,.016.005.012,0,.016.005.013,0,.015,0,.013,0,.015,0,.014,0,.015,0,.014,0,.014,0,.015,0,.014,0,.012,0,.035.011.008,0,.017.006.011,0,.017.006.011,0,.016.005.012,0,.015.005.013,0,.014,0,.014,0,.015,0,.013,0,.015,0,.013,0,.015.005.013,0,.016.005.012,0,.016.005.01,0,.041.013h0l.014,0,.015,0,.015,0,.013,0,.016.005.012,0,.016.005.012,0,.016.005.012,0L98,3.809l.012,0,.011,0a1,1,0,0,1-.634,1.9,72.162,72.162,0,0,0-7.5-2.061A1,1,0,0,1,90.1,1.675Zm14.943,4.989a1,1,0,0,1,.415.091l.247.114h0l.022.01.005,0,.021.01.006,0,.02.009.008,0,.019.009.006,0,.02.009.006,0,.062.029.01,0,.014.007.014.006.012.006.015.007.012.006.016.007.011.005.016.007.011.005.017.008.01,0,.02.009.006,0,.025.012h0l.056.027h0l.027.013,0,0,.023.011.005,0,.023.011.005,0,.024.011,0,0,.026.012h0q3.2,1.518,6.223,3.326a1,1,0,1,1-1.025,1.717,72.507,72.507,0,0,0-6.886-3.624,1,1,0,0,1,.418-1.909Zm13.528,8.076a1,1,0,0,1,.6.2h0l.023.017,0,0,.022.016,0,0,.022.017,0,0,.024.018h0q1.347,1.018,2.646,2.1h0l.144.119h0l.023.019,0,0,.021.017,0,0,.02.017,0,0,.02.016,0,0,.02.017,0,0,.047.039h0l.022.018.007.006.016.013.008.007.014.012.01.008.013.011.01.008.013.011.01.008.014.011.009.008.014.012.009.008.02.017.008.007.016.014.01.009.012.011.012.01.01.009.013.011.01.008.013.011.009.007.014.012.008.007.015.012.005,0,.1.086h0l.02.017,0,0,.019.016,0,0,.019.017h0q1.3,1.113,2.554,2.284a1,1,0,0,1-1.37,1.457,73.1,73.1,0,0,0-5.957-5.008,1,1,0,0,1,.6-1.8Zm11.5,10.769a1,1,0,0,1,.756.345q1.119,1.3,2.178,2.647h0l.015.02,0,0,.015.019,0,0,.015.02,0,0,.015.02h0l.082.106,0,0,.013.017,0,.006.012.016.006.007.012.016.005.007.012.016.006.008.012.015.006.008.011.015.006.008.025.033,0,0,.011.014.007.009.01.013.008.011.01.013.008.01.01.013.008.011.009.012.009.012L133.4,29l.011.014.007.009.012.016.006.008.018.023,0,0,.016.02,0,.006.014.018.006.008.012.016.007.009.013.016,0,.006.014.019,0,.005.016.021,0,0,.018.024h0l.057.074v0l.017.022,0,0,.016.022,0,0,.017.022,0,0,.018.024h0q1.031,1.356,2,2.76a1,1,0,1,1-1.646,1.137,73.024,73.024,0,0,0-4.759-6.158,1,1,0,0,1,.757-1.653Zm8.952,12.964a1,1,0,0,1,.88.523q.119.219.236.438h0l.014.026h0l.014.027h0l.087.164v0l.013.024,0,0,.013.024,0,0,.013.024v0l.013.025v0l.057.109,0,0,.012.023,0,.006.011.021,0,.006.011.021,0,.007.01.02,0,.007.011.02,0,.006.011.022,0,0,.014.027h0l.029.055v0l.013.025,0,.006.011.021,0,.007.01.019,0,.009.01.019,0,.008.01.019,0,.008.01.019,0,.007.01.02,0,.007.028.054v0l.013.025,0,.006.011.021,0,.008.01.019,0,.007.01.019,0,.008.01.019,0,.007.01.019,0,.008.011.022,0,0,.041.081,0,.007.01.02,0,.008.009.019,0,.009.009.017,0,.01.009.017.005.011.009.017,0,.009.01.019,0,.008.011.022,0,0,.028.054,0,0,.011.023,0,.007.01.02,0,.008.009.019,0,.009.009.018,0,.009.009.018,0,.008.01.02,0,.007.01.02,0,.007.041.081,0,.006.01.02,0,.009.009.018,0,.008.01.019,0,.008.01.02,0,.007.01.02,0,.007.012.025h0l.041.083v0l.012.025,0,0,.011.023,0,.006.011.021,0,.006.01.021,0,.006.011.023,0,0,.012.024v0l.054.111v0l.012.025,0,0,.012.024,0,0,.012.024,0,0,.012.024,0,0,.013.026h0l.1.2h0l.013.028h0q.986,2.039,1.849,4.144a1,1,0,0,1-1.851.759,72.373,72.373,0,0,0-3.335-7.03,1,1,0,0,1,.878-1.477ZM145,53.049a1,1,0,0,1,.96.723q.872,3.026,1.492,6.153h0l.006.028v0l.005.027v0l.005.026v0l.005.027v0l.005.027v0l.024.121v.007l0,.024v.007l0,.022,0,.01,0,.019,0,.012,0,.018,0,.013,0,.017,0,.013,0,.016,0,.015,0,.015,0,.015,0,.013,0,.017,0,.011,0,.019v0l.021.109v0l0,.025v0l0,.025v0l0,.025v0l0,.026v0l0,.026v0c.051.276.1.548.149.826a1,1,0,0,1-1.971.34,72.243,72.243,0,0,0-1.748-7.582A1,1,0,0,1,145,53.049Zm2.707,15.52a1,1,0,0,1,1,.932c.059.9.1,1.8.128,2.711h0c0,.05,0,.1,0,.147v0l0,.114v.038l0,.081v.064h0v.126l0,.075v.747s0,.008,0,.01V73.7c0,.008,0,.015,0,.023v.081c0,.005,0,.009,0,.014v.258c0,.005,0,.007,0,.012s0,.016,0,.024,0,.01,0,.012,0,.021,0,.031,0,0,0,0,0,.023,0,.035,0,.009,0,.011,0,.016,0,.025v.012c0,.009,0,.017,0,.026v.01c0,.012,0,.023,0,.035v.047c0,.008,0,.017,0,.025V74.4c0,.012,0,.024,0,.035h0c0,.01,0,.017,0,.027v.009c0,.005,0,.014,0,.019v.01c0,.005,0,.014,0,.019s0,.006,0,.009,0,.015,0,.025,0,0,0,0,0,.016,0,.026,0,.006,0,.008,0,.014,0,.019,0,.006,0,.009,0,.015,0,.02,0,.006,0,.009,0,.016,0,.024,0,0,0,.007V74.7s0,.006,0,.009,0,.014,0,.019v.01c0,.005,0,.013,0,.018s0,.006,0,.01,0,.016,0,.023,0,0,0,.006,0,.016,0,.026,0,.005,0,.008v.088c0,.01,0,.014,0,.024v.01c0,.005,0,.012,0,.018s0,.007,0,.011,0,.013,0,.018v.009c0,.008,0,.014,0,.022v.033s0,.007,0,.01v.138s0,.007,0,.011v.611q0,.045,0,.09v.029q0,.059,0,.117h0q-.015.719-.045,1.435a1,1,0,0,1-2-.081c.04-.99.061-2,.061-2.989,0-1.6-.053-3.211-.156-4.8a1,1,0,0,1,.933-1.063Zm-.645,15.746a1.01,1.01,0,0,1,.148.011,1,1,0,0,1,.842,1.134l0,.015v.005l0,.024v.006l0,.023v.006l0,.023v.005l0,.025v0l-.021.141h0l0,.023v.007l0,.022V85.8l0,.022v.007l0,.022v.008l0,.021v.008l0,.022v.007l0,.022v.006l0,.023v.005l0,.024v0l-.021.136v.005l0,.022v.008l0,.021V86.2l0,.02,0,.01,0,.02v.009l0,.02v.009l0,.021v.009l0,.021v.009l0,.021v.007l0,.023v0l-.022.138v0l0,.023v.006l0,.022V86.6l0,.02,0,.009,0,.02,0,.009,0,.02,0,.01,0,.021v.008l0,.021v.009l0,.021v.006l0,.023v0l-.023.139h0l0,.025v0l0,.023v.006l0,.022v.008l0,.021v.008l0,.022V87.1l0,.022v.007l0,.022v.008l0,.023v0l-.029.167v0l0,.023v.007l0,.023v.006l0,.023v.006l0,.023v.006l0,.022V87.5l0,.022v.007l0,.023v.006l0,.023v0l0,.025v0l-.02.111h0l0,.025v0l0,.023v.006l0,.023v.006l0,.022v.008l0,.022v.006l0,.023V87.9l0,.024v0l0,.025v0l0,.026h0l-.031.17v0l0,.026v0l0,.025v0l0,.024v.006l0,.023v.005l0,.023V88.3l0,.024v0l-.005.027h0l-.043.226v0l0,.025v0l0,.025v0l-.005.026h0l-.005.028h0c-.018.095-.037.189-.056.284h0l-.005.027h0l-.006.028h0Q147,91.193,146.45,93.3a1,1,0,0,1-1.934-.51,72.332,72.332,0,0,0,1.557-7.624A1,1,0,0,1,147.061,84.315ZM143.08,99.556a1,1,0,0,1,.936,1.353q-.439,1.152-.914,2.285h0l-.087.206,0,0-.01.023,0,0-.01.023v0l-.01.024h0l-.011.025h0l-.066.155v0l-.01.024v0l-.01.024v0l-.01.023v0l-.01.023v0l-.01.024h0l-.055.128h0l-.01.023,0,0-.009.021,0,.006-.009.021,0,.006-.009.021,0,.006-.009.021,0,0-.01.023h0l-.045.1h0l-.01.022,0,.005-.009.02,0,.008-.008.019,0,.008-.008.019,0,.008-.008.019,0,.008-.008.019,0,.006-.009.021h0l-.044.1,0,.005-.009.02,0,.007-.009.02,0,.007-.008.019,0,.008-.009.019,0,.006-.009.02,0,.006-.009.021v0l-.044.1v0l-.009.019,0,.008-.008.018,0,.009-.008.018,0,.009-.008.018,0,.008-.008.018,0,.01-.007.017,0,.009-.008.018,0,.008-.029.064,0,.007-.007.016-.005.011-.007.015-.005.012-.007.014-.006.013-.007.015-.005.011-.007.015-.006.012-.007.015-.006.013-.006.014-.006.014-.006.014-.007.015-.008.018-.009.021-.006.012-.007.015-.006.013-.006.014-.006.014-.006.014-.006.013-.006.014-.006.013-.007.015-.006.013-.006.014-.006.013-.007.016-.005.011-.008.018,0,.009-.012.027,0,.007-.009.019-.006.012-.007.015-.006.012-.007.015-.006.012-.007.015-.006.012-.007.015-.006.012-.007.016,0,.01-.008.018,0,.01-.009.02,0,.007-.011.023,0,.005-.013.028v0l-.011.025,0,.008-.009.02,0,.008-.009.019,0,.008-.009.02,0,.007-.009.02,0,.007-.009.02,0,.007-.01.021,0,.006-.013.027h0l-.026.056v0l-.012.026,0,0-.011.023,0,.006-.01.021,0,.007-.01.021,0,.006-.01.021,0,.007-.011.023,0,0-.066.139,0,0-.012.024,0,0-.011.023,0,0-.011.024v0l-.012.026h0q-.417.872-.855,1.731a1,1,0,1,1-1.781-.909,72.312,72.312,0,0,0,3.158-7.111A1,1,0,0,1,143.08,99.556Zm-7.16,14.033a1,1,0,0,1,.836,1.548q-1.637,2.5-3.466,4.86h0l-.019.024h0l-.133.171,0,0-.017.022,0,0-.016.021,0,0-.017.021,0,0-.076.1,0,0-.017.021,0,0-.014.018-.006.008-.013.016-.006.007-.013.016-.006.008-.013.016-.006.008-.013.016-.006.007-.016.02-.006.008-.015.019-.007.009-.011.014-.009.011-.009.012-.01.013-.008.01-.01.013-.008.011-.01.013-.008.009-.011.014-.007.009-.012.015,0,0-.067.084h0l-.015.019,0,0-.015.019,0,0-.015.019,0,0c-.193.242-.385.479-.582.719a1,1,0,0,1-1.545-1.27,72.969,72.969,0,0,0,4.6-6.274A1,1,0,0,1,135.92,113.589Zm-9.989,12.186a1,1,0,0,1,.7,1.71q-.731.719-1.48,1.417h0l-.019.018,0,0-.019.017h0l-.1.094h0l-.018.017,0,0-.016.015-.006.006-.015.014-.005.005-.016.014-.006.005-.016.015,0,0-.058.053,0,0-.016.015-.006.005-.014.013-.008.008-.013.012-.009.008-.013.012-.009.009-.013.012-.009.008-.012.011-.011.01-.011.01-.012.011-.01.009-.021.019-.009.008-.013.012-.01.009-.012.011-.01.009-.012.011-.01.009-.012.011-.009.008-.013.012-.009.008-.015.013-.007.006-.018.016,0,0-.045.04-.006.005-.016.015-.007.006-.015.014-.007.006-.016.015-.006.006-.016.015-.006.006-.018.016,0,0-.068.062h0l-.022.02,0,0-.02.018,0,0-.019.017,0,0-.019.017,0,0-.021.018h0l-.115.1h0l-.021.019,0,0-.021.019,0,0-.022.02h0q-1.62,1.446-3.324,2.8a1,1,0,1,1-1.243-1.567,73.146,73.146,0,0,0,5.831-5.155A1,1,0,0,1,125.931,125.775Zm-12.347,9.789a1,1,0,0,1,.535,1.846,74.3,74.3,0,0,1-6.981,3.9,1,1,0,1,1-.88-1.8,72.583,72.583,0,0,0,6.793-3.795A1,1,0,0,1,113.584,135.564Zm-14.146,6.93a1,1,0,0,1,.343,1.94,73.786,73.786,0,0,1-7.661,2.314,1,1,0,0,1-.47-1.944,72.142,72.142,0,0,0,7.447-2.249A1,1,0,0,1,99.438,142.495Zm-15.3,3.733a1,1,0,0,1,.134,1.991,74.945,74.945,0,0,1-7.981.622,1,1,0,0,1-.046-2,73.278,73.278,0,0,0,7.76-.6A1.009,1.009,0,0,1,84.135,146.227Zm-23.574-.673a1.007,1.007,0,0,1,.189.018,72.73,72.73,0,0,0,7.71,1.047,1,1,0,1,1-.163,1.993q-.629-.051-1.255-.113h0l-.031,0h0l-.438-.045h0l-.03,0h0l-.03,0h0l-.343-.037h0l-.03,0h0l-.03,0h0l-.029,0h0l-.029,0h0l-.03,0h0l-.311-.036h0l-.031,0h0l-.03,0h0l-.03,0h0l-.03,0h0l-.4-.049h0q-2.423-.3-4.8-.755a1,1,0,0,1,.187-1.982ZM45.5,140.943a1,1,0,0,1,.394.081,72.177,72.177,0,0,0,7.3,2.677,1,1,0,0,1-.585,1.912h0l-.026-.008h0l-.028-.009h0q-2.553-.784-5.026-1.744h0l-.027-.011h0l-.027-.01h0l-.026-.01h0l-.027-.01h0l-.144-.056h0l-.025-.01,0,0-.023-.009-.006,0-.021-.008-.007,0-.022-.009-.006,0-.023-.009-.005,0-.026-.01h0L47,143.647l-.006,0-.021-.008-.01,0-.017-.007-.011,0-.017-.007-.011,0-.017-.007-.012,0-.017-.007-.011,0-.017-.007-.011,0-.018-.007-.01,0-.019-.007-.009,0-.027-.011-.008,0-.02-.008-.012,0-.015-.006-.013-.005-.014-.006-.014-.006-.013-.005-.015-.006-.013-.005-.015-.006-.012,0-.015-.006-.012,0-.016-.007-.01,0-.017-.007-.009,0-.091-.037-.008,0-.019-.008-.007,0-.019-.008-.009,0-.018-.007-.009,0-.018-.007-.009,0-.019-.008-.007,0-.021-.008-.005,0-.022-.009h0l-.128-.053h0l-.025-.01h0l-.025-.01h0l-.024-.01h0l-.024-.01h0c-.295-.122-.586-.245-.878-.37a1,1,0,0,1,.4-1.918Zm-13.725-7.734a1,1,0,0,1,.581.187,72.782,72.782,0,0,0,6.564,4.179,1,1,0,1,1-.982,1.742q-2.4-1.354-4.69-2.877h0q-1.04-.692-2.054-1.417a1,1,0,0,1,.582-1.814ZM20.007,122.729a1,1,0,0,1,.741.328,73.177,73.177,0,0,0,5.527,5.479,1,1,0,0,1-1.33,1.494l-.018-.016,0,0L24.91,130l-.008-.007-.013-.012-.009-.008-.013-.011-.009-.008-.013-.012-.008-.007-.014-.012-.008-.007L24.8,129.9l-.008-.007-.014-.013,0,0-.053-.047-.008-.007-.014-.012-.008-.007-.014-.013-.007-.006-.015-.013-.007-.006-.014-.013-.007-.006-.015-.014,0,0-.017-.016h0l-.079-.072,0,0-.016-.014-.006-.005-.015-.014-.007-.006-.015-.014-.006-.005-.016-.014-.005,0-.016-.015,0,0-.078-.071,0,0-.017-.015,0,0-.017-.015,0,0-.016-.015-.005,0-.017-.015,0,0-.017-.016,0,0-.1-.092h0l-.018-.016,0,0-.017-.015,0,0-.017-.015,0,0-.017-.016h0l-.1-.093h0l-.019-.018,0,0-.017-.016,0,0-.018-.016,0,0-.019-.017h0l-.119-.111,0,0-.017-.016,0,0-.017-.016,0,0-.018-.017,0,0-.141-.132h0l-.02-.019h0l-.02-.018h0l-.141-.133h0l-.018-.017,0,0-.018-.017,0,0-.018-.017h0l-.118-.112,0,0-.017-.016,0,0-.017-.016,0,0-.017-.016,0,0-.017-.016,0,0L23,128.234h0l-.017-.016,0,0-.016-.016,0,0-.016-.016,0,0-.016-.015-.005-.005-.016-.015,0,0-.017-.016h0l-.077-.074,0,0-.016-.016,0,0L22.759,128,22.753,128l-.016-.015,0,0-.016-.016,0,0-.017-.016,0,0-.075-.073,0,0-.015-.014-.007-.007-.014-.014-.006-.006-.015-.014-.007-.006-.014-.013-.007-.007-.014-.013-.007-.007-.014-.014,0,0-.05-.049-.008-.008-.012-.012-.009-.008-.013-.012-.008-.008-.013-.013-.008-.008-.012-.012-.009-.009-.012-.011-.009-.009-.012-.011-.01-.009-.011-.011-.02-.02-.008-.008-.013-.012-.01-.01-.011-.01-.011-.011-.01-.01-.011-.011-.011-.011-.01-.01-.011-.011-.01-.01-.012-.012-.009-.009-.013-.013-.008-.008-.017-.017-.007-.006-.019-.018-.008-.008-.013-.013-.009-.009-.012-.012-.01-.01-.012-.012L22,127.265l-.013-.013-.008-.008-.014-.014-.007-.007-.015-.015-.006-.006-.043-.043,0,0-.02-.02,0,0-.017-.017-.006-.006-.016-.016,0,0-.017-.017,0,0-.018-.018,0,0-.019-.019,0,0-.066-.066h0l-.021-.021,0,0-.019-.019,0,0-.019-.019,0,0-.019-.019,0,0-.02-.02,0,0-.131-.133h0l-.022-.022h0q-1.108-1.124-2.168-2.293a1,1,0,0,1,.741-1.672Zm-9.274-12.738a1,1,0,0,1,.868.5,72.806,72.806,0,0,0,4.237,6.527,1,1,0,0,1-1.617,1.177q-.514-.706-1.012-1.424h0l-.124-.179h0l-.017-.024,0,0-.016-.023v0l-.017-.024h0l-.1-.153,0,0-.016-.023,0,0-.016-.023,0,0-.016-.024h0l-.087-.128,0,0-.016-.024h0l-.016-.024v0l-.017-.024h0l-.087-.129h0l-.017-.025v0l-.015-.023,0,0-.015-.022,0,0-.015-.023,0,0-.069-.1h0l-.017-.025h0l-.016-.023,0,0-.015-.022,0,0-.014-.022,0,0-.015-.023v0l-.069-.1h0l-.017-.025,0,0-.015-.023,0,0-.014-.022,0,0-.014-.022,0,0-.015-.023,0,0-.068-.1h0l-.016-.024,0,0-.014-.022,0,0-.014-.021,0,0-.014-.021,0,0-.016-.024h0l-.068-.1,0,0-.015-.023,0,0-.013-.02,0-.005-.013-.02,0-.006-.014-.021,0,0-.015-.023,0,0-.051-.078h0l-.016-.024,0,0-.013-.021,0-.005-.013-.021,0-.005-.014-.021,0,0-.014-.022,0,0-.016-.025h0l-.05-.078v0l-.015-.024,0,0-.014-.023,0,0-.014-.022,0,0-.014-.022,0,0-.015-.024h0l-.067-.1,0,0-.014-.022,0-.005-.013-.021,0-.005-.013-.02,0-.006-.014-.021,0,0-.066-.1v0l-.015-.024,0,0-.013-.021,0-.006-.012-.019,0-.007-.012-.019,0-.007-.012-.02,0-.006-.015-.023v0l-.049-.078,0,0-.013-.021,0-.006-.012-.019,0-.008-.011-.018,0-.007-.012-.02,0-.006-.013-.021,0,0-.014-.023,0,0-.032-.052,0,0-.013-.021-.005-.008-.011-.017-.006-.009-.01-.017-.005-.008-.011-.017-.005-.008-.011-.018,0-.007-.011-.019,0-.007-.014-.023v0l-.016-.026,0,0-.014-.023,0-.007-.011-.018-.006-.009-.01-.017L11,113.394l-.01-.016-.006-.01-.009-.015-.006-.01-.009-.015-.006-.011-.01-.016-.006-.01-.011-.019,0-.007-.015-.025-.006-.01-.01-.016-.007-.012-.008-.013-.008-.012-.008-.013-.008-.013-.008-.012-.008-.013-.008-.013-.008-.013-.007-.012-.008-.013-.009-.014-.007-.011-.015-.024,0-.007L10.761,113l-.008-.014-.007-.012-.008-.013-.007-.012-.008-.013-.007-.012-.008-.013L10.7,112.9l-.009-.014-.007-.011-.009-.014-.007-.011-.009-.014-.005-.009-.038-.064h0l-.011-.018,0-.007-.011-.018,0-.007-.011-.018,0-.007-.011-.018,0-.007-.011-.018,0-.007-.011-.019v0l-.085-.142h0l-.013-.022,0,0-.013-.022h0c-.185-.312-.367-.622-.548-.937a1,1,0,0,1,.868-1.5ZM4.4,95.57a1,1,0,0,1,.953.7,72.176,72.176,0,0,0,2.741,7.281,1,1,0,0,1-1.829.809Q5,101.5,3.984,98.52h0l-.009-.025v0l-.008-.024v0l-.008-.023v0l-.008-.023,0-.005-.008-.023v0l-.042-.125,0-.008-.006-.017,0-.012L3.877,98.2l0-.013,0-.015,0-.014,0-.013-.005-.015,0-.013L3.843,98.1l0-.012-.006-.018,0-.011-.008-.023,0,0-.02-.059v0l-.009-.026,0-.006-.008-.023,0-.005-.008-.024,0-.005-.008-.024,0-.005-.008-.024,0-.005L3.742,97.8v0q-.152-.462-.3-.926a1,1,0,0,1,.954-1.3ZM1.3,80.123a1,1,0,0,1,.995.91,72.663,72.663,0,0,0,1.115,7.7,1,1,0,0,1-1.96.4c-.079-.393-.154-.784-.226-1.179h0l-.005-.027h0l0-.027v0l0-.025v0l0-.024v-.007l0-.023V87.8l0-.024v-.005l0-.024v-.006l0-.024v0l-.013-.074,0-.01,0-.013,0-.017,0-.013,0-.017,0-.013,0-.017,0-.012,0-.018,0-.011,0-.02,0-.01,0-.02,0-.01,0-.02,0-.01,0-.021v-.008l0-.023v-.007l0-.024v-.005l0-.027v0l-.042-.245h0Q.649,84.613.393,82.124v0l0-.028v0l0-.026v-.006l0-.025v-.007L.38,82v-.009l0-.021v-.01l0-.02v-.01l0-.02V81.9l0-.019v-.012l0-.018v-.013l0-.018v-.013l0-.016L.35,81.7v-.007l0-.023v-.006l0-.024v-.006l0-.024V81.6l0-.023v-.007l0-.023V81.54l0-.024v0l0-.026v0l0-.028h0Q.316,81.333.3,81.211a1,1,0,0,1,.906-1.084Q1.257,80.123,1.3,80.123Zm.251-15.757a1.011,1.011,0,0,1,.123.008,1,1,0,0,1,.87,1.115,73.378,73.378,0,0,0-.537,7.764,1,1,0,1,1-2-.032q.038-2.4.227-4.764h0l0-.031h0l0-.03h0l0-.031h0l0-.031h0q.02-.249.042-.5h0q.114-1.3.273-2.591A1,1,0,0,1,1.553,64.366Zm3.6-15.337a1,1,0,0,1,.943,1.332,72.148,72.148,0,0,0-2.183,7.467,1,1,0,0,1-1.948-.452q.222-.945.467-1.879h0L2.5,55.22v0l.006-.024v0l.006-.022,0-.008.006-.021,0-.007.006-.021,0-.008.006-.021,0-.007.006-.021,0-.006.027-.1,0-.006.005-.02,0-.009,0-.018,0-.011,0-.017,0-.011,0-.017,0-.012,0-.017,0-.012,0-.016,0-.013,0-.016,0-.014,0-.014,0-.015,0-.015,0-.015,0-.014.008-.028,0-.011.005-.019,0-.012,0-.017,0-.013,0-.016,0-.013,0-.016,0-.013,0-.017,0-.013,0-.015,0-.014,0-.015,0-.013,0-.016,0-.013,0-.018,0-.011.005-.019,0-.01.008-.029v0l.007-.025,0-.008.006-.021,0-.011,0-.017,0-.013,0-.016,0-.012,0-.017,0-.012.005-.018,0-.011.005-.019,0-.01.006-.021,0-.007.007-.023,0-.006L2.838,54h0l.009-.03h0l.008-.029v-.005l.007-.023,0-.01.005-.019,0-.011.005-.018,0-.012.005-.018,0-.011,0-.017,0-.013,0-.017,0-.012,0-.016,0-.012.005-.018,0-.01.006-.022,0-.007.017-.058,0-.007.006-.022,0-.01.005-.019,0-.012,0-.016,0-.012,0-.016,0-.013,0-.016,0-.012,0-.017,0-.012.005-.018,0-.011.005-.019,0-.011.007-.022,0-.006.017-.059,0-.007.006-.022,0-.011.005-.018,0-.011.005-.018,0-.011.005-.018,0-.011,0-.017,0-.013.005-.017,0-.012,0-.017,0-.013,0-.016,0-.013,0-.014,0-.015,0-.015.006-.021.006-.021,0-.011.005-.018,0-.013,0-.015,0-.015,0-.014,0-.014,0-.015,0-.014,0-.015,0-.014,0-.014,0-.015,0-.014,0-.014,0-.015,0-.014,0-.013,0-.016,0-.01.012-.039,0-.006.005-.018,0-.01.005-.018,0-.011.005-.018,0-.011.005-.017,0-.011.005-.017,0-.011.005-.018,0-.01.006-.018,0-.01.006-.018,0-.011.006-.018,0-.009.006-.02v0l.023-.075,0-.005.007-.021,0-.007.006-.02,0-.008.006-.019,0-.009.006-.02,0-.008.006-.02,0-.009.006-.02,0-.008.006-.02,0-.007.007-.022h0l.042-.133v0l.007-.023,0,0,.007-.022,0-.007.007-.022v0l.007-.023v0l.008-.024v0l.008-.025h0l.069-.216h0l.008-.026h0l.008-.026v0q.29-.9.6-1.785A1,1,0,0,1,5.152,49.029Zm6.807-14.208a1,1,0,0,1,.849,1.527,72.559,72.559,0,0,0-3.735,6.826,1,1,0,1,1-1.8-.864q.433-.9.89-1.8v0l.013-.025v0l.013-.025v0l.013-.025v0l.013-.026v0l.057-.11,0,0,.012-.023,0,0,.012-.022,0-.006.011-.021,0-.006.011-.021,0-.006.012-.024v0l.043-.082v0l.013-.025,0,0,.012-.022,0-.006.011-.021,0-.007.01-.02,0-.007.011-.02,0-.007.011-.021,0-.006.012-.023,0,0,.029-.055h0l.013-.025,0-.006.011-.021,0-.006.011-.02,0-.008.01-.018,0-.009.01-.018,0-.009.01-.019,0-.008.01-.019,0-.007.028-.053,0,0,.012-.022,0-.008.01-.018.005-.01.009-.017.005-.01.009-.017.005-.01.009-.017.005-.01.009-.017.005-.009.01-.019,0-.007.028-.053,0-.006L8.8,39.3l0-.009.01-.018,0-.009.009-.017.006-.01.008-.016.006-.011.008-.015.006-.012.008-.015.005-.01.01-.018,0-.008L8.9,39.1h0l.014-.026,0-.008.01-.019,0-.008.01-.018.005-.01L8.96,39l.005-.01.009-.017.005-.01.01-.018,0-.009L9,38.916l0-.009.011-.02,0-.007.029-.053,0-.006.011-.02,0-.009.009-.017.005-.01.009-.017.006-.011.008-.015.006-.011.009-.016.005-.01.01-.018,0-.008.01-.019,0-.007.029-.053,0,0,.012-.022,0-.007.01-.019.005-.009.01-.017,0-.009.01-.017,0-.009.01-.018,0-.008.01-.019,0-.007.012-.022,0,0,.03-.053,0,0,.012-.022,0-.007.011-.019,0-.008.011-.019,0-.008.011-.019,0-.007L9.4,38.2l0-.007.012-.022,0,0,.014-.026h0l.03-.054h0l.015-.026,0,0,.013-.023,0-.005L9.5,38.01l0-.006.012-.021,0-.006.012-.022,0,0,.013-.023,0,0,.015-.026h0l.046-.081h0l.014-.025,0,0,.014-.024,0,0,.014-.024,0,0,.014-.024v0l.092-.162h0l.015-.026h0l.015-.026h0q.636-1.11,1.309-2.2A1,1,0,0,1,11.959,34.821Zm9.681-12.431a1,1,0,0,1,.719,1.7,73.131,73.131,0,0,0-5.1,5.876,1,1,0,1,1-1.578-1.229A74.848,74.848,0,0,1,20.92,22.7,1,1,0,0,1,21.639,22.391ZM33.737,12.3a1,1,0,0,1,.556,1.832,72.993,72.993,0,0,0-6.234,4.659,1,1,0,1,1-1.281-1.536q1.318-1.1,2.687-2.139h0l.124-.094h0L29.613,15l0,0,.019-.015.006,0,.018-.014.007,0,.018-.013.007,0,.017-.013.007-.005.019-.014,0,0,.024-.018h0l.022-.016.009-.007.014-.011.011-.008.012-.009.012-.009.011-.008.013-.01.011-.008.013-.01.011-.008.014-.01.008-.006.015-.011,0,0,.083-.061,0,0,.018-.014,0,0,.018-.013.006,0,.018-.013,0,0,.02-.015h0q1.5-1.116,3.064-2.156A1,1,0,0,1,33.737,12.3Zm13.97-7.283a1,1,0,0,1,.364,1.932,72.331,72.331,0,0,0-7.082,3.22,1,1,0,1,1-.925-1.773q1.021-.532,2.061-1.034h0l.168-.081h0l.025-.012,0,0,.022-.01.007,0,.02-.01.008,0,.018-.009.009,0,.018-.009.009,0,.018-.009.009,0,.019-.009.008,0,.024-.012.009,0,.02-.009.011-.005.016-.008.012-.006.015-.007.013-.006.013-.006.015-.007.011-.005.015-.007.012-.006.015-.007.01,0,.017-.008.007,0,.02-.009h0l.074-.035h0l.021-.01.005,0L42.871,7l.008,0,.018-.009.008,0,.019-.009.008,0,.019-.009.007,0,.02-.009.006,0L43,6.941h0l.126-.059h0l.023-.011h0l.022-.01,0,0,.023-.011h0l.024-.011h0l.2-.094h0l.025-.011h0l.025-.012h0l.2-.093h0l.025-.011h0l.025-.011h0l.2-.092h0l.025-.011h0l.024-.011h0l.2-.091h0l.024-.011h0l.023-.01,0,0,.023-.01h0l.024-.011h0l.151-.067,0,0,.021-.009.006,0,.02-.009.008,0,.019-.009.007,0,.02-.009.007,0,.019-.009.007,0,.019-.008.006,0,.071-.031h0l.018-.008.01,0,.016-.007.011,0,.015-.007.012-.005.015-.006.013-.006.013-.006.014-.006.013-.006.015-.006.012-.005.015-.007.012-.005.024-.01h0l.027-.012.009,0,.019-.008.01,0,.018-.008.01,0,.018-.008.009,0,.019-.008.009,0L45.106,6l.007,0,.021-.009.007,0,.024-.01h0l.115-.049h0l.028-.012h0L45.34,5.9h0l.027-.012h0q.979-.416,1.973-.8A1,1,0,0,1,47.707,5.014ZM62.914.9a1,1,0,0,1,.154,1.988A72.3,72.3,0,0,0,55.46,4.509a1,1,0,0,1-.526-1.93c.557-.151,1.114-.295,1.676-.433h0l.024-.006h0l.023-.006.007,0,.022-.005.007,0,.02,0,.009,0,.02,0,.008,0,.021-.005.007,0,.023-.005h0l.1-.025.007,0,.018,0,.012,0,.016,0,.013,0,.016,0,.014,0,.015,0,.014,0,.015,0,.015,0,.014,0,.016,0,.013,0,.017,0,.011,0,.02,0,.009,0,.023-.006H57.2L57.226,2h0l.06-.014h0l.028-.006h.006l.023-.005.008,0,.022-.005.007,0,.023-.005.007,0,.024-.006h.006l.024-.006h.006l.025-.006h0l.027-.006h0l.3-.07h0Q60.267,1.3,62.757.91A1.008,1.008,0,0,1,62.914.9ZM74.431,0h1.2c.05,0,.1,0,.148,0h.392l.417.011h0q2.945.084,5.828.393a1,1,0,0,1-.215,1.988A73.585,73.585,0,0,0,74.431,2h0c-1.2,0-2.422.03-3.621.089a1,1,0,0,1-.1-2C71.673.044,72.646.015,73.619,0h.812Z" transform="translate(0)" fill="#12263f"/></g><circle cx="67" cy="67" r="67" transform="translate(666.617 898.697)" fill="#f6f7f8"/><g transform="translate(746.909 903.737) rotate(180)"><g transform="translate(0 0)"><path d="M14.183-.707l8.393,8.329L16.4,13.841l6.4,6.353-8.71,8.777L-.707,14.29,7.649,5.87Zm6.978,8.334L14.188.707,8.307,6.627l-7.6,7.658L14.084,27.557l7.3-7.357-6.4-6.354Z" transform="translate(57.468 0.14)" fill="#119798"/><path d="M14.183-.707l8.393,8.329L16.4,13.841l6.4,6.353-8.71,8.777L-.707,14.29,7.649,5.87Zm6.978,8.334L14.188.707,8.307,6.627l-7.6,7.658L14.084,27.557l7.3-7.357-6.4-6.354Z" transform="translate(28.734 0.14)" fill="#119798"/><path d="M14.183-.707l8.393,8.329L16.4,13.841l6.4,6.353-8.71,8.777L-.707,14.29,7.649,5.87Zm6.978,8.334L14.188.707,8.307,6.627l-7.6,7.658L14.084,27.557l7.3-7.357-6.4-6.354Z" transform="translate(0 0.14)" fill="#119798"/><path d="M14.183-.707l8.391,8.329L16.4,13.84l6.4,6.353-8.71,8.779L-.707,14.292,7.647,5.871ZM21.16,7.627,14.188.707,8.306,6.627l-7.6,7.659L14.083,27.558l7.3-7.359-6.4-6.354Z" transform="translate(86.2)" fill="#119798"/></g></g></g></g></g><g transform="translate(53.332 26.877)"><g transform="translate(298.668 2437)"><g transform="translate(0 2.517)"><g transform="translate(39.703 61.727)"><g transform="translate(2.234 0.679)"><path d="M37.779,50.48l-1.584,8.2H32.518l-1.6-8.2Z" transform="translate(-30.92 -50.48)" fill="#252b2b"/></g><g transform="translate(1.542)"><path d="M36.4,59.574H32.721a.7.7,0,0,1-.679-.552l-1.6-8.2a.681.681,0,0,1,.141-.566A.693.693,0,0,1,31.109,50h6.859a.649.649,0,0,1,.523.255.681.681,0,0,1,.141.566l-1.6,8.2A.631.631,0,0,1,36.4,59.574ZM33.286,58.2h2.545l1.329-6.83h-5.19Z" transform="translate(-30.43 -50)"/></g><g transform="translate(0.693 5.36)"><path d="M39.955,58.853a5.063,5.063,0,1,1-5.063-5.063,5.057,5.057,0,0,1,5.063,5.063Z" transform="translate(-29.83 -53.79)" fill="#323535"/></g><g transform="translate(1.131 5.798)"><path d="M39.827,58.71a5.064,5.064,0,0,1-9.687,2.065A5.058,5.058,0,0,0,36.829,54.1a5.032,5.032,0,0,1,3,4.61Z" transform="translate(-30.14 -54.1)" fill="#252b2b"/></g><g transform="translate(3.832 8.485)"><path d="M35.9,57.937A1.923,1.923,0,1,1,33.973,56,1.925,1.925,0,0,1,35.9,57.937Z" transform="translate(-32.05 -56)" fill="#fff"/></g><g transform="translate(3.139 7.792)"><path d="M34.176,60.742a2.616,2.616,0,1,1,2.616-2.616A2.619,2.619,0,0,1,34.176,60.742Zm0-3.846a1.244,1.244,0,1,0,1.244,1.244A1.246,1.246,0,0,0,34.176,56.9Z" transform="translate(-31.56 -55.51)"/></g><g transform="translate(0 4.667)"><path d="M35.1,64.8a5.748,5.748,0,1,1,5.756-5.756A5.761,5.761,0,0,1,35.1,64.8Zm0-10.125a4.377,4.377,0,1,0,4.384,4.37A4.385,4.385,0,0,0,35.1,54.672Z" transform="translate(-29.34 -53.3)"/></g></g><g transform="translate(8.96 61.727)"><g transform="translate(2.234 0.679)"><path d="M16.039,50.48l-1.6,8.2H10.764L9.18,50.48Z" transform="translate(-9.18 -50.48)" fill="#252b2b"/></g><g transform="translate(1.527)"><path d="M14.648,59.574H10.971a.7.7,0,0,1-.679-.552l-1.6-8.2a.681.681,0,0,1,.141-.566A.729.729,0,0,1,9.387,50h6.859a.649.649,0,0,1,.523.255.681.681,0,0,1,.141.566l-1.6,8.2A.671.671,0,0,1,14.648,59.574ZM11.536,58.2h2.545l1.329-6.83h-5.19Z" transform="translate(-8.68 -50)"/></g><g transform="translate(0.693 5.36)"><path d="M18.215,58.853a5.063,5.063,0,1,1-5.063-5.063A5.057,5.057,0,0,1,18.215,58.853Z" transform="translate(-8.09 -53.79)" fill="#323535"/></g><g transform="translate(1.131 5.798)"><path d="M18.087,58.71A5.064,5.064,0,0,1,8.4,60.775,5.058,5.058,0,0,0,15.089,54.1,5.055,5.055,0,0,1,18.087,58.71Z" transform="translate(-8.4 -54.1)" fill="#252b2b"/></g><g transform="translate(3.832 8.485)"><path d="M14.156,57.937A1.923,1.923,0,1,1,12.233,56,1.925,1.925,0,0,1,14.156,57.937Z" transform="translate(-10.31 -56)" fill="#fff"/></g><g transform="translate(3.139 7.792)"><path d="M12.436,60.742a2.616,2.616,0,1,1,2.616-2.616A2.619,2.619,0,0,1,12.436,60.742Zm0-3.846a1.244,1.244,0,1,0,1.244,1.244A1.246,1.246,0,0,0,12.436,56.9Z" transform="translate(-9.82 -55.51)"/></g><g transform="translate(0 4.667)"><path d="M13.356,64.8a5.748,5.748,0,1,1,5.756-5.756A5.761,5.761,0,0,1,13.356,64.8Zm0-10.125a4.377,4.377,0,1,0,4.384,4.37A4.385,4.385,0,0,0,13.356,54.672Z" transform="translate(-7.6 -53.3)"/></g></g><g transform="translate(27.362 17.139)"><path d="M22.985,49.637a1.454,1.454,0,0,1-.24-.014,2.352,2.352,0,0,1-2.121-2.574l2.616-26.444a2.352,2.352,0,0,1,2.347-2.135,1.372,1.372,0,0,1,.24.014,2.365,2.365,0,0,1,2.121,2.588L25.332,47.5A2.362,2.362,0,0,1,22.985,49.637Z" transform="translate(-20.613 -18.47)" fill="#b6c4d3"/></g><g transform="translate(38.939 15.513)"><path d="M31.162,50.609a2.986,2.986,0,0,1-.368-.028,2.37,2.37,0,0,1-1.966-2.7l4.554-28.565a2.345,2.345,0,0,1,2.333-1.994,3.218,3.218,0,0,1,.368.028,2.37,2.37,0,0,1,1.966,2.7L33.5,48.615A2.345,2.345,0,0,1,31.162,50.609Z" transform="translate(-28.799 -17.32)" fill="#b6c4d3"/></g><g transform="translate(14.32 19.02)"><path d="M13.752,48.507a2.366,2.366,0,0,1-2.362-2.362V22.162a2.362,2.362,0,1,1,4.723,0V46.145A2.357,2.357,0,0,1,13.752,48.507Z" transform="translate(-11.39 -19.8)" fill="#b6c4d3"/></g><g transform="translate(26.681 16.445)"><path d="M23.184,50.52a2.4,2.4,0,0,1-.311-.014,3,3,0,0,1-2.05-1.1,3.122,3.122,0,0,1-.679-2.234L22.76,20.724a3.049,3.049,0,1,1,6.067.608L26.21,47.776a3.028,3.028,0,0,1-3.026,2.743ZM25.8,19.366a1.674,1.674,0,0,0-1.669,1.513L21.515,47.324a1.7,1.7,0,0,0,.368,1.23,1.679,1.679,0,0,0,2.97-.891l2.616-26.444a1.69,1.69,0,0,0-1.5-1.838A.811.811,0,0,0,25.8,19.366Z" transform="translate(-20.131 -17.979)"/></g><g transform="translate(38.25 14.824)"><path d="M31.364,51.489a2.762,2.762,0,0,1-.481-.042,3.067,3.067,0,0,1-1.994-1.216,3.019,3.019,0,0,1-.537-2.263L32.9,19.4a3.042,3.042,0,1,1,6.01.947L34.362,48.916a3,3,0,0,1-3,2.574Zm4.554-33.274a1.672,1.672,0,0,0-1.655,1.414L29.709,48.18a1.625,1.625,0,0,0,.3,1.244,1.726,1.726,0,0,0,1.089.679,1.689,1.689,0,0,0,1.923-1.386l4.553-28.565a1.625,1.625,0,0,0-.3-1.244,1.576,1.576,0,0,0-1.358-.693Z" transform="translate(-28.312 -16.833)"/></g><g transform="translate(13.641 18.341)"><path d="M13.95,49.4a3.045,3.045,0,0,1-3.04-3.04v-24a3.04,3.04,0,1,1,6.081,0V46.344A3.048,3.048,0,0,1,13.95,49.4Zm0-28.721a1.687,1.687,0,0,0-1.683,1.683V46.344a1.683,1.683,0,0,0,3.366,0V22.36a1.705,1.705,0,0,0-1.683-1.683Z" transform="translate(-10.91 -19.32)"/></g><g transform="translate(2.087 30.093)"><path d="M5.1,32.353a2.362,2.362,0,1,1,0-4.723H57.226a2.362,2.362,0,0,1,0,4.723Z" transform="translate(-2.74 -27.63)" fill="#b6c4d3"/></g><g transform="translate(1.409 29.414)"><path d="M57.425,33.231H5.3a3.04,3.04,0,1,1,0-6.081H57.425a3.04,3.04,0,1,1,0,6.081ZM5.3,28.508a1.676,1.676,0,1,0,0,3.351H57.425a1.687,1.687,0,0,0,1.683-1.683,1.666,1.666,0,0,0-1.683-1.669Z" transform="translate(-2.26 -27.15)"/></g><g transform="translate(0 2.418)"><g transform="translate(0.68 11.539)"><path d="M55.814,51.644,6.843,49.537a2.36,2.36,0,0,1-2.234-2.05l-2.842-21.9a2.336,2.336,0,0,1,2.05-2.644l55.844-6.7a1.9,1.9,0,0,1,.283-.014A2.367,2.367,0,0,1,62.291,18.3a2.36,2.36,0,0,1-2.05,2.63L6.758,27.335,9.035,44.9,56,46.921a2.363,2.363,0,0,1-.1,4.723Z" transform="translate(-1.745 -16.22)" fill="#b6c4d3"/></g><g transform="translate(0 10.846)"><path d="M56.1,52.54h-.113L7.014,50.419a3.03,3.03,0,0,1-2.885-2.644L1.287,25.883a3.066,3.066,0,0,1,2.659-3.422l55.844-6.7a2.986,2.986,0,0,1,.368-.028,3.051,3.051,0,0,1,.368,6.081l-52.8,6.335,2.121,16.3,46.383,1.994a3.045,3.045,0,0,1,2.9,3.182A3.017,3.017,0,0,1,56.1,52.54Zm-.071-1.386h.085a1.655,1.655,0,0,0,1.655-1.6,1.687,1.687,0,0,0-.438-1.2,1.657,1.657,0,0,0-1.16-.537L9.206,45.794a.682.682,0,0,1-.65-.594L6.264,27.637a.658.658,0,0,1,.141-.509.674.674,0,0,1,.453-.255l53.468-6.42a1.715,1.715,0,0,0,1.117-.622,1.618,1.618,0,0,0,.339-1.23,1.712,1.712,0,0,0-1.867-1.471L4.1,23.819a1.675,1.675,0,0,0-1.117.636A1.713,1.713,0,0,0,2.644,25.7L5.487,47.59A1.665,1.665,0,0,0,7.07,49.047Z" transform="translate(-1.264 -15.73)"/></g><g transform="translate(3.12)"><path d="M5.832,68.047a2.362,2.362,0,1,1,0-4.723H51.395l5.9-44.757A12.127,12.127,0,0,1,69.269,8.06h6.943a2.362,2.362,0,1,1,0,4.723H69.269a7.376,7.376,0,0,0-7.3,6.392L55.807,65.983a2.365,2.365,0,0,1-2.347,2.05H5.832Z" transform="translate(-3.47 -8.06)" fill="#b6c4d3"/></g></g><g transform="translate(2.441 1.754)"><path d="M53.672,68.935H6.03a3.04,3.04,0,0,1,0-6.081H50.986L56.8,18.691A12.813,12.813,0,0,1,69.454,7.59H76.4a3.04,3.04,0,0,1,0,6.081H69.468a6.691,6.691,0,0,0-6.618,5.8L56.684,66.276a3.06,3.06,0,0,1-3.012,2.659ZM6.03,64.212a1.676,1.676,0,0,0,0,3.351H53.658a1.665,1.665,0,0,0,1.655-1.457L61.478,19.3a8.075,8.075,0,0,1,7.976-7H76.4a1.676,1.676,0,1,0,0-3.351H69.468a11.429,11.429,0,0,0-11.3,9.913l-5.9,44.757a.686.686,0,0,1-.679.594Z" transform="translate(-2.99 -7.59)"/></g><g transform="translate(70.206 0.679)"><path d="M69.789,8.329V13.5a1.5,1.5,0,0,1-1.5,1.5H52.409a1.5,1.5,0,0,1-1.5-1.5V8.329a1.5,1.5,0,0,1,1.5-1.5H68.29a1.5,1.5,0,0,1,1.5,1.5Z" transform="translate(-50.91 -6.83)" fill="#a2aa5c"/></g><g transform="translate(71.705 1.655)"><path d="M69.35,8.043v5.176a1.491,1.491,0,0,1-1.5,1.5H51.97s15.909-.212,17.281-7.2a1.564,1.564,0,0,1,.1.523Z" transform="translate(-51.97 -7.52)" fill="#7a8045"/></g><g transform="translate(69.527)"><path d="M68.488,15.881H52.608A2.179,2.179,0,0,1,50.43,13.7V8.528A2.179,2.179,0,0,1,52.608,6.35H68.488a2.179,2.179,0,0,1,2.178,2.178V13.7a2.179,2.179,0,0,1-2.178,2.178ZM52.608,7.708a.806.806,0,0,0-.806.806v5.176a.806.806,0,0,0,.806.806H68.488a.806.806,0,0,0,.806-.806V8.528a.806.806,0,0,0-.806-.806H52.608Z" transform="translate(-50.43 -6.35)"/></g></g><g transform="translate(0.687 79.05)"><path d="M2.966,61.828H2.429a.679.679,0,0,1-.679-.679.688.688,0,0,1,.679-.679H2.98a.679.679,0,0,1,.679.679A.691.691,0,0,1,2.966,61.828Z" transform="translate(-1.75 -60.47)"/></g><g transform="translate(3.445 79.05)"><path d="M6.429,61.828H4.379a.679.679,0,0,1-.679-.679.688.688,0,0,1,.679-.679h2.05a.679.679,0,1,1,0,1.358Z" transform="translate(-3.7 -60.47)"/></g><g transform="translate(8.112 79.05)"><path d="M19.869,61.828H7.693a.679.679,0,1,1-.014-1.358H19.854a.679.679,0,0,1,.014,1.358Z" transform="translate(-7 -60.47)"/></g><g transform="translate(23.045 79.05)"><path d="M28.279,61.828H18.239a.679.679,0,0,1-.679-.679.688.688,0,0,1,.679-.679h10.04a.679.679,0,1,1,0,1.358Z" transform="translate(-17.56 -60.47)"/></g><g transform="translate(36.507 79.05)"><path d="M79.657,61.828h-51.9a.679.679,0,0,1-.679-.679.688.688,0,0,1,.679-.679h51.9a.679.679,0,0,1,.679.679A.688.688,0,0,1,79.657,61.828Z" transform="translate(-27.08 -60.47)"/></g><g transform="translate(53.184 52.436)"><g transform="translate(0.675 0.693)"><path d="M59.374,68.74l7.141-26.6H46.477L39.35,68.74Z" transform="translate(-39.35 -42.14)" fill="#ffca6b"/></g><g transform="translate(13.289 0.693)"><path d="M53.714,48.857l1.81-6.717H50.08l-1.81,6.717L51.4,46.75Z" transform="translate(-48.27 -42.14)" fill="#ff9a9a"/></g><g transform="translate(20.699 21.848)"><path d="M67.779,62.544H53.51L60.651,57.1Z" transform="translate(-53.51 -57.1)" fill="#ef8f06"/></g><g transform="translate(27.841 0.693)"><path d="M58.56,63.3V42.14l7.127,26.6Z" transform="translate(-58.56 -42.14)" fill="#f9b84e"/></g><g transform="translate(20.699 0.693)"><path d="M60.651,63.3V42.14L53.51,68.74Z" transform="translate(-53.51 -42.14)" fill="#f9b84e"/></g><path d="M59.572,69.621H39.548a.67.67,0,0,1-.537-.269.682.682,0,0,1-.113-.594l7.127-26.6a.7.7,0,0,1,.665-.509H66.727a.67.67,0,0,1,.537.269.682.682,0,0,1,.113.594l-7.127,26.6a.726.726,0,0,1-.679.509ZM40.439,68.25h18.61l6.76-25.228H47.2Z" transform="translate(-38.873 -41.65)"/><g transform="translate(12.604)"><path d="M53.915,49.753a.651.651,0,0,1-.467-.184L51.525,47.83l-2.673,1.81a.681.681,0,0,1-.778-.014.7.7,0,0,1-.269-.735l1.81-6.731a.7.7,0,0,1,.665-.509h5.444a.67.67,0,0,1,.537.269.682.682,0,0,1,.113.594l-1.81,6.731a.693.693,0,0,1-.467.481.716.716,0,0,1-.184.028ZM51.6,46.274a.675.675,0,0,1,.467.184L53.548,47.8l1.287-4.78H50.818L49.63,47.476l1.584-1.089A.749.749,0,0,1,51.6,46.274Z" transform="translate(-47.785 -41.65)"/></g><g transform="translate(20.011 21.159)"><path d="M67.98,63.425H53.712a.684.684,0,0,1-.65-.467.671.671,0,0,1,.24-.764l7.127-5.444a.7.7,0,0,1,.834,0L68.4,62.195a.692.692,0,0,1,.24.764A.715.715,0,0,1,67.98,63.425ZM55.748,62.053h10.21l-5.105-3.889Z" transform="translate(-53.023 -56.613)"/></g><g transform="translate(27.148 0.009)"><path d="M65.89,69.619a.629.629,0,0,1-.41-.141l-7.141-5.444a.677.677,0,0,1-.269-.552V42.34a.684.684,0,0,1,1.343-.184l7.141,26.6a.683.683,0,0,1-.665.863Zm-6.448-6.463,5.275,4.016L59.442,47.53Z" transform="translate(-58.07 -41.656)"/></g><g transform="translate(20.014 0.005)"><path d="M53.711,69.62a.75.75,0,0,1-.382-.113.708.708,0,0,1-.283-.749l7.141-26.6a.672.672,0,0,1,.749-.495.686.686,0,0,1,.594.679V63.5a.718.718,0,0,1-.269.551l-7.141,5.444A.674.674,0,0,1,53.711,69.62Zm6.448-22.089L54.9,67.173l5.275-4.016V47.531Z" transform="translate(-53.025 -41.654)"/></g><g transform="translate(9.686 9.647)"><path d="M46.412,56.388a.955.955,0,0,1-.2-.028.688.688,0,0,1-.467-.848l1.923-6.547a.685.685,0,0,1,1.315.382l-1.923,6.547A.663.663,0,0,1,46.412,56.388Z" transform="translate(-45.722 -48.472)"/><g transform="translate(0.934 0.011)"><path d="M48.924,53.231H47.072a.7.7,0,0,1-.552-.269.712.712,0,0,1-.113-.608l.99-3.38a.679.679,0,0,1,.651-.495H49.9a1.926,1.926,0,0,1,1.584.749,2.047,2.047,0,0,1,.269,1.824,3.1,3.1,0,0,1-2.828,2.178Zm-.933-1.372h.933a1.779,1.779,0,0,0,1.541-1.2.671.671,0,0,0-.057-.608.594.594,0,0,0-.495-.2H48.571Z" transform="translate(-46.383 -48.48)"/></g><g transform="translate(2.449 3.382)"><path d="M51.889,57.561a.692.692,0,0,1-.566-.3l-3.747-5.317a.69.69,0,0,1,1.131-.792l3.747,5.317a.694.694,0,0,1-.566,1.089Z" transform="translate(-47.454 -50.864)"/></g><g transform="translate(0.891 3.39)"><path d="M47.028,57.559a.65.65,0,0,1-.537-.269.693.693,0,0,1,.127-.962l6.873-5.317a.68.68,0,0,1,.962.127.693.693,0,0,1-.127.962l-6.873,5.317A.762.762,0,0,1,47.028,57.559Z" transform="translate(-46.352 -50.869)"/></g></g><g transform="translate(15.891 21.862)"><path d="M53.348,58.468h-2.56a.679.679,0,0,1,0-1.358h2.56a.679.679,0,0,1,.679.679A.67.67,0,0,1,53.348,58.468Z" transform="translate(-50.11 -57.11)"/></g><g transform="translate(4.267 21.862)"><path d="M51.549,58.468h-8.98a.679.679,0,0,1,0-1.358h8.98a.679.679,0,0,1,0,1.358Z" transform="translate(-41.89 -57.11)"/></g></g><g transform="translate(11.675 5.699)"><g transform="translate(0.679 0.693)"><path d="M25.471,48.544A18.834,18.834,0,0,1,10,30V14.959L26.05,9.09,42.1,14.959V30A18.819,18.819,0,0,1,26.63,48.53l-.58.1Z" transform="translate(-10 -9.09)" fill="#f1f3f6"/></g><g transform="translate(5.869 6.208)"><path d="M24.531,12.99V41.753A13.642,13.642,0,0,1,13.67,28.39V16.964Z" transform="translate(-13.67 -12.99)" fill="#e9edc7"/></g><g transform="translate(16.729 6.208)"><path d="M21.35,12.99V41.753A13.641,13.641,0,0,0,32.211,28.4V16.964Z" transform="translate(-21.35 -12.99)" fill="#cad473"/></g><g transform="translate(5.176 5.515)"><path d="M24.733,42.649a.481.481,0,0,1-.141-.014A14.4,14.4,0,0,1,13.18,28.607V17.167a.7.7,0,0,1,.453-.651l10.861-3.974a.663.663,0,0,1,.467,0L35.82,16.516a.69.69,0,0,1,.453.651V28.593A14.374,14.374,0,0,1,24.861,42.621a.413.413,0,0,1-.127.028Zm-10.182-25V28.593A13,13,0,0,0,24.733,41.249,13.019,13.019,0,0,0,34.915,28.593V17.647L24.733,13.928Z" transform="translate(-13.18 -12.5)"/></g><path d="M26.249,49.539a.392.392,0,0,1-.127-.014l-.58-.113A19.491,19.491,0,0,1,9.52,30.208V15.162a.7.7,0,0,1,.453-.65l16.05-5.869a.663.663,0,0,1,.467,0l16.05,5.869a.69.69,0,0,1,.453.65V30.208a19.5,19.5,0,0,1-16.022,19.2l-.58.1a1.185,1.185,0,0,1-.141.028Zm-15.372-33.9V30.208a18.138,18.138,0,0,0,14.9,17.86l.453.085.453-.085a18.138,18.138,0,0,0,14.9-17.86V15.642L26.249,10.028Z" transform="translate(-9.52 -8.6)"/><g transform="translate(11.483 14.891)"><path d="M28.1,22.467v3.79H24.767v3.337H20.991V26.257H17.64v-3.79h3.351V19.13h3.776v3.337Z" transform="translate(-17.64 -19.13)" fill="#fff"/></g><g transform="translate(10.818 14.226)"><path d="M24.962,30.468H21.186a.679.679,0,0,1-.679-.679V27.131H17.849a.679.679,0,0,1-.679-.679V22.676A.679.679,0,0,1,17.849,22h2.659V19.339a.679.679,0,0,1,.679-.679h3.776a.679.679,0,0,1,.679.679V22H28.3a.679.679,0,0,1,.679.679v3.776a.679.679,0,0,1-.679.679H25.641v2.659A.67.67,0,0,1,24.962,30.468Zm-3.1-1.372h2.4V26.438a.679.679,0,0,1,.679-.679h2.659v-2.4H24.948a.679.679,0,0,1-.679-.679V20.018h-2.4v2.659a.679.679,0,0,1-.679.679H18.528v2.4h2.659a.679.679,0,0,1,.679.679Z" transform="translate(-17.17 -18.66)"/></g></g><g transform="translate(43.182 0)"><g transform="translate(2.669 4.027)"><path d="M34.37,12.074a.7.7,0,0,1-.481-.2.691.691,0,0,1,0-.976L37.17,7.619a.69.69,0,1,1,.976.976l-3.281,3.281A.732.732,0,0,1,34.37,12.074Z" transform="translate(-33.688 -7.417)"/></g><g transform="translate(5.36 10.012)"><path d="M40.907,13.008H36.269a.679.679,0,0,1-.679-.679.688.688,0,0,1,.679-.679h4.638a.679.679,0,0,1,.679.679A.688.688,0,0,1,40.907,13.008Z" transform="translate(-35.59 -11.65)"/></g><path d="M32.479,10.566a.679.679,0,0,1-.679-.679V5.249a.679.679,0,1,1,1.358,0V9.887A.67.67,0,0,1,32.479,10.566Z" transform="translate(-31.8 -4.57)"/><g transform="translate(8.198 1.029)"><path d="M38.28,7.422a.7.7,0,0,1-.481-.2.691.691,0,0,1,0-.976l.749-.749a.69.69,0,1,1,.976.976l-.749.749a.671.671,0,0,1-.495.2Z" transform="translate(-37.598 -5.298)"/></g></g></g></g></g></svg>