<svg xmlns="http://www.w3.org/2000/svg" width="190" height="190" viewBox="0 0 190 190"><g transform="translate(-389.668 -1733)"><rect width="190" height="190" transform="translate(389.668 1733)" fill="none"/><g transform="translate(-735 324.841)"><g transform="translate(825.668 301.501)"><g transform="translate(-325.617 254.355)"><g transform="translate(644.088 862.303)"><g transform="translate(6.446 6.446)"><path d="M67.834,0A67.833,67.833,0,1,1,0,67.833,67.833,67.833,0,0,1,67.834,0Z" transform="translate(0 0)" fill="#7a8045" opacity="0.444" style="mix-blend-mode:multiply;isolation:isolate"/><g transform="translate(26.485 28.042)"><path d="M416.056,51.1a.922.922,0,1,1-.922-.88A.9.9,0,0,1,416.056,51.1Z" transform="translate(-414.214 -50.224)" fill="#fff"/><path d="M424.5,51.1a.922.922,0,1,1-.92-.88A.9.9,0,0,1,424.5,51.1Z" transform="translate(-414.37 -50.224)" fill="#fff"/><path d="M432.948,51.1a.922.922,0,1,1-.921-.88A.9.9,0,0,1,432.948,51.1Z" transform="translate(-414.527 -50.224)" fill="#fff"/><path d="M441.4,51.1a.922.922,0,1,1-.922-.88A.9.9,0,0,1,441.4,51.1Z" transform="translate(-414.683 -50.224)" fill="#fff"/><path d="M449.841,51.1a.922.922,0,1,1-.921-.88A.9.9,0,0,1,449.841,51.1Z" transform="translate(-414.84 -50.224)" fill="#fff"/><path d="M458.287,51.1a.922.922,0,1,1-.921-.88A.9.9,0,0,1,458.287,51.1Z" transform="translate(-414.996 -50.224)" fill="#fff"/><path d="M466.734,51.1a.922.922,0,1,1-.922-.88A.9.9,0,0,1,466.734,51.1Z" transform="translate(-415.152 -50.224)" fill="#fff"/><path d="M475.18,51.1a.922.922,0,1,1-.921-.88A.9.9,0,0,1,475.18,51.1Z" transform="translate(-415.309 -50.224)" fill="#fff"/><path d="M483.626,51.1a.922.922,0,1,1-.921-.88A.9.9,0,0,1,483.626,51.1Z" transform="translate(-415.465 -50.224)" fill="#fff"/><path d="M492.073,51.1a.922.922,0,1,1-.922-.88A.9.9,0,0,1,492.073,51.1Z" transform="translate(-415.622 -50.224)" fill="#fff"/><path d="M500.519,51.1a.922.922,0,1,1-.922-.88A.9.9,0,0,1,500.519,51.1Z" transform="translate(-415.778 -50.224)" fill="#fff"/><g transform="translate(0 7.047)"><path d="M416.056,58.612a.922.922,0,1,1-.922-.88A.9.9,0,0,1,416.056,58.612Z" transform="translate(-414.214 -57.732)" fill="#fff"/><path d="M424.5,58.612a.922.922,0,1,1-.92-.88A.9.9,0,0,1,424.5,58.612Z" transform="translate(-414.37 -57.732)" fill="#fff"/><path d="M432.948,58.612a.922.922,0,1,1-.921-.88A.9.9,0,0,1,432.948,58.612Z" transform="translate(-414.527 -57.732)" fill="#fff"/><path d="M441.4,58.612a.922.922,0,1,1-.922-.88A.9.9,0,0,1,441.4,58.612Z" transform="translate(-414.683 -57.732)" fill="#fff"/><path d="M449.841,58.612a.922.922,0,1,1-.921-.88A.9.9,0,0,1,449.841,58.612Z" transform="translate(-414.84 -57.732)" fill="#fff"/><path d="M458.287,58.612a.922.922,0,1,1-.921-.88A.9.9,0,0,1,458.287,58.612Z" transform="translate(-414.996 -57.732)" fill="#fff"/><path d="M466.734,58.612a.922.922,0,1,1-.922-.88A.9.9,0,0,1,466.734,58.612Z" transform="translate(-415.152 -57.732)" fill="#fff"/><path d="M475.18,58.612a.922.922,0,1,1-.921-.88A.9.9,0,0,1,475.18,58.612Z" transform="translate(-415.309 -57.732)" fill="#fff"/><path d="M483.626,58.612a.922.922,0,1,1-.921-.88A.9.9,0,0,1,483.626,58.612Z" transform="translate(-415.465 -57.732)" fill="#fff"/><path d="M492.073,58.612a.922.922,0,1,1-.922-.88A.9.9,0,0,1,492.073,58.612Z" transform="translate(-415.622 -57.732)" fill="#fff"/><path d="M500.519,58.612a.922.922,0,1,1-.922-.88A.9.9,0,0,1,500.519,58.612Z" transform="translate(-415.778 -57.732)" fill="#fff"/></g><g transform="translate(0 14.094)"><ellipse cx="0.921" cy="0.881" rx="0.921" ry="0.881" fill="#fff"/><path d="M424.5,66.12a.922.922,0,1,1-.92-.88A.9.9,0,0,1,424.5,66.12Z" transform="translate(-414.37 -65.24)" fill="#fff"/><ellipse cx="0.921" cy="0.881" rx="0.921" ry="0.881" transform="translate(16.58)" fill="#fff"/><path d="M441.4,66.12a.922.922,0,1,1-.922-.88A.9.9,0,0,1,441.4,66.12Z" transform="translate(-414.683 -65.24)" fill="#fff"/><path d="M449.841,66.12a.922.922,0,1,1-.921-.88A.9.9,0,0,1,449.841,66.12Z" transform="translate(-414.84 -65.24)" fill="#fff"/><ellipse cx="0.921" cy="0.881" rx="0.921" ry="0.881" transform="translate(41.45)" fill="#fff"/><path d="M466.734,66.12a.922.922,0,1,1-.922-.88A.9.9,0,0,1,466.734,66.12Z" transform="translate(-415.152 -65.24)" fill="#fff"/><ellipse cx="0.921" cy="0.881" rx="0.921" ry="0.881" transform="translate(58.029)" fill="#fff"/><ellipse cx="0.921" cy="0.881" rx="0.921" ry="0.881" transform="translate(66.319)" fill="#fff"/><path d="M492.073,66.12a.922.922,0,1,1-.922-.88A.9.9,0,0,1,492.073,66.12Z" transform="translate(-415.622 -65.24)" fill="#fff"/><path d="M500.519,66.12a.922.922,0,1,1-.922-.88A.9.9,0,0,1,500.519,66.12Z" transform="translate(-415.778 -65.24)" fill="#fff"/></g><g transform="translate(0 21.14)"><ellipse cx="0.921" cy="0.881" rx="0.921" ry="0.881" transform="translate(0 0)" fill="#fff"/><path d="M424.5,73.628a.922.922,0,1,1-.92-.881A.9.9,0,0,1,424.5,73.628Z" transform="translate(-414.37 -72.747)" fill="#fff"/><ellipse cx="0.921" cy="0.881" rx="0.921" ry="0.881" transform="translate(16.58 0)" fill="#fff"/><path d="M441.4,73.628a.922.922,0,1,1-.922-.881A.9.9,0,0,1,441.4,73.628Z" transform="translate(-414.683 -72.747)" fill="#fff"/><path d="M449.841,73.628a.922.922,0,1,1-.921-.881A.9.9,0,0,1,449.841,73.628Z" transform="translate(-414.84 -72.747)" fill="#fff"/><ellipse cx="0.921" cy="0.881" rx="0.921" ry="0.881" transform="translate(41.45 0)" fill="#fff"/><path d="M466.734,73.628a.922.922,0,1,1-.922-.881A.9.9,0,0,1,466.734,73.628Z" transform="translate(-415.152 -72.747)" fill="#fff"/><ellipse cx="0.921" cy="0.881" rx="0.921" ry="0.881" transform="translate(58.029 0)" fill="#fff"/><ellipse cx="0.921" cy="0.881" rx="0.921" ry="0.881" transform="translate(66.319 0)" fill="#fff"/><path d="M492.073,73.628a.922.922,0,1,1-.922-.881A.9.9,0,0,1,492.073,73.628Z" transform="translate(-415.622 -72.747)" fill="#fff"/><path d="M500.519,73.628a.922.922,0,1,1-.922-.881A.9.9,0,0,1,500.519,73.628Z" transform="translate(-415.778 -72.747)" fill="#fff"/></g><g transform="translate(0 28.187)"><path d="M416.056,81.136a.922.922,0,1,1-.922-.881A.9.9,0,0,1,416.056,81.136Z" transform="translate(-414.214 -80.255)" fill="#fff"/><path d="M424.5,81.136a.922.922,0,1,1-.92-.881A.9.9,0,0,1,424.5,81.136Z" transform="translate(-414.37 -80.255)" fill="#fff"/><path d="M432.948,81.136a.922.922,0,1,1-.921-.881A.9.9,0,0,1,432.948,81.136Z" transform="translate(-414.527 -80.255)" fill="#fff"/><path d="M441.4,81.136a.922.922,0,1,1-.922-.881A.9.9,0,0,1,441.4,81.136Z" transform="translate(-414.683 -80.255)" fill="#fff"/><path d="M449.841,81.136a.922.922,0,1,1-.921-.881A.9.9,0,0,1,449.841,81.136Z" transform="translate(-414.84 -80.255)" fill="#fff"/><path d="M458.287,81.136a.922.922,0,1,1-.921-.881A.9.9,0,0,1,458.287,81.136Z" transform="translate(-414.996 -80.255)" fill="#fff"/><path d="M466.734,81.136a.922.922,0,1,1-.922-.881A.9.9,0,0,1,466.734,81.136Z" transform="translate(-415.152 -80.255)" fill="#fff"/><path d="M475.18,81.136a.922.922,0,1,1-.921-.881A.9.9,0,0,1,475.18,81.136Z" transform="translate(-415.309 -80.255)" fill="#fff"/><path d="M483.626,81.136a.922.922,0,1,1-.921-.881A.9.9,0,0,1,483.626,81.136Z" transform="translate(-415.465 -80.255)" fill="#fff"/><path d="M492.073,81.136a.922.922,0,1,1-.922-.881A.9.9,0,0,1,492.073,81.136Z" transform="translate(-415.622 -80.255)" fill="#fff"/><path d="M500.519,81.136a.922.922,0,1,1-.922-.881A.9.9,0,0,1,500.519,81.136Z" transform="translate(-415.778 -80.255)" fill="#fff"/></g><g transform="translate(0 35.234)"><ellipse cx="0.921" cy="0.881" rx="0.921" ry="0.881" transform="translate(0 0)" fill="#fff"/><path d="M424.5,88.644a.922.922,0,1,1-.92-.881A.9.9,0,0,1,424.5,88.644Z" transform="translate(-414.37 -87.763)" fill="#fff"/><ellipse cx="0.921" cy="0.881" rx="0.921" ry="0.881" transform="translate(16.58 0)" fill="#fff"/><path d="M441.4,88.644a.922.922,0,1,1-.922-.881A.9.9,0,0,1,441.4,88.644Z" transform="translate(-414.683 -87.763)" fill="#fff"/><path d="M449.841,88.644a.922.922,0,1,1-.921-.881A.9.9,0,0,1,449.841,88.644Z" transform="translate(-414.84 -87.763)" fill="#fff"/><ellipse cx="0.921" cy="0.881" rx="0.921" ry="0.881" transform="translate(41.45 0)" fill="#fff"/><path d="M466.734,88.644a.922.922,0,1,1-.922-.881A.9.9,0,0,1,466.734,88.644Z" transform="translate(-415.152 -87.763)" fill="#fff"/><ellipse cx="0.921" cy="0.881" rx="0.921" ry="0.881" transform="translate(58.029 0)" fill="#fff"/><ellipse cx="0.921" cy="0.881" rx="0.921" ry="0.881" transform="translate(66.319 0)" fill="#fff"/><path d="M492.073,88.644a.922.922,0,1,1-.922-.881A.9.9,0,0,1,492.073,88.644Z" transform="translate(-415.622 -87.763)" fill="#fff"/><path d="M500.519,88.644a.922.922,0,1,1-.922-.881A.9.9,0,0,1,500.519,88.644Z" transform="translate(-415.778 -87.763)" fill="#fff"/></g><g transform="translate(0 42.281)"><ellipse cx="0.921" cy="0.881" rx="0.921" ry="0.881" fill="#fff"/><path d="M424.5,96.151a.922.922,0,1,1-.92-.88A.9.9,0,0,1,424.5,96.151Z" transform="translate(-414.37 -95.271)" fill="#fff"/><ellipse cx="0.921" cy="0.881" rx="0.921" ry="0.881" transform="translate(16.58)" fill="#fff"/><path d="M441.4,96.151a.922.922,0,1,1-.922-.88A.9.9,0,0,1,441.4,96.151Z" transform="translate(-414.683 -95.271)" fill="#fff"/><path d="M449.841,96.151a.922.922,0,1,1-.921-.88A.9.9,0,0,1,449.841,96.151Z" transform="translate(-414.84 -95.271)" fill="#fff"/><ellipse cx="0.921" cy="0.881" rx="0.921" ry="0.881" transform="translate(41.45)" fill="#fff"/><path d="M466.734,96.151a.922.922,0,1,1-.922-.88A.9.9,0,0,1,466.734,96.151Z" transform="translate(-415.152 -95.271)" fill="#fff"/><ellipse cx="0.921" cy="0.881" rx="0.921" ry="0.881" transform="translate(58.029)" fill="#fff"/><ellipse cx="0.921" cy="0.881" rx="0.921" ry="0.881" transform="translate(66.319)" fill="#fff"/><path d="M492.073,96.151a.922.922,0,1,1-.922-.88A.9.9,0,0,1,492.073,96.151Z" transform="translate(-415.622 -95.271)" fill="#fff"/><path d="M500.519,96.151a.922.922,0,1,1-.922-.88A.9.9,0,0,1,500.519,96.151Z" transform="translate(-415.778 -95.271)" fill="#fff"/></g><g transform="translate(0 49.328)"><path d="M416.056,103.659a.922.922,0,1,1-.922-.88A.9.9,0,0,1,416.056,103.659Z" transform="translate(-414.214 -102.779)" fill="#fff"/><path d="M424.5,103.659a.922.922,0,1,1-.92-.88A.9.9,0,0,1,424.5,103.659Z" transform="translate(-414.37 -102.779)" fill="#fff"/><path d="M432.948,103.659a.922.922,0,1,1-.921-.88A.9.9,0,0,1,432.948,103.659Z" transform="translate(-414.527 -102.779)" fill="#fff"/><path d="M441.4,103.659a.922.922,0,1,1-.922-.88A.9.9,0,0,1,441.4,103.659Z" transform="translate(-414.683 -102.779)" fill="#fff"/><path d="M449.841,103.659a.922.922,0,1,1-.921-.88A.9.9,0,0,1,449.841,103.659Z" transform="translate(-414.84 -102.779)" fill="#fff"/><path d="M458.287,103.659a.922.922,0,1,1-.921-.88A.9.9,0,0,1,458.287,103.659Z" transform="translate(-414.996 -102.779)" fill="#fff"/><path d="M466.734,103.659a.922.922,0,1,1-.922-.88A.9.9,0,0,1,466.734,103.659Z" transform="translate(-415.152 -102.779)" fill="#fff"/><path d="M475.18,103.659a.922.922,0,1,1-.921-.88A.9.9,0,0,1,475.18,103.659Z" transform="translate(-415.309 -102.779)" fill="#fff"/><path d="M483.626,103.659a.922.922,0,1,1-.921-.88A.9.9,0,0,1,483.626,103.659Z" transform="translate(-415.465 -102.779)" fill="#fff"/><path d="M492.073,103.659a.922.922,0,1,1-.922-.88A.9.9,0,0,1,492.073,103.659Z" transform="translate(-415.622 -102.779)" fill="#fff"/><path d="M500.519,103.659a.922.922,0,1,1-.922-.88A.9.9,0,0,1,500.519,103.659Z" transform="translate(-415.778 -102.779)" fill="#fff"/></g><g transform="translate(0 56.375)"><ellipse cx="0.921" cy="0.881" rx="0.921" ry="0.881" fill="#fff"/><path d="M424.5,111.167a.922.922,0,1,1-.92-.88A.9.9,0,0,1,424.5,111.167Z" transform="translate(-414.37 -110.287)" fill="#fff"/><ellipse cx="0.921" cy="0.881" rx="0.921" ry="0.881" transform="translate(16.58)" fill="#fff"/><path d="M441.4,111.167a.922.922,0,1,1-.922-.88A.9.9,0,0,1,441.4,111.167Z" transform="translate(-414.683 -110.287)" fill="#fff"/><path d="M449.841,111.167a.922.922,0,1,1-.921-.88A.9.9,0,0,1,449.841,111.167Z" transform="translate(-414.84 -110.287)" fill="#fff"/><ellipse cx="0.921" cy="0.881" rx="0.921" ry="0.881" transform="translate(41.45)" fill="#fff"/><path d="M466.734,111.167a.922.922,0,1,1-.922-.88A.9.9,0,0,1,466.734,111.167Z" transform="translate(-415.152 -110.287)" fill="#fff"/><ellipse cx="0.921" cy="0.881" rx="0.921" ry="0.881" transform="translate(58.029)" fill="#fff"/><ellipse cx="0.921" cy="0.881" rx="0.921" ry="0.881" transform="translate(66.319)" fill="#fff"/><path d="M492.073,111.167a.922.922,0,1,1-.922-.88A.9.9,0,0,1,492.073,111.167Z" transform="translate(-415.622 -110.287)" fill="#fff"/><path d="M500.519,111.167a.922.922,0,1,1-.922-.88A.9.9,0,0,1,500.519,111.167Z" transform="translate(-415.778 -110.287)" fill="#fff"/></g><g transform="translate(0 63.421)"><path d="M416.056,118.675a.922.922,0,1,1-.922-.881A.9.9,0,0,1,416.056,118.675Z" transform="translate(-414.214 -117.794)" fill="#fff"/><path d="M424.5,118.675a.922.922,0,1,1-.92-.881A.9.9,0,0,1,424.5,118.675Z" transform="translate(-414.37 -117.794)" fill="#fff"/><path d="M432.948,118.675a.922.922,0,1,1-.921-.881A.9.9,0,0,1,432.948,118.675Z" transform="translate(-414.527 -117.794)" fill="#fff"/><path d="M441.4,118.675a.922.922,0,1,1-.922-.881A.9.9,0,0,1,441.4,118.675Z" transform="translate(-414.683 -117.794)" fill="#fff"/><path d="M449.841,118.675a.922.922,0,1,1-.921-.881A.9.9,0,0,1,449.841,118.675Z" transform="translate(-414.84 -117.794)" fill="#fff"/><path d="M458.287,118.675a.922.922,0,1,1-.921-.881A.9.9,0,0,1,458.287,118.675Z" transform="translate(-414.996 -117.794)" fill="#fff"/><path d="M466.734,118.675a.922.922,0,1,1-.922-.881A.9.9,0,0,1,466.734,118.675Z" transform="translate(-415.152 -117.794)" fill="#fff"/><path d="M475.18,118.675a.922.922,0,1,1-.921-.881A.9.9,0,0,1,475.18,118.675Z" transform="translate(-415.309 -117.794)" fill="#fff"/><path d="M483.626,118.675a.922.922,0,1,1-.921-.881A.9.9,0,0,1,483.626,118.675Z" transform="translate(-415.465 -117.794)" fill="#fff"/><path d="M492.073,118.675a.922.922,0,1,1-.922-.881A.9.9,0,0,1,492.073,118.675Z" transform="translate(-415.622 -117.794)" fill="#fff"/><path d="M500.519,118.675a.922.922,0,1,1-.922-.881A.9.9,0,0,1,500.519,118.675Z" transform="translate(-415.778 -117.794)" fill="#fff"/></g><g transform="translate(0 70.468)"><ellipse cx="0.921" cy="0.881" rx="0.921" ry="0.881" transform="translate(0 0)" fill="#fff"/><path d="M424.5,126.183a.922.922,0,1,1-.92-.881A.9.9,0,0,1,424.5,126.183Z" transform="translate(-414.37 -125.302)" fill="#fff"/><ellipse cx="0.921" cy="0.881" rx="0.921" ry="0.881" transform="translate(16.58 0)" fill="#fff"/><path d="M441.4,126.183a.922.922,0,1,1-.922-.881A.9.9,0,0,1,441.4,126.183Z" transform="translate(-414.683 -125.302)" fill="#fff"/><path d="M449.841,126.183a.922.922,0,1,1-.921-.881A.9.9,0,0,1,449.841,126.183Z" transform="translate(-414.84 -125.302)" fill="#fff"/><ellipse cx="0.921" cy="0.881" rx="0.921" ry="0.881" transform="translate(41.45 0)" fill="#fff"/><path d="M466.734,126.183a.922.922,0,1,1-.922-.881A.9.9,0,0,1,466.734,126.183Z" transform="translate(-415.152 -125.302)" fill="#fff"/><ellipse cx="0.921" cy="0.881" rx="0.921" ry="0.881" transform="translate(58.029 0)" fill="#fff"/><ellipse cx="0.921" cy="0.881" rx="0.921" ry="0.881" transform="translate(66.319 0)" fill="#fff"/><path d="M492.073,126.183a.922.922,0,1,1-.922-.881A.9.9,0,0,1,492.073,126.183Z" transform="translate(-415.622 -125.302)" fill="#fff"/><path d="M500.519,126.183a.922.922,0,1,1-.922-.881A.9.9,0,0,1,500.519,126.183Z" transform="translate(-415.778 -125.302)" fill="#fff"/></g><g transform="translate(0 77.516)"><ellipse cx="0.921" cy="0.881" rx="0.921" ry="0.881" transform="translate(0 0)" fill="#fff"/><path d="M424.5,133.691a.922.922,0,1,1-.92-.881A.9.9,0,0,1,424.5,133.691Z" transform="translate(-414.37 -132.81)" fill="#fff"/><ellipse cx="0.921" cy="0.881" rx="0.921" ry="0.881" transform="translate(16.58 0)" fill="#fff"/><path d="M441.4,133.691a.922.922,0,1,1-.922-.881A.9.9,0,0,1,441.4,133.691Z" transform="translate(-414.683 -132.81)" fill="#fff"/><path d="M449.841,133.691a.922.922,0,1,1-.921-.881A.9.9,0,0,1,449.841,133.691Z" transform="translate(-414.84 -132.81)" fill="#fff"/><ellipse cx="0.921" cy="0.881" rx="0.921" ry="0.881" transform="translate(41.45 0)" fill="#fff"/><path d="M466.734,133.691a.922.922,0,1,1-.922-.881A.9.9,0,0,1,466.734,133.691Z" transform="translate(-415.152 -132.81)" fill="#fff"/><ellipse cx="0.921" cy="0.881" rx="0.921" ry="0.881" transform="translate(58.029 0)" fill="#fff"/><ellipse cx="0.921" cy="0.881" rx="0.921" ry="0.881" transform="translate(66.319 0)" fill="#fff"/><path d="M492.073,133.691a.922.922,0,1,1-.922-.881A.9.9,0,0,1,492.073,133.691Z" transform="translate(-415.622 -132.81)" fill="#fff"/><path d="M500.519,133.691a.922.922,0,1,1-.922-.881A.9.9,0,0,1,500.519,133.691Z" transform="translate(-415.778 -132.81)" fill="#fff"/></g></g></g><path d="M90.1,1.675a1,1,0,0,1,.213.023q.553.12,1.1.248h.006l.024.006.008,0,.022.005.009,0,.019,0,.011,0,.018,0,.012,0,.017,0,.012,0,.017,0,.013,0,.015,0,.014,0,.014,0,.016,0,.01,0,.046.011h0l.021.005.008,0,.022.005.007,0,.021.005.008,0,.021.005.007,0,.022.005.007,0,.022.005h.006l.023.005h.005l.024.006h0q2.187.527,4.32,1.181h0l.025.008h0l.024.007h0l.024.007h0l.024.007h0l.162.05h0l.022.007.006,0,.022.007.005,0,.022.007.006,0,.021.007.007,0,.02.006.008,0,.02.006.008,0,.02.006.008,0,.02.006.007,0,.021.007h0l.078.025h0l.021.007.008,0,.019.006.009,0,.019.006.01,0,.018.006.011,0L97,3.482l.011,0,.018.006.01,0,.019.006.009,0,.02.006.007,0,.021.007.005,0,.1.031.01,0,.017.006.011,0,.017.005.012,0,.016.005.012,0,.016.005.013,0,.015,0,.013,0,.015,0,.014,0,.015,0,.014,0,.014,0,.015,0,.014,0,.012,0,.035.011.008,0,.017.006.011,0,.017.006.011,0,.016.005.012,0,.015.005.013,0,.014,0,.014,0,.015,0,.013,0,.015,0,.013,0,.015.005.013,0,.016.005.012,0,.016.005.01,0,.041.013h0l.014,0,.015,0,.015,0,.013,0,.016.005.012,0,.016.005.012,0,.016.005.012,0L98,3.809l.012,0,.011,0a1,1,0,0,1-.634,1.9,72.162,72.162,0,0,0-7.5-2.061A1,1,0,0,1,90.1,1.675Zm14.943,4.989a1,1,0,0,1,.415.091l.247.114h0l.022.01.005,0,.021.01.006,0,.02.009.008,0,.019.009.006,0,.02.009.006,0,.062.029.01,0,.014.007.014.006.012.006.015.007.012.006.016.007.011.005.016.007.011.005.017.008.01,0,.02.009.006,0,.025.012h0l.056.027h0l.027.013,0,0,.023.011.005,0,.023.011.005,0,.024.011,0,0,.026.012h0q3.2,1.518,6.223,3.326a1,1,0,1,1-1.025,1.717,72.507,72.507,0,0,0-6.886-3.624,1,1,0,0,1,.418-1.909Zm13.528,8.076a1,1,0,0,1,.6.2h0l.023.017,0,0,.022.016,0,0,.022.017,0,0,.024.018h0q1.347,1.018,2.646,2.1h0l.144.119h0l.023.019,0,0,.021.017,0,0,.02.017,0,0,.02.016,0,0,.02.017,0,0,.047.039h0l.022.018.007.006.016.013.008.007.014.012.01.008.013.011.01.008.013.011.01.008.014.011.009.008.014.012.009.008.02.017.008.007.016.014.01.009.012.011.012.01.01.009.013.011.01.008.013.011.009.007.014.012.008.007.015.012.005,0,.1.086h0l.02.017,0,0,.019.016,0,0,.019.017h0q1.3,1.113,2.554,2.284a1,1,0,0,1-1.37,1.457,73.1,73.1,0,0,0-5.957-5.008,1,1,0,0,1,.6-1.8Zm11.5,10.769a1,1,0,0,1,.756.345q1.119,1.3,2.178,2.647h0l.015.02,0,0,.015.019,0,0,.015.02,0,0,.015.02h0l.082.106,0,0,.013.017,0,.006.012.016.006.007.012.016.005.007.012.016.006.008.012.015.006.008.011.015.006.008.025.033,0,0,.011.014.007.009.01.013.008.011.01.013.008.01.01.013.008.011.009.012.009.012L133.4,29l.011.014.007.009.012.016.006.008.018.023,0,0,.016.02,0,.006.014.018.006.008.012.016.007.009.013.016,0,.006.014.019,0,.005.016.021,0,0,.018.024h0l.057.074v0l.017.022,0,0,.016.022,0,0,.017.022,0,0,.018.024h0q1.031,1.356,2,2.76a1,1,0,1,1-1.646,1.137,73.024,73.024,0,0,0-4.759-6.158,1,1,0,0,1,.757-1.653Zm8.952,12.964a1,1,0,0,1,.88.523q.119.219.236.438h0l.014.026h0l.014.027h0l.087.164v0l.013.024,0,0,.013.024,0,0,.013.024v0l.013.025v0l.057.109,0,0,.012.023,0,.006.011.021,0,.006.011.021,0,.007.01.02,0,.007.011.02,0,.006.011.022,0,0,.014.027h0l.029.055v0l.013.025,0,.006.011.021,0,.007.01.019,0,.009.01.019,0,.008.01.019,0,.008.01.019,0,.007.01.02,0,.007.028.054v0l.013.025,0,.006.011.021,0,.008.01.019,0,.007.01.019,0,.008.01.019,0,.007.01.019,0,.008.011.022,0,0,.041.081,0,.007.01.02,0,.008.009.019,0,.009.009.017,0,.01.009.017.005.011.009.017,0,.009.01.019,0,.008.011.022,0,0,.028.054,0,0,.011.023,0,.007.01.02,0,.008.009.019,0,.009.009.018,0,.009.009.018,0,.008.01.02,0,.007.01.02,0,.007.041.081,0,.006.01.02,0,.009.009.018,0,.008.01.019,0,.008.01.02,0,.007.01.02,0,.007.012.025h0l.041.083v0l.012.025,0,0,.011.023,0,.006.011.021,0,.006.01.021,0,.006.011.023,0,0,.012.024v0l.054.111v0l.012.025,0,0,.012.024,0,0,.012.024,0,0,.012.024,0,0,.013.026h0l.1.2h0l.013.028h0q.986,2.039,1.849,4.144a1,1,0,0,1-1.851.759,72.373,72.373,0,0,0-3.335-7.03,1,1,0,0,1,.878-1.477ZM145,53.049a1,1,0,0,1,.96.723q.872,3.026,1.492,6.153h0l.006.028v0l.005.027v0l.005.026v0l.005.027v0l.005.027v0l.024.121v.007l0,.024v.007l0,.022,0,.01,0,.019,0,.012,0,.018,0,.013,0,.017,0,.013,0,.016,0,.015,0,.015,0,.015,0,.013,0,.017,0,.011,0,.019v0l.021.109v0l0,.025v0l0,.025v0l0,.025v0l0,.026v0l0,.026v0c.051.276.1.548.149.826a1,1,0,0,1-1.971.34,72.243,72.243,0,0,0-1.748-7.582A1,1,0,0,1,145,53.049Zm2.707,15.52a1,1,0,0,1,1,.932c.059.9.1,1.8.128,2.711h0c0,.05,0,.1,0,.147v0l0,.114v.038l0,.081v.064h0v.126l0,.075v.747s0,.008,0,.01V73.7c0,.008,0,.015,0,.023v.081c0,.005,0,.009,0,.014v.258c0,.005,0,.007,0,.012s0,.016,0,.024,0,.01,0,.012,0,.021,0,.031,0,0,0,0,0,.023,0,.035,0,.009,0,.011,0,.016,0,.025v.012c0,.009,0,.017,0,.026v.01c0,.012,0,.023,0,.035v.047c0,.008,0,.017,0,.025V74.4c0,.012,0,.024,0,.035h0c0,.01,0,.017,0,.027v.009c0,.005,0,.014,0,.019v.01c0,.005,0,.014,0,.019s0,.006,0,.009,0,.015,0,.025,0,0,0,0,0,.016,0,.026,0,.006,0,.008,0,.014,0,.019,0,.006,0,.009,0,.015,0,.02,0,.006,0,.009,0,.016,0,.024,0,0,0,.007V74.7s0,.006,0,.009,0,.014,0,.019v.01c0,.005,0,.013,0,.018s0,.006,0,.01,0,.016,0,.023,0,0,0,.006,0,.016,0,.026,0,.005,0,.008v.088c0,.01,0,.014,0,.024v.01c0,.005,0,.012,0,.018s0,.007,0,.011,0,.013,0,.018v.009c0,.008,0,.014,0,.022v.033s0,.007,0,.01v.138s0,.007,0,.011v.611q0,.045,0,.09v.029q0,.059,0,.117h0q-.015.719-.045,1.435a1,1,0,0,1-2-.081c.04-.99.061-2,.061-2.989,0-1.6-.053-3.211-.156-4.8a1,1,0,0,1,.933-1.063Zm-.645,15.746a1.01,1.01,0,0,1,.148.011,1,1,0,0,1,.842,1.134l0,.015v.005l0,.024v.006l0,.023v.006l0,.023v.005l0,.025v0l-.021.141h0l0,.023v.007l0,.022V85.8l0,.022v.007l0,.022v.008l0,.021v.008l0,.022v.007l0,.022v.006l0,.023v.005l0,.024v0l-.021.136v.005l0,.022v.008l0,.021V86.2l0,.02,0,.01,0,.02v.009l0,.02v.009l0,.021v.009l0,.021v.009l0,.021v.007l0,.023v0l-.022.138v0l0,.023v.006l0,.022V86.6l0,.02,0,.009,0,.02,0,.009,0,.02,0,.01,0,.021v.008l0,.021v.009l0,.021v.006l0,.023v0l-.023.139h0l0,.025v0l0,.023v.006l0,.022v.008l0,.021v.008l0,.022V87.1l0,.022v.007l0,.022v.008l0,.023v0l-.029.167v0l0,.023v.007l0,.023v.006l0,.023v.006l0,.023v.006l0,.022V87.5l0,.022v.007l0,.023v.006l0,.023v0l0,.025v0l-.02.111h0l0,.025v0l0,.023v.006l0,.023v.006l0,.022v.008l0,.022v.006l0,.023V87.9l0,.024v0l0,.025v0l0,.026h0l-.031.17v0l0,.026v0l0,.025v0l0,.024v.006l0,.023v.005l0,.023V88.3l0,.024v0l-.005.027h0l-.043.226v0l0,.025v0l0,.025v0l-.005.026h0l-.005.028h0c-.018.095-.037.189-.056.284h0l-.005.027h0l-.006.028h0Q147,91.193,146.45,93.3a1,1,0,0,1-1.934-.51,72.332,72.332,0,0,0,1.557-7.624A1,1,0,0,1,147.061,84.315ZM143.08,99.556a1,1,0,0,1,.936,1.353q-.439,1.152-.914,2.285h0l-.087.206,0,0-.01.023,0,0-.01.023v0l-.01.024h0l-.011.025h0l-.066.155v0l-.01.024v0l-.01.024v0l-.01.023v0l-.01.023v0l-.01.024h0l-.055.128h0l-.01.023,0,0-.009.021,0,.006-.009.021,0,.006-.009.021,0,.006-.009.021,0,0-.01.023h0l-.045.1h0l-.01.022,0,.005-.009.02,0,.008-.008.019,0,.008-.008.019,0,.008-.008.019,0,.008-.008.019,0,.006-.009.021h0l-.044.1,0,.005-.009.02,0,.007-.009.02,0,.007-.008.019,0,.008-.009.019,0,.006-.009.02,0,.006-.009.021v0l-.044.1v0l-.009.019,0,.008-.008.018,0,.009-.008.018,0,.009-.008.018,0,.008-.008.018,0,.01-.007.017,0,.009-.008.018,0,.008-.029.064,0,.007-.007.016-.005.011-.007.015-.005.012-.007.014-.006.013-.007.015-.005.011-.007.015-.006.012-.007.015-.006.013-.006.014-.006.014-.006.014-.007.015-.008.018-.009.021-.006.012-.007.015-.006.013-.006.014-.006.014-.006.014-.006.013-.006.014-.006.013-.007.015-.006.013-.006.014-.006.013-.007.016-.005.011-.008.018,0,.009-.012.027,0,.007-.009.019-.006.012-.007.015-.006.012-.007.015-.006.012-.007.015-.006.012-.007.015-.006.012-.007.016,0,.01-.008.018,0,.01-.009.02,0,.007-.011.023,0,.005-.013.028v0l-.011.025,0,.008-.009.02,0,.008-.009.019,0,.008-.009.02,0,.007-.009.02,0,.007-.009.02,0,.007-.01.021,0,.006-.013.027h0l-.026.056v0l-.012.026,0,0-.011.023,0,.006-.01.021,0,.007-.01.021,0,.006-.01.021,0,.007-.011.023,0,0-.066.139,0,0-.012.024,0,0-.011.023,0,0-.011.024v0l-.012.026h0q-.417.872-.855,1.731a1,1,0,1,1-1.781-.909,72.312,72.312,0,0,0,3.158-7.111A1,1,0,0,1,143.08,99.556Zm-7.16,14.033a1,1,0,0,1,.836,1.548q-1.637,2.5-3.466,4.86h0l-.019.024h0l-.133.171,0,0-.017.022,0,0-.016.021,0,0-.017.021,0,0-.076.1,0,0-.017.021,0,0-.014.018-.006.008-.013.016-.006.007-.013.016-.006.008-.013.016-.006.008-.013.016-.006.007-.016.02-.006.008-.015.019-.007.009-.011.014-.009.011-.009.012-.01.013-.008.01-.01.013-.008.011-.01.013-.008.009-.011.014-.007.009-.012.015,0,0-.067.084h0l-.015.019,0,0-.015.019,0,0-.015.019,0,0c-.193.242-.385.479-.582.719a1,1,0,0,1-1.545-1.27,72.969,72.969,0,0,0,4.6-6.274A1,1,0,0,1,135.92,113.589Zm-9.989,12.186a1,1,0,0,1,.7,1.71q-.731.719-1.48,1.417h0l-.019.018,0,0-.019.017h0l-.1.094h0l-.018.017,0,0-.016.015-.006.006-.015.014-.005.005-.016.014-.006.005-.016.015,0,0-.058.053,0,0-.016.015-.006.005-.014.013-.008.008-.013.012-.009.008-.013.012-.009.009-.013.012-.009.008-.012.011-.011.01-.011.01-.012.011-.01.009-.021.019-.009.008-.013.012-.01.009-.012.011-.01.009-.012.011-.01.009-.012.011-.009.008-.013.012-.009.008-.015.013-.007.006-.018.016,0,0-.045.04-.006.005-.016.015-.007.006-.015.014-.007.006-.016.015-.006.006-.016.015-.006.006-.018.016,0,0-.068.062h0l-.022.02,0,0-.02.018,0,0-.019.017,0,0-.019.017,0,0-.021.018h0l-.115.1h0l-.021.019,0,0-.021.019,0,0-.022.02h0q-1.62,1.446-3.324,2.8a1,1,0,1,1-1.243-1.567,73.146,73.146,0,0,0,5.831-5.155A1,1,0,0,1,125.931,125.775Zm-12.347,9.789a1,1,0,0,1,.535,1.846,74.3,74.3,0,0,1-6.981,3.9,1,1,0,1,1-.88-1.8,72.583,72.583,0,0,0,6.793-3.795A1,1,0,0,1,113.584,135.564Zm-14.146,6.93a1,1,0,0,1,.343,1.94,73.786,73.786,0,0,1-7.661,2.314,1,1,0,0,1-.47-1.944,72.142,72.142,0,0,0,7.447-2.249A1,1,0,0,1,99.438,142.495Zm-15.3,3.733a1,1,0,0,1,.134,1.991,74.945,74.945,0,0,1-7.981.622,1,1,0,0,1-.046-2,73.278,73.278,0,0,0,7.76-.6A1.009,1.009,0,0,1,84.135,146.227Zm-23.574-.673a1.007,1.007,0,0,1,.189.018,72.73,72.73,0,0,0,7.71,1.047,1,1,0,1,1-.163,1.993q-.629-.051-1.255-.113h0l-.031,0h0l-.438-.045h0l-.03,0h0l-.03,0h0l-.343-.037h0l-.03,0h0l-.03,0h0l-.029,0h0l-.029,0h0l-.03,0h0l-.311-.036h0l-.031,0h0l-.03,0h0l-.03,0h0l-.03,0h0l-.4-.049h0q-2.423-.3-4.8-.755a1,1,0,0,1,.187-1.982ZM45.5,140.943a1,1,0,0,1,.394.081,72.177,72.177,0,0,0,7.3,2.677,1,1,0,0,1-.585,1.912h0l-.026-.008h0l-.028-.009h0q-2.553-.784-5.026-1.744h0l-.027-.011h0l-.027-.01h0l-.026-.01h0l-.027-.01h0l-.144-.056h0l-.025-.01,0,0-.023-.009-.006,0-.021-.008-.007,0-.022-.009-.006,0-.023-.009-.005,0-.026-.01h0L47,143.647l-.006,0-.021-.008-.01,0-.017-.007-.011,0-.017-.007-.011,0-.017-.007-.012,0-.017-.007-.011,0-.017-.007-.011,0-.018-.007-.01,0-.019-.007-.009,0-.027-.011-.008,0-.02-.008-.012,0-.015-.006-.013-.005-.014-.006-.014-.006-.013-.005-.015-.006-.013-.005-.015-.006-.012,0-.015-.006-.012,0-.016-.007-.01,0-.017-.007-.009,0-.091-.037-.008,0-.019-.008-.007,0-.019-.008-.009,0-.018-.007-.009,0-.018-.007-.009,0-.019-.008-.007,0-.021-.008-.005,0-.022-.009h0l-.128-.053h0l-.025-.01h0l-.025-.01h0l-.024-.01h0l-.024-.01h0c-.295-.122-.586-.245-.878-.37a1,1,0,0,1,.4-1.918Zm-13.725-7.734a1,1,0,0,1,.581.187,72.782,72.782,0,0,0,6.564,4.179,1,1,0,1,1-.982,1.742q-2.4-1.354-4.69-2.877h0q-1.04-.692-2.054-1.417a1,1,0,0,1,.582-1.814ZM20.007,122.729a1,1,0,0,1,.741.328,73.177,73.177,0,0,0,5.527,5.479,1,1,0,0,1-1.33,1.494l-.018-.016,0,0L24.91,130l-.008-.007-.013-.012-.009-.008-.013-.011-.009-.008-.013-.012-.008-.007-.014-.012-.008-.007L24.8,129.9l-.008-.007-.014-.013,0,0-.053-.047-.008-.007-.014-.012-.008-.007-.014-.013-.007-.006-.015-.013-.007-.006-.014-.013-.007-.006-.015-.014,0,0-.017-.016h0l-.079-.072,0,0-.016-.014-.006-.005-.015-.014-.007-.006-.015-.014-.006-.005-.016-.014-.005,0-.016-.015,0,0-.078-.071,0,0-.017-.015,0,0-.017-.015,0,0-.016-.015-.005,0-.017-.015,0,0-.017-.016,0,0-.1-.092h0l-.018-.016,0,0-.017-.015,0,0-.017-.015,0,0-.017-.016h0l-.1-.093h0l-.019-.018,0,0-.017-.016,0,0-.018-.016,0,0-.019-.017h0l-.119-.111,0,0-.017-.016,0,0-.017-.016,0,0-.018-.017,0,0-.141-.132h0l-.02-.019h0l-.02-.018h0l-.141-.133h0l-.018-.017,0,0-.018-.017,0,0-.018-.017h0l-.118-.112,0,0-.017-.016,0,0-.017-.016,0,0-.017-.016,0,0-.017-.016,0,0L23,128.234h0l-.017-.016,0,0-.016-.016,0,0-.016-.016,0,0-.016-.015-.005-.005-.016-.015,0,0-.017-.016h0l-.077-.074,0,0-.016-.016,0,0L22.759,128,22.753,128l-.016-.015,0,0-.016-.016,0,0-.017-.016,0,0-.075-.073,0,0-.015-.014-.007-.007-.014-.014-.006-.006-.015-.014-.007-.006-.014-.013-.007-.007-.014-.013-.007-.007-.014-.014,0,0-.05-.049-.008-.008-.012-.012-.009-.008-.013-.012-.008-.008-.013-.013-.008-.008-.012-.012-.009-.009-.012-.011-.009-.009-.012-.011-.01-.009-.011-.011-.02-.02-.008-.008-.013-.012-.01-.01-.011-.01-.011-.011-.01-.01-.011-.011-.011-.011-.01-.01-.011-.011-.01-.01-.012-.012-.009-.009-.013-.013-.008-.008-.017-.017-.007-.006-.019-.018-.008-.008-.013-.013-.009-.009-.012-.012-.01-.01-.012-.012L22,127.265l-.013-.013-.008-.008-.014-.014-.007-.007-.015-.015-.006-.006-.043-.043,0,0-.02-.02,0,0-.017-.017-.006-.006-.016-.016,0,0-.017-.017,0,0-.018-.018,0,0-.019-.019,0,0-.066-.066h0l-.021-.021,0,0-.019-.019,0,0-.019-.019,0,0-.019-.019,0,0-.02-.02,0,0-.131-.133h0l-.022-.022h0q-1.108-1.124-2.168-2.293a1,1,0,0,1,.741-1.672Zm-9.274-12.738a1,1,0,0,1,.868.5,72.806,72.806,0,0,0,4.237,6.527,1,1,0,0,1-1.617,1.177q-.514-.706-1.012-1.424h0l-.124-.179h0l-.017-.024,0,0-.016-.023v0l-.017-.024h0l-.1-.153,0,0-.016-.023,0,0-.016-.023,0,0-.016-.024h0l-.087-.128,0,0-.016-.024h0l-.016-.024v0l-.017-.024h0l-.087-.129h0l-.017-.025v0l-.015-.023,0,0-.015-.022,0,0-.015-.023,0,0-.069-.1h0l-.017-.025h0l-.016-.023,0,0-.015-.022,0,0-.014-.022,0,0-.015-.023v0l-.069-.1h0l-.017-.025,0,0-.015-.023,0,0-.014-.022,0,0-.014-.022,0,0-.015-.023,0,0-.068-.1h0l-.016-.024,0,0-.014-.022,0,0-.014-.021,0,0-.014-.021,0,0-.016-.024h0l-.068-.1,0,0-.015-.023,0,0-.013-.02,0-.005-.013-.02,0-.006-.014-.021,0,0-.015-.023,0,0-.051-.078h0l-.016-.024,0,0-.013-.021,0-.005-.013-.021,0-.005-.014-.021,0,0-.014-.022,0,0-.016-.025h0l-.05-.078v0l-.015-.024,0,0-.014-.023,0,0-.014-.022,0,0-.014-.022,0,0-.015-.024h0l-.067-.1,0,0-.014-.022,0-.005-.013-.021,0-.005-.013-.02,0-.006-.014-.021,0,0-.066-.1v0l-.015-.024,0,0-.013-.021,0-.006-.012-.019,0-.007-.012-.019,0-.007-.012-.02,0-.006-.015-.023v0l-.049-.078,0,0-.013-.021,0-.006-.012-.019,0-.008-.011-.018,0-.007-.012-.02,0-.006-.013-.021,0,0-.014-.023,0,0-.032-.052,0,0-.013-.021-.005-.008-.011-.017-.006-.009-.01-.017-.005-.008-.011-.017-.005-.008-.011-.018,0-.007-.011-.019,0-.007-.014-.023v0l-.016-.026,0,0-.014-.023,0-.007-.011-.018-.006-.009-.01-.017L11,113.394l-.01-.016-.006-.01-.009-.015-.006-.01-.009-.015-.006-.011-.01-.016-.006-.01-.011-.019,0-.007-.015-.025-.006-.01-.01-.016-.007-.012-.008-.013-.008-.012-.008-.013-.008-.013-.008-.012-.008-.013-.008-.013-.008-.013-.007-.012-.008-.013-.009-.014-.007-.011-.015-.024,0-.007L10.761,113l-.008-.014-.007-.012-.008-.013-.007-.012-.008-.013-.007-.012-.008-.013L10.7,112.9l-.009-.014-.007-.011-.009-.014-.007-.011-.009-.014-.005-.009-.038-.064h0l-.011-.018,0-.007-.011-.018,0-.007-.011-.018,0-.007-.011-.018,0-.007-.011-.018,0-.007-.011-.019v0l-.085-.142h0l-.013-.022,0,0-.013-.022h0c-.185-.312-.367-.622-.548-.937a1,1,0,0,1,.868-1.5ZM4.4,95.57a1,1,0,0,1,.953.7,72.176,72.176,0,0,0,2.741,7.281,1,1,0,0,1-1.829.809Q5,101.5,3.984,98.52h0l-.009-.025v0l-.008-.024v0l-.008-.023v0l-.008-.023,0-.005-.008-.023v0l-.042-.125,0-.008-.006-.017,0-.012L3.877,98.2l0-.013,0-.015,0-.014,0-.013-.005-.015,0-.013L3.843,98.1l0-.012-.006-.018,0-.011-.008-.023,0,0-.02-.059v0l-.009-.026,0-.006-.008-.023,0-.005-.008-.024,0-.005-.008-.024,0-.005-.008-.024,0-.005L3.742,97.8v0q-.152-.462-.3-.926a1,1,0,0,1,.954-1.3ZM1.3,80.123a1,1,0,0,1,.995.91,72.663,72.663,0,0,0,1.115,7.7,1,1,0,0,1-1.96.4c-.079-.393-.154-.784-.226-1.179h0l-.005-.027h0l0-.027v0l0-.025v0l0-.024v-.007l0-.023V87.8l0-.024v-.005l0-.024v-.006l0-.024v0l-.013-.074,0-.01,0-.013,0-.017,0-.013,0-.017,0-.013,0-.017,0-.012,0-.018,0-.011,0-.02,0-.01,0-.02,0-.01,0-.02,0-.01,0-.021v-.008l0-.023v-.007l0-.024v-.005l0-.027v0l-.042-.245h0Q.649,84.613.393,82.124v0l0-.028v0l0-.026v-.006l0-.025v-.007L.38,82v-.009l0-.021v-.01l0-.02v-.01l0-.02V81.9l0-.019v-.012l0-.018v-.013l0-.018v-.013l0-.016L.35,81.7v-.007l0-.023v-.006l0-.024v-.006l0-.024V81.6l0-.023v-.007l0-.023V81.54l0-.024v0l0-.026v0l0-.028h0Q.316,81.333.3,81.211a1,1,0,0,1,.906-1.084Q1.257,80.123,1.3,80.123Zm.251-15.757a1.011,1.011,0,0,1,.123.008,1,1,0,0,1,.87,1.115,73.378,73.378,0,0,0-.537,7.764,1,1,0,1,1-2-.032q.038-2.4.227-4.764h0l0-.031h0l0-.03h0l0-.031h0l0-.031h0q.02-.249.042-.5h0q.114-1.3.273-2.591A1,1,0,0,1,1.553,64.366Zm3.6-15.337a1,1,0,0,1,.943,1.332,72.148,72.148,0,0,0-2.183,7.467,1,1,0,0,1-1.948-.452q.222-.945.467-1.879h0L2.5,55.22v0l.006-.024v0l.006-.022,0-.008.006-.021,0-.007.006-.021,0-.008.006-.021,0-.007.006-.021,0-.006.027-.1,0-.006.005-.02,0-.009,0-.018,0-.011,0-.017,0-.011,0-.017,0-.012,0-.017,0-.012,0-.016,0-.013,0-.016,0-.014,0-.014,0-.015,0-.015,0-.015,0-.014.008-.028,0-.011.005-.019,0-.012,0-.017,0-.013,0-.016,0-.013,0-.016,0-.013,0-.017,0-.013,0-.015,0-.014,0-.015,0-.013,0-.016,0-.013,0-.018,0-.011.005-.019,0-.01.008-.029v0l.007-.025,0-.008.006-.021,0-.011,0-.017,0-.013,0-.016,0-.012,0-.017,0-.012.005-.018,0-.011.005-.019,0-.01.006-.021,0-.007.007-.023,0-.006L2.838,54h0l.009-.03h0l.008-.029v-.005l.007-.023,0-.01.005-.019,0-.011.005-.018,0-.012.005-.018,0-.011,0-.017,0-.013,0-.017,0-.012,0-.016,0-.012.005-.018,0-.01.006-.022,0-.007.017-.058,0-.007.006-.022,0-.01.005-.019,0-.012,0-.016,0-.012,0-.016,0-.013,0-.016,0-.012,0-.017,0-.012.005-.018,0-.011.005-.019,0-.011.007-.022,0-.006.017-.059,0-.007.006-.022,0-.011.005-.018,0-.011.005-.018,0-.011.005-.018,0-.011,0-.017,0-.013.005-.017,0-.012,0-.017,0-.013,0-.016,0-.013,0-.014,0-.015,0-.015.006-.021.006-.021,0-.011.005-.018,0-.013,0-.015,0-.015,0-.014,0-.014,0-.015,0-.014,0-.015,0-.014,0-.014,0-.015,0-.014,0-.014,0-.015,0-.014,0-.013,0-.016,0-.01.012-.039,0-.006.005-.018,0-.01.005-.018,0-.011.005-.018,0-.011.005-.017,0-.011.005-.017,0-.011.005-.018,0-.01.006-.018,0-.01.006-.018,0-.011.006-.018,0-.009.006-.02v0l.023-.075,0-.005.007-.021,0-.007.006-.02,0-.008.006-.019,0-.009.006-.02,0-.008.006-.02,0-.009.006-.02,0-.008.006-.02,0-.007.007-.022h0l.042-.133v0l.007-.023,0,0,.007-.022,0-.007.007-.022v0l.007-.023v0l.008-.024v0l.008-.025h0l.069-.216h0l.008-.026h0l.008-.026v0q.29-.9.6-1.785A1,1,0,0,1,5.152,49.029Zm6.807-14.208a1,1,0,0,1,.849,1.527,72.559,72.559,0,0,0-3.735,6.826,1,1,0,1,1-1.8-.864q.433-.9.89-1.8v0l.013-.025v0l.013-.025v0l.013-.025v0l.013-.026v0l.057-.11,0,0,.012-.023,0,0,.012-.022,0-.006.011-.021,0-.006.011-.021,0-.006.012-.024v0l.043-.082v0l.013-.025,0,0,.012-.022,0-.006.011-.021,0-.007.01-.02,0-.007.011-.02,0-.007.011-.021,0-.006.012-.023,0,0,.029-.055h0l.013-.025,0-.006.011-.021,0-.006.011-.02,0-.008.01-.018,0-.009.01-.018,0-.009.01-.019,0-.008.01-.019,0-.007.028-.053,0,0,.012-.022,0-.008.01-.018.005-.01.009-.017.005-.01.009-.017.005-.01.009-.017.005-.01.009-.017.005-.009.01-.019,0-.007.028-.053,0-.006L8.8,39.3l0-.009.01-.018,0-.009.009-.017.006-.01.008-.016.006-.011.008-.015.006-.012.008-.015.005-.01.01-.018,0-.008L8.9,39.1h0l.014-.026,0-.008.01-.019,0-.008.01-.018.005-.01L8.96,39l.005-.01.009-.017.005-.01.01-.018,0-.009L9,38.916l0-.009.011-.02,0-.007.029-.053,0-.006.011-.02,0-.009.009-.017.005-.01.009-.017.006-.011.008-.015.006-.011.009-.016.005-.01.01-.018,0-.008.01-.019,0-.007.029-.053,0,0,.012-.022,0-.007.01-.019.005-.009.01-.017,0-.009.01-.017,0-.009.01-.018,0-.008.01-.019,0-.007.012-.022,0,0,.03-.053,0,0,.012-.022,0-.007.011-.019,0-.008.011-.019,0-.008.011-.019,0-.007L9.4,38.2l0-.007.012-.022,0,0,.014-.026h0l.03-.054h0l.015-.026,0,0,.013-.023,0-.005L9.5,38.01l0-.006.012-.021,0-.006.012-.022,0,0,.013-.023,0,0,.015-.026h0l.046-.081h0l.014-.025,0,0,.014-.024,0,0,.014-.024,0,0,.014-.024v0l.092-.162h0l.015-.026h0l.015-.026h0q.636-1.11,1.309-2.2A1,1,0,0,1,11.959,34.821Zm9.681-12.431a1,1,0,0,1,.719,1.7,73.131,73.131,0,0,0-5.1,5.876,1,1,0,1,1-1.578-1.229A74.848,74.848,0,0,1,20.92,22.7,1,1,0,0,1,21.639,22.391ZM33.737,12.3a1,1,0,0,1,.556,1.832,72.993,72.993,0,0,0-6.234,4.659,1,1,0,1,1-1.281-1.536q1.318-1.1,2.687-2.139h0l.124-.094h0L29.613,15l0,0,.019-.015.006,0,.018-.014.007,0,.018-.013.007,0,.017-.013.007-.005.019-.014,0,0,.024-.018h0l.022-.016.009-.007.014-.011.011-.008.012-.009.012-.009.011-.008.013-.01.011-.008.013-.01.011-.008.014-.01.008-.006.015-.011,0,0,.083-.061,0,0,.018-.014,0,0,.018-.013.006,0,.018-.013,0,0,.02-.015h0q1.5-1.116,3.064-2.156A1,1,0,0,1,33.737,12.3Zm13.97-7.283a1,1,0,0,1,.364,1.932,72.331,72.331,0,0,0-7.082,3.22,1,1,0,1,1-.925-1.773q1.021-.532,2.061-1.034h0l.168-.081h0l.025-.012,0,0,.022-.01.007,0,.02-.01.008,0,.018-.009.009,0,.018-.009.009,0,.018-.009.009,0,.019-.009.008,0,.024-.012.009,0,.02-.009.011-.005.016-.008.012-.006.015-.007.013-.006.013-.006.015-.007.011-.005.015-.007.012-.006.015-.007.01,0,.017-.008.007,0,.02-.009h0l.074-.035h0l.021-.01.005,0L42.871,7l.008,0,.018-.009.008,0,.019-.009.008,0,.019-.009.007,0,.02-.009.006,0L43,6.941h0l.126-.059h0l.023-.011h0l.022-.01,0,0,.023-.011h0l.024-.011h0l.2-.094h0l.025-.011h0l.025-.012h0l.2-.093h0l.025-.011h0l.025-.011h0l.2-.092h0l.025-.011h0l.024-.011h0l.2-.091h0l.024-.011h0l.023-.01,0,0,.023-.01h0l.024-.011h0l.151-.067,0,0,.021-.009.006,0,.02-.009.008,0,.019-.009.007,0,.02-.009.007,0,.019-.009.007,0,.019-.008.006,0,.071-.031h0l.018-.008.01,0,.016-.007.011,0,.015-.007.012-.005.015-.006.013-.006.013-.006.014-.006.013-.006.015-.006.012-.005.015-.007.012-.005.024-.01h0l.027-.012.009,0,.019-.008.01,0,.018-.008.01,0,.018-.008.009,0,.019-.008.009,0L45.106,6l.007,0,.021-.009.007,0,.024-.01h0l.115-.049h0l.028-.012h0L45.34,5.9h0l.027-.012h0q.979-.416,1.973-.8A1,1,0,0,1,47.707,5.014ZM62.914.9a1,1,0,0,1,.154,1.988A72.3,72.3,0,0,0,55.46,4.509a1,1,0,0,1-.526-1.93c.557-.151,1.114-.295,1.676-.433h0l.024-.006h0l.023-.006.007,0,.022-.005.007,0,.02,0,.009,0,.02,0,.008,0,.021-.005.007,0,.023-.005h0l.1-.025.007,0,.018,0,.012,0,.016,0,.013,0,.016,0,.014,0,.015,0,.014,0,.015,0,.015,0,.014,0,.016,0,.013,0,.017,0,.011,0,.02,0,.009,0,.023-.006H57.2L57.226,2h0l.06-.014h0l.028-.006h.006l.023-.005.008,0,.022-.005.007,0,.023-.005.007,0,.024-.006h.006l.024-.006h.006l.025-.006h0l.027-.006h0l.3-.07h0Q60.267,1.3,62.757.91A1.008,1.008,0,0,1,62.914.9ZM74.431,0h1.2c.05,0,.1,0,.148,0h.392l.417.011h0q2.945.084,5.828.393a1,1,0,0,1-.215,1.988A73.585,73.585,0,0,0,74.431,2h0c-1.2,0-2.422.03-3.621.089a1,1,0,0,1-.1-2C71.673.044,72.646.015,73.619,0h.812Z" transform="translate(0)" fill="#12263f"/></g><circle cx="67" cy="67" r="67" transform="translate(666.617 898.697)" fill="#f6f7f8"/><g transform="translate(746.909 903.737) rotate(180)"><g transform="translate(0 0)"><path d="M14.183-.707l8.393,8.329L16.4,13.841l6.4,6.353-8.71,8.777L-.707,14.29,7.649,5.87Zm6.978,8.334L14.188.707,8.307,6.627l-7.6,7.658L14.084,27.557l7.3-7.357-6.4-6.354Z" transform="translate(57.468 0.14)" fill="#119798"/><path d="M14.183-.707l8.393,8.329L16.4,13.841l6.4,6.353-8.71,8.777L-.707,14.29,7.649,5.87Zm6.978,8.334L14.188.707,8.307,6.627l-7.6,7.658L14.084,27.557l7.3-7.357-6.4-6.354Z" transform="translate(28.734 0.14)" fill="#119798"/><path d="M14.183-.707l8.393,8.329L16.4,13.841l6.4,6.353-8.71,8.777L-.707,14.29,7.649,5.87Zm6.978,8.334L14.188.707,8.307,6.627l-7.6,7.658L14.084,27.557l7.3-7.357-6.4-6.354Z" transform="translate(0 0.14)" fill="#119798"/><path d="M14.183-.707l8.391,8.329L16.4,13.84l6.4,6.353-8.71,8.779L-.707,14.292,7.647,5.871ZM21.16,7.627,14.188.707,8.306,6.627l-7.6,7.659L14.083,27.558l7.3-7.359-6.4-6.354Z" transform="translate(86.2)" fill="#119798"/></g></g></g></g></g><g transform="translate(453.814 1802.66)"><path d="M51.979,45.607V55.674a1.613,1.613,0,0,1-1.607,1.607H45.6a1.6,1.6,0,0,1-1.594-1.607V45.607A1.6,1.6,0,0,1,45.6,44h4.768A1.613,1.613,0,0,1,51.979,45.607Z" transform="translate(13.126 14.438)" fill="#fd6"/><path d="M70.114,58.732V68.8a8.264,8.264,0,0,1-8.248,8.248H57.112a8.24,8.24,0,0,1-7.251-4.328,10.863,10.863,0,0,0-2.657.437c-.212.053-.385.106-.518.133-4.316,1.049-10.32-.12-16.23-3.068a42.176,42.176,0,0,1-8.766-5.844,38.023,38.023,0,0,1-7.2-8.327A37.772,37.772,0,0,1,9.658,29.274,40.152,40.152,0,0,1,24.174,5.421,6.657,6.657,0,0,1,32.09,5.2l4.821,3.373A6.657,6.657,0,0,1,39,17.069a28.971,28.971,0,0,0-2.789,12.87,23.43,23.43,0,0,0,3.068,11.209,23.855,23.855,0,0,0,5.645,6.641,27.161,27.161,0,0,0,7.424,4.223,8.224,8.224,0,0,1,4.768-1.527h4.755a8.264,8.264,0,0,1,8.248,8.248ZM63.473,68.8V58.732a1.613,1.613,0,0,0-1.607-1.607H57.1A1.6,1.6,0,0,0,55.5,58.732v1.049c-1.859-.332-14.888-2.9-21.994-15.34-8.327-14.57-.956-29.378-.412-30.427l-2.072-1.448L28.278,10.64A33.341,33.341,0,0,0,16.192,30.469,31.3,31.3,0,0,0,20.11,52.5c6.641,10.545,19.59,15.645,25.022,14.33a14.762,14.762,0,0,1,9.27.013c.359.133.73.279,1.1.412V68.8A1.6,1.6,0,0,0,57.1,70.406h4.768A1.613,1.613,0,0,0,63.473,68.8Z" transform="translate(1.632 1.313)" fill="#e6ecf4"/><path d="M52,60.321c-15.234.027-28.13-9.589-31.49-22.578-3.719-14.384,6.03-26.137,7.013-27.293L29.592,11.9c-.545,1.049-7.916,15.858.412,30.427C37.11,54.77,50.138,57.333,52,57.665Z" transform="translate(5.139 3.429)" fill="#ffbc1c"/><path d="M52.759,65.206a14.762,14.762,0,0,0-9.27-.013c-5.432,1.315-18.381-3.785-25.022-14.33a31.3,31.3,0,0,1-3.918-22.034A33.341,33.341,0,0,1,26.635,9l2.749,1.926c-.983,1.155-10.731,12.909-7.013,27.293,3.36,12.989,16.256,22.6,31.49,22.578v4.821C53.489,65.485,53.117,65.339,52.759,65.206Z" transform="translate(3.275 2.953)" fill="#ffcf44"/><path d="M9.565,1H72.147A4.557,4.557,0,0,1,76.7,5.569V78.775a4.557,4.557,0,0,1-4.555,4.569H9.565A4.557,4.557,0,0,1,5.01,78.775V5.569A4.557,4.557,0,0,1,9.565,1ZM47.988,74.273c.133-.027.305-.08.518-.133a10.862,10.862,0,0,1,2.656-.438,8.24,8.24,0,0,0,7.252,4.33h4.755a8.264,8.264,0,0,0,8.248-8.248V59.716a8.264,8.264,0,0,0-8.248-8.248H58.414A8.224,8.224,0,0,0,53.646,53a27.161,27.161,0,0,1-7.424-4.223,23.855,23.855,0,0,1-5.645-6.641,23.43,23.43,0,0,1-3.068-11.209A28.971,28.971,0,0,1,40.3,18.053a6.657,6.657,0,0,0-2.085-8.5L33.392,6.18a6.657,6.657,0,0,0-7.916.226A40.152,40.152,0,0,0,10.96,30.259a37.772,37.772,0,0,0,4.834,26.775,38.023,38.023,0,0,0,7.2,8.327A42.175,42.175,0,0,0,31.758,71.2c5.91,2.948,11.913,4.117,16.23,3.068Z" transform="translate(0.33 0.328)" fill="#d8e0eb"/><path d="M72.472,85H9.9a5.9,5.9,0,0,1-5.894-5.894V5.894A5.9,5.9,0,0,1,9.9,0H72.472a5.9,5.9,0,0,1,5.894,5.894V79.106A5.9,5.9,0,0,1,72.472,85ZM9.9,2.656A3.241,3.241,0,0,0,6.662,5.894V79.106A3.241,3.241,0,0,0,9.9,82.344H72.472a3.241,3.241,0,0,0,3.237-3.237V5.894a3.241,3.241,0,0,0-3.237-3.237Z"/><path d="M54.188,67.274a1.334,1.334,0,0,1-.466-.084l-1.1-.411a13.154,13.154,0,0,0-8.13-.062l-.364.095C38.236,68.242,24.677,63.017,17.67,51.9a32.428,32.428,0,0,1-4.1-22.979A34.748,34.748,0,0,1,26.14,8.284a1.328,1.328,0,0,1,1.582-.044l4.821,3.373a1.328,1.328,0,0,1,.418,1.7c-.316.61-7.651,15.094.385,29.158,6.62,11.583,18.717,14.27,21.075,14.691a1.328,1.328,0,1,1-.467,2.615C51.393,59.318,38.246,56.4,31.04,43.788,23.479,30.555,28.41,17,30.105,13.149l-3.083-2.157a31.964,31.964,0,0,0-10.842,18.4,29.8,29.8,0,0,0,3.735,21.088C26.518,60.955,38.94,65.331,43.5,64.23l.291-.078a15.894,15.894,0,0,1,9.757.139l1.1.411a1.328,1.328,0,0,1-.466,2.572Z" transform="translate(2.943 2.625)"/><path d="M62.191,78.706H57.436a9.564,9.564,0,0,1-7.967-4.273,10.935,10.935,0,0,0-1.586.334l-.24.064c-.147.039-.272.071-.38.092-9.1,2.207-25.444-4.945-33.569-17.834A39.08,39.08,0,0,1,8.675,29.367a41.443,41.443,0,0,1,15-24.66,7.935,7.935,0,0,1,9.494-.27L38,7.812a8.005,8.005,0,0,1,2.5,10.2c-.065.125-6.057,11.761.253,22.809A23.56,23.56,0,0,0,52.516,50.857a9.524,9.524,0,0,1,4.92-1.37H62.19a9.587,9.587,0,0,1,9.576,9.576V69.13a9.587,9.587,0,0,1-9.576,9.576ZM50.184,71.72a1.329,1.329,0,0,1,1.168.7,6.913,6.913,0,0,0,6.083,3.633h4.755a6.927,6.927,0,0,0,6.92-6.92V59.063a6.927,6.927,0,0,0-6.92-6.92H57.436a6.9,6.9,0,0,0-4,1.284,1.33,1.33,0,0,1-1.236.158A26.343,26.343,0,0,1,38.446,42.137c-7.026-12.3-.578-24.83-.3-25.356a5.339,5.339,0,0,0-1.673-6.794l-4.82-3.372a5.3,5.3,0,0,0-6.333.182A38.753,38.753,0,0,0,11.287,29.844a36.424,36.424,0,0,0,4.654,25.828C23.482,67.636,38.4,74.329,46.7,72.329c.114-.023.178-.043.253-.062l.257-.067a11.932,11.932,0,0,1,2.948-.479Z" transform="translate(1.302 0.982)"/><path d="M50.7,58.938H45.94A2.938,2.938,0,0,1,43.006,56V45.934A2.938,2.938,0,0,1,45.94,43H50.7a2.938,2.938,0,0,1,2.934,2.934V56A2.938,2.938,0,0,1,50.7,58.938ZM45.94,45.656a.278.278,0,0,0-.278.278V56a.278.278,0,0,0,.278.278H50.7A.278.278,0,0,0,50.975,56V45.934a.278.278,0,0,0-.278-.278Z" transform="translate(12.797 14.109)"/><path d="M52.25,61.976c-15.675,0-29.116-9.685-32.7-23.574-3.851-14.91,6.14-27.14,7.292-28.485a1.328,1.328,0,1,1,2.018,1.728C27.8,12.882,18.607,24.13,22.12,37.738c3.231,12.513,15.9,21.581,30.134,21.582a.18.18,0,0,0,.065,0,1.328,1.328,0,0,1,1.328,1.325,1.361,1.361,0,0,1-1.4,1.331Z" transform="translate(4.812 3.102)"/><path d="M9.464,63.614a1.328,1.328,0,0,1-.939-2.267l12.5-12.5A1.328,1.328,0,1,1,22.9,50.727l-12.5,12.5a1.324,1.324,0,0,1-.939.389Z" transform="translate(1.355 15.901)"/><path d="M20.334,62.343a1.328,1.328,0,0,1-.939-2.267l6.826-6.826A1.328,1.328,0,0,1,28.1,55.128l-6.826,6.826A1.324,1.324,0,0,1,20.334,62.343Z" transform="translate(4.922 17.345)"/><path d="M29.8,30.611a1.328,1.328,0,0,1-.939-2.267L50.819,6.389A1.328,1.328,0,1,1,52.7,8.267L30.743,30.221a1.324,1.324,0,0,1-.939.389Z" transform="translate(8.029 1.969)"/><path d="M36.364,43.21a1.328,1.328,0,0,1-.939-2.267L53.979,22.389a1.328,1.328,0,1,1,1.878,1.878L37.3,42.821a1.324,1.324,0,0,1-.939.389Z" transform="translate(10.182 7.219)"/><path d="M41.334,26.609a1.328,1.328,0,0,1-.939-2.267L52.348,12.389a1.328,1.328,0,1,1,1.878,1.878L42.273,26.22a1.324,1.324,0,0,1-.939.389Z" transform="translate(11.813 3.938)"/><path d="M48.334,42.625a1.328,1.328,0,0,1-.939-2.267l7.969-7.969a1.328,1.328,0,1,1,1.878,1.878l-7.969,7.969a1.324,1.324,0,0,1-.939.389Z" transform="translate(14.109 10.5)"/></g></g></svg>