<svg xmlns="http://www.w3.org/2000/svg" width="74.228" height="70.995" viewBox="0 0 74.228 70.995"><g transform="translate(10484 11528.995)"><g transform="translate(-10484 -11528.995)"><g transform="translate(2.685 2.745)"><g transform="translate(0 0)"><path d="M125.261,248.265l-4.033,4.034a31.461,31.461,0,0,0,22.309,9.256v-5.707A25.78,25.78,0,0,1,125.261,248.265Z" transform="translate(-111.972 -198.425)" fill="#7a8045"/><path d="M114.326,223.369h-5.707a31.464,31.464,0,0,0,9.256,22.309l4.033-4.034A25.774,25.774,0,0,1,114.326,223.369Z" transform="translate(-108.619 -191.804)" fill="#7a8045"/><path d="M151.618,255.847v5.707a31.467,31.467,0,0,0,22.31-9.256l-4.034-4.034A25.774,25.774,0,0,1,151.618,255.847Z" transform="translate(-120.054 -198.425)" fill="#7a8045" opacity="0.6"/><path d="M189.8,223.369H184.1a25.772,25.772,0,0,1-7.582,18.275l4.034,4.034A31.466,31.466,0,0,0,189.8,223.369Z" transform="translate(-126.675 -191.804)" fill="#7a8045" opacity="0.3"/><path d="M121.908,197.011l-4.033-4.034a31.464,31.464,0,0,0-9.256,22.31h5.707A25.777,25.777,0,0,1,121.908,197.011Z" transform="translate(-108.619 -183.722)" fill="#7a8045"/><path d="M169.894,193.658l4.034-4.034a31.466,31.466,0,0,0-22.31-9.255v5.707A25.779,25.779,0,0,1,169.894,193.658Z" transform="translate(-120.054 -180.369)" fill="#7a8045" opacity="0.3"/><path d="M184.1,215.287H189.8a31.469,31.469,0,0,0-9.255-22.31l-4.034,4.034A25.775,25.775,0,0,1,184.1,215.287Z" transform="translate(-126.675 -183.722)" fill="#7a8045" opacity="0.3"/><path d="M143.536,186.076v-5.707a31.466,31.466,0,0,0-22.309,9.255l4.033,4.034A25.782,25.782,0,0,1,143.536,186.076Z" transform="translate(-111.972 -180.369)" fill="#7a8045"/></g></g><path d="M34.338,0h1.578l.036,0H36l.047,0h.035l.046,0h.036l.046,0h.037l.057,0h.025l.058,0h.024l.058,0h.013l.081.005h0l.082.005h.012q.739.049,1.469.13h.012l.069.008h.012l.068.008h.024l.057.007h.024l.056.007h.037l.034,0h0l.012,0h.036l.042.005h.024l.012,0,.012,0,.022,0h0l.012,0,.012,0,.012,0,.013,0h.012l.016,0h.011l.012,0,.012,0,.013,0,.012,0,.012,0,.017,0,.013,0,.013,0,.012,0L38.9.3l.013,0,.017,0,.013,0,.013,0,.013,0,.012,0,.013,0,.015,0,.014,0,.013,0,.013,0,.013,0,.026,0,.013,0,.013,0,.013,0,.013,0h0l.039.005.013,0,.014,0,.014,0h0l.053.008.013,0h0c.342.049.683.1,1.021.163l-.173.985a33.667,33.667,0,0,0-5.8-.5V0ZM46.1,2.066q.763.278,1.51.591h0l.072.03h0l.01,0h0l.01,0h0l.01,0h0l.011,0h0l.036.015h0l.011,0h0l.01,0h0l.009,0h0l.009,0h0l.01,0h0l.011,0h0l.036.015h0l.01,0,.011,0,.012,0,.012.005,0,0,.009,0h0l.009,0h0l.023.01h0l.01,0,.011,0L48,2.826l.012.005.012.005.011,0,0,0,.007,0,0,0,.01,0h0l.011,0,.011,0,.011.005.012.005.011,0,.011.005.011.005.005,0,.007,0,0,0,.008,0,.007,0,.007,0,.005,0,.006,0,.011,0,.011.005.011,0,.011.005.011,0,.011,0,.007,0h0l.02.009h0l.008,0,0,0,.007,0,0,0,.007,0,0,0,.007,0,0,0,.007,0,0,0,.008,0h0l.008,0h0L48.405,3h0l.009,0h0l.009,0h0l.008,0h0l.009,0h0l.009,0h0l.052.024h0l.009,0h0l.008,0,0,0,.008,0h0l.008,0h0l.009,0h0l.052.024h0l.01,0h0l.01,0h0l.01,0h0l.01,0h0l.074.034h0l.01,0h0l.01,0h0l.01,0h0l.084.039h0l.01,0h0l.01,0h0l.084.039h0q.635.3,1.256.624h0l.185.1h0l.01.005h0l.01.005h0l.061.033h0l.009.005h0l.009,0h0l.009,0h0l.009,0h0l.009,0h0l.009,0h0l.039.021h0l.009,0h0l.009,0h0l.008,0h0l.008,0,0,0,.008,0h0l.008,0h0l.039.021h0l.008,0h0l.008,0,0,0,.007,0,0,0,.007,0,0,0,.007,0,0,0,.007,0,0,0,.025.014,0,0,.006,0,0,0,.006,0,.01.006.005,0,.005,0,.006,0,.005,0,.006,0,.005,0,.006,0,0,0,.008,0,0,0,.022.012,0,0,.007,0,0,0,.007,0,0,0,.007,0,0,0,.007,0,0,0,.007,0,0,0,.009,0h0l.034.019h0l.01.006h0l.009,0h0l.009,0h0l.009,0h0l.01.005h0l.01.006h0l.045.025h0l.011.006h0l.011.006h0l.011.006h0q.195.11.388.222l-.5.865a33.27,33.27,0,0,0-5.269-2.464ZM56.429,8.049l.057.048h0L56.5,8.1h0l.009.007h0l.009.008h0l.059.05h0l.009.008h0l.009.007h0L56.6,8.2h0l.009.007h0l.058.05h0l.009.008h0l.009.007h0l.008.007h0l.009.008h0l.009.008h0l.048.042,0,0,.008.007,0,0,.008.007,0,0,.007.006,0,0,.007.006,0,0,.007.006,0,0,.009.008h0l.038.033h0l.008.007,0,0,.007.006,0,0,.007.006,0,0,.007.006,0,0,.008.007,0,0,.008.007h0l.029.025h0l.008.007,0,0,.007.006,0,0,.007.006,0,0,.007.007,0,0L57,8.542l0,0,.008.007,0,0,.008.007h0l.029.025h0l.009.008,0,0,.008.007,0,0,.007.006,0,0,.006.006,0,0,.007.006,0,0,.007.006,0,0,.007.006,0,0,.008.007h0l.019.017h0l.009.008,0,0,.007.006,0,0,.007.006,0,0,.006.006,0,0,.006.005,0,0,.006.006,0,0,.007.007,0,0,.008.007h0l.028.025,0,0,.007.006,0,0,.007.006,0,0,.007.006,0,0,.006.006,0,0,.007.006,0,0,.007.006,0,0,.008.007h0l.019.017h0l.008.007,0,0,.007.006,0,0,.006.006,0,0,.006.006,0,0,.006.006,0,0,.006.005,0,0L57.4,8.9l0,0,.007.007h0l.008.007,0,0,.009.008h0l.008.007,0,0,.007.006,0,0,.006.006,0,0,.006.005,0,0,.006.006,0,0,.007.006,0,0,.007.006,0,0L57.51,9h0l.028.026h0l.008.008h0l.008.007,0,0,.007.007,0,0,.007.006,0,0,.007.006,0,0,.007.006,0,0,.008.008h0l.028.026h0l.008.008,0,0,.007.007,0,0,.007.006,0,0,.007.006,0,0,.007.006,0,0,.007.007,0,0,.008.008h0l.028.026h0l.008.007,0,0,.007.007,0,0,.007.007,0,0,.007.007,0,0,.007.007,0,0,.008.007h0l.009.008h0l.046.044h0l.008.007h0l.008.007,0,0,.007.007,0,0,.007.007,0,0,.008.008h0l.037.035h0l.009.008h0l.008.008h0l.008.007,0,0,.008.007h0l.008.008h0l.009.008h0l.037.035h0l.008.008,0,0,.008.007h0l.008.007,0,0,.008.008h0l.008.008h0l.065.062h0l.009.009h0l.009.008h0l.009.008h0l.166.161h0q1.231,1.2,2.337,2.521l-.766.642a33.636,33.636,0,0,0-4.111-4.118ZM64.1,17.2l.006.01h0l.005.009h0l.005.009h0l.005.009h0l.046.08h0l.005.01h0l.006.01h0l.006.01h0l.052.091h0l.045.08h0q.089.157.175.316h0l.005.01h0l.044.081h0l.111.205h0l.049.093h0l.005.01h0l.005.01h0l.005.01h0l.043.082h0l.005.01h0l.038.072h0l.005.01h0l0,.009h0l0,.009h0l0,.009h0l.037.071h0l0,.009v0l0,.009h0l.005.01h0l.032.062h0l.005.01h0l.005.01h0l.005.01h0l.005.01h0l.032.062h0l0,.01h0l0,.009v0l0,.009h0l0,.01h0l.026.051h0l0,.009v0l0,.009v0l0,.009v0l0,.009h0l0,.01h0l.031.062h0l0,.009v0l0,.009v0l0,.009h0l.031.062h0l0,.009v0l0,.009h0l0,.009h0l0,.01h0l0,.01h0l.025.05h0l0,.009v0l0,.008v0l0,.008,0,0,0,.008v0l0,.008v0l.025.05h0l0,.009v0l0,.009v0l0,.009v0l0,.009h0l0,.009h0l.02.041h0l0,.009h0l0,.009v0l0,.008v0l0,.008v0l0,.008v0l0,.009h0l.025.052h0l0,.009v0l0,.009v0l0,.009v0l0,.009v0l0,.008v0l.019.039h0l0,.009v0l0,.008v0l0,.008v0l0,.008v0l0,.008v0l0,.009h0l.019.04v0l0,.008,0,0,0,.007,0,0,0,.007,0,0,0,.007,0,0,0,.008v0l0,.008v0l.018.038,0,0,0,.007,0,0,0,.007,0,0,0,.007,0,0,0,.007,0,0,0,.008v0l0,.009h0l.014.031h0l0,.008v0l0,.008,0,0,0,.007,0,0,0,.007v0l0,.008v0l0,.008v0l0,.008v0l.017.038v0l0,.008v0l0,.008v0l0,.008v0l0,.008,0,0,0,.008v0l0,.009h0l.018.04v0l0,.008v0l0,.008,0,0,0,.008,0,0,0,.008v0l0,.008v0l0,.008v0l.014.03h0l0,.008,0,0,0,.008v0l0,.008v0l0,.008v0l0,.008v0l0,.008v0l.023.051v0l0,.009v0l0,.008,0,0,0,.008v0l0,.008v0l0,.008v0l0,.009v0l.017.039v0l0,.008v0l0,.008,0,0,0,.008v0l0,.008,0,0,0,.007v0l0,.008h0l.014.031h0l0,.008v0l0,.008,0,0,0,.007,0,0,0,.007,0,0,0,.007,0,0,0,.008h0l.018.042h0l0,.009v0l0,.009v0l0,.009v0l0,.008v0l0,.008v0l0,.009h0l.018.043h0l0,.01h0l0,.009v0l0,.009v0l0,.009v0l0,.01h0l.027.063v0l0,.009v0l0,.009v0l0,.009h0l0,.01h0l.027.063h0l0,.01h0l0,.01v0l.036.085v0l0,.01h0l0,.01h0l0,.01h0l0,.01h0l.027.064h0l0,.01h0l0,.01v0l0,.01h0l0,.01h0l.026.064h0l0,.01v0l0,.01v0l0,.01h0l.031.075h0l0,.01h0l0,.01h0q.248.61.474,1.231l-.94.341A33.267,33.267,0,0,0,63.233,17.7Zm4.069,11.224q.248,1.43.377,2.9h0l.006.069h0q.006.075.012.15h0v.011h0v.011h0l0,.057v.012h0l.005.069h0v.012l0,.056h0V31.8h0l0,.057h0v.022h0l0,.045h0v.035h0l0,.045v.038l0,.033h0v.037l0,.043V32.2h0v.022h0v.049l0,.03v.05l0,.031v.071h0v.049l0,.032h0v1.09h0v.234h0v.152h0v.07c0,.009,0,.017,0,.026v.04s0,0,0,0v.026s0,0,0,0,0,.007,0,.011v.026s0,0,0,.005v.009s0,0,0,0v.01s0,0,0,0v.013s0,0,0,0,0,.006,0,.01,0,0,0,0,0,.006,0,.008,0,0,0,0,0,.006,0,.008v0s0,.007,0,.009v0s0,.008,0,.013,0,.038,0,.056l-1,0v-.055a33.671,33.671,0,0,0-.493-5.744Zm-1,11.766.985.174q-.217,1.226-.52,2.421h0l0,.011h0l0,.011h0l-.017.067h0l0,.011h0l0,.011h0l-.017.066h0l0,.01v0l0,.009v0l0,.009v0l0,.009v0l-.011.043v0l0,.009v0l0,.008v0l0,.008v0l0,.008v0l0,.008v0l0,.009h0l-.005.02v0l0,.007v0l0,.007v.006l0,.007v.005l0,.007V43.2l0,.006,0,.006,0,.006,0,.006,0,.011,0,.006,0,.006,0,.006,0,.006,0,.007v.005l0,.007,0,.006,0,.007v.005l0,.008v0l0,.008v0l0,.008,0,.007,0,.009v0l0,.008v.005l0,.007v0l0,.007v0l0,.008v0l0,.008v0l0,.011h0l0,.013h0l0,.012v0l0,.01v0l0,.009v0l0,.009v0l0,.01v0l0,.011h0l-.007.025h0l0,.012v0l0,.01v0l0,.01v0l0,.011v0l0,.011h0l-.011.038h0l0,.013h0l0,.012h0l0,.012h0l0,.012h0l-.014.05h0l0,.012h0l0,.011v0l0,.011h0l0,.012h0q-.343,1.2-.769,2.361l-.939-.344A33.19,33.19,0,0,0,67.164,40.189ZM63.178,51.071l.864.5-.006.01h0l-.005.009h0l-.005.009h0l-.005.009v0l0,.008v0l-.005.009v0l0,.009h0l-.029.049h0l-.005.009v0l0,.008,0,0,0,.008,0,0,0,.007,0,0,0,.008v0l0,.008h0l-.023.039h0l0,.008v0l0,.007,0,0,0,.007,0,0,0,.007,0,0,0,.007,0,0,0,.007,0,0,0,.007,0,0-.014.023,0,.005,0,.005,0,0,0,.006,0,0,0,.007,0,0,0,.006,0,0,0,.006,0,0,0,.007,0,0,0,.007,0,0,0,.007,0,0-.015.025v0l0,.006,0,0,0,.006,0,0,0,.006,0,0,0,.006,0,0,0,.006,0,0,0,.006,0,0,0,.006,0,0,0,.006,0,0,0,.007v0l-.008.013,0,.006,0,.006,0,0,0,.006,0,0,0,.006,0,0,0,.005,0,.005,0,.005,0,.006,0,0,0,.006,0,.005,0,.005,0,0,0,.008,0,0-.007.011h0l-.005.009,0,0,0,.006,0,0,0,.006,0,0,0,.006,0,0,0,.006,0,0,0,.006,0,0,0,.007,0,0,0,.007,0,0,0,.007,0,0-.006.01,0,0,0,.007,0,0,0,.006,0,0,0,.006,0,0,0,.006,0,0,0,.007,0,0,0,.006,0,0,0,.006,0,0,0,.006,0,0,0,.007,0,.006,0,.008,0,0,0,.007,0,0,0,.006,0,0,0,.006,0,.005,0,.005,0,.005,0,0,0,.005,0,.006,0,0,0,.006,0,0,0,.007,0,0-.013.021v0l-.005.008,0,0,0,.007,0,0,0,.006,0,.005,0,.005,0,0,0,.006,0,0,0,.006,0,0,0,.007,0,0,0,.007,0,0-.007.01,0,0,0,.008,0,0,0,.006,0,.005,0,.006,0,0,0,.006,0,0,0,.007,0,0,0,.006,0,0,0,.006,0,0,0,.007,0,0,0,.007,0,0-.006.009,0,.006,0,.006,0,0,0,.007,0,0,0,.006,0,0,0,.005,0,.005,0,.005,0,0,0,.006,0,.005,0,.005,0,.005,0,.005,0,.005-.005.008v0l-.007.01,0,0,0,.008,0,0,0,.006,0,0,0,.006,0,0,0,.006,0,0,0,.006,0,0,0,.006,0,0,0,.006,0,0,0,.006,0,0,0,.007,0,.006,0,.008,0,0,0,.006,0,0,0,.006,0,0,0,.005,0,0,0,.005,0,.005,0,.005,0,.005,0,0,0,.006,0,0,0,.005,0,.005,0,.005,0,.006,0,.007,0,.007,0,0,0,.005,0,.005,0,0,0,.006,0,0,0,.006,0,0,0,.006,0,0,0,.006,0,0,0,.006,0,0,0,.006,0,0,0,.005,0,0-.016.024v0l0,.007,0,0,0,.007,0,0,0,.007,0,0,0,.007,0,0,0,.006,0,0,0,.006,0,0,0,.007v0l-.023.035,0,0,0,.007,0,0,0,.007,0,0,0,.006,0,0,0,.007,0,0,0,.007v0l-.005.008h0l-.031.047h0l-.006.008v0l-.005.008v0l-.005.008,0,0-.005.008v0l-.005.008v0l-.006.009h0l-.052.077h0l-.006.009h0l-.052.076h0l-.006.009h0l-.006.009h0l-.066.1h0l-.006.009h0q-.966,1.405-2.065,2.707l-.764-.645A33.518,33.518,0,0,0,63.178,51.071ZM55.7,59.932l.641.767a34.423,34.423,0,0,1-4.915,3.428l-.5-.867A33.512,33.512,0,0,0,55.7,59.932Zm-10.05,5.775.339.941q-.738.266-1.493.5h0l-.1.031h0l-.012,0h0l-.012,0h0l-.05.015h0l-.012,0h0l-.011,0h0l-.011,0h0l-.05.015h0l-.012,0h0l-.01,0-.012,0h0l-.01,0h0l-.011,0h0l-.025.007h0l-.01,0-.012,0-.012,0-.012,0h0l-.01,0h0l-.037.011h0l-.01,0-.012,0-.013,0-.012,0h0l-.011,0h0l-.037.011-.012,0-.012,0-.013,0-.013,0h0l-.037.011h0l-.011,0-.012,0-.012,0-.013,0-.013,0h0l-.025.007-.012,0-.012,0-.013,0-.012,0-.013,0h0l-.012,0h0l-.025.007h0l-.01,0-.012,0-.013,0-.012,0h0l-.011,0h0l-.037.01h0l-.01,0-.012,0-.013,0h0l-.011,0h0l-.05.014h0l-.011,0-.012,0h0l-.01,0h0l-.011,0h0l-.038.01h0l-.011,0-.013,0h0l-.01,0h0l-.011,0h0l-.05.014h0l-.011,0h0l-.011,0h0l-.011,0h0l-.012,0h0l-.038.01h0l-.012,0h0l-.012,0h0l-.012,0h0l-.012,0h0l-.063.017h0l-.012,0h0l-.011,0h0l-.012,0h0l-.051.013h0l-.012,0h0l-.012,0h0l-.012,0h0l-.064.016h0l-.012,0h0l-.012,0h0l-.077.019h0l-.012,0h0l-.09.023h0q-.683.17-1.377.313h0l-.078.016-.013,0-.013,0-.013,0h0l-.065.013-.013,0-.013,0-.014,0h0l-.052.01-.013,0-.013,0-.013,0h0l-.052.01-.013,0-.012,0-.013,0-.013,0-.015,0-.014,0-.013,0-.012,0-.013,0-.012,0-.013,0-.013,0-.014,0-.015,0-.012,0-.012,0-.012,0-.012,0-.012,0-.012,0-.009,0-.03.006-.012,0-.012,0-.012,0-.012,0-.012,0h0l-.044.008-.011,0-.012,0h0l-.012,0-.279.049-.169-.986A33.194,33.194,0,0,0,45.652,65.707ZM28.432,67.154a33.65,33.65,0,0,0,5.8.521l0,1a34.618,34.618,0,0,1-5.116-.4h0l-.013,0h0l-.013,0h0l-.066-.01-.013,0-.014,0h0l-.039-.006-.013,0-.012,0-.013,0-.014,0-.015,0-.012,0-.012,0-.013,0-.012,0-.013,0-.017,0-.012,0-.012,0-.012,0-.013,0h-.012l-.012,0-.019,0-.012,0-.012,0-.012,0-.012,0h-.01l-.03,0-.012,0-.012,0-.012,0h0l-.042-.007h0l-.012,0-.01,0h0l-.011,0-.067-.012h0l-.182-.032Zm-10.875-4a33.274,33.274,0,0,0,5.261,2.481l-.346.938a34.179,34.179,0,0,1-5.42-2.556ZM8.709,55.659a33.636,33.636,0,0,0,4.1,4.131l-.646.763A34.546,34.546,0,0,1,8.933,57.44h0l-.008-.008h0l-.062-.069h0l-.015-.017h0l-.007-.008h0l-.007-.008h0l-.062-.069h0l-.007-.008h0l-.007-.008h0l-.007-.008h0l-.007-.008h0l-.045-.051h0l-.007-.008h0l-.006-.007,0,0-.006-.007,0,0-.006-.007h0l-.007-.008h0L8.6,57.074h0L8.6,57.066l0,0-.006-.007,0,0-.006-.007,0,0-.006-.007,0,0-.006-.007,0,0-.006-.007h0l-.007-.008h0l-.029-.033,0,0-.006-.007,0,0-.006-.007,0,0L8.5,56.951l0,0-.005-.006,0,0,0-.005,0,0-.005-.006,0,0-.005-.006,0,0-.018-.021,0,0,0-.006,0,0,0,0,0,0,0,0,0,0,0,0,0,0,0,0,0,0,0,0,0-.005,0,0,0,0,0,0,0,0-.01-.011,0,0,0,0,0-.006,0,0,0-.005,0,0,0,0,0,0,0-.005,0,0,0-.005,0,0,0-.006,0,0-.005-.006,0,0L8.3,56.723l0,0-.025-.029v0l-.007-.008,0,0-.006-.007,0,0-.006-.007,0,0-.006-.007,0,0-.006-.007,0,0-.006-.007,0,0-.007-.008h0l-.041-.048v0l-.007-.008h0l-.007-.009h0l-.007-.009h0l-.007-.009h0l-.066-.078h0L7.94,56.3ZM2.95,45.6a33.264,33.264,0,0,0,2.438,5.282l-.868.5q-.425-.743-.815-1.508h0l0-.009v0l0-.009v0l0-.009h0l-.031-.061h0l0-.009v0l0-.008,0,0,0-.008,0,0,0-.008,0,0,0-.007v0l-.019-.038v0l0-.008,0,0,0-.007,0,0,0-.007,0,0,0-.007,0,0,0-.007,0,0,0-.007v0l0-.008h0l-.01-.019h0l0-.007,0,0,0-.006,0-.005,0-.006,0,0,0-.006,0,0,0-.006,0-.005,0-.006,0-.005,0-.006,0,0,0-.007,0,0-.005-.01,0-.008,0,0,0-.007,0-.005,0-.006,0-.006,0-.006,0,0,0-.006,0,0,0-.006,0,0,0-.006,0-.005,0-.008v0l-.006-.011h0l-.005-.01,0,0,0-.007,0,0,0-.007,0,0,0-.007,0,0,0-.007,0,0,0-.007,0,0,0-.008,0,0,0-.009v0l-.006-.011h0l-.005-.011,0,0,0-.008,0,0,0-.007,0,0,0-.007,0,0,0-.007,0,0,0-.006,0,0,0-.007,0,0,0-.009v0l-.005-.011v0l0-.009v0l0-.008,0,0,0-.008,0,0,0-.008,0,0,0-.008,0,0,0-.008v0l0-.009v0l-.016-.035v0l0-.01v0l0-.008,0,0,0-.008v0l0-.008v0l0-.009v0l0-.01v0l-.011-.023h0l-.005-.011v0l0-.009v0l0-.009v0l0-.009v0l0-.009v0l0-.009v0l-.005-.011h0l-.011-.023h0l-.005-.011v0l0-.009v0l0-.009v0l0-.009v0l0-.009v0l0-.009v0l-.005-.011h0l-.011-.023h0l0-.011h0l0-.01v0l0-.01v0l0-.009v0l0-.009v0l0-.009v0l0-.01h0l-.011-.023v0l0-.01v0l0-.009v0l0-.008,0,0,0-.008v0l0-.009v0l0-.009v0l0-.01v0l-.011-.023h0l0-.01v0l0-.008,0,0,0-.008,0,0,0-.007,0,0,0-.007,0,0,0-.008,0,0,0-.009v0l-.005-.012h0l-.005-.011v0l0-.009,0,0,0-.008,0,0L3,48.4l0,0,0-.007,0,0,0-.008,0,0,0-.008v0l0-.009v0l-.01-.023,0,0,0-.007,0,0,0-.007,0,0,0-.007,0,0,0-.006,0-.005,0-.006,0,0,0-.007,0,0,0-.009v0l0-.011v0l0-.008,0,0,0-.008,0,0,0-.007,0-.005,0-.006,0-.006,0-.006,0-.005,0-.006,0-.005,0-.006,0-.005,0-.006,0-.007,0-.009,0,0,0-.006,0-.006,0-.006,0-.006,0,0,0-.006,0-.005,0-.006,0,0,0-.006,0-.005,0-.006,0-.005,0-.006,0-.005-.006-.014v0l0-.007,0,0,0-.007,0,0,0-.007,0,0,0-.007,0,0,0-.007,0,0,0-.007,0,0,0-.007v0l0-.008h0l-.018-.041v0l0-.008v0l0-.008,0,0,0-.008v0l0-.009v0l0-.009h0l-.023-.053h0l0-.01h0l0-.01h0l0-.01h0l0-.01h0l-.036-.086h0q-.355-.845-.667-1.711ZM0,34.168l1,0q0,.082,0,.164a33.681,33.681,0,0,0,.474,5.636l-.986.168h0l0-.01v0l0-.01h0l-.011-.065h0a34.414,34.414,0,0,1-.405-3.53h0l0-.057h0v-.011h0l0-.056h0v-.011h0l0-.057h0v-.011h0l0-.056h0v-.012l0-.055h0v-.022h0l0-.045h0v-.011h0V36.1h0l0-.045h0v-.022h0l0-.043v-.026l0-.042v-.265h0V34.615H0v-.068H0v-.051s0,0,0,0v-.013H0v-.012s0,0,0,0v-.008s0,0,0-.005v-.008s0,0,0,0,0-.007,0-.009v0c0-.009,0-.016,0-.026s0,0,0,0,0-.006,0-.009,0,0,0,0,0-.006,0-.008v-.005s0-.006,0-.009v0s0-.008,0-.013H0s0-.008,0-.012v0s0,0,0-.007v-.006s0,0,0,0Q0,34.236,0,34.168ZM2.125,22.42l.938.347a33.188,33.188,0,0,0-1.531,5.611L.547,28.2q.09-.5.194-.992h0l0-.012h0l.014-.065h0l0-.012v0l0-.011v0l0-.011h0l0-.012h0l.008-.038v0l0-.01v0l0-.009v0l0-.008v0l0-.009v0l0-.01v0L.8,26.947v0l0-.01v0l0-.009v0l0-.008v0l0-.008v0l0-.008v0l0-.01v0l.005-.025v0l0-.008v-.005l0-.007v-.048l.006-.026v0l0-.007v-.018l0-.007v0l0-.007v0l0-.008v0l0-.009h0l.007-.032v0l0-.009v0l0-.009v0l0-.009v0l0-.01h0l.013-.056h0l0-.011h0l0-.01h0l0-.011h0A34.074,34.074,0,0,1,2.125,22.42Zm6.033-10.3.762.647A33.524,33.524,0,0,0,5.552,17.51L4.69,17a34.434,34.434,0,0,1,3.468-4.887Zm9.188-7.625.5.869a33.509,33.509,0,0,0-4.783,3.313L12.419,7.9A34.419,34.419,0,0,1,17.345,4.492ZM28.589.479l.166.986a33.2,33.2,0,0,0-5.629,1.466L22.79,1.99A34.081,34.081,0,0,1,27.522.676h0l.013,0,.013,0,.065-.013.012,0,.013,0,.013,0,.014,0h0L27.706.64l.013,0,.012,0,.013,0,.013,0,.014,0h0l.026,0,.012,0,.013,0,.012,0,.013,0,.012,0,.013,0,.016,0L27.9.6l.012,0,.012,0,.012,0,.012,0,.012,0,.01,0L28,.583h0l.012,0,.012,0,.011,0,.011,0,.069-.013h0Q28.355.519,28.589.479Z" transform="translate(0 0)" fill="#7a8045"/><path d="M153.224,328.847a2.011,2.011,0,1,1-2.011-2.01A2.011,2.011,0,0,1,153.224,328.847Z" transform="translate(-146.517 -318.204)" fill="#7a8045"/><path d="M151.166,327.818a.982.982,0,1,1-.982-.982A.982.982,0,0,1,151.166,327.818Z" transform="translate(-140.484 -320.168)" fill="#7a8045"/><path d="M151.166,327.818a.982.982,0,1,1-.982-.982A.982.982,0,0,1,151.166,327.818Z" transform="translate(-80.527 -304.392)" fill="#7a8045"/><path d="M152.79,328.63A1.794,1.794,0,1,1,151,326.836,1.794,1.794,0,0,1,152.79,328.63Z" transform="translate(-78.563 -299.519)" fill="#7a8045"/><path d="M152.79,328.63A1.794,1.794,0,1,1,151,326.836,1.794,1.794,0,0,1,152.79,328.63Z" transform="translate(-103.156 -259.429)" fill="#7a8045"/><path d="M152.79,328.63A1.794,1.794,0,1,1,151,326.836,1.794,1.794,0,0,1,152.79,328.63Z" transform="translate(-96.427 -325.251)" fill="#a2aa5c"/></g><circle cx="24" cy="24" r="24" transform="translate(-10474 -11518.995)" fill="#cad473"/><g transform="translate(-12233.998 -11757.932)"><g transform="translate(1768.496 248.5)"><path d="M1769,268.618v-.632a.5.5,0,0,1,.48-.5c4.369-.176,8.823-2.693,11.733-5.693,2.01-2.073,3.284-4.377,3.284-6.295a2.235,2.235,0,0,0-.53-1.7,1.135,1.135,0,0,0-.75-.309.5.5,0,0,1-.39-.212,3.752,3.752,0,0,1,.01-4.026l.015-.018a.447.447,0,0,1,.425-.23H1799.5a.5.5,0,0,1,.5.5,17.177,17.177,0,0,1-.125,2.363,4.485,4.485,0,0,1-.15.693,1.14,1.14,0,0,1-.235.447,1.85,1.85,0,0,1-.975.447l-1.025.053a2.911,2.911,0,0,0,0,3c.975,1.444,2,2.524,2,5,0,4.45-2.859,9.074-6.664,12.585s-8.553,5.911-12.332,5.911a21.723,21.723,0,0,1-7.908-1.3,17.083,17.083,0,0,0-3.114-.691c-.4,0-.48-.256-.475-.5v-1.052a.5.5,0,0,1,.455-.5,27.041,27.041,0,0,0,6.619-1.455.465.465,0,0,1-.16.026c-3.415-.015-4.549-.89-6.543-1.439l-.115-.047a.494.494,0,0,1-.255-.45v-.829a.5.5,0,0,1,.15-.355.5.5,0,0,1,.355-.145,12.811,12.811,0,0,0,3.559-.52.485.485,0,0,1-.2-.025c-1.395-.475-2.369-1.209-3.529-1.617l-.075-.032a.5.5,0,0,1-.26-.45Zm23.49-8.178.14-.245a14.039,14.039,0,0,0,1.865-5.2,3.031,3.031,0,0,0-.19-1.453.849.849,0,0,0-.81-.546,1.954,1.954,0,0,0-1.095.706c-.97,1.052-1.86,3.244.045,6.3A.481.481,0,0,1,1792.49,260.44Zm-4.049-1.571A4.354,4.354,0,0,0,1789,257a9.519,9.519,0,0,0-.28-2.855c-.155-.41-.38-.644-.72-.644a1.157,1.157,0,0,0-1.145,1.059,4.8,4.8,0,0,0,1.5,3.77.5.5,0,0,1,.085.541Z" transform="translate(-1768.999 -249)" fill="#a2aa5c" fill-rule="evenodd"/></g><g transform="translate(1768.497 248.5)"><path d="M1797.059,255a2.494,2.494,0,0,0,.435,1.5c.975,1.444,2,2.524,2,5,0,4.45-2.859,9.074-6.664,12.585s-8.553,5.911-12.333,5.911a21.732,21.732,0,0,1-7.913-1.3,16.911,16.911,0,0,0-3.114-.691.424.424,0,0,1-.47-.5v-.377c10.178.771,15.612-2,19.746-6.134,5.4-5.407,7.424-12.182,8.313-16Zm-14.807-4a4.494,4.494,0,0,1,.585-1.751c0-.007,0-.012.01-.018a.455.455,0,0,1,.425-.23H1799.5a.5.5,0,0,1,.5.5,17.177,17.177,0,0,1-.125,2.363,4.454,4.454,0,0,1-.155.693,1.14,1.14,0,0,1-.23.447,1.885,1.885,0,0,1-.975.447l-1.025.053a2.38,2.38,0,0,0-.145.276c.17-1.176.045-2.775-1.855-2.775Z" transform="translate(-1768.999 -249)" fill="#7a8045" fill-rule="evenodd"/><path d="M1791.465,266.212a7.519,7.519,0,0,0,1.015,2.4.549.549,0,0,1,.075.21,7.442,7.442,0,0,1-.525,1.032c-1.51,2.465-7.148,10.032-14.5,12.747a13.509,13.509,0,0,1-1.83.531c-3.229-.054-4.354-.9-6.3-1.437l-.115-.047a.493.493,0,0,1-.215-.244,20.982,20.982,0,0,0,15.467-5.8C1789.536,270.9,1791.055,267.874,1791.465,266.212Z" transform="translate(-1769.034 -257.608)" fill="#7a8045" fill-rule="evenodd"/><path d="M1786.891,261.687a5.918,5.918,0,0,0,1.465,2.642c.015.016.025.033.04.049a5.693,5.693,0,0,1-.9,1.87c-3.254,4.653-9.278,9.07-14.247,10.5a3.615,3.615,0,0,1-.64.118c.15-.038.3-.078.455-.12a.5.5,0,0,1-.205-.025c-1.39-.475-2.365-1.209-3.529-1.617l-.07-.032a.5.5,0,0,1-.26-.38,14.942,14.942,0,0,0,12.5-4.441c4.679-4.538,5.369-7.353,5.394-8.561Zm-.08-.687h0Z" transform="translate(-1768.999 -255.001)" fill="#7a8045" fill-rule="evenodd"/></g><g transform="translate(1767.996 248)"><path d="M1770.869,270.117a10.578,10.578,0,0,1-2.339.129.494.494,0,0,0-.37.134.485.485,0,0,0-.16.364v1.75a.5.5,0,0,0,.385.486c1.63.386,2.64,1,4.424,1.327a26.755,26.755,0,0,1-4.349.687.5.5,0,0,0-.46.5v2a.5.5,0,0,0,.5.5,10.174,10.174,0,0,1,3.434.679,22.119,22.119,0,0,0,8.063,1.321c3.879,0,8.768-2.439,12.673-6.043s6.823-8.378,6.823-12.953c0-2.608-1.06-3.757-2.084-5.279a2.263,2.263,0,0,1-.115-2.209,4.588,4.588,0,0,0,.815-.072,2.362,2.362,0,0,0,1.24-.585,2.762,2.762,0,0,0,.525-1.421,20.253,20.253,0,0,0,.12-2.951.5.5,0,0,0-.5-.481h-17a.494.494,0,0,0-.405.209s-1.934,2.73.02,5.107a.493.493,0,0,0,.485.172.659.659,0,0,1,.53.171,1.8,1.8,0,0,1,.37,1.339c0,1.817-1.24,3.983-3.144,5.947-2.929,3.02-7.458,5.551-11.853,5.551a.5.5,0,0,0-.5.5v1.5a.5.5,0,0,0,.365.482A14.031,14.031,0,0,1,1770.869,270.117Zm4.544,3.411a31.56,31.56,0,0,0,16.112-13.759c-2.094-3.348-1.055-5.749.005-6.9a2.435,2.435,0,0,1,1.465-.868,1.328,1.328,0,0,1,1.265.833,3.579,3.579,0,0,1,.235,1.7,14.515,14.515,0,0,1-1.93,5.4.436.436,0,0,1-.055.1,31.1,31.1,0,0,1-2.57,3.9c-4.224,5.471-11.318,11.137-20.941,12.017v1.053a11.811,11.811,0,0,1,3.244.716,21.284,21.284,0,0,0,7.753,1.271c3.679,0,8.293-2.36,11.993-5.778s6.5-7.893,6.5-12.218c0-2.341-.99-3.354-1.914-4.719a3.454,3.454,0,0,1-.01-3.545.5.5,0,0,1,.47-.232,3.669,3.669,0,0,0,.89-.046,1.34,1.34,0,0,0,.71-.309.662.662,0,0,0,.115-.246,4.229,4.229,0,0,0,.13-.614A15.934,15.934,0,0,0,1799,249h-16.232a3.235,3.235,0,0,0-.035,3.488,1.636,1.636,0,0,1,1.075.446A2.676,2.676,0,0,1,1784.5,255c0,2.019-1.31,4.46-3.424,6.643-2.994,3.085-7.579,5.664-12.073,5.845v.643c1.16.407,2.135,1.141,3.524,1.616a28.961,28.961,0,0,0,11-6.7,21.121,21.121,0,0,0,3.7-4.419q.142-.236.255-.461a5.262,5.262,0,0,1-1.625-4.2,1.625,1.625,0,0,1,1.635-1.465,1.258,1.258,0,0,1,1.19.971,9.968,9.968,0,0,1,.31,3.028,5.57,5.57,0,0,1-.9,2.629,22.2,22.2,0,0,1-3.884,4.643c-4.1,3.867-10.173,7.536-15.212,7.493v.844C1770.959,272.645,1772.064,273.514,1775.414,273.528Zm1.03,2.394c-.325.035-.645.059-.965.072a.5.5,0,1,0,.04,1c.345-.014.685-.04,1.035-.078a.5.5,0,0,0-.11-.994Zm10.233-4.641a20.96,20.96,0,0,1-7.808,4.179.5.5,0,0,0,.26.965,21.974,21.974,0,0,0,8.188-4.375.5.5,0,0,0-.64-.769Zm3.434-3.464c-.32.39-.65.767-.985,1.131a.5.5,0,0,0,.74.676c.345-.377.685-.769,1.015-1.173a.5.5,0,0,0-.77-.634Zm4.909-8.977a28.741,28.741,0,0,1-3.354,6.879.5.5,0,1,0,.83.556,29.654,29.654,0,0,0,3.475-7.119.5.5,0,1,0-.95-.316ZM1793,253a1.552,1.552,0,0,0-.22.1,2.621,2.621,0,0,0-.52.44c-.82.894-1.525,2.689-.19,5.188a12.116,12.116,0,0,0,1.42-4.265,2.555,2.555,0,0,0-.14-1.209A.389.389,0,0,0,1793,253Zm-5.1,4.115a2.359,2.359,0,0,0,.09-.616,11.477,11.477,0,0,0-.17-2.4,1.622,1.622,0,0,0-.17-.469c-.04-.071-.085-.128-.16-.128-.36,0-.58.269-.655.653a4,4,0,0,0,1.065,2.962Z" transform="translate(-1768 -248)" fill-rule="evenodd"/></g></g></g></svg>