<svg xmlns="http://www.w3.org/2000/svg" width="83" height="83" viewBox="0 0 83 83"><g transform="translate(4954.668 10031.964)"><g transform="translate(-5239.668 -10942)"><circle cx="41.5" cy="41.5" r="41.5" transform="translate(285 910.036)" fill="#cfeaea"/></g><g transform="translate(-4945.168 -10022.465)"><g transform="translate(7.5 7.5)"><path d="M47.388,8.569A1.578,1.578,0,0,0,45.89,7.5h-.521a1.586,1.586,0,0,0-1.562,1.35c-.572,3.58-5,13.82-35.242,25.128a1.591,1.591,0,0,0-1.048,1.214,1.5,1.5,0,0,0,1.335,1.719c3.657.38,13.93.97,23.615-3.415A140.85,140.85,0,0,1,19.218,45.053a1.59,1.59,0,0,0-.637,1.471,1.5,1.5,0,0,0,1.788,1.242,65.445,65.445,0,0,0,11.749-3.918l14.47-12.769C50.363,23.142,49.819,15.864,47.388,8.569Z" transform="translate(-7.501 -7.5)" fill="#ffe077"/><path d="M273.108,39.844l-2.286.593.2.765a25.183,25.183,0,0,1-1.731,18.485,3.805,3.805,0,0,1-2.352,1.957A13.426,13.426,0,0,0,257.19,73a84.147,84.147,0,0,0,9.214-4.647C274.919,57.93,275.629,48.851,273.108,39.844Z" transform="translate(-232.572 -36.655)" fill="#ffd05b"/><path d="M42.99,47.051C40.8,51.8,33.37,60.353,8.578,69.624a1.6,1.6,0,0,0-1.064,1.234,1.5,1.5,0,0,0,1.337,1.7c.23.024.488.049.769.073,23.17-8.715,32.363-17.182,35.743-23.11-1.045,6.06-7.223,16.451-26.135,31.171a1.6,1.6,0,0,0-.644,1.49,1.5,1.5,0,0,0,1.786,1.23l.451-.094c13.326-10.3,20.32-18.663,24.259-24.889,1.967-3.108,3.338-8.858,3.338-8.858Z" transform="translate(-7.5 -43.151)" fill="#ffefac"/><path d="M369.843,7.5a1.586,1.586,0,0,0-1.562,1.35,9.888,9.888,0,0,1-.815,2.55l5.86,2.84a39.786,39.786,0,0,0-1.464-5.671,1.578,1.578,0,0,0-1.5-1.069Z" transform="translate(-331.974 -7.5)" fill="#119798"/><path d="M121.636,378.642c-.253.2-1,.757-1.264.96a1.59,1.59,0,0,0-.637,1.471,1.5,1.5,0,0,0,1.788,1.242c.354-.072,1.748-.416,2.473-.6Z" transform="translate(-108.654 -342.049)" fill="#a46a5a"/><path d="M9.794,271.273c-.411.157-.809.313-1.23.471a1.591,1.591,0,0,0-1.048,1.214,1.5,1.5,0,0,0,1.335,1.719c.578.06,1.337.124,2.216.174Z" transform="translate(-7.5 -245.266)" fill="#a46a5a"/><path d="M11.065,0A11.065,11.065,0,0,1,22.13,11.065a11.224,11.224,0,0,1-2.748,7.3,10.879,10.879,0,0,1-8.317,3.767,11.065,11.065,0,0,1,0-22.13Z" transform="translate(26.872 26.872)" fill="#cad473"/><path d="M326.965,315.9a11.029,11.029,0,0,0-3.824-8.354,2.505,2.505,0,0,0-.23,3.209,8.7,8.7,0,0,1-12.156,12.155,2.506,2.506,0,0,0-3.209.231,11.056,11.056,0,0,0,19.419-7.241Z" transform="translate(-277.963 -277.962)" fill="#e9edc7"/></g><g transform="translate(7.5 7.5)"><path d="M11.065-.5a11.565,11.565,0,0,1,8.178,19.743A11.565,11.565,0,0,1,2.887,2.887,11.489,11.489,0,0,1,11.065-.5Zm0,22.13A10.565,10.565,0,1,0,.5,11.065,10.577,10.577,0,0,0,11.065,21.63Z" transform="translate(26.872 26.872)"/><path d="M348.129,375.049a.5.5,0,0,1-.354-.146l-3.952-3.952a.5.5,0,0,1,.707-.707l3.6,3.6,5.969-5.969a.5.5,0,0,1,.707.707l-6.323,6.323A.5.5,0,0,1,348.129,375.049Z" transform="translate(-310.982 -332.66)"/><path d="M5.579,3.2a.5.5,0,0,1-.218-.05L-.218.45A.5.5,0,0,1-.45-.218.5.5,0,0,1,.218-.45L5.8,2.254a.5.5,0,0,1-.218.95Z" transform="translate(35.564 3.935)"/><path d="M145.04,106.858a.5.5,0,0,1-.307-.895c20.756-16.133,26.231-27.057,27.169-33.379a.5.5,0,1,1,.989.147c-.6,4.037-2.734,8.568-6.345,13.466-4.671,6.336-11.8,13.252-21.2,20.556A.5.5,0,0,1,145.04,106.858Z" transform="translate(-131.479 -66.233)"/><path d="M101.224,94.716a.5.5,0,0,1-.2-.96A93.476,93.476,0,0,0,120.761,82.9a31.365,31.365,0,0,0,8.465-8.98.5.5,0,1,1,.869.5,32.334,32.334,0,0,1-8.73,9.282,94.451,94.451,0,0,1-19.946,10.984A.5.5,0,0,1,101.224,94.716Z" transform="translate(-91.983 -67.59)"/><path d="M1.658,2.728a.5.5,0,0,1-.4-.2L-.4.3A.5.5,0,0,1-.3-.4a.5.5,0,0,1,.7.1L2.059,1.93a.5.5,0,0,1-.4.8Z" transform="translate(13.248 36.741)"/><path d="M.9,3.032A.5.5,0,0,1,.43,2.7L-.471.168a.5.5,0,0,1,.3-.639.5.5,0,0,1,.639.3l.9,2.532A.5.5,0,0,1,.9,3.032Z" transform="translate(2.705 26.077)"/><path d="M14.238,37.677A53.459,53.459,0,0,1,8.8,37.408a2.018,2.018,0,0,1-1.378-.763,1.994,1.994,0,0,1-.4-1.525,2.077,2.077,0,0,1,1.367-1.61c12.977-4.852,22.6-10.022,28.591-15.367,2.106-1.877,5.728-5.592,6.332-9.372A2.082,2.082,0,0,1,45.369,7h.521a2.071,2.071,0,0,1,1.972,1.411c2.955,8.869,2.67,16.639-.849,23.1a.5.5,0,1,1-.878-.478c3.38-6.2,3.642-13.707.778-22.3A1.072,1.072,0,0,0,45.89,8h-.521a1.086,1.086,0,0,0-1.069.929c-.625,3.908-5.34,14.219-35.561,25.517a1.1,1.1,0,0,0-.728.817,1,1,0,0,0,.892,1.15,53.843,53.843,0,0,0,9.664.09,38.58,38.58,0,0,0,13.642-3.456.5.5,0,1,1,.435.9A39.57,39.57,0,0,1,18.649,37.5C17.07,37.629,15.581,37.677,14.238,37.677Z" transform="translate(-7.501 -7.5)"/><path d="M121.226,99.723a2.017,2.017,0,0,1-1.146-.356,1.994,1.994,0,0,1-.838-1.336,2.076,2.076,0,0,1,.823-1.945c9.265-7.211,16.2-13.96,20.6-20.06,2.15-2.975,4.818-7.392,5.324-11.534a.5.5,0,1,1,.993.121,18.641,18.641,0,0,1-1.428,5,37.007,37.007,0,0,1-4.078,7c-4.463,6.177-11.462,12.994-20.8,20.263a1.094,1.094,0,0,0-.45,1,1,1,0,0,0,1.195.831,53.1,53.1,0,0,0,10.8-3.469.5.5,0,1,1,.408.913,54.132,54.132,0,0,1-11.006,3.537A2,2,0,0,1,121.226,99.723Z" transform="translate(-108.655 -58.928)"/></g></g></g></svg>