<svg xmlns="http://www.w3.org/2000/svg" width="83" height="83" viewBox="0 0 83 83"><g transform="translate(4079 8865.03)"><g transform="translate(-4364 -9775.066)"><circle cx="41.5" cy="41.5" r="41.5" transform="translate(285 910.036)" fill="#cfeaea"/></g><g transform="translate(-4069.5 -8856.059)"><path d="M5,41H61v4H5a2,2,0,1,1,0-4Z" fill="#119798"/><circle cx="6" cy="6" r="6" transform="translate(11 41)" fill="#0a5b5b"/><circle cx="2" cy="2" r="2" transform="translate(15 45)" fill="#f4f4e6"/><circle cx="6" cy="6" r="6" transform="translate(45 41)" fill="#0a5b5b"/><circle cx="2" cy="2" r="2" transform="translate(49 45)" fill="#f4f4e6"/><path d="M9,14H45V41H5V18a4,4,0,0,1,4-4Z" fill="#cad473"/><path d="M27,25H41V37H27Z" fill="#f9bb4b"/><path d="M19,30h8v7H19Z" fill="#fcf05a"/><path d="M9,14H45v4H5a4,4,0,0,1,4-4Z" fill="#143441"/><path d="M45,12h4v8H45Z" fill="#f9bb4b"/><path d="M49,30H59a14,14,0,0,0-4.211-9H49Z" fill="#f4f4e6"/><path d="M49,30V21h5.789A13.948,13.948,0,0,0,45,17V41H59V30Z" fill="#7a8045"/><path d="M61,40H60V29.93A15.071,15.071,0,0,0,50,16.872V12a1,1,0,0,0-1-1H45a1,1,0,0,0-1,1v1H9a5.006,5.006,0,0,0-5,5V40.181a2.844,2.844,0,0,0-1.107.692A2.937,2.937,0,0,0,2,43a3,3,0,0,0,3,3h5.08a7,7,0,1,0,13.84,0H44.08a7,7,0,1,0,13.84,0H61a1,1,0,0,0,1-1V41A1,1,0,0,0,61,40ZM57.881,29H50V22h4.372a13.024,13.024,0,0,1,3.509,7ZM46,13h2v3.3a15.1,15.1,0,0,0-2-.256Zm0,5.038A12.874,12.874,0,0,1,51.9,20H49a1,1,0,0,0-1,1v9a1,1,0,0,0,1,1h9v9H46ZM9,15H44v2H6.184A3,3,0,0,1,9,15ZM6,19H44V40H6ZM5,44a1,1,0,0,1-1-1,.977.977,0,0,1,.307-.713A.959.959,0,0,1,5,42h7.111a7.016,7.016,0,0,0-1.426,2Zm12,8a5,5,0,1,1,5-5,5,5,0,0,1-5,5Zm6.315-8a7.016,7.016,0,0,0-1.426-2H46.111a7.016,7.016,0,0,0-1.426,2ZM51,52a5,5,0,1,1,5-5,5,5,0,0,1-5,5Zm9-8H57.315a7.016,7.016,0,0,0-1.426-2H60Z"/><path d="M17,44a3,3,0,1,0,3,3A3,3,0,0,0,17,44Zm0,4a1,1,0,1,1,1-1A1,1,0,0,1,17,48Z"/><path d="M51,44a3,3,0,1,0,3,3A3,3,0,0,0,51,44Zm0,4a1,1,0,1,1,1-1A1,1,0,0,1,51,48Z"/><path d="M41,24H36.414l2.293-2.293-1.414-1.414L34,23.586l-3.293-3.293-1.414,1.414L31.586,24H27a1,1,0,0,0-1,1v4H24.868l.964-1.445-1.664-1.11L23,28.2l-1.168-1.752-1.664,1.11L21.132,29H19a1,1,0,0,0-1,1v7a1,1,0,0,0,1,1H41a1,1,0,0,0,1-1V25a1,1,0,0,0-1-1ZM22,36H20V31h2Zm4,0H24V31h2Zm7,0H28V32h5Zm0-6H28V26h5Zm7,6H35V32h5Zm0-6H35V26h5Z"/><path d="M8,36h8v2H8Z"/><path d="M10,32h6v2H10Z"/><path d="M48,33h2v2H48Z"/></g></g></svg>