<svg xmlns="http://www.w3.org/2000/svg" width="83" height="83" viewBox="0 0 83 83"><g transform="translate(4079 9628.413)"><g transform="translate(-4364 -10538.449)"><circle cx="41.5" cy="41.5" r="41.5" transform="translate(285 910.036)" fill="#cfeaea"/></g><g transform="translate(-4063.047 -9612.136)"><path d="M19.407,9.274V5.353a2.353,2.353,0,1,1,4.705,0V9.274a2.353,2.353,0,0,1,4.705,0v3.921a2.353,2.353,0,1,1,4.705,0V25.217L31.092,37.944l-.706,1.129v9.41H14.7v-9.41L2.946,23.891a1.574,1.574,0,0,1,.463-2.125l1.106-.737a3.137,3.137,0,0,1,4.148.6L14.7,28.879V9.274a2.353,2.353,0,0,1,4.705,0Z" transform="translate(-0.217 -0.324)" fill="#ffdaaa"/><path d="M30.547,41.449A35.627,35.627,0,0,0,36.7,32.18L34.39,44.241l-.706,1.129v9.41H18V50.256a36,36,0,0,0,12.547-8.807Z" transform="translate(-3.515 -6.621)" fill="#ffc477"/><path d="M55.821,32.137v4.086a18.822,18.822,0,0,1-9.28,16.227l-.13.077-.133-.078A18.849,18.849,0,0,1,37,36.223V32.137l3.921-1.31L46.41,29Z" transform="translate(-7.615 -5.934)" fill="#c6c5ca"/><path d="M56.934,32.713V36.8a18.822,18.822,0,0,1-9.28,16.227l-.13.077-.133-.078a18.6,18.6,0,0,1-5.231-4.572,17.635,17.635,0,0,0,2.094,1.435l.133.078.133-.078A18.821,18.821,0,0,0,53.8,33.662V31.67Z" transform="translate(-8.729 -6.51)" fill="#898890"/><path d="M51.842,38.353v3.137H49.489v2.353H46.353V41.489H44V38.353h2.353V36h3.137v2.353Z" transform="translate(-9.126 -7.445)" fill="#57a4ff"/><path d="M54.489,41.784v1.568a.784.784,0,0,1-.784.784h-.784a.784.784,0,0,0-.784.784v.784a.784.784,0,0,1-.784.784H49.784a.784.784,0,1,1,0-1.568.784.784,0,0,0,.784-.784v-.784a.784.784,0,0,1,.784-.784h.784a.784.784,0,0,0,.784-.784.784.784,0,0,1,1.568,0Z" transform="translate(-10.205 -8.524)" fill="#898890"/><path d="M33,56h1.568v1.568H33Z" transform="translate(-6.752 -11.761)"/><path d="M48.457,25.565l-9.41-3.137a.784.784,0,0,0-.5,0l-4.454,1.49V12.979a3.133,3.133,0,0,0-3.137-3.137,3.063,3.063,0,0,0-1.568.439V9.058a3.137,3.137,0,0,0-3.137-3.137,3.063,3.063,0,0,0-1.568.439V5.137a3.137,3.137,0,1,0-6.274,0V6.36a3.063,3.063,0,0,0-1.568-.439A3.137,3.137,0,0,0,13.7,9.058V26.5L9.05,20.915a3.908,3.908,0,0,0-5.184-.753L2.753,20.9a2.343,2.343,0,0,0-.69,3.184l.047.071L13.7,39.124v9.144a.784.784,0,0,0,.784.784H30.169a.784.784,0,0,0,.784-.784v-8.6a19.624,19.624,0,0,0,7.309,7.63l.133.078a.784.784,0,0,0,.8,0l.125-.078A19.672,19.672,0,0,0,48.99,30.4V26.31A.8.8,0,0,0,48.457,25.565ZM30,37.642l-.5.8a.775.775,0,0,0-.118.416v8.626H15.269V38.858a.754.754,0,0,0-.165-.478L3.381,23.236A.8.8,0,0,1,3.624,22.2l1.106-.737a2.353,2.353,0,0,1,3.113.455l6.038,7.246.008-.008a.784.784,0,0,0,.6.29h2.353a3.137,3.137,0,0,1,3.137,3.137v3.137h1.568V32.584a4.705,4.705,0,0,0-4.705-4.705H15.269V9.058a1.568,1.568,0,1,1,3.137,0V24.742h1.568V5.137a1.568,1.568,0,1,1,3.137,0V24.742H24.68V9.058a1.568,1.568,0,1,1,3.137,0v14.9h1.568V12.979a1.568,1.568,0,0,1,3.137,0V24.436l-3.388,1.129a.8.8,0,0,0-.533.745V30.4A19.507,19.507,0,0,0,30,37.642ZM47.422,30.4A18.107,18.107,0,0,1,38.8,45.79,18.107,18.107,0,0,1,30.169,30.4V26.875L38.8,24l8.626,2.878Z" transform="translate(0 -0.108)"/><path d="M45.353,35.784v1.568H43.784a.784.784,0,0,0-.784.784v3.137a.784.784,0,0,0,.784.784h1.568v1.568a.784.784,0,0,0,.784.784h3.137a.784.784,0,0,0,.784-.784V42.058h1.568a.784.784,0,0,0,.784-.784V38.137a.784.784,0,0,0-.784-.784H50.058V35.784A.784.784,0,0,0,49.274,35H46.137A.784.784,0,0,0,45.353,35.784Zm1.568,2.353V36.568h1.568v1.568a.784.784,0,0,0,.784.784h1.568v1.568H49.274a.784.784,0,0,0-.784.784v1.568H46.921V41.274a.784.784,0,0,0-.784-.784H44.568V38.921h1.568A.784.784,0,0,0,46.921,38.137Z" transform="translate(-8.91 -7.229)"/><path d="M58.6,2.839A.784.784,0,1,0,57.493,1.73c-3.635,3.634-7.019,3.634-10.654,0A.784.784,0,1,0,45.73,2.839c3.635,3.634,3.635,7.02,0,10.654A.784.784,0,1,0,46.839,14.6c3.635-3.634,7.019-3.634,10.654,0A.784.784,0,1,0,58.6,13.493c-3.635-3.634-3.635-7.02,0-10.654Zm-3.708,8.055a6.936,6.936,0,0,0-5.457,0,6.94,6.94,0,0,0,0-5.457,6.933,6.933,0,0,0,5.457,0,6.94,6.94,0,0,0,0,5.457Z" transform="translate(-9.449 0)"/><path d="M6,18.489a.784.784,0,0,0,1.339.554c1.26-1.26,2.336-1.26,3.6,0a.784.784,0,1,0,1.109-1.109c-1.26-1.26-1.26-2.336,0-3.6a.784.784,0,1,0-1.109-1.109c-1.26,1.26-2.336,1.26-3.6,0A.784.784,0,1,0,6.23,14.339c1.26,1.26,1.26,2.336,0,3.6a.784.784,0,0,0-.23.554Zm2.716-2.773a3.143,3.143,0,0,0,.841,0,3.143,3.143,0,0,0,0,.841,3.143,3.143,0,0,0-.841,0A3.143,3.143,0,0,0,8.716,15.716Z" transform="translate(-0.926 -2.482)"/><path d="M52,24.489a.784.784,0,0,0,1.339.554c1.26-1.26,2.336-1.26,3.6,0a.784.784,0,1,0,1.109-1.109c-1.26-1.26-1.26-2.336,0-3.6a.784.784,0,1,0-1.109-1.109c-1.26,1.26-2.336,1.26-3.6,0a.784.784,0,1,0-1.109,1.109c1.26,1.26,1.26,2.336,0,3.6a.784.784,0,0,0-.23.554Zm2.716-2.773a3.143,3.143,0,0,0,.841,0,3.143,3.143,0,0,0,0,.841,3.143,3.143,0,0,0-.841,0A3.143,3.143,0,0,0,54.716,21.716Z" transform="translate(-10.852 -3.776)"/><path d="M12.274,48.784a.784.784,0,0,0-1.339-.554c-1.26,1.26-2.336,1.26-3.6,0A.784.784,0,1,0,6.23,49.339c1.26,1.26,1.26,2.336,0,3.6a.784.784,0,1,0,1.109,1.109c1.26-1.26,2.336-1.26,3.6,0a.784.784,0,1,0,1.109-1.109c-1.26-1.26-1.26-2.336,0-3.6A.784.784,0,0,0,12.274,48.784ZM9.557,51.557a3.143,3.143,0,0,0-.841,0,3.143,3.143,0,0,0,0-.841,3.143,3.143,0,0,0,.841,0,3.143,3.143,0,0,0,0,.841Z" transform="translate(-0.926 -10.034)"/><path d="M55.978,11.978a6.966,6.966,0,0,0-5.458,0,6.944,6.944,0,0,0,0-5.458,6.944,6.944,0,0,0,5.458,0,6.944,6.944,0,0,0,0,5.458Z" transform="translate(-10.533 -1.083)" fill="#fff200"/><g transform="translate(7.788 13.232)"><path d="M56.307,23.307a2.874,2.874,0,0,0-.847,0,3.064,3.064,0,0,0,0-.847,3.064,3.064,0,0,0,.847,0,3.064,3.064,0,0,0,0,.847Z" transform="translate(-19.386 -17.755)" fill="#ffde55"/><path d="M10.307,17.307a2.874,2.874,0,0,0-.847,0,3.064,3.064,0,0,0,0-.847,3.064,3.064,0,0,0,.847,0,3.064,3.064,0,0,0,0,.847Z" transform="translate(-9.46 -16.46)" fill="#ffde55"/><path d="M10.307,52.307a2.874,2.874,0,0,0-.847,0,3.064,3.064,0,0,0,0-.847,3.064,3.064,0,0,0,.847,0,3.064,3.064,0,0,0,0,.847Z" transform="translate(-9.46 -24.013)" fill="#ffde55"/></g></g></g></svg>