<svg xmlns="http://www.w3.org/2000/svg" width="83" height="83" viewBox="0 0 83 83"><g transform="translate(4079 9243.413)"><g transform="translate(-4364 -10153.449)"><circle cx="41.5" cy="41.5" r="41.5" transform="translate(285 910.036)" fill="#cfeaea"/></g><g transform="translate(-4072.5 -9293.386)"><g transform="translate(38.199 71)"><path d="M284.906,74.652h0c0-2.017,2.247-3.652,4.98-3.652s4.98,1.635,4.98,3.652h0c0,2.017-2.549,3.652-4.98,3.652S284.906,76.669,284.906,74.652Z" transform="translate(-284.906 -71)" fill="#ccf49f"/></g><path d="M316.566,71a6.579,6.579,0,0,0-1.66.21c1.927.5,3.32,1.854,3.32,3.442h0c0,1.554-1.514,2.88-3.32,3.408a5.954,5.954,0,0,0,1.66.244c2.43,0,4.98-1.635,4.98-3.652h0C321.546,72.635,319.3,71,316.566,71Z" transform="translate(-273.387)" fill="#b3e59f"/><g transform="translate(30.575 71)"><path d="M216.012,74.652h0c0-2.017,2.246-3.652,4.98-3.652s4.98,1.635,4.98,3.652h0c0,2.017-2.549,3.652-4.98,3.652S216.012,76.669,216.012,74.652Z" transform="translate(-216.012 -71)" fill="#ccf49f"/></g><path d="M247.672,71a6.581,6.581,0,0,0-1.66.21c1.927.5,3.32,1.854,3.32,3.442h0c0,1.554-1.514,2.88-3.32,3.408a5.955,5.955,0,0,0,1.66.244c2.431,0,4.98-1.635,4.98-3.652h0C252.652,72.635,250.405,71,247.672,71Z" transform="translate(-212.117)" fill="#b3e59f"/><g transform="translate(22.951 71)"><path d="M147.118,74.652h0c0-2.017,2.246-3.652,4.98-3.652s4.98,1.635,4.98,3.652h0c0,2.017-2.549,3.652-4.98,3.652S147.118,76.669,147.118,74.652Z" transform="translate(-147.118 -71)" fill="#ccf49f"/></g><path d="M178.778,71a6.58,6.58,0,0,0-1.66.21c1.927.5,3.32,1.854,3.32,3.442h0c0,1.554-1.514,2.88-3.32,3.408a5.955,5.955,0,0,0,1.66.244c2.43,0,4.98-1.635,4.98-3.652h0C183.758,72.635,181.511,71,178.778,71Z" transform="translate(-150.848)" fill="#b3e59f"/><g transform="translate(15.639 71)"><path d="M81.047,74.652h0c0-2.017,2.246-3.652,4.98-3.652s4.98,1.635,4.98,3.652h0c0,2.017-2.549,3.652-4.98,3.652S81.047,76.669,81.047,74.652Z" transform="translate(-81.047 -71)" fill="#ccf49f"/></g><path d="M112.707,71a6.58,6.58,0,0,0-1.66.21c1.927.5,3.32,1.854,3.32,3.442h0c0,1.554-1.514,2.88-3.32,3.408a5.955,5.955,0,0,0,1.66.244c2.431,0,4.98-1.635,4.98-3.652h0C117.687,72.635,115.44,71,112.707,71Z" transform="translate(-92.088)" fill="#b3e59f"/><path d="M396.34,73.84a.272.272,0,0,1,.364.268,14.914,14.914,0,0,1-1.156,6.077,6.046,6.046,0,0,1-5.376,3.378.258.258,0,0,1-.24-.155,5.913,5.913,0,0,1,1.1-6.325A12.718,12.718,0,0,1,396.34,73.84Z" transform="translate(-339.685 -2.511)" fill="#69af81"/><g transform="translate(40.843 75.237)"><path d="M308.8,112.939h0c0-2.017,2.246-3.652,4.98-3.652s4.98,1.635,4.98,3.652h0c0,2.017-2.549,3.652-4.98,3.652S308.8,114.956,308.8,112.939Z" transform="translate(-308.8 -109.287)" fill="#f6e266"/></g><path d="M340.46,109.287a6.581,6.581,0,0,0-1.66.21c1.927.5,3.32,1.854,3.32,3.442h0c0,1.554-1.514,2.88-3.32,3.408a5.956,5.956,0,0,0,1.66.244c2.43,0,4.98-1.635,4.98-3.652h0C345.44,110.922,343.193,109.287,340.46,109.287Z" transform="translate(-294.637 -34.05)" fill="#f1d333"/><g transform="translate(34.215 75.237)"><path d="M248.906,112.939h0c0-2.017,2.247-3.652,4.98-3.652s4.98,1.635,4.98,3.652h0c0,2.017-2.549,3.652-4.98,3.652S248.906,114.956,248.906,112.939Z" transform="translate(-248.906 -109.287)" fill="#f6e266"/></g><path d="M280.566,109.287a6.58,6.58,0,0,0-1.66.21c1.927.5,3.32,1.854,3.32,3.442h0c0,1.554-1.514,2.88-3.32,3.408a5.956,5.956,0,0,0,1.66.244c2.431,0,4.98-1.635,4.98-3.652h0C285.546,110.922,283.3,109.287,280.566,109.287Z" transform="translate(-241.371 -34.05)" fill="#f1d333"/><g transform="translate(27.587 75.237)"><path d="M189.012,112.939h0c0-2.017,2.246-3.652,4.98-3.652s4.98,1.635,4.98,3.652h0c0,2.017-2.549,3.652-4.98,3.652S189.012,114.956,189.012,112.939Z" transform="translate(-189.012 -109.287)" fill="#f6e266"/></g><path d="M220.672,109.287a6.58,6.58,0,0,0-1.66.21c1.927.5,3.32,1.854,3.32,3.442h0c0,1.554-1.514,2.88-3.32,3.408a5.956,5.956,0,0,0,1.66.244c2.431,0,4.98-1.635,4.98-3.652h0C225.652,110.922,223.405,109.287,220.672,109.287Z" transform="translate(-188.105 -34.05)" fill="#f1d333"/><g transform="translate(20.959 75.237)"><path d="M129.118,112.939h0c0-2.017,2.246-3.652,4.98-3.652s4.98,1.635,4.98,3.652h0c0,2.017-2.549,3.652-4.98,3.652S129.118,114.956,129.118,112.939Z" transform="translate(-129.118 -109.287)" fill="#f6e266"/></g><path d="M160.778,109.287a6.58,6.58,0,0,0-1.66.21c1.927.5,3.32,1.854,3.32,3.442h0c0,1.554-1.514,2.88-3.32,3.408a5.956,5.956,0,0,0,1.66.244c2.431,0,4.98-1.635,4.98-3.652h0C165.758,110.922,163.511,109.287,160.778,109.287Z" transform="translate(-134.839 -34.05)" fill="#f1d333"/><g transform="translate(13.647 75.237)"><path d="M63.047,112.939h0c0-2.017,2.246-3.652,4.98-3.652s4.98,1.635,4.98,3.652h0c0,2.017-2.549,3.652-4.98,3.652S63.047,114.956,63.047,112.939Z" transform="translate(-63.047 -109.287)" fill="#f6e266"/></g><path d="M94.707,109.287a6.58,6.58,0,0,0-1.66.21c1.927.5,3.32,1.854,3.32,3.442h0c0,1.554-1.514,2.88-3.32,3.408a5.956,5.956,0,0,0,1.66.244c2.431,0,4.98-1.635,4.98-3.652h0C99.687,110.922,97.44,109.287,94.707,109.287Z" transform="translate(-76.08 -34.05)" fill="#f1d333"/><path d="M60.729,162.541H9.271A1.771,1.771,0,0,1,7.5,160.771h0A1.771,1.771,0,0,1,9.271,159H60.729a1.771,1.771,0,0,1,1.771,1.771h0A1.771,1.771,0,0,1,60.729,162.541Z" transform="translate(0 -78.262)" fill="#6bbcd5"/><path d="M461.82,159H458.5a1.77,1.77,0,0,1,1.771,1.771h0a1.77,1.77,0,0,1-1.771,1.771h3.32a1.771,1.771,0,0,0,1.771-1.771h0A1.771,1.771,0,0,0,461.82,159Z" transform="translate(-401.091 -78.262)" fill="#63afcb"/><path d="M73.925,218.666H28.98a2.98,2.98,0,0,1-2.98-2.98V191H76.905v24.686A2.98,2.98,0,0,1,73.925,218.666Z" transform="translate(-16.453 -106.72)" fill="#7ad0df"/><path d="M432.052,191v24.686a2.98,2.98,0,0,1-2.98,2.98h3.32a2.98,2.98,0,0,0,2.98-2.98V191Z" transform="translate(-374.919 -106.72)" fill="#6bbcd5"/><g transform="translate(12.867 87.6)"><path d="M58.213,242.026h0A2.213,2.213,0,0,1,56,239.813v-16.6A2.213,2.213,0,0,1,58.213,221h0a2.213,2.213,0,0,1,2.213,2.213v16.6A2.213,2.213,0,0,1,58.213,242.026Z" transform="translate(-56 -221)" fill="#5c90b9"/><path d="M130.213,242.026h0A2.213,2.213,0,0,1,128,239.813v-16.6A2.213,2.213,0,0,1,130.213,221h0a2.213,2.213,0,0,1,2.213,2.213v16.6A2.213,2.213,0,0,1,130.213,242.026Z" transform="translate(-120.032 -221)" fill="#5c90b9"/><path d="M202.213,242.026h0A2.213,2.213,0,0,1,200,239.813v-16.6A2.213,2.213,0,0,1,202.213,221h0a2.213,2.213,0,0,1,2.213,2.213v16.6A2.213,2.213,0,0,1,202.213,242.026Z" transform="translate(-184.064 -221)" fill="#5c90b9"/><path d="M274.213,242.026h0A2.213,2.213,0,0,1,272,239.813v-16.6A2.213,2.213,0,0,1,274.213,221h0a2.213,2.213,0,0,1,2.213,2.213v16.6A2.213,2.213,0,0,1,274.213,242.026Z" transform="translate(-248.097 -221)" fill="#5c90b9"/><path d="M346.213,242.026h0A2.213,2.213,0,0,1,344,239.813v-16.6A2.213,2.213,0,0,1,346.213,221h0a2.213,2.213,0,0,1,2.213,2.213v16.6A2.213,2.213,0,0,1,346.213,242.026Z" transform="translate(-312.129 -221)" fill="#5c90b9"/><path d="M418.213,242.026h0A2.213,2.213,0,0,1,416,239.813v-16.6A2.213,2.213,0,0,1,418.213,221h0a2.213,2.213,0,0,1,2.213,2.213v16.6A2.213,2.213,0,0,1,418.213,242.026Z" transform="translate(-376.161 -221)" fill="#5c90b9"/></g><g transform="translate(7.5 71)"><path d="M60.729,163.041H9.271a2.271,2.271,0,1,1,0-4.541H60.729a2.271,2.271,0,1,1,0,4.541ZM9.271,159.5a1.271,1.271,0,1,0,0,2.541H60.729a1.271,1.271,0,1,0,0-2.541Z" transform="translate(-7.5 -149.262)"/><path d="M177.187,282.013H142.111a.5.5,0,0,1,0-1h35.076a2.483,2.483,0,0,0,2.48-2.48V261.667a.5.5,0,0,1,1,0v16.866A3.484,3.484,0,0,1,177.187,282.013Z" transform="translate(-127.214 -240.567)"/><path d="M34.816,219.166H28.98a3.484,3.484,0,0,1-3.48-3.48V191a.5.5,0,0,1,.5-.5H76.905a.5.5,0,0,1,.5.5v3.984a.5.5,0,1,1-1,0V191.5H26.5v24.186a2.483,2.483,0,0,0,2.48,2.48h5.836a.5.5,0,0,1,0,1Z" transform="translate(-23.953 -177.72)"/><g transform="translate(5.367 16.6)"><path d="M58.213,242.526a2.716,2.716,0,0,1-2.713-2.713v-16.6a2.713,2.713,0,0,1,5.427,0v16.6A2.716,2.716,0,0,1,58.213,242.526Zm0-21.026a1.715,1.715,0,0,0-1.713,1.713v16.6a1.713,1.713,0,0,0,3.427,0v-16.6A1.715,1.715,0,0,0,58.213,221.5Z" transform="translate(-56 -221)"/><path d="M130.213,242.526a2.716,2.716,0,0,1-2.713-2.713v-16.6a2.713,2.713,0,1,1,5.427,0v16.6A2.716,2.716,0,0,1,130.213,242.526Zm0-21.026a1.715,1.715,0,0,0-1.713,1.713v16.6a1.713,1.713,0,1,0,3.427,0v-16.6A1.715,1.715,0,0,0,130.213,221.5Z" transform="translate(-120.032 -221)"/><path d="M202.213,242.526a2.716,2.716,0,0,1-2.713-2.713v-16.6a2.713,2.713,0,0,1,5.427,0v16.6A2.716,2.716,0,0,1,202.213,242.526Zm0-21.026a1.715,1.715,0,0,0-1.713,1.713v16.6a1.713,1.713,0,0,0,3.427,0v-16.6A1.715,1.715,0,0,0,202.213,221.5Z" transform="translate(-184.064 -221)"/><path d="M274.213,242.526a2.716,2.716,0,0,1-2.713-2.713v-16.6a2.713,2.713,0,1,1,5.426,0v16.6A2.716,2.716,0,0,1,274.213,242.526Zm0-21.026a1.715,1.715,0,0,0-1.713,1.713v16.6a1.713,1.713,0,1,0,3.426,0v-16.6A1.715,1.715,0,0,0,274.213,221.5Z" transform="translate(-248.097 -221)"/><path d="M346.213,242.526a2.716,2.716,0,0,1-2.713-2.713v-16.6a2.713,2.713,0,0,1,5.427,0v16.6A2.716,2.716,0,0,1,346.213,242.526Zm0-21.026a1.715,1.715,0,0,0-1.713,1.713v16.6a1.713,1.713,0,0,0,3.427,0v-16.6A1.715,1.715,0,0,0,346.213,221.5Z" transform="translate(-312.129 -221)"/><path d="M418.213,242.526a2.716,2.716,0,0,1-2.713-2.713v-16.6a2.713,2.713,0,1,1,5.427,0v16.6A2.716,2.716,0,0,1,418.213,242.526Zm0-21.026a1.715,1.715,0,0,0-1.713,1.713v16.6a1.713,1.713,0,0,0,3.427,0v-16.6A1.715,1.715,0,0,0,418.213,221.5Z" transform="translate(-376.161 -221)"/></g><path d="M305.251,75.843a.5.5,0,0,1-.48-.641,1.954,1.954,0,0,0,.08-.55,2.744,2.744,0,0,0-1.26-2.179,5.787,5.787,0,0,0-6.582.109.5.5,0,0,1-.626-.78,6.456,6.456,0,0,1,3.988-1.3c3.022,0,5.48,1.863,5.48,4.152a2.954,2.954,0,0,1-.121.832A.5.5,0,0,1,305.251,75.843Z" transform="translate(-264.693 -71)"/><path d="M237.428,75.721a.5.5,0,0,1-.487-.617,1.933,1.933,0,0,0,.054-.452,2.744,2.744,0,0,0-1.26-2.179,5.808,5.808,0,0,0-6.467.02.5.5,0,0,1-.6-.8,6.457,6.457,0,0,1,3.844-1.191c3.022,0,5.48,1.863,5.48,4.152a2.934,2.934,0,0,1-.082.686A.5.5,0,0,1,237.428,75.721Z" transform="translate(-204.461 -71)"/><g transform="translate(16.871 0)"><path d="M168.464,75.525a.5.5,0,0,1-.495-.578,1.913,1.913,0,0,0,.023-.3,2.744,2.744,0,0,0-1.26-2.179,5.806,5.806,0,0,0-6.479.029.5.5,0,1,1-.6-.8,6.448,6.448,0,0,1,3.86-1.2c3.022,0,5.48,1.863,5.48,4.152a2.918,2.918,0,0,1-.035.451A.5.5,0,0,1,168.464,75.525Z" transform="translate(-159.953 -71)"/></g><path d="M81.269,76.174a.5.5,0,0,1-.458-.3,3.015,3.015,0,0,1-.265-1.224c0-2.289,2.458-4.152,5.48-4.152s5.48,1.863,5.48,4.152a2.918,2.918,0,0,1-.035.451.5.5,0,1,1-.988-.155,1.915,1.915,0,0,0,.023-.3,2.744,2.744,0,0,0-1.26-2.179,5.813,5.813,0,0,0-6.439,0,2.744,2.744,0,0,0-1.26,2.179,2.022,2.022,0,0,0,.179.82.5.5,0,0,1-.457.7Z" transform="translate(-72.908 -71)"/><path d="M332.746,115.062a.5.5,0,0,1-.4-.8,2.217,2.217,0,0,0,.476-1.326,2.744,2.744,0,0,0-1.26-2.179,5.474,5.474,0,0,0-3.22-.973,5.676,5.676,0,0,0-2.909.766.5.5,0,0,1-.519-.855,6.688,6.688,0,0,1,3.427-.911c3.022,0,5.48,1.863,5.48,4.152a3.236,3.236,0,0,1-.672,1.92A.5.5,0,0,1,332.746,115.062Z" transform="translate(-290.018 -105.05)"/><path d="M272.732,115.039a.5.5,0,0,1-.4-.794,2.206,2.206,0,0,0,.462-1.306,2.744,2.744,0,0,0-1.26-2.179,5.474,5.474,0,0,0-3.22-.973,5.666,5.666,0,0,0-2.924.775.5.5,0,1,1-.522-.853,6.678,6.678,0,0,1,3.446-.922c3.022,0,5.48,1.863,5.48,4.152a3.227,3.227,0,0,1-.654,1.895A.5.5,0,0,1,272.732,115.039Z" transform="translate(-236.616 -105.05)"/><path d="M212.838,115.039a.5.5,0,0,1-.4-.794,2.207,2.207,0,0,0,.462-1.306,2.744,2.744,0,0,0-1.26-2.179,5.474,5.474,0,0,0-3.22-.973,5.667,5.667,0,0,0-2.924.775.5.5,0,1,1-.522-.853,6.678,6.678,0,0,1,3.446-.922c3.022,0,5.48,1.863,5.48,4.152a3.227,3.227,0,0,1-.654,1.895A.5.5,0,0,1,212.838,115.039Z" transform="translate(-183.35 -105.05)"/><path d="M152.944,115.039a.5.5,0,0,1-.4-.794,2.207,2.207,0,0,0,.462-1.306,2.744,2.744,0,0,0-1.26-2.179,5.474,5.474,0,0,0-3.22-.973,5.667,5.667,0,0,0-2.924.775.5.5,0,0,1-.522-.853,6.678,6.678,0,0,1,3.446-.922c3.022,0,5.48,1.863,5.48,4.152a3.227,3.227,0,0,1-.654,1.895A.5.5,0,0,1,152.944,115.039Z" transform="translate(-130.084 -105.05)"/><g transform="translate(6.147 4.237)"><path d="M72.448,115.039a.5.5,0,0,1-.4-.794,2.207,2.207,0,0,0,.462-1.306,2.744,2.744,0,0,0-1.26-2.179,5.813,5.813,0,0,0-6.439,0,2.744,2.744,0,0,0-1.26,2.179,2.156,2.156,0,0,0,.382,1.19.5.5,0,0,1-.836.549,3.137,3.137,0,0,1-.546-1.739c0-2.289,2.458-4.152,5.48-4.152s5.48,1.863,5.48,4.152a3.227,3.227,0,0,1-.654,1.895A.5.5,0,0,1,72.448,115.039Z" transform="translate(-63.047 -109.287)"/></g><path d="M395.051,83.594a.5.5,0,0,1-.192-.962,5.61,5.61,0,0,0,2.839-2.674,13.862,13.862,0,0,0,1.088-5.532A11.688,11.688,0,0,0,394,77.413a5.93,5.93,0,0,0-1.158,1.969.5.5,0,0,1-.945-.327,6.939,6.939,0,0,1,1.354-2.305,12.975,12.975,0,0,1,5.513-3.382.772.772,0,0,1,1.032.759,15.4,15.4,0,0,1-1.208,6.281,6.61,6.61,0,0,1-3.348,3.148A.5.5,0,0,1,395.051,83.594Z" transform="translate(-349.782 -73.51)"/></g></g></g></svg>