<svg xmlns="http://www.w3.org/2000/svg" width="89" height="89" viewBox="0 0 89 89"><g transform="translate(-381.281 -2115.043)"><rect width="89" height="89" rx="44.5" transform="translate(381.281 2115.043)" fill="#769671"/><rect width="89" height="89" rx="44.5" transform="translate(381.281 2115.043)" fill="none"/><g transform="translate(384.549 2119.997)"><path d="M66.24,38.12a27.984,27.984,0,0,1-4.184,14.764,6.954,6.954,0,0,0-9.141,9.153A28.122,28.122,0,1,1,66.24,38.12Z" fill="#cad473"/><circle cx="22.985" cy="22.985" r="22.985" transform="translate(15.181 15.135)" fill="#fff"/><path d="M229.77,141.444v-1.833a2.993,2.993,0,0,1,2.993-2.993h0a3.044,3.044,0,0,1,3.044,3.044v1.781Z" transform="translate(-194.648 -112.145)" fill="#c68a86"/><path d="M228.9,179.565l-.127-.732h-6.037l-.127.732a21.7,21.7,0,0,1-.569,2.345,5.3,5.3,0,0,0-.026,2.872c.775,2.855,1.429,11.829,1.378,15.751l2.343,3.285,2.384-3.285c-.052-3.921.6-12.9,1.378-15.751a5.3,5.3,0,0,0-.026-2.873A21.668,21.668,0,0,1,228.9,179.565Z" transform="translate(-187.613 -149.534)" fill="#c68a86"/><path d="M228.906,179.565l-.128-.735h-6.037l-.128.735a19.877,19.877,0,0,1-.556,2.3,5.3,5.3,0,0,0-.22,1.716h7.844a5.293,5.293,0,0,0-.219-1.713A19.984,19.984,0,0,1,228.906,179.565Z" transform="translate(-187.62 -149.531)" fill="#ddb9b6"/><path d="M235.807,141.944H229.77a.5.5,0,0,1-.5-.5v-1.833a3.5,3.5,0,0,1,3.493-3.493,3.548,3.548,0,0,1,3.544,3.544v1.781A.5.5,0,0,1,235.807,141.944Zm-5.537-1h5.037v-1.281a2.547,2.547,0,0,0-2.544-2.544,2.5,2.5,0,0,0-2.493,2.493Z" transform="translate(-194.648 -112.145)"/><path d="M222.741,178.33h6.037a.5.5,0,0,1,.493.414l.128.735a19.409,19.409,0,0,0,.543,2.246,5.781,5.781,0,0,1,.24,1.874.5.5,0,0,1-.5.482h-7.844a.5.5,0,0,1-.5-.482,5.789,5.789,0,0,1,.241-1.878,19.3,19.3,0,0,0,.542-2.242l.128-.736A.5.5,0,0,1,222.741,178.33Zm5.616,1h-5.2l-.056.321a20.281,20.281,0,0,1-.569,2.358,4.786,4.786,0,0,0-.193,1.072h6.832a4.779,4.779,0,0,0-.192-1.069,20.4,20.4,0,0,1-.571-2.362Z" transform="translate(-187.62 -149.531)"/><path d="M22.985-.5a23.491,23.491,0,0,1,9.142,45.124A23.491,23.491,0,0,1,13.843,1.346,23.338,23.338,0,0,1,22.985-.5Zm0,45.97a22.491,22.491,0,0,0,8.752-43.2A22.491,22.491,0,0,0,14.233,43.7,22.344,22.344,0,0,0,22.985,45.47Z" transform="translate(15.181 15.135)"/><path d="M2.339,2.839a.5.5,0,0,1-.354-.146L-.354.354a.5.5,0,0,1,0-.707.5.5,0,0,1,.707,0L2.693,1.986a.5.5,0,0,1-.354.854Z" transform="translate(34.13 22.628)"/><path d="M0,2.839a.5.5,0,0,1-.354-.146.5.5,0,0,1,0-.707L1.986-.354a.5.5,0,0,1,.707,0,.5.5,0,0,1,0,.707L.354,2.693A.5.5,0,0,1,0,2.839Z" transform="translate(39.782 22.628)"/><circle cx="6.951" cy="6.951" r="6.951" transform="translate(49.459 59.263) rotate(-45)" fill="#fff"/><circle cx="6.951" cy="6.951" r="6.951" transform="translate(49.459 59.263) rotate(-45)" fill="#ff7e96"/><path d="M6.951-.5A7.451,7.451,0,1,1-.5,6.951,7.459,7.459,0,0,1,6.951-.5Zm0,13.9A6.451,6.451,0,1,0,.5,6.951,6.458,6.458,0,0,0,6.951,13.4Z" transform="translate(49.459 59.263) rotate(-45)"/><path d="M0,4.043A.5.5,0,0,1-.354,3.9a.5.5,0,0,1,0-.707L3.189-.354a.5.5,0,0,1,.707,0,.5.5,0,0,1,0,.707L.354,3.9A.5.5,0,0,1,0,4.043Z" transform="translate(57.518 57.466)"/><path d="M3.543,4.043A.5.5,0,0,1,3.189,3.9L-.354.354a.5.5,0,0,1,0-.707.5.5,0,0,1,.707,0L3.9,3.189a.5.5,0,0,1-.354.854Z" transform="translate(57.518 57.466)"/><path d="M38.12,66.74A28.618,28.618,0,1,1,66.277,32.971a.5.5,0,0,1-.984.179,27.617,27.617,0,1,0-13,28.681,7.455,7.455,0,0,1,9.555-9.567,27.332,27.332,0,0,0,3.464-9.276.5.5,0,0,1,.985.175,28.34,28.34,0,0,1-3.816,9.985.5.5,0,0,1-.624.2,6.454,6.454,0,0,0-8.484,8.494.5.5,0,0,1-.195.625A28.551,28.551,0,0,1,38.12,66.74Z"/><path d="M222.734,178.333h6.037a.5.5,0,0,1,.493.414l.127.732a21.458,21.458,0,0,0,.556,2.291,5.8,5.8,0,0,1,.029,3.144c-.77,2.836-1.41,11.809-1.36,15.613a.5.5,0,0,1-.1.3l-2.384,3.285a.5.5,0,0,1-.812,0l-2.343-3.285a.5.5,0,0,1-.093-.3c.05-3.8-.59-12.776-1.36-15.613a5.8,5.8,0,0,1,.029-3.143,21.515,21.515,0,0,0,.556-2.291l.127-.732A.5.5,0,0,1,222.734,178.333Zm5.617,1h-5.2l-.055.318a22.446,22.446,0,0,1-.581,2.4,4.8,4.8,0,0,0-.024,2.6c.8,2.96,1.428,11.776,1.4,15.724l1.845,2.587,1.879-2.589c-.031-3.949.593-12.762,1.4-15.722a4.8,4.8,0,0,0-.024-2.6,22.4,22.4,0,0,1-.581-2.4Z" transform="translate(-187.613 -149.534)"/><path d="M161.592,223.437a.5.5,0,0,1-.434-.747l1.441-2.541a.5.5,0,0,1,.435-.253h5.449a.5.5,0,0,1,0,1h-5.158l-1.3,2.287A.5.5,0,0,1,161.592,223.437Z" transform="translate(-134.264 -186.346)"/><path d="M170.063,148.992H163.88a.5.5,0,0,1-.5-.5v-2.377l-1.185-1.185a.5.5,0,0,1,.707-.707l1.332,1.332a.5.5,0,0,1,.146.354v2.084h5.683a.5.5,0,0,1,0,1Z" transform="translate(-135.11 -119.193)"/><path d="M297.553,223.437a.5.5,0,0,1-.435-.253l-1.3-2.287h-5.33a.5.5,0,0,1,0-1h5.621a.5.5,0,0,1,.435.253l1.441,2.541a.5.5,0,0,1-.434.747Z" transform="translate(-248.427 -186.346)"/><path d="M289.108,148.992h-6.525a.5.5,0,0,1,0-1h6.025v-2.084a.5.5,0,0,1,.146-.354l1.332-1.332a.5.5,0,0,1,.707.707l-1.185,1.185v2.377A.5.5,0,0,1,289.108,148.992Z" transform="translate(-241.424 -119.193)"/><g transform="translate(40.955 38.704)"><path d="M290,267.964h-6.361c-2.171,0-2.967-2.224-2.817-3.878.095-1.045.2-2.056.316-2.976Z" transform="translate(-280.805 -261.11)" fill="#ddb9b6"/><path d="M290,268.464h-6.361a3.006,3.006,0,0,1-2.282-.984,4.645,4.645,0,0,1-1.033-3.439c.1-1.085.205-2.091.317-2.993a.5.5,0,0,1,.8-.334l8.862,6.854a.5.5,0,0,1-.306.9Zm-8.47-6.418c-.073.653-.144,1.351-.211,2.086a3.633,3.633,0,0,0,.776,2.674,2,2,0,0,0,1.543.658h4.9Z" transform="translate(-280.805 -261.11)"/><path d="M363.116,326.813h-1.868a.5.5,0,0,1-.5-.5v-5.246a.5.5,0,0,1,1,0v4.746h1.368a.5.5,0,0,1,0,1Z" transform="translate(-352.053 -314.213)"/></g><g transform="translate(24.234 38.686)"><path d="M157.249,267.708H150.86l8.888-6.758c.115.925.223,1.942.318,2.994C160.216,265.6,159.637,267.708,157.249,267.708Z" transform="translate(-148.992 -260.95)" fill="#ddb9b6"/><path d="M157.249,268.208H150.86a.5.5,0,0,1-.3-.9l8.888-6.758a.5.5,0,0,1,.8.336c.113.906.221,1.919.32,3.011a4.508,4.508,0,0,1-.917,3.34A3.1,3.1,0,0,1,157.249,268.208Zm-4.905-1h4.905a2.143,2.143,0,0,0,1.66-.643,3.426,3.426,0,0,0,.659-2.575c-.068-.745-.139-1.452-.214-2.112Z" transform="translate(-148.992 -260.95)"/><path d="M136.389,325.927h-1.868a.5.5,0,0,1,0-1h1.368v-4.86a.5.5,0,0,1,1,0v5.36A.5.5,0,0,1,136.389,325.927Z" transform="translate(-134.521 -313.309)"/></g><path transform="translate(66.23 37.865)"/></g></g></svg>