<svg xmlns="http://www.w3.org/2000/svg" width="49.398" height="49.398" viewBox="0 0 49.398 49.398"><g transform="translate(-1 -1)"><path d="M2,25.9V49.8H49.8V25.9A23.9,23.9,0,0,0,2,25.9Z" transform="translate(-0.203 -0.203)" fill="#cad473"/><path d="M11,34H44.463V56.309H11Z" transform="translate(-2.033 -6.707)" fill="#f2f2f2"/><path d="M22,38h7.967v6.374H22Z" transform="translate(-4.268 -7.52)" fill="#4b352f"/><path d="M25,38h3.187v3.187H25Z" transform="translate(-4.878 -7.52)" fill="#f3a845"/><path d="M25,38v2.39h.8A1.593,1.593,0,0,0,27.39,38.8V38Z" transform="translate(-4.878 -7.52)" fill="#eecc61"/><path d="M43,58h3.187v3.187H43Z" transform="translate(-8.537 -11.585)" fill="#686868"/><path d="M17,58h3.187v3.187H17Z" transform="translate(-3.252 -11.585)" fill="#686868"/><path d="M10,30H45.057v3.187H10Z" transform="translate(-1.829 -5.894)" fill="#ccc"/><ellipse cx="5.403" cy="5.819" rx="5.403" ry="5.819" transform="translate(20.119 8.835)" fill="#bce4f8"/><path d="M15,54H42.089v3.187H15Z" transform="translate(-2.846 -10.772)" fill="#474747"/><path d="M37,46h7.967v6.374H37Z" transform="translate(-7.317 -9.146)" fill="#4b352f"/><path d="M40,46h3.187v3.187H40Z" transform="translate(-7.927 -9.146)" fill="#f3a845"/><path d="M30.577,11a5.567,5.567,0,0,0-5.033,7.967h5.83a2.39,2.39,0,0,0,2.39-2.39V12A5.547,5.547,0,0,0,30.577,11Z" transform="translate(-4.878 -2.033)" fill="#e4f5fd"/><path d="M15,55.593H38.9A1.593,1.593,0,0,0,40.5,54H15Z" transform="translate(-2.846 -10.772)" fill="#686868"/><path d="M10,31.593H42.667A1.593,1.593,0,0,0,44.26,30H10Z" transform="translate(-1.829 -5.894)" fill="#f2f2f2"/><path d="M40,46v2.39h.8A1.593,1.593,0,0,0,42.39,46.8V46Z" transform="translate(-7.927 -9.146)" fill="#eecc61"/><path d="M27,46h7.967v6.374H27Z" transform="translate(-5.285 -9.146)" fill="#594139"/><path d="M30,46h3.187v3.187H30Z" transform="translate(-5.894 -9.146)" fill="#f3a845"/><path d="M30,46v2.39h.8A1.593,1.593,0,0,0,32.39,46.8V46Z" transform="translate(-5.894 -9.146)" fill="#eecc61"/><path d="M17,46h7.967v6.374H17Z" transform="translate(-3.252 -9.146)" fill="#4b352f"/><path d="M20,46h3.187v3.187H20Z" transform="translate(-3.862 -9.146)" fill="#f3a845"/><path d="M20,46v2.39h.8A1.593,1.593,0,0,0,22.39,46.8V46Z" transform="translate(-3.862 -9.146)" fill="#eecc61"/><path d="M32,38h7.967v6.374H32Z" transform="translate(-6.301 -7.52)" fill="#594139"/><path d="M35,38h3.187v3.187H35Z" transform="translate(-6.911 -7.52)" fill="#f3a845"/><path d="M35,38v2.39h.8A1.593,1.593,0,0,0,37.39,38.8V38Z" transform="translate(-6.911 -7.52)" fill="#eecc61"/><path d="M25.9,2A23.9,23.9,0,0,0,2,25.9H5.187a20.715,20.715,0,0,1,41.431,0H49.8A23.9,23.9,0,0,0,25.9,2Z" transform="translate(-0.203 -0.203)" fill="#119798"/><path d="M25.7,1A24.728,24.728,0,0,0,1,25.7V49.6a.8.8,0,0,0,.8.8H49.6a.8.8,0,0,0,.8-.8V25.7A24.728,24.728,0,0,0,25.7,1Zm0,1.593A23.13,23.13,0,0,1,48.785,24.9H47.2a21.512,21.512,0,0,0-43,0H2.613A23.13,23.13,0,0,1,25.7,2.593ZM16.138,40.837h3.187a.8.8,0,0,0,.8-.8V37.65h.8v4.78H14.545V37.65h.8v2.39A.8.8,0,0,0,16.138,40.837Zm.8-1.593V37.65h1.593v1.593Zm3.187-4.78h3.187a.8.8,0,0,0,.8-.8v-2.39h.8v4.78H18.528v-4.78h.8v2.39A.8.8,0,0,0,20.122,34.463Zm.8-1.594V31.276h1.593V32.87Zm7.171,1.594h3.187a.8.8,0,0,0,.8-.8v-2.39h.8v4.78H26.5v-4.78h.8v2.39A.8.8,0,0,0,28.089,34.463Zm.8-1.594V31.276H30.48V32.87Zm3.187,7.967H35.26a.8.8,0,0,0,.8-.8V37.65h.8v4.78H30.48V37.65h.8v2.39A.8.8,0,0,0,32.073,40.837Zm2.39-1.593H32.87V37.65h1.594Zm-7.171,1.593a.8.8,0,0,0,.8-.8V37.65h.8v4.78H22.512V37.65h.8v2.39a.8.8,0,0,0,.8.8Zm-.8-1.593H24.9V37.65H26.5Zm11.951,4.78v1.593h-25.5V44.024ZM16.138,48.8H14.545V47.211h1.593Zm17.528,0H17.732V47.211H33.667Zm3.187,0H35.26V47.211h1.594Zm3.984,0h-2.39V47.211h.8a.8.8,0,0,0,.8-.8V43.228a.8.8,0,0,0-.8-.8h-.8V36.854a.8.8,0,0,0-.8-.8H34.463V30.48a.8.8,0,0,0-.8-.8H17.732a.8.8,0,0,0-.8.8v5.577H13.748a.8.8,0,0,0-.8.8v5.577h-.8a.8.8,0,0,0-.8.8v3.187a.8.8,0,0,0,.8.8h.8V48.8h-2.39V28.089H40.837ZM8.967,26.5V24.9H42.431V26.5ZM48.8,48.8H42.431V28.089h.8a.8.8,0,0,0,.8-.8V24.106a.8.8,0,0,0-.8-.8H8.171a.8.8,0,0,0-.8.8v3.187a.8.8,0,0,0,.8.8h.8V48.8H2.593V26.5h2.39a.8.8,0,0,0,.8-.8,19.919,19.919,0,1,1,39.837,0,.8.8,0,0,0,.8.8H48.8Z"/><path d="M30.374,11a6.374,6.374,0,1,0,6.374,6.374A6.374,6.374,0,0,0,30.374,11Zm0,11.154a4.78,4.78,0,1,1,4.78-4.78,4.78,4.78,0,0,1-4.78,4.78Z" transform="translate(-4.675 -2.033)"/></g></svg>