<svg xmlns="http://www.w3.org/2000/svg" width="55.8" height="55.801" viewBox="0 0 55.8 55.801"><g transform="translate(-0.5 0.001)"><path d="M305.535,310.486l15.386,15.387a2.18,2.18,0,0,0,3.083,0l2.36-2.36a2.18,2.18,0,0,0,0-3.083l-15.386-15.386Zm0,0" transform="translate(-271.79 -271.799)" fill="#ffb954"/><path d="M314.906,308.967l-5.443,5.443-3.924-3.924,5.443-5.442Zm0,0" transform="translate(-271.794 -271.798)" fill="#d8d8e4"/><path d="M51.48,30.49A20.49,20.49,0,1,1,30.99,10,20.49,20.49,0,0,1,51.48,30.49Zm0,0" transform="translate(-8.91 -8.911)" fill="#72d8ff"/><path d="M95.273,80.387A14.387,14.387,0,1,1,80.887,66,14.387,14.387,0,0,1,95.273,80.387Zm0,0" transform="translate(-58.807 -58.808)" fill="#fff"/><path d="M96.325,280.957a1.09,1.09,0,1,0-1.553,1.53l.083.084a1.09,1.09,0,0,0,1.54-1.543Zm0,0" transform="translate(-83.718 -250.048)"/><path d="M82.827,60.594a15.479,15.479,0,0,0-24.74,17.965,1.09,1.09,0,1,0,1.943-.989A13.3,13.3,0,1,1,66.279,83.6a1.09,1.09,0,0,0-.918,1.977A15.479,15.479,0,0,0,82.827,60.594Zm0,0" transform="translate(-49.804 -49.959)"/><path d="M55.344,47.86,40.42,32.937a21.6,21.6,0,1,0-6.984,6.984L48.36,54.844a3.273,3.273,0,0,0,4.624,0l2.36-2.36a3.273,3.273,0,0,0,0-4.624ZM2.68,21.579a19.4,19.4,0,1,1,19.4,19.4,19.422,19.422,0,0,1-19.4-19.4ZM39.157,34.756l2.412,2.413-3.9,3.9-2.413-2.413a21.762,21.762,0,0,0,3.9-3.9ZM53.8,50.943,51.443,53.3a1.09,1.09,0,0,1-1.541,0L39.21,42.611l3.9-3.9L53.8,49.4a1.092,1.092,0,0,1,0,1.542Zm0,0"/><path d="M228.12,124.835a1.09,1.09,0,0,0,2.18,0,9.869,9.869,0,0,0-5.557-8.842,1.09,1.09,0,1,0-.946,1.964,7.676,7.676,0,0,1,4.322,6.878Zm0,0" transform="translate(-198.411 -103.256)"/><path d="M189.611,110.184a1.09,1.09,0,0,0,0-2.18h-.017a1.09,1.09,0,0,0,0,2.18Zm0,0" transform="translate(-167.514 -96.234)"/></g></svg>