<svg xmlns="http://www.w3.org/2000/svg" width="89" height="89" viewBox="0 0 89 89"><g transform="translate(-697.113 -2115.043)"><rect width="89" height="89" rx="44.5" transform="translate(697.113 2115.043)" fill="#769671"/><rect width="89" height="89" rx="44.5" transform="translate(697.113 2115.043)" fill="none"/><g transform="translate(712.067 2129.994)"><g transform="translate(1.16 1.157)"><path d="M38.438,14.618a23.675,23.675,0,0,1,15.1,5.41l-5.851,5.851,3.264,3.264L56.8,23.292A23.774,23.774,0,0,1,23.339,56.754l5.719-5.719-3.264-3.264L20.075,53.49A23.774,23.774,0,0,1,38.438,14.618ZM58.512,58.465a28.39,28.39,0,1,0-40.149,0A28.39,28.39,0,0,0,58.512,58.465Z" transform="translate(-10.048 -10.001)" fill="#aa6e15" fill-rule="evenodd"/><path d="M88.92,55.412A23.774,23.774,0,0,0,55.458,88.874l5.719-5.719,3.264,3.264-5.719,5.719A23.774,23.774,0,0,0,92.184,58.676l-5.851,5.851L83.07,61.263ZM74.862,68.332c.993-2.441,3.263-4.765,4.092-4.765,1.073,0,4.568,3.9,4.568,6.9a4.629,4.629,0,0,1-4.568,4.6,4.378,4.378,0,0,1-.462-.023,7.478,7.478,0,0,1,.184,1.6,7.277,7.277,0,1,1-14.554,0c0-4.783,5.567-11,7.277-11C72.111,65.649,73.493,66.728,74.862,68.332Z" transform="translate(-45.432 -45.386)" fill="#fff" fill-rule="evenodd"/><g transform="translate(18.689 18.182)"><path d="M186.364,194.99a16.746,16.746,0,0,0-3.629-6.72c-1.37-1.6-2.752-2.683-3.464-2.683-1.71,0-7.277,6.216-7.277,11a7.277,7.277,0,1,0,14.554,0A7.478,7.478,0,0,0,186.364,194.99Z" transform="translate(-171.994 -183.506)" fill="#6d91ac" fill-rule="evenodd"/><path d="M269.16,167.552c-.829,0-3.1,2.324-4.091,4.764a16.746,16.746,0,0,1,3.629,6.72,4.37,4.37,0,0,0,.462.023,4.629,4.629,0,0,0,4.568-4.6c0-3-3.494-6.9-4.568-6.9Z" transform="translate(-254.328 -167.552)" fill="#6d91ac" fill-rule="evenodd"/></g></g><g transform="translate(0 0.003)"><path d="M183.693,165.608a9.649,9.649,0,0,0-2.11-5.268c-.626-.839-2.231-2.79-3.611-2.79-.78,0-1.731.616-2.826,1.831a13.717,13.717,0,0,0-1.549,2.1c-.992-.965-2.175-1.848-3.18-1.848-1.993,0-4.685,3.473-5.2,4.17-1.2,1.615-3.226,4.8-3.226,7.983a8.575,8.575,0,0,0,8.4,8.489h.062a8.284,8.284,0,0,0,5.872-2.463,8.542,8.542,0,0,0,2.517-6.508,5.664,5.664,0,0,0,3.145-1.607A5.817,5.817,0,0,0,183.693,165.608Zm-9.007,10.568a6,6,0,0,1-4.252,1.79h-.045a6.255,6.255,0,0,1-6.1-6.181c-.174-2.992,3.74-8.734,6.123-9.834,2.393,1.109,6.3,6.849,6.123,9.834A6.256,6.256,0,0,1,174.686,176.176Zm5.662-8.116a3.365,3.365,0,0,1-1.948.971,18.13,18.13,0,0,0-2.779-5.23c-.081-.109-.216-.287-.394-.508a9.758,9.758,0,0,1,2.746-3.38c.947.56,3.412,3.5,3.412,5.695A3.494,3.494,0,0,1,180.348,168.06Z" transform="translate(-143.29 -139.369)"/><path d="M84.416,49.283a1.154,1.154,0,0,0-1.707-.083l-5.035,5.035L76.043,52.6l5.035-5.035a1.154,1.154,0,0,0-.083-1.707,25.049,25.049,0,0,0-29.214-1.78,1.154,1.154,0,0,0,1.241,1.946,22.729,22.729,0,0,1,25.5.833l-4.926,4.926a1.154,1.154,0,0,0,0,1.632l3.264,3.264a1.154,1.154,0,0,0,1.632,0l4.926-4.926C98.192,72.947,72.976,98.14,51.8,83.37L56.6,78.576a1.154,1.154,0,0,0,0-1.632L53.334,73.68a1.161,1.161,0,0,0-1.632,0l-4.794,4.794a22.728,22.728,0,0,1-.834-25.5,1.154,1.154,0,1,0-1.946-1.241,25.048,25.048,0,0,0,1.78,29.213,1.154,1.154,0,0,0,1.707.083l4.9-4.9L54.15,77.76l-4.9,4.9a1.154,1.154,0,0,0,.083,1.707c9.519,8.088,24.781,7.392,33.459-1.628C91.808,74.065,92.505,58.8,84.416,49.283Z" transform="translate(-35.613 -35.572)"/><path d="M50.44,8.656C31.878-9.869.03,3.324.006,29.547-.322,45.426,13.669,59.419,29.549,59.09,55.773,59.064,68.964,27.216,50.44,8.656ZM48.807,48.8a27.266,27.266,0,0,1-38.517,0c-10.565-10.137-10.566-28.379,0-38.517C20.429-.278,38.67-.277,48.807,10.288,59.373,20.426,59.373,38.667,48.807,48.8Z" transform="translate(0 -0.003)"/><path d="M101.583,102.646a1.154,1.154,0,0,0,0-2.308h0A1.154,1.154,0,0,0,101.583,102.646Z" transform="translate(-88.844 -88.759)"/></g></g></g></svg>