<svg xmlns="http://www.w3.org/2000/svg" width="68.714" height="53.839" viewBox="0 0 68.714 53.839"><g transform="translate(-0.001 -55.419)"><path d="M92.662,78.267c5.4,3.606,16.236,8.053,39.632,3.516-41.606-4.157-35.931-24.772-40.638-17.16C89.37,68.321,89.84,73.417,92.662,78.267Z" transform="translate(-78.097 -6.521)" fill="#e9edc7"/><path d="M123.974,83.5a106.076,106.076,0,0,0,12.586-1.722c-41.606-4.157-35.931-24.772-40.638-17.16a9.321,9.321,0,0,0-.792,1.616C97.169,67.683,99.9,78.776,123.974,83.5Z" transform="translate(-82.363 -6.521)" fill="#cad473"/><path d="M104.6,156.37c-44.017,8.693-44.011-13.718-46.55-4.928-1.621,5.61,2.229,12.577,9.529,16.8C74.424,169.223,85.931,167.887,104.6,156.37Z" transform="translate(-49.941 -81.332)" fill="#e9edc7"/><path d="M96.167,161.2c2.661-1.366,5.5-2.964,8.527-4.831-44.017,8.693-44.011-13.718-46.55-4.928a9.392,9.392,0,0,0-.352,2.112C60.756,155.667,68.243,165.313,96.167,161.2Z" transform="translate(-50.035 -81.332)" fill="#cad473"/><path d="M71.847,330.992H9.915a2.383,2.383,0,0,0-2.383,2.383v2.571a10.89,10.89,0,0,0,10.89,10.89H63.34a10.89,10.89,0,0,0,10.89-10.89v-2.571A2.383,2.383,0,0,0,71.847,330.992Z" transform="translate(-6.52 -238.589)" fill="#aa6e15"/><path d="M10.217,335.947v-2.571a2.383,2.383,0,0,1,2.383-2.383H9.916a2.383,2.383,0,0,0-2.383,2.383v2.571a10.89,10.89,0,0,0,10.89,10.89h2.684A10.89,10.89,0,0,1,10.217,335.947Z" transform="translate(-6.521 -238.59)" fill="#7b3d0e"/><path d="M111.18,194.168c-.1.234-.148.371-.148.371-39.75,24.978-47.707,3.2-47.048,12.46a10.246,10.246,0,0,0,2.209,5.533H104.6c8.144-6.066,10.425-13.448,10.425-13.448l.335-.157Z" transform="translate(-55.365 -120.128)" fill="#e9edc7"/><path d="M64.277,208.733c4.645,1.18,18.209,7.518,49.259-11.884l-2.355-2.681c-.1.234-.148.371-.148.371-39.75,24.978-47.707,3.2-47.048,12.46A9.286,9.286,0,0,0,64.277,208.733Z" transform="translate(-55.365 -120.128)" fill="#cad473"/><path d="M71.832,330.992H9.9a2.383,2.383,0,0,0-2.383,2.383,26.194,26.194,0,0,0,.123,4.211H74.091a26.2,26.2,0,0,0,.123-4.211A2.383,2.383,0,0,0,71.832,330.992Z" transform="translate(-6.506 -238.589)" fill="#dfbba0"/><path d="M7.62,337.587H10.3a26.3,26.3,0,0,1-.123-4.211,2.383,2.383,0,0,1,2.383-2.383H9.88A2.383,2.383,0,0,0,7.5,333.376,28.083,28.083,0,0,0,7.62,337.587Z" transform="translate(-6.485 -238.59)" fill="#7b3d0e"/><path d="M421.549,148.975c-3.5-2.721-6.765,5.979-6.765,5.979l3.993,4.545C428.085,155.208,425.051,151.7,421.549,148.975Z" transform="translate(-359.116 -80.543)" fill="#e9edc7"/><path d="M423.814,151.058a14.956,14.956,0,0,0-2.265-2.083c-3.5-2.721-6.765,5.979-6.765,5.979l2.2,2.5C417.425,156.466,420.559,149.717,423.814,151.058Z" transform="translate(-359.116 -80.544)" fill="#cad473"/><path d="M68.707,97.767c.01-.3.008-.146.008-2.977a3.394,3.394,0,0,0-3.39-3.39H52.071a30.379,30.379,0,0,0,8.4-11.71c4.028-1.919,6.109-3.912,6.359-6.087.281-2.447-1.754-4.388-3.782-5.963-3.4-2.642-6.6,2.117-8.2,6.1l-.564.351-.135.026c-9.707-.982-17.754-2.969-23.916-5.907a1.007,1.007,0,0,0-.867,1.817,66.82,66.82,0,0,0,17.945,5.227c-14.049,1.9-24.79.494-31.995-4.21-2.571-4.536-2.912-9.159-.9-12.407a7,7,0,0,1,.787-1.1c1.166,1.268,3.144,5.827,9.944,10.163A1.007,1.007,0,0,0,26.228,66a26.908,26.908,0,0,1-8.43-8.315c-.937-1.381-1.552-2.287-2.624-2.265-.96.02-1.657.84-2.472,2.157-1.854,3-2.08,6.892-.736,10.9-1.208-1.022-2.03-1.682-3.026-1.381-.919.278-1.37,1.256-1.8,2.743-1.4,4.831.832,10.29,5.661,14.574-2.179-.76-3.432-1.422-4.445-.659-.767.578-.853,1.651-.743,3.2A10.691,10.691,0,0,0,8.963,91.4H3.393A3.394,3.394,0,0,0,0,94.79a27.013,27.013,0,0,0,.135,4.364,11.915,11.915,0,0,0,11.762,10.1H56.818A11.91,11.91,0,0,0,68.707,97.767ZM60.73,68.959a1.127,1.127,0,0,1,1.084.271c1.493,1.16,3.185,2.679,3.017,4.144-.11.954-1.069,2.465-4.917,4.35l-3.085-3.511C57.672,72.2,59.285,69.368,60.73,68.959ZM9.075,70.394a7.013,7.013,0,0,1,.462-1.272c2.729,1.69,10.241,12.358,39.821,7.87-12.379,6.914-22.919,9.832-31.385,8.68C11.436,81.832,7.551,75.67,9.075,70.394ZM9.622,86.8a7,7,0,0,1-.006-1.353c3.394.7,15.442,9.132,45.857-9.729l3.037,3.456A29.548,29.548,0,0,1,48.9,91.4H11.335A9.036,9.036,0,0,1,9.622,86.8Zm47.2,20.442H11.9a9.9,9.9,0,0,1-9.521-7.237h48a1.007,1.007,0,1,0,0-2.013H2.039c-.029-.448-.022-.262-.022-3.2a1.378,1.378,0,0,1,1.377-1.377H65.325A1.378,1.378,0,0,1,66.7,94.79c0,2.873.006,2.747-.022,3.2h-11.6a1.007,1.007,0,1,0,0,2.013H66.339A9.9,9.9,0,0,1,56.818,107.245Z" transform="translate(0)"/></g></svg>