<svg xmlns="http://www.w3.org/2000/svg" width="62" height="52.034" viewBox="0 0 62 52.034"><g transform="translate(-1 -6)"><path d="M42,47V21a3,3,0,0,1,3-3h8.08a3,3,0,0,1,2.72,1.743L61,31V47Z" fill="#004c9d"/><path d="M58,33,52.8,21.743A3,3,0,0,0,50.08,20h-7.9A2.962,2.962,0,0,0,42,21V47H58Z" fill="#0059be"/><path d="M2,7H38V39H2Z" fill="#95afd1"/><path d="M62,50H48V47H2V43H52v3H62Z" fill="#24376b"/><path d="M46,22h6l5,10H50l-1-2H46Z" fill="#c1cfe8"/><path d="M45,35h4v2H45Z" fill="#004180"/><path d="M50,24H46v6h3l1,2h4Z" fill="#95afd1"/><path d="M50,46.5A1.5,1.5,0,0,0,48.5,45H2v2H48v3H62V48H51.5A1.5,1.5,0,0,1,50,46.5Z" fill="#334672"/><circle cx="7" cy="7" r="7" transform="translate(35 43)" fill="#686868"/><circle cx="5" cy="5" r="5" transform="translate(37 45)" fill="#757575"/><circle cx="7" cy="7" r="7" transform="translate(6 43)" fill="#686868"/><circle cx="5" cy="5" r="5" transform="translate(8 45)" fill="#757575"/><circle cx="2" cy="2" r="2" transform="translate(11 48)" fill="#bcbcbc"/><circle cx="2" cy="2" r="2" transform="translate(40 48)" fill="#bcbcbc"/><path d="M4,9H36V37H4Z" fill="#c1cfe8"/><path d="M7,27.75A6.25,6.25,0,0,0,13.25,34H36V9H7Z" fill="#d7e0ef"/><path d="M2,40H38a1,1,0,0,0,1-1V7a1,1,0,0,0-1-1H2A1,1,0,0,0,1,7V39A1,1,0,0,0,2,40ZM3,8H37V38H3Z"/><path d="M62,45V31a.992.992,0,0,0-.092-.419l-5.2-11.257A4.041,4.041,0,0,0,53,17H45a4,4,0,0,0-4,4V42H2a1,1,0,0,0-1,1v4a1,1,0,0,0,1,1H5.263a8,8,0,1,0,15.474,0H34.263a7.993,7.993,0,1,0,15.668,3H62a1,1,0,0,0,1-1V46A1,1,0,0,0,62,45ZM45,19h8.081A2,2,0,0,1,54.9,20.162L60,31.219V45H53V43a1,1,0,0,0-1-1H43V21A2,2,0,0,1,45,19ZM3,46V44H7.726a8.069,8.069,0,0,0-1.644,2ZM13,56a6,6,0,1,1,6-6,6,6,0,0,1-6,6Zm6.918-10a8.069,8.069,0,0,0-1.644-2H36.726a8.069,8.069,0,0,0-1.644,2ZM42,56a6,6,0,1,1,6-6,6,6,0,0,1-6,6Zm19-7H49.931a7.99,7.99,0,0,0-2.657-5H51v2a1,1,0,0,0,1,1h9Z"/><path d="M46,31h2.382l.723,1.447A1,1,0,0,0,50,33h7a1,1,0,0,0,.9-1.447l-5-10A1,1,0,0,0,52,21H46a1,1,0,0,0-1,1v8A1,1,0,0,0,46,31Zm1-8h4.382l4,8H50.618L49.9,29.553A1,1,0,0,0,49,29H47Z"/><path d="M45,35h4v2H45Z"/><path d="M13,47a3,3,0,1,0,3,3,3,3,0,0,0-3-3Zm0,4a1,1,0,1,1,1-1A1,1,0,0,1,13,51Z"/><path d="M42,47a3,3,0,1,0,3,3,3,3,0,0,0-3-3Zm0,4a1,1,0,1,1,1-1A1,1,0,0,1,42,51Z"/></g></svg>