<svg xmlns="http://www.w3.org/2000/svg" xmlns:xlink="http://www.w3.org/1999/xlink" width="104" height="104" viewBox="0 0 104 104"><defs><filter id="a" x="0" y="0" width="104" height="104" filterUnits="userSpaceOnUse"><feOffset dy="3" input="SourceAlpha"/><feGaussianBlur stdDeviation="3" result="b"/><feFlood flood-opacity="0.161"/><feComposite operator="in" in2="b"/><feComposite in="SourceGraphic"/></filter></defs><g transform="translate(-892.332 -346)"><g transform="translate(900.918 351.586)"><g transform="matrix(1, 0, 0, 1, -8.59, -5.59)" filter="url(#a)"><circle cx="43" cy="43" r="43" transform="translate(9 6)" fill="#fff" opacity="0.45"/></g><circle cx="34" cy="34" r="34" transform="translate(9.413 9.414)" fill="#0e797a"/></g><g transform="translate(919.529 369.71)"><g transform="translate(1.784 1.784)"><path d="M46.576,32.82l5.961-2.235a2.314,2.314,0,0,0-.813-4.48A76.136,76.136,0,0,1,39.2,25.067l-1.711-.285a8.319,8.319,0,0,1-6.953-8.208V12H25.218l.613,21.156Z" transform="translate(-7.026 -4.164)" fill="#e3c748"/><path d="M28.665,12.13l-1.291,4.733a9.891,9.891,0,0,0,3.607,10.515,17.824,17.824,0,0,0,5.055,2.646L40.461,31.5a29.786,29.786,0,0,0,9.42,1.529,3,3,0,0,1,1.983,5.25l-4.375,1.7a10.383,10.383,0,0,1-1.394.1H19.879l2.08-27.167,3.347-1.505Z" transform="translate(-5.87 -4.036)" fill="#e3c748"/><path d="M25.406,12.239,23,17.048a11.035,11.035,0,0,0,2.882,13.476l8.926,7.3a27.569,27.569,0,0,0,7.924,4.534l3.192,1.509a3.589,3.589,0,0,1-.758,5.546,9.162,9.162,0,0,1-4.713,1.305q-.662,0-1.317-.063L39,50.642a13.739,13.739,0,0,1-4.179-1.132l-6.805-3.063L10.381,29.512,13.5,14.087l6.448-3.01L25.4,9.886Z" transform="translate(-3.814 -3.707)" fill="#e3c748"/><path d="M29.424,2l-4.7,4.7-.265-.176a8.281,8.281,0,0,0-4.593-1.391A18.1,18.1,0,0,0,4.52,13.64a16.574,16.574,0,0,0-.1,17.4l5.531,9.089A20.2,20.2,0,0,0,18.167,47.7a12.5,12.5,0,0,0,5.587,1.317,2.835,2.835,0,0,0,2.268-4.536L15.35,30.248a11.9,11.9,0,0,1-.883-12.922,13.336,13.336,0,0,1,7.1-6.059l3.937-1.432L32.558,6.7Z" transform="translate(-2 -2)" fill="#e3c748"/></g><path d="M16,30.248a11.9,11.9,0,0,1-.882-12.922,13.336,13.336,0,0,1,7.1-6.058l3.937-1.432L33.208,6.7,30.074,2l-4.7,4.7-.265-.176a8.281,8.281,0,0,0-4.593-1.391A18.051,18.051,0,0,0,16,5.707,18.084,18.084,0,0,0,7.52,12.856a16.574,16.574,0,0,0-.1,17.4l5.531,9.089a20.2,20.2,0,0,0,8.219,7.563,12.494,12.494,0,0,0,5.207,1.3,2.811,2.811,0,0,0,.3-3.73Z" transform="translate(-0.866 -0.216)" fill="#fae150"/><path d="M47.575,44.46l-3.192-1.509a27.569,27.569,0,0,1-7.924-4.532l-8.925-7.3A11.037,11.037,0,0,1,24.65,17.64l2.4-4.809v-.214l-.454.165a13.336,13.336,0,0,0-7.1,6.058,11.9,11.9,0,0,0,.882,12.922L31.053,45.992a2.659,2.659,0,0,1,.161.25l.014.013,6.805,3.063a13.739,13.739,0,0,0,4.178,1.131l.141.014q.654.063,1.317.063a9.15,9.15,0,0,0,3.311-.636,3.579,3.579,0,0,0,.592-5.432Z" transform="translate(-3.68 -2.514)" fill="#fae150"/><path d="M51.423,33.216A29.785,29.785,0,0,1,42,31.688l-4.426-1.475a17.823,17.823,0,0,1-5.056-2.649,9.886,9.886,0,0,1-3.6-10.512l1.291-4.733-.182-.039L28.167,16A11.037,11.037,0,0,0,31.05,29.476l8.925,7.3L40,36.8a8.762,8.762,0,0,0,5.55,1.9H49.2a10.383,10.383,0,0,0,1.4-.095l3.645-1.421a2.959,2.959,0,0,0-2.824-3.969Z" transform="translate(-5.628 -2.442)" fill="#fae150"/><path d="M52.76,26.1a76.136,76.136,0,0,1-12.528-1.037l-1.711-.285a8.319,8.319,0,0,1-6.953-8.208V12H31.5l-1.147,4.208a9.886,9.886,0,0,0,3.6,10.512,17.823,17.823,0,0,0,5.058,2.649l4.425,1.475.049.016a13.152,13.152,0,0,0,8.738-.259l2.029-.761a2.643,2.643,0,0,0,.5-.255A2.3,2.3,0,0,0,52.76,26.1Z" transform="translate(-6.277 -2.381)" fill="#fae150"/><path d="M32.182,9.658,31,6.7,35.7,2l3.134,4.7Z" transform="translate(-6.494 -0.216)" fill="#70432a"/><path d="M31.7,8.361l.635,1.587,6.653-2.957L36.552,3.338Z" transform="translate(-6.645 -0.506)" fill="#875035"/><path d="M45.052,53.4l-4.7-4.7L38,51.052,45.052,58.1,56.805,46.351,54.455,44Z" transform="translate(-8.009 -9.307)" fill="#8fc66b"/><path d="M49.58,26.037a3.1,3.1,0,0,0-3.1-3.1A75.465,75.465,0,0,1,34.1,21.915l-1.726-.287a7.539,7.539,0,0,1-6.3-7.435V10.128L32.66,7.2a.784.784,0,0,0,.334-1.151l-3.134-4.7a.784.784,0,0,0-1.206-.119L24.4,5.481a9.023,9.023,0,0,0-4.754-1.347A18.774,18.774,0,0,0,3.639,13.007a17.361,17.361,0,0,0-.108,18.228l5.531,9.089A20.95,20.95,0,0,0,17.6,48.18a13.338,13.338,0,0,0,5.935,1.4,3.6,3.6,0,0,0,3.613-3.671L32.464,48.3a14.505,14.505,0,0,0,4.2,1.164.77.77,0,0,0,.38.114.794.794,0,0,0,.275-.053c.368.028.739.053,1.106.053a9.935,9.935,0,0,0,5.116-1.418,4.36,4.36,0,0,0,1.4-6.151L49.351,37.6a.784.784,0,0,0,0-1.108L48.858,36a3.782,3.782,0,0,0-3.063-6.005c-.328,0-.656-.009-.983-.02l2.759-1.035a3.111,3.111,0,0,0,2.01-2.9ZM29.086,3.013l2.088,3.134L26.115,8.4l-.69-1.724ZM25.368,46.879a2.037,2.037,0,0,1-1.83,1.134A11.769,11.769,0,0,1,18.3,46.777a19.385,19.385,0,0,1-7.9-7.268L4.872,30.419a15.8,15.8,0,0,1,.1-16.582A17.217,17.217,0,0,1,19.648,5.7,7.471,7.471,0,0,1,23.805,6.96L23.869,7l.8,2.008-3.586,1.3a14.118,14.118,0,0,0-7.522,6.413A12.685,12.685,0,0,0,14.5,30.5l10.672,14.23a2.037,2.037,0,0,1,.193,2.148ZM26.5,43.9c-.024-.035-.044-.073-.07-.108L15.757,29.564a11.12,11.12,0,0,1-.824-12.072,12.553,12.553,0,0,1,6.685-5.7l.173-.063-1.525,3.05a11.819,11.819,0,0,0,3.091,14.431l8.925,7.3A28.286,28.286,0,0,0,39.3,40.728l-2.26,2.26L32.9,38.84a.784.784,0,0,0-1.108,0l-2.351,2.351a.784.784,0,0,0,0,1.108l5.111,5.111a13.057,13.057,0,0,1-1.441-.538Zm14.017-4.388q-1.043-.411-2.051-.9H41.42Zm3.58,4.9a2.821,2.821,0,0,1-1.362,2.405,8.367,8.367,0,0,1-3.761,1.157l4.815-4.815a2.783,2.783,0,0,1,.308,1.253Zm-7.052,3.274L31.1,41.745,32.342,40.5l4.147,4.147a.784.784,0,0,0,1.108,0L46.446,35.8l1.243,1.243Zm10.97-13.912a2.21,2.21,0,0,1-.295,1.081L47,34.139a.784.784,0,0,0-1.108,0L43.05,36.981a9.47,9.47,0,0,1-1.041.063H35.7A26.775,26.775,0,0,1,33.274,35.3l-8.925-7.3a10.25,10.25,0,0,1-2.677-12.52l1.25-2.5L22.53,14.4a10.677,10.677,0,0,0,3.893,11.346A18.576,18.576,0,0,0,31.7,28.514l4.425,1.477a30.512,30.512,0,0,0,9.667,1.567,2.221,2.221,0,0,1,2.218,2.218Zm-.994-6.308-5.766,2.163a29.1,29.1,0,0,1-4.63-1.13L32.2,27.028a17.036,17.036,0,0,1-4.835-2.533,9.107,9.107,0,0,1-3.321-9.679l.463-1.7v1.073a9.1,9.1,0,0,0,7.61,8.982l1.712.285a77.16,77.16,0,0,0,12.654,1.047,1.529,1.529,0,0,1,.537,2.963Z" transform="translate(0)"/></g></g></svg>