<svg xmlns="http://www.w3.org/2000/svg" xmlns:xlink="http://www.w3.org/1999/xlink" width="120" height="120" viewBox="0 0 120 120"><defs><filter id="a" x="0" y="0" width="120" height="120" filterUnits="userSpaceOnUse"><feOffset dy="3" input="SourceAlpha"/><feGaussianBlur stdDeviation="3" result="b"/><feFlood flood-opacity="0.161"/><feComposite operator="in" in2="b"/><feComposite in="SourceGraphic"/></filter></defs><g transform="translate(-1218.332 -102)"><g transform="translate(1227.395 108.063)"><g transform="matrix(1, 0, 0, 1, -9.06, -6.06)" filter="url(#a)"><circle cx="51" cy="51" r="51" transform="translate(9 6)" fill="#fff" opacity="0.45"/></g><path d="M40,0A40,40,0,1,1,0,40,40,40,0,0,1,40,0Z" transform="translate(10.938 10.938)" fill="#cad473"/></g><g transform="translate(1229.732 124.414)"><path d="M378.693,7.5l-9.807,8.173,9.807,8.173h3.269V7.513Z" transform="translate(-307.992 0)" fill="#ff4230"/><path d="M176.244,7.5l-4.783,4.783a4.794,4.794,0,0,0,0,6.78l4.783,4.783h25.287V20.577l-3.269-4.9,3.269-4.893V7.513Zm-1.283,9.82a1.635,1.635,0,1,1,1.635-1.635A1.635,1.635,0,0,1,174.961,17.32Z" transform="translate(-130.83 0)" fill="#ff6340"/><path d="M375.424,37.5l-6.538,4.9,6.538,4.9h3.269V37.513Z" transform="translate(-307.992 -26.731)" fill="#ffb34f"/><path d="M345.424,37.5l-6.538,4.9,6.538,4.9h3.269V37.513Z" transform="translate(-281.261 -26.731)" fill="#ffcc54"/><path d="M260.058,37.5v9.807h15.128V37.513Z" transform="translate(-211.023 -26.731)" fill="#ffefcf"/><path d="M66.5,12.707V7.616h-4.9v4.462a11.179,11.179,0,0,1-2.451,6.986c-.066.083-.132.167-.2.251l9.171-.879A10.956,10.956,0,0,1,66.5,12.707Z" transform="translate(-31.828 -0.103)" fill="#d6bc56"/><path d="M69.763,101.356V94.91a11.158,11.158,0,0,0-1.647-5.837c-1.791-2.919-5.936-3.175-9.172.88l2.646,24.48,24.519,9.807V117.7A16.388,16.388,0,0,1,69.763,101.356Z" transform="translate(-31.825 -70.741)" fill="#ffcc54"/><path d="M438.666,401.242a6.7,6.7,0,0,1-1.879-.688q-.407-.221-.82-.429v8.06q.414-.206.82-.427a6.7,6.7,0,0,1,1.879-.688l3.068-.614v-4.6Z" transform="translate(-367.763 -349.84)" fill="#ffcc54"/><path d="M70.7,140.126a4.5,4.5,0,0,0-2.5-4.03,31.013,31.013,0,0,0-13.92-3.325h-4.9a16.388,16.388,0,0,1-16.346-16.346v-8.08a11.169,11.169,0,0,0-.152-1.836,3.268,3.268,0,0,0-5.763-1.486,18.645,18.645,0,0,0-3.892,11.4A31.008,31.008,0,0,0,68.2,144.158,4.5,4.5,0,0,0,70.7,140.126Z" transform="translate(0 -85.811)" fill="#ffe187"/><circle cx="1.635" cy="1.635" r="1.635" transform="translate(47.746 50.23)" fill="#616161"/><circle cx="1.635" cy="1.635" r="1.635" transform="translate(52.65 55.133)" fill="#616161"/><path d="M29.768,7.116h4.9a.5.5,0,0,1,.5.5v5.091a10.454,10.454,0,0,0,1.548,5.467,11.656,11.656,0,0,1,1.722,6.1v6.446A15.9,15.9,0,0,0,54.288,46.564a31.512,31.512,0,0,1,14.976,3.814A6.2,6.2,0,0,0,71,51.016l3.068.614a.5.5,0,0,1,.4.49v4.6a.5.5,0,0,1-.4.49L71,57.823a6.2,6.2,0,0,0-1.739.637,31.6,31.6,0,0,1-44.052-15.49A31.211,31.211,0,0,1,22.73,30.718,19.221,19.221,0,0,1,26.945,18.73a10.656,10.656,0,0,0,2.323-6.651V7.616A.5.5,0,0,1,29.768,7.116Zm4.4,1h-3.9v3.963a11.66,11.66,0,0,1-2.543,7.277,18.218,18.218,0,0,0-4,11.362,30.415,30.415,0,0,0,8.957,21.567,30.419,30.419,0,0,0,36.1,5.3,7.2,7.2,0,0,1,2.019-.739l2.666-.533v-3.78L70.807,52a7.2,7.2,0,0,1-2.019-.739,30.512,30.512,0,0,0-14.5-3.693A16.9,16.9,0,0,1,37.441,30.718V24.272A10.657,10.657,0,0,0,35.867,18.7a11.453,11.453,0,0,1-1.7-5.99Z" transform="translate(-0.003 -0.103)"/><path d="M64.863,113.656a.5.5,0,0,1-.5-.5v-4.811a10.7,10.7,0,0,0-.145-1.754,2.706,2.706,0,0,0-2.011-2.192,2.746,2.746,0,0,0-2.87.937.5.5,0,0,1-.778-.628,3.735,3.735,0,0,1,3.9-1.276,3.7,3.7,0,0,1,2.743,2.994,11.7,11.7,0,0,1,.159,1.918v4.811A.5.5,0,0,1,64.863,113.656Z" transform="translate(-31.828 -85.811)"/><path d="M134.478,236.462h-4.9a16.9,16.9,0,0,1-16.846-16.846.5.5,0,0,1,1,0,15.9,15.9,0,0,0,15.847,15.846h4.9a.5.5,0,1,1,0,1Z" transform="translate(-80.193 -189.001)"/><path d="M58.944,90.453a.5.5,0,0,1-.39-.812A9.37,9.37,0,0,1,61.532,87.1a5.959,5.959,0,0,1,3.081-.7,4.936,4.936,0,0,1,3.929,2.409.5.5,0,1,1-.852.523A3.9,3.9,0,0,0,64.551,87.4c-1.775-.11-3.676.934-5.217,2.864A.5.5,0,0,1,58.944,90.453Z" transform="translate(-31.825 -70.741)"/><path d="M281.725,47.812H260.058a.5.5,0,0,1-.5-.5V37.5a.5.5,0,0,1,.5-.5h0l21.667.011a.5.5,0,0,1,.5.5v9.8A.5.5,0,0,1,281.725,47.812Zm-21.167-1h20.667v-8.8l-20.667-.01Z" transform="translate(-211.023 -26.735)"/><path d="M0,10.3a.5.5,0,0,1-.5-.5V0A.5.5,0,0,1,0-.5.5.5,0,0,1,.5,0V9.8A.5.5,0,0,1,0,10.3Z" transform="translate(64.163 10.78)"/><path d="M1.635-.5A2.135,2.135,0,1,1-.5,1.635,2.137,2.137,0,0,1,1.635-.5Zm0,3.269A1.135,1.135,0,1,0,.5,1.635,1.136,1.136,0,0,0,1.635,2.769Z" transform="translate(42.497 14.051)"/><path d="M1.635-.5A2.135,2.135,0,1,1-.5,1.635,2.137,2.137,0,0,1,1.635-.5Zm0,3.269A1.135,1.135,0,1,0,.5,1.635,1.136,1.136,0,0,0,1.635,2.769Z" transform="translate(47.746 50.23)"/><path d="M1.635-.5A2.135,2.135,0,1,1-.5,1.635,2.137,2.137,0,0,1,1.635-.5Zm0,3.269A1.135,1.135,0,1,0,.5,1.635,1.136,1.136,0,0,0,1.635,2.769Z" transform="translate(52.65 55.133)"/><path d="M176.244,7h0l28.556.013a.5.5,0,0,1,.5.5V23.846a.5.5,0,0,1-.5.5H176.244a.5.5,0,0,1-.354-.146l-4.783-4.783a5.294,5.294,0,0,1,0-7.488l4.783-4.783A.5.5,0,0,1,176.244,7ZM204.3,8.012,176.451,8l-4.636,4.636a4.294,4.294,0,0,0,0,6.073l4.636,4.636H204.3Z" transform="translate(-130.83 0)"/><path transform="translate(60.486 55.951)"/><path transform="translate(44.477 51.864)"/><path transform="translate(63.755 52.682)"/><path transform="translate(29.765 30.615)"/><path transform="translate(26.851 27.346)"/></g></g></svg>