<svg xmlns="http://www.w3.org/2000/svg" xmlns:xlink="http://www.w3.org/1999/xlink" width="120" height="120" viewBox="0 0 120 120"><defs><filter id="a" x="0" y="0" width="120" height="120" filterUnits="userSpaceOnUse"><feOffset dy="3" input="SourceAlpha"/><feGaussianBlur stdDeviation="3" result="b"/><feFlood flood-opacity="0.161"/><feComposite operator="in" in2="b"/><feComposite in="SourceGraphic"/></filter></defs><g transform="translate(-920.332 -156)"><g transform="translate(929.395 162.063)"><g transform="matrix(1, 0, 0, 1, -9.06, -6.06)" filter="url(#a)"><circle cx="51" cy="51" r="51" transform="translate(9 6)" fill="#fff" opacity="0.45"/></g><circle cx="40" cy="40" r="40" transform="translate(10.938 10.938)" fill="#a0d5d6"/></g><g transform="translate(898.393 153.86)"><path d="M96.026,260.584a3.011,3.011,0,0,1,0,4.785A3.011,3.011,0,0,1,96.026,260.584Z" transform="translate(-32.394 -200.13)" fill="#19cfba" fill-rule="evenodd"/><path d="M188.62,210.414a3.011,3.011,0,0,1-3.383,3.383A3.011,3.011,0,0,1,188.62,210.414Z" transform="translate(-112.173 -155.815)" fill="#19cfba" fill-rule="evenodd"/><path d="M155.907,210.414a3.011,3.011,0,0,0,3.383,3.383A3.011,3.011,0,0,0,155.907,210.414Z" transform="translate(-86.279 -155.815)" fill="#19cfba" fill-rule="evenodd"/><path d="M74.116,332.565H64.684v8.9h9.432l2.241-4.78Z" transform="translate(-5.768 -263.678)" fill="#ffbf31" fill-rule="evenodd"/><path d="M145.189,276.822h9.432l1.344,7.876-1.344,7.554h-9.432Z" transform="translate(-76.841 -214.466)" fill="#19cfba" fill-rule="evenodd"/><path d="M235.125,218.74h-9.432v22.235h9.432l2.091-11.075Z" transform="translate(-147.913 -163.189)" fill="#ffbf31" fill-rule="evenodd"/><g transform="translate(79.059 34.663)"><path d="M269.351,156.5a3.011,3.011,0,0,1-3.383,3.383A3.011,3.011,0,0,1,269.351,156.5Z" transform="translate(-262.504 -142.881)" fill="#19cfba" fill-rule="evenodd"/><path d="M236.637,156.5a3.011,3.011,0,0,0,3.383,3.383A3.011,3.011,0,0,0,236.637,156.5Z" transform="translate(-236.61 -142.881)" fill="#19cfba" fill-rule="evenodd"/><path d="M257.261,88.119a3.011,3.011,0,0,1,0,4.785A3.011,3.011,0,0,1,257.261,88.119Z" transform="translate(-253.798 -82.534)" fill="#19cfba" fill-rule="evenodd"/><path d="M349.855,98.218a3.011,3.011,0,0,1-3.383,3.383A3.011,3.011,0,0,1,349.855,98.218Z" transform="translate(-333.576 -91.426)" fill="#19cfba" fill-rule="evenodd"/><path d="M317.142,98.218a3.011,3.011,0,0,0,3.383,3.383A3.011,3.011,0,0,0,317.142,98.218Z" transform="translate(-307.682 -91.426)" fill="#19cfba" fill-rule="evenodd"/><path d="M349.855,40.48a3.011,3.011,0,0,1-3.383,3.383A3.011,3.011,0,0,1,349.855,40.48Z" transform="translate(-333.576 -40.453)" fill="#19cfba" fill-rule="evenodd"/><path d="M317.142,40.48a3.011,3.011,0,0,0,3.383,3.383A3.011,3.011,0,0,0,317.142,40.48Z" transform="translate(-307.682 -40.453)" fill="#19cfba" fill-rule="evenodd"/><path d="M306.2,161.174h9.432v28.979H306.2Z" transform="translate(-298.044 -147.03)" fill="#19cfba" fill-rule="evenodd"/></g><path d="M270.594,268.217a8.833,8.833,0,0,1,3.395,1.962l2.156-.458a1.2,1.2,0,0,1,1.3.58l.78,1.351a1.2,1.2,0,0,1-.149,1.418l-1.473,1.636a8.907,8.907,0,0,1,0,3.923l1.473,1.636a1.2,1.2,0,0,1,.149,1.418l-.78,1.351a1.2,1.2,0,0,1-1.3.58l-2.156-.458a8.835,8.835,0,0,1-3.395,1.962l-.68,2.093a1.2,1.2,0,0,1-1.154.838H267.2a1.2,1.2,0,0,1-1.154-.838l-.68-2.093a8.833,8.833,0,0,1-3.395-1.962l-2.156.458a1.2,1.2,0,0,1-1.3-.58l-.78-1.351a1.2,1.2,0,0,1,.149-1.418l1.473-1.636a8.911,8.911,0,0,1,0-3.923l-1.473-1.636a1.2,1.2,0,0,1-.149-1.418l.78-1.351a1.2,1.2,0,0,1,1.3-.58l2.156.458a8.835,8.835,0,0,1,3.395-1.962l.68-2.093a1.2,1.2,0,0,1,1.154-.838h1.56a1.2,1.2,0,0,1,1.154.838Z" transform="translate(-176.052 -204.281)" fill="#60b7fe" fill-rule="evenodd"/><circle cx="5.975" cy="5.975" r="5.975" transform="translate(85.678 78.073) rotate(-87.421)" fill="#ffbf31"/><path d="M97.134,72.387A5.208,5.208,0,1,0,91.926,77.6,5.209,5.209,0,0,0,97.134,72.387Zm1.535,0a6.74,6.74,0,1,1-6.743-6.743A6.746,6.746,0,0,1,98.669,72.387Zm2.785,4.107a.44.44,0,0,1,.058.525l-.784,1.347a.423.423,0,0,1-.479.214L98.1,78.12a.785.785,0,0,0-.687.188,8.1,8.1,0,0,1-3.1,1.794.763.763,0,0,0-.505.5l-.68,2.092a.426.426,0,0,1-.421.3H91.148a.426.426,0,0,1-.421-.3l-.68-2.092a.763.763,0,0,0-.505-.5,8.13,8.13,0,0,1-3.1-1.794.8.8,0,0,0-.68-.188l-2.157.46a.43.43,0,0,1-.479-.214l-.777-1.347a.43.43,0,0,1,.052-.525l1.477-1.632a.759.759,0,0,0,.175-.687,8.152,8.152,0,0,1,0-3.582.746.746,0,0,0-.175-.68L82.4,68.274a.42.42,0,0,1-.052-.518l.777-1.354a.439.439,0,0,1,.479-.214l2.157.46a.766.766,0,0,0,.68-.188,8.126,8.126,0,0,1,3.1-1.794.767.767,0,0,0,.505-.492l.68-2.092a.424.424,0,0,1,.421-.311H92.71a.424.424,0,0,1,.421.311l.68,2.092a.767.767,0,0,0,.505.492,8.056,8.056,0,0,1,3.1,1.794.784.784,0,0,0,.687.188l2.151-.46a.431.431,0,0,1,.479.214l.784,1.354a.43.43,0,0,1-.058.518l-1.471,1.639a.767.767,0,0,0-.181.68,8.152,8.152,0,0,1,0,3.582.781.781,0,0,0,.181.687Zm-18.98-2.371a9.773,9.773,0,0,1,0-3.472L81.257,69.3a1.963,1.963,0,0,1-.24-2.313l.777-1.354a2,2,0,0,1,2.131-.946l1.775.382a9.161,9.161,0,0,1,.745-.577V56.315h-7.9v20.7h2.215a1.955,1.955,0,0,1,.492-1.548Zm-.369-31.489a2.261,2.261,0,0,0,.415,1.308,2.233,2.233,0,0,0,0-2.611A2.257,2.257,0,0,0,82.105,42.634ZM83.291,54.78h3.155V50.051a3.794,3.794,0,0,1-3.155,2.39Zm0-3.887a2.239,2.239,0,0,1,1.846-1.84A2.254,2.254,0,0,1,83.291,50.894Zm4.69,12.729c.233-.11.479-.207.725-.3l.557-1.723a1.978,1.978,0,0,1,1.885-1.367H92.71A1.984,1.984,0,0,1,94.595,61.6l.557,1.723c.246.091.486.188.725.3V49.572h-7.9V63.623ZM77.014,56.3a3.789,3.789,0,0,1-3.181,2.462v2.831h3.181Zm0,6.828h-7.9v13.9h7.9Zm-3.181-5.914a2.253,2.253,0,0,1,1.846-1.84A2.255,2.255,0,0,1,73.833,57.209ZM67.582,69.653h-7.9v7.365h7.9V69.653Zm-4.366-6.808a2.256,2.256,0,0,0,.415,1.3,2.249,2.249,0,0,0,0-2.6A2.242,2.242,0,0,0,63.216,62.845Zm9.024-5.636a2.256,2.256,0,0,0-1.84-1.84A2.257,2.257,0,0,0,72.239,57.209ZM81.7,50.894a2.241,2.241,0,0,0-1.84-1.84A2.257,2.257,0,0,0,81.7,50.894Zm9.432-6.828a2.251,2.251,0,0,0-1.84-1.846A2.253,2.253,0,0,0,91.129,44.066Zm0-6.763a2.249,2.249,0,0,0-1.84-1.846A2.255,2.255,0,0,0,91.129,37.3Zm1.594,0a2.252,2.252,0,0,0,1.846-1.846A2.252,2.252,0,0,0,92.723,37.3Zm0,6.763a2.251,2.251,0,0,0,1.846-1.846A2.253,2.253,0,0,0,92.723,44.066Zm9.872,31.4a1.974,1.974,0,0,1,.246,2.313l-.784,1.354a1.967,1.967,0,0,1-2.125.946L98.157,79.7a9.71,9.71,0,0,1-3.006,1.743l-.557,1.723a1.984,1.984,0,0,1-1.885,1.367H91.148a1.978,1.978,0,0,1-1.885-1.367l-.557-1.723A9.708,9.708,0,0,1,85.7,79.7l-1.775.382a1.98,1.98,0,0,1-2.131-.946l-.337-.589H58.914a.766.766,0,0,1-.764-.764v-8.9a.766.766,0,0,1,.764-.764h3.952V65.592a3.783,3.783,0,0,1,.3-5.752.777.777,0,0,1,.933,0,3.787,3.787,0,0,1,.3,5.752v2.526h3.181V62.353a.766.766,0,0,1,.764-.764H72.3V58.764A3.785,3.785,0,0,1,68.864,54.5a.77.77,0,0,1,.661-.661A3.769,3.769,0,0,1,73.036,55.3a3.791,3.791,0,0,1,3.511-1.464.77.77,0,0,1,.661.661A4.5,4.5,0,0,1,77.24,55a.765.765,0,0,1,.538-.22h3.977V52.442a3.764,3.764,0,0,1-3.427-4.263.763.763,0,0,1,.654-.661,3.77,3.77,0,0,1,2.773.726V45.381a3.774,3.774,0,0,1,.3-5.746.777.777,0,0,1,.933,0,3.779,3.779,0,0,1,.3,5.746v2.824A3.736,3.736,0,0,1,86,47.519a.772.772,0,0,1,.667.738.776.776,0,0,1,.538-.22h3.977V45.614a3.769,3.769,0,0,1-3.427-4.262.763.763,0,0,1,.654-.661,3.734,3.734,0,0,1,2.773.726V38.851a3.77,3.77,0,0,1-3.427-4.263.763.763,0,0,1,.654-.661,3.747,3.747,0,0,1,3.511,1.464,3.777,3.777,0,0,1,3.511-1.464.77.77,0,0,1,.661.661,3.775,3.775,0,0,1-3.375,4.256v2.533a3.736,3.736,0,0,1,2.714-.687.77.77,0,0,1,.661.661,3.785,3.785,0,0,1-3.375,4.262v2.423h3.919a.767.767,0,0,1,.771.764v15.69a9.141,9.141,0,0,1,.745.577l1.775-.382a1.986,1.986,0,0,1,2.125.946l.784,1.354a1.974,1.974,0,0,1-.246,2.313l-1.211,1.354a9.772,9.772,0,0,1,0,3.472ZM90.9,71.189c.006.019.071.162.35.3a2.329,2.329,0,0,0,.738.13,3.8,3.8,0,0,1,1.25.253c.006.006.013.006.019.013a1.745,1.745,0,0,1-.006,3.349,3.47,3.47,0,0,1-.557.175v.479a.768.768,0,0,1-1.535,0v-.46a5.374,5.374,0,0,1-1.367-.4.768.768,0,0,1,.635-1.4,3.058,3.058,0,0,0,2.222.194c.266-.11.324-.24.324-.259s-.078-.162-.33-.279a2.413,2.413,0,0,0-.751-.136,3.416,3.416,0,0,1-1.244-.253c-.013,0-.019-.006-.026-.006a1.924,1.924,0,0,1-1.25-1.73,2.037,2.037,0,0,1,1.788-1.788v-.486a.768.768,0,0,1,1.535,0v.453a5.064,5.064,0,0,1,1.38.415.768.768,0,0,1-.661,1.386,3.021,3.021,0,0,0-2.17-.194c-.093.064-.305.133-.343.246Z" transform="translate(0 0)" fill="#1e2f3f" fill-rule="evenodd"/></g></g></svg>