<svg xmlns="http://www.w3.org/2000/svg" xmlns:xlink="http://www.w3.org/1999/xlink" width="1320" height="507" viewBox="0 0 1320 507"><defs><linearGradient id="a" x1="0.5" y1="0.389" x2="0.81" y2="0.184" gradientUnits="objectBoundingBox"><stop offset="0" stop-color="#cad473"/><stop offset="0.542" stop-color="#929d4e"/><stop offset="1" stop-color="#119798"/></linearGradient><clipPath id="b"><rect width="112" height="154" transform="translate(-11339 -12567)" fill="#fff" stroke="#707070" stroke-width="1"/></clipPath><clipPath id="d"><path d="M0,0H60V141H0Z" transform="translate(-11287 -12336)" fill="#fff"/></clipPath><clipPath id="e"><rect width="256" height="69" transform="translate(-12099 -12576)" fill="#fff"/></clipPath><clipPath id="f"><rect width="82.16" height="30.396" fill="#fff"/></clipPath><clipPath id="g"><rect width="82.16" height="30.396" fill="#7a8045"/></clipPath><clipPath id="h"><rect width="80.16" height="23.579" fill="#7a8045"/></clipPath><clipPath id="i"><rect width="71.543" height="14.444" fill="#7a8045"/></clipPath><clipPath id="j"><rect width="8.426" height="9.235" fill="#7a8045"/></clipPath><clipPath id="k"><rect width="3.761" height="2.278" fill="#7a8045"/></clipPath><clipPath id="l"><rect width="5.774" height="7.999" fill="#7a8045"/></clipPath><clipPath id="m"><rect width="2.679" height="1.826" fill="#7a8045"/></clipPath><clipPath id="n"><rect width="59.951" height="9.893" fill="#7a8045"/></clipPath><clipPath id="o"><rect width="30.815" height="17.111" fill="#7a8045"/></clipPath><clipPath id="p"><rect width="62.249" height="11.971" fill="#7a8045"/></clipPath><clipPath id="q"><rect width="7.058" height="6.561" fill="#7a8045"/></clipPath><clipPath id="r"><rect width="2.033" height="2.124" fill="#7a8045"/></clipPath></defs><g transform="translate(19920 12564)"><g transform="translate(-20064.332 -12634)"><path d="M19,0H1301a19,19,0,0,1,19,19V488a19,19,0,0,1-19,19H19A19,19,0,0,1,0,488V19A19,19,0,0,1,19,0Z" transform="translate(144.333 70)" fill="url(#a)"/></g><g transform="translate(-7372.999 12)" clip-path="url(#b)"><g transform="translate(-11597.026 -12950.474)"><circle cx="2.495" cy="2.495" r="2.495" transform="translate(294.693 414.054)" fill="#fff"/><path d="M316.4,416.549a2.495,2.495,0,1,1-2.495-2.495A2.495,2.495,0,0,1,316.4,416.549Z" fill="#fff"/><circle cx="2.495" cy="2.495" r="2.495" transform="translate(328.136 414.054)" fill="#fff"/><circle cx="2.495" cy="2.495" r="2.495" transform="translate(344.858 414.054)" fill="#fff"/><circle cx="2.495" cy="2.495" r="2.495" transform="translate(361.58 414.054)" fill="#fff"/><circle cx="2.495" cy="2.495" r="2.495" transform="translate(378.302 414.054)" fill="#fff"/><circle cx="2.495" cy="2.495" r="2.495" transform="translate(395.024 414.054)" fill="#fff"/><circle cx="2.495" cy="2.495" r="2.495" transform="translate(294.693 429.109)" fill="#fff"/><path d="M316.4,431.6a2.495,2.495,0,1,1-2.495-2.495A2.495,2.495,0,0,1,316.4,431.6Z" fill="#fff"/><circle cx="2.495" cy="2.495" r="2.495" transform="translate(328.136 429.109)" fill="#fff"/><circle cx="2.495" cy="2.495" r="2.495" transform="translate(344.858 429.109)" fill="#fff"/><circle cx="2.495" cy="2.495" r="2.495" transform="translate(361.58 429.109)" fill="#fff"/><circle cx="2.495" cy="2.495" r="2.495" transform="translate(378.302 429.109)" fill="#fff"/><circle cx="2.495" cy="2.495" r="2.495" transform="translate(395.024 429.109)" fill="#fff"/><circle cx="2.495" cy="2.495" r="2.495" transform="translate(294.693 444.164)" fill="#fff"/><path d="M316.4,446.659a2.495,2.495,0,1,1-2.495-2.495A2.495,2.495,0,0,1,316.4,446.659Z" fill="#fff"/><circle cx="2.495" cy="2.495" r="2.495" transform="translate(328.136 444.164)" fill="#fff"/><circle cx="2.495" cy="2.495" r="2.495" transform="translate(344.858 444.164)" fill="#fff"/><circle cx="2.495" cy="2.495" r="2.495" transform="translate(361.58 444.164)" fill="#fff"/><circle cx="2.495" cy="2.495" r="2.495" transform="translate(378.302 444.164)" fill="#fff"/><circle cx="2.495" cy="2.495" r="2.495" transform="translate(395.024 444.164)" fill="#fff"/><circle cx="2.495" cy="2.495" r="2.495" transform="translate(294.693 459.219)" fill="#fff"/><path d="M316.4,461.714a2.495,2.495,0,1,1-2.495-2.495A2.495,2.495,0,0,1,316.4,461.714Z" fill="#fff"/><circle cx="2.495" cy="2.495" r="2.495" transform="translate(328.136 459.219)" fill="#fff"/><circle cx="2.495" cy="2.495" r="2.495" transform="translate(344.858 459.219)" fill="#fff"/><circle cx="2.495" cy="2.495" r="2.495" transform="translate(361.58 459.219)" fill="#fff"/><circle cx="2.495" cy="2.495" r="2.495" transform="translate(378.302 459.219)" fill="#fff"/><circle cx="2.495" cy="2.495" r="2.495" transform="translate(395.024 459.219)" fill="#fff"/><circle cx="2.495" cy="2.495" r="2.495" transform="translate(294.693 474.274)" fill="#fff"/><path d="M316.4,476.769a2.495,2.495,0,1,1-2.495-2.495A2.495,2.495,0,0,1,316.4,476.769Z" fill="#fff"/><circle cx="2.495" cy="2.495" r="2.495" transform="translate(328.136 474.274)" fill="#fff"/><circle cx="2.495" cy="2.495" r="2.495" transform="translate(344.858 474.274)" fill="#fff"/><circle cx="2.495" cy="2.495" r="2.495" transform="translate(361.58 474.274)" fill="#fff"/><circle cx="2.495" cy="2.495" r="2.495" transform="translate(378.302 474.274)" fill="#fff"/><circle cx="2.495" cy="2.495" r="2.495" transform="translate(395.024 474.274)" fill="#fff"/><circle cx="2.495" cy="2.495" r="2.495" transform="translate(294.693 489.328)" fill="#fff"/><path d="M316.4,491.823a2.495,2.495,0,1,1-2.495-2.495A2.495,2.495,0,0,1,316.4,491.823Z" fill="#fff"/><circle cx="2.495" cy="2.495" r="2.495" transform="translate(328.136 489.328)" fill="#fff"/><circle cx="2.495" cy="2.495" r="2.495" transform="translate(344.858 489.328)" fill="#fff"/><circle cx="2.495" cy="2.495" r="2.495" transform="translate(361.58 489.328)" fill="#fff"/><circle cx="2.495" cy="2.495" r="2.495" transform="translate(378.302 489.328)" fill="#fff"/><circle cx="2.495" cy="2.495" r="2.495" transform="translate(395.024 489.328)" fill="#fff"/></g></g><g transform="translate(-31758 -831) rotate(90)" clip-path="url(#b)"><g transform="translate(-11597.026 -12950.474)"><circle cx="2.495" cy="2.495" r="2.495" transform="translate(294.693 414.054)" fill="#fff"/><path d="M316.4,416.549a2.495,2.495,0,1,1-2.495-2.495A2.495,2.495,0,0,1,316.4,416.549Z" fill="#fff"/><circle cx="2.495" cy="2.495" r="2.495" transform="translate(328.136 414.054)" fill="#fff"/><circle cx="2.495" cy="2.495" r="2.495" transform="translate(344.858 414.054)" fill="#fff"/><circle cx="2.495" cy="2.495" r="2.495" transform="translate(361.58 414.054)" fill="#fff"/><circle cx="2.495" cy="2.495" r="2.495" transform="translate(378.302 414.054)" fill="#fff"/><circle cx="2.495" cy="2.495" r="2.495" transform="translate(395.024 414.054)" fill="#fff"/><circle cx="2.495" cy="2.495" r="2.495" transform="translate(294.693 429.109)" fill="#fff"/><path d="M316.4,431.6a2.495,2.495,0,1,1-2.495-2.495A2.495,2.495,0,0,1,316.4,431.6Z" fill="#fff"/><circle cx="2.495" cy="2.495" r="2.495" transform="translate(328.136 429.109)" fill="#fff"/><circle cx="2.495" cy="2.495" r="2.495" transform="translate(344.858 429.109)" fill="#fff"/><circle cx="2.495" cy="2.495" r="2.495" transform="translate(361.58 429.109)" fill="#fff"/><circle cx="2.495" cy="2.495" r="2.495" transform="translate(378.302 429.109)" fill="#fff"/><circle cx="2.495" cy="2.495" r="2.495" transform="translate(395.024 429.109)" fill="#fff"/><circle cx="2.495" cy="2.495" r="2.495" transform="translate(294.693 444.164)" fill="#fff"/><path d="M316.4,446.659a2.495,2.495,0,1,1-2.495-2.495A2.495,2.495,0,0,1,316.4,446.659Z" fill="#fff"/><circle cx="2.495" cy="2.495" r="2.495" transform="translate(328.136 444.164)" fill="#fff"/><circle cx="2.495" cy="2.495" r="2.495" transform="translate(344.858 444.164)" fill="#fff"/><circle cx="2.495" cy="2.495" r="2.495" transform="translate(361.58 444.164)" fill="#fff"/><circle cx="2.495" cy="2.495" r="2.495" transform="translate(378.302 444.164)" fill="#fff"/><circle cx="2.495" cy="2.495" r="2.495" transform="translate(395.024 444.164)" fill="#fff"/><circle cx="2.495" cy="2.495" r="2.495" transform="translate(294.693 459.219)" fill="#fff"/><path d="M316.4,461.714a2.495,2.495,0,1,1-2.495-2.495A2.495,2.495,0,0,1,316.4,461.714Z" fill="#fff"/><circle cx="2.495" cy="2.495" r="2.495" transform="translate(328.136 459.219)" fill="#fff"/><circle cx="2.495" cy="2.495" r="2.495" transform="translate(344.858 459.219)" fill="#fff"/><circle cx="2.495" cy="2.495" r="2.495" transform="translate(361.58 459.219)" fill="#fff"/><circle cx="2.495" cy="2.495" r="2.495" transform="translate(378.302 459.219)" fill="#fff"/><circle cx="2.495" cy="2.495" r="2.495" transform="translate(395.024 459.219)" fill="#fff"/><circle cx="2.495" cy="2.495" r="2.495" transform="translate(294.693 474.274)" fill="#fff"/><path d="M316.4,476.769a2.495,2.495,0,1,1-2.495-2.495A2.495,2.495,0,0,1,316.4,476.769Z" fill="#fff"/><circle cx="2.495" cy="2.495" r="2.495" transform="translate(328.136 474.274)" fill="#fff"/><circle cx="2.495" cy="2.495" r="2.495" transform="translate(344.858 474.274)" fill="#fff"/><circle cx="2.495" cy="2.495" r="2.495" transform="translate(361.58 474.274)" fill="#fff"/><circle cx="2.495" cy="2.495" r="2.495" transform="translate(378.302 474.274)" fill="#fff"/><circle cx="2.495" cy="2.495" r="2.495" transform="translate(395.024 474.274)" fill="#fff"/><circle cx="2.495" cy="2.495" r="2.495" transform="translate(294.693 489.328)" fill="#fff"/><path d="M316.4,491.823a2.495,2.495,0,1,1-2.495-2.495A2.495,2.495,0,0,1,316.4,491.823Z" fill="#fff"/><circle cx="2.495" cy="2.495" r="2.495" transform="translate(328.136 489.328)" fill="#fff"/><circle cx="2.495" cy="2.495" r="2.495" transform="translate(344.858 489.328)" fill="#fff"/><circle cx="2.495" cy="2.495" r="2.495" transform="translate(361.58 489.328)" fill="#fff"/><circle cx="2.495" cy="2.495" r="2.495" transform="translate(378.302 489.328)" fill="#fff"/><circle cx="2.495" cy="2.495" r="2.495" transform="translate(395.024 489.328)" fill="#fff"/></g></g><g transform="translate(-7372.999 -25)" clip-path="url(#d)"><g transform="matrix(-0.391, -0.921, 0.921, -0.391, -11363.633, -11622.788)"><path d="M486.574,419.6l-7.513,7.514a58.616,58.616,0,0,0,41.553,17.24v-10.63A48.01,48.01,0,0,1,486.574,419.6Z" transform="translate(4.63 24.935)" fill="#fff" opacity="0.6"/><path d="M477.081,394.7H466.453a58.619,58.619,0,0,0,17.238,41.555l7.513-7.514A48.005,48.005,0,0,1,477.081,394.7Z" transform="translate(0 15.791)" fill="#fff" opacity="0.6"/><path d="M509.452,433.722v10.63A58.61,58.61,0,0,0,551,427.112l-7.512-7.514A48.015,48.015,0,0,1,509.452,433.722Z" transform="translate(15.791 24.935)" fill="#fff" opacity="0.6"/><path d="M559.1,394.7H548.47a48,48,0,0,1-14.121,34.039l7.512,7.514A58.6,58.6,0,0,0,559.1,394.7Z" transform="translate(24.935 15.791)" fill="#fff" opacity="0.6"/><path d="M491.2,371.823l-7.513-7.512a58.6,58.6,0,0,0-17.238,41.552h10.628A48.013,48.013,0,0,1,491.2,371.823Z" transform="translate(0 4.631)" fill="#fff"/><path d="M543.492,376.453,551,368.942a58.6,58.6,0,0,0-41.552-17.24v10.63A48.024,48.024,0,0,1,543.492,376.453Z" transform="translate(15.791 0)" fill="#fff" opacity="0.3"/><path d="M548.47,405.862H559.1a58.6,58.6,0,0,0-17.24-41.552l-7.512,7.512A48.021,48.021,0,0,1,548.47,405.862Z" transform="translate(24.935 4.63)" fill="#fff" opacity="0.3"/><path d="M520.613,362.332V351.7a58.609,58.609,0,0,0-41.553,17.24l7.513,7.512A48.024,48.024,0,0,1,520.613,362.332Z" transform="translate(4.63 0)" fill="#aa6e15"/></g></g><path d="M661.7,138.5a6.334,6.334,0,1,1-6.334-6.333A6.333,6.333,0,0,1,661.7,138.5Z" transform="translate(-19279.033 -12376.669)" fill="#fff"/><path d="M97.035,131.169a3.583,3.583,0,1,1-3.583-3.584A3.583,3.583,0,0,1,97.035,131.169Z" transform="translate(-18723.449 -12413.159)" fill="#fff"/><g transform="translate(-7372.999 12)" clip-path="url(#e)"><g transform="matrix(-0.391, -0.921, 0.921, -0.391, -12144.633, -11928.117)"><path d="M486.574,419.6l-7.513,7.514a58.616,58.616,0,0,0,41.553,17.24v-10.63A48.01,48.01,0,0,1,486.574,419.6Z" transform="translate(4.63 24.935)" fill="#fff" opacity="0.6"/><path d="M477.081,394.7H466.453a58.619,58.619,0,0,0,17.238,41.555l7.513-7.514A48.005,48.005,0,0,1,477.081,394.7Z" transform="translate(0 15.791)" fill="#fff" opacity="0.6"/><path d="M509.452,433.722v10.63A58.61,58.61,0,0,0,551,427.112l-7.512-7.514A48.015,48.015,0,0,1,509.452,433.722Z" transform="translate(15.791 24.935)" fill="#fff" opacity="0.6"/><path d="M559.1,394.7H548.47a48,48,0,0,1-14.121,34.039l7.512,7.514A58.6,58.6,0,0,0,559.1,394.7Z" transform="translate(24.935 15.791)" fill="#fff" opacity="0.6"/><path d="M491.2,371.823l-7.513-7.512a58.6,58.6,0,0,0-17.238,41.552h10.628A48.013,48.013,0,0,1,491.2,371.823Z" transform="translate(0 4.631)" fill="#aa6e15"/><path d="M543.492,376.453,551,368.942a58.6,58.6,0,0,0-41.552-17.24v10.63A48.024,48.024,0,0,1,543.492,376.453Z" transform="translate(15.791 0)" fill="#fff" opacity="0.3"/><path d="M548.47,405.862H559.1a58.6,58.6,0,0,0-17.24-41.552l-7.512,7.512A48.021,48.021,0,0,1,548.47,405.862Z" transform="translate(24.935 4.63)" fill="#fff" opacity="0.3"/><path d="M520.613,362.332V351.7a58.609,58.609,0,0,0-41.553,17.24l7.513,7.512A48.024,48.024,0,0,1,520.613,362.332Z" transform="translate(4.63 0)" fill="#fff"/></g></g><path d="M161.868,333.168a6.333,6.333,0,1,1-6.333-6.332A6.333,6.333,0,0,1,161.868,333.168Z" transform="translate(-19421.867 -12868.919)" fill="#fff"/><path d="M97.035,131.169a3.583,3.583,0,1,1-3.583-3.584A3.583,3.583,0,0,1,97.035,131.169Z" transform="translate(-19512.285 -12657.085)" fill="#fff"/><g transform="translate(-19277.891 -12103.933) rotate(-13)" opacity="0.45"><g clip-path="url(#f)"><g transform="translate(0 0)"><g clip-path="url(#g)"><path d="M6.617,1.894c-.14.142-.279.278-.4.384a1.14,1.14,0,0,1-.307.228,1.3,1.3,0,0,1-.136.041c-.245.064-.475.091-.559.259-.092.2.174.376.241.457s.259.618.071.7-.135.323-.041.464S5,5.165,5,5.165a6.323,6.323,0,0,1,.287,1.384C5.24,6.859,5,7.374,4.6,7.3s-1.22-.676-1.5-.424c-.167.15-.686.742-1.1,1.2-.209-.1-.468-.237-.724-.4-.117-.063-.232-.137-.347-.211a3.206,3.206,0,0,1-.75-.645c-.468-.593.081-1.166.566-1.3a.814.814,0,0,0,.172-.08,1.536,1.536,0,0,0,.516-.73c.043-.065.348-.341.494-.493s.046-.282-.04-.874.142-.29.373-.434.124-.26.073-.413c-.021-.06.022-.131.094-.226a1.882,1.882,0,0,0,.362-.557A.07.07,0,0,0,2.8,1.68C2.882,1.437,2.6.955,2.336.587,2.147.321,1.974.115,1.974.115S2.236.1,2.567.077c.123-.01.257-.02.39-.024C3.379.021,3.8,0,3.922,0a9.1,9.1,0,0,1,2.6.43c.264.2.234.955.1,1.463" transform="translate(0 0)" fill="#7a8045"/><path d="M84.722,12.08a4.884,4.884,0,0,1-.759,1.143c-.886,1.138-2.276,2.7-2.592,3.085a13.766,13.766,0,0,1-4.319,4.074,122.227,122.227,0,0,1-12.605,6.4,57.439,57.439,0,0,1-6.931,2.437c-.234.064-.463.129-.7.188-.555.142-1.1.285-1.652.422-.255.068-.51.13-.76.193-.418.106-.836.213-1.254.314h-.005c-.51.125-1.015.251-1.524.365-.337.082-.673.158-1.014.235-.661.154-1.322.3-1.987.43q-.414.091-.827.166c-2,.391-4.056.721-6.232.948-.514.055-1.039.1-1.569.148-.326.024-.647.049-.978.068-.587.038-1.191.07-1.8.1-.069,0-.138,0-.213.007-.293.011-.591.017-.889.023-.66.016-1.329.021-2.014.019-.594,0-1.2-.016-1.818-.033-.308-.006-.614-.017-.921-.034-.17,0-.339-.014-.508-.023-.371-.017-.74-.039-1.12-.062-.259-.012-.518-.03-.781-.053-.507-.034-1.023-.074-1.545-.12C14.706,31.4,9.216,23.2,8.054,20.782S7.381,14.914,7,13.575a4.259,4.259,0,0,0-.251-.649,1.545,1.545,0,0,0-.087-.161c-.077-.15-.169-.3-.263-.448s-.192-.288-.292-.424a5.006,5.006,0,0,0-1.275-1.254l-.249-.118c.412-.457.931-1.049,1.1-1.2s.494,0,.831.153a3.354,3.354,0,0,0,.666.271c.408.073.644-.442.687-.752A6.306,6.306,0,0,0,7.579,7.61s.579-.6.49-.737-.148-.374.041-.464,0-.616-.071-.7S7.706,5.45,7.8,5.251s.405-.2.7-.3A3.375,3.375,0,0,0,9.2,4.339a1.068,1.068,0,0,1-.2.434,1.392,1.392,0,0,0-.362.918c-.026.3.328.369.414.472A1.9,1.9,0,0,1,9.53,7.1c.014.389,1.268,1.646,1.268,1.646a2.677,2.677,0,0,0,.843.552c.372.182.849.367,1.369.561.922.32,2.008.644,3.06.939l.674.187c2.452.673,4.728,2.556,11.176,3.857a36.372,36.372,0,0,0,4.058.586.073.073,0,0,0,.047,0,53.966,53.966,0,0,0,13.42-.766A76.938,76.938,0,0,0,53.961,12.5c.85-.249,1.718-.512,2.58-.776,4.785-1.463,9.551-3.013,11.846-3.565,4.35-1.051,10.652-.623,11.59-.6a14.158,14.158,0,0,0,1.964-.119c.005,0,.016,0,.021,0,.594-.054.695.73.724,1.067s.072.086.33.353a5.637,5.637,0,0,1,.652.8,4.848,4.848,0,0,1,.333.555,7.206,7.206,0,0,1,.7,1.411,1,1,0,0,1,.017.464" transform="translate(-2.583 -2.445)" fill="#7a8045"/><g transform="translate(2 6.817)" style="mix-blend-mode:multiply;isolation:isolate"><g clip-path="url(#h)"><path d="M84.722,18.437a4.884,4.884,0,0,1-.759,1.143c-.886,1.138-2.276,2.7-2.592,3.085a13.766,13.766,0,0,1-4.319,4.074C74.6,28.059,65.7,33.475,56.82,35.762c-.555.142-1.1.285-1.652.422-.255.068-.51.13-.76.193-.418.106-.836.213-1.254.314h-.005c-.51.125-1.015.251-1.524.365-.337.082-.673.158-1.014.235-.661.154-1.322.3-1.987.43q-.414.091-.827.166c-2,.391-4.056.721-6.232.948-.514.055-1.039.1-1.569.148-.326.024-.647.049-.978.068-.587.038-1.191.07-1.8.1-.069,0-.138,0-.213.007-.293.011-.591.017-.889.023-.66.016-1.329.021-2.014.019-.594,0-1.2-.016-1.818-.033-.308-.006-.614-.017-.921-.034-.17,0-.339-.014-.508-.023-.371-.017-.74-.039-1.12-.062-.259-.012-.518-.03-.781-.053-.507-.034-1.023-.074-1.545-.12-12.7-1.119-18.191-9.317-19.354-11.734S7.381,21.271,7,19.932a4.259,4.259,0,0,0-.251-.649,1.545,1.545,0,0,0-.087-.161c-.077-.15-.169-.3-.263-.448s-.192-.288-.292-.424A5.006,5.006,0,0,0,4.832,17l-.249-.118c.412-.457.931-1.049,1.1-1.2s.494,0,.831.153c1.452.924,2.716,1.827,2.779,2.2.134.84.03,5.869,6.221,9.483.454.268.946.529,1.476.778a41.191,41.191,0,0,0,8.749,2.958h.01a48.182,48.182,0,0,0,14.852.825c.086-.009.171-.012.252-.021,1.483-.145,2.993-.352,4.526-.632,2.207-.4,4.556-.963,6.922-1.615l.006,0c6.263-1.72,12.661-4.077,16.971-5.694.005,0,.011,0,.016,0,2.137-.81,3.758-1.432,4.594-1.708.34-.113.68-.243,1.022-.393.006,0,.011,0,.017-.009a22.062,22.062,0,0,0,3.752-2.16.309.309,0,0,1,.051-.033,30.719,30.719,0,0,0,2.594-2.017c.484-.43,1.432-1.127,2.2-1.68l.142-.1a4.848,4.848,0,0,1,.333.555,7.206,7.206,0,0,1,.7,1.411,1,1,0,0,1,.017.464" transform="translate(-4.583 -15.619)" fill="#7a8045"/></g></g><g transform="translate(7.201 8.952)" style="mix-blend-mode:screen;isolation:isolate"><g clip-path="url(#i)"><path d="M16.669,22.362c-.956.247,1.827,9.5,15.8,11.653s21.242.145,26.551-1.443,21.07-7.036,22.626-7.812,6.56-3.742,6.4-4.211S81.184,24.036,76.4,25.612s-20.567,7.277-27.456,7.819-16.516-.156-21.878-2.776-9.956-8.406-10.4-8.292" transform="translate(-16.499 -20.511)" fill="#7a8045"/></g></g><g transform="translate(2 1.894)" style="mix-blend-mode:multiply;isolation:isolate"><g clip-path="url(#j)"><path d="M11.063,11.385c-.427.451-1.665-.566-1.773.3s-.094,1.425-.683,1.792c-.377.238-1.066-.014-1.64-.007A6.121,6.121,0,0,0,4.832,10.64l-.25-.117c.412-.457.931-1.049,1.1-1.2s.494,0,.831.154a3.375,3.375,0,0,0,.666.271c.408.073.644-.443.687-.752a6.306,6.306,0,0,0-.287-1.385s.579-.6.49-.737S7.92,6.5,8.109,6.41s0-.616-.071-.7S7.7,5.45,7.8,5.252s.405-.2.7-.3A3.419,3.419,0,0,0,9.2,4.34a1.053,1.053,0,0,1-.2.433,1.394,1.394,0,0,0-.362.918c-.026.295.329.369.415.472A1.9,1.9,0,0,1,9.53,7.1c.014.388,1.267,1.646,1.267,1.646a6.348,6.348,0,0,0,2.212,1.113c-.709.028-1.291.062-1.543.093-.92.13.02.984-.4,1.435" transform="translate(-4.582 -4.34)" fill="#7a8045"/></g></g><g transform="translate(2.956 0)" style="mix-blend-mode:multiply;isolation:isolate"><g clip-path="url(#k)"><path d="M10.434,1.894c-.14.142-.279.278-.4.384a2.329,2.329,0,0,1-.855-.24c-.34-.179-.4-.572-.76-.656-.177-.042-.392-.008-.579-.056C7.373,1.21,7.466,1.059,7.3.683a1.64,1.64,0,0,0-.523-.63C7.2.021,7.618,0,7.739,0a9.1,9.1,0,0,1,2.6.43c.264.2.234.955.1,1.463" transform="translate(-6.774 0)" fill="#7a8045"/></g></g><g transform="translate(0 0.077)" style="mix-blend-mode:multiply;isolation:isolate"><g clip-path="url(#l)"><path d="M5.527,4.064c-.189.089-.135.323-.041.464S5,5.265,5,5.265a6.323,6.323,0,0,1,.287,1.384C5.24,6.959,5,7.474,4.6,7.4s-1.22-.676-1.5-.424c-.167.15-.686.742-1.1,1.2-.209-.1-.468-.238-.724-.4A2.211,2.211,0,0,1,1.3,7.286a4.381,4.381,0,0,0,.132-1.135c-.364.1-.412.091-.47.511-.02.163-.015.529-.037.9a3.2,3.2,0,0,1-.75-.645c-.468-.594.081-1.166.566-1.3a.836.836,0,0,0,.172-.08c.228.126.453.226.69.071,0,.079.038.173.036.253.326-.322.217-.714.453-1.038.2-.28.474-.144.783-.143.334,0,1.015.174,1.185-.2.183-.392-.315-.463-.587-.625-.151-.088-.864-.374-.559-.527.278-.14,1.938.665,1.483-.32a1.507,1.507,0,0,0-1.312-.6,2.851,2.851,0,0,1-.66-.037,1.888,1.888,0,0,0,.362-.557A.07.07,0,0,0,2.8,1.78c.08-.243-.207-.724-.467-1.092C2.147.421,1.974.215,1.974.215S2.236.2,2.567.177a5.161,5.161,0,0,0,.5.755,4.011,4.011,0,0,0,1.174.539A2.6,2.6,0,0,1,5.516,2.2a2.564,2.564,0,0,1,.258.447c-.245.063-.475.091-.559.259-.092.2.174.376.241.457s.259.618.071.7" transform="translate(0 -0.177)" fill="#7a8045"/></g></g><g transform="translate(2.336 0.588)" style="mix-blend-mode:screen;isolation:isolate"><g clip-path="url(#m)"><path d="M8,3.078c-.124.207-.888.017-1.029-.016A5.218,5.218,0,0,1,5.805,2.47a.076.076,0,0,0,.013-.031c.08-.242-.207-.724-.467-1.092a2.32,2.32,0,0,1,.841.764c.125.149.01.123.177.223.2.119.6.069.837.143.15.045.988.294.8.6" transform="translate(-5.352 -1.347)" fill="#7a8045"/></g></g><g transform="translate(8.948 18.542)" style="mix-blend-mode:multiply;isolation:isolate"><g clip-path="url(#n)"><path d="M35.157,47.5c-2.294-.1-4.4-1.215-6.5-1.981-1.88-.687-3.3-2.023-5.229-2.658-.925-.3-3-.692-2.927.83.042.857,1.371,1.324,1.852,1.844a2.17,2.17,0,0,1,.562,1.311c.882,4.171,6.621,2.256,9.593,3.54a18.44,18.44,0,0,0,7.76,1.884c1.727.027,3.4-.259,5.12-.175,3.224.159,6.778.517,9.971.042a26.7,26.7,0,0,0,5.374-1.75,83.762,83.762,0,0,1,8.63-2.2,41.327,41.327,0,0,0,8.893-3.049c.609-.321,3-1.851,1.916-2.559-.458-.3-2.023.182-2.347.247-1.167.236-2.259.67-3.4,1a82.178,82.178,0,0,1-10.04,2.7c-1.454.224-2.952.2-4.413.387A23.428,23.428,0,0,0,55.457,48.2a35.9,35.9,0,0,1-4.9,1.593,23.224,23.224,0,0,1-6.16-.136,48.013,48.013,0,0,1-6.874-1.03A20.577,20.577,0,0,1,35.157,47.5" transform="translate(-20.502 -42.483)" fill="#7a8045"/></g></g><g transform="translate(50.566 10.779)" style="mix-blend-mode:screen;isolation:isolate"><g clip-path="url(#o)"><path d="M146.674,24.7c-.886,1.138-2.276,2.7-2.592,3.085a13.756,13.756,0,0,1-4.319,4.074c-2.447,1.319-11.35,6.736-20.232,9.023-1.239.321-2.455.633-3.671.93.273-.146.55-.281.838-.409,5.779-2.549,12.164-3.919,17.522-7.365,2.91-1.873,4.251-2.1,6.9-4.269,1.459-1.193,3.931-4.275,5.556-5.067" transform="translate(-115.859 -24.696)" fill="#7a8045"/></g></g><g transform="translate(11.983 6.999)" style="mix-blend-mode:screen;isolation:isolate"><g clip-path="url(#p)"><path d="M89.705,16.345c-.272,1.457-3.358,2.38-4.525,2.909a79.465,79.465,0,0,1-9.753,3.378,175.383,175.383,0,0,1-23.5,5.05,42.882,42.882,0,0,1-10.008.058c-2.279-.169-4.789-.358-6.823-1.5a23.328,23.328,0,0,1-7.111-6.5c-1.129-1.65-.294-2.266.972-2.356l.674.186c2.452.673,4.728,2.556,11.176,3.857a36.306,36.306,0,0,0,4.058.586.07.07,0,0,0,.047,0,54.876,54.876,0,0,0,9.881.3c8.44-.34,16.21-3.744,24.408-5.379a40.333,40.333,0,0,1,6.009-.708c1.28-.068,3.29-.464,4.492.114" transform="translate(-27.457 -16.036)" fill="#7a8045"/></g></g><g transform="translate(2 1.894)" style="mix-blend-mode:multiply;isolation:isolate"><g clip-path="url(#q)"><path d="M11.641,9.3a1.744,1.744,0,0,1-1.219-.511c-.484-.42-.477-.977-1.125-1.273-.219-.1-.9-.334-1.1-.086s.15.895.169,1.157c.012.224-.072.391-.064.6.013.452.407.625.626.968.1.163.255.479.081.655-.246.254-.554-.1-.745-.23a5.43,5.43,0,0,0-2.238-.574c-.386-.082-.519-.13-.817.167a2.31,2.31,0,0,0-.33.5c-.02-.012-.035-.024-.05-.031l-.25-.117c.412-.457.931-1.049,1.1-1.2s.494,0,.831.153a3.381,3.381,0,0,0,.666.271c.408.073.645-.443.687-.752A6.3,6.3,0,0,0,7.579,7.61s.579-.6.49-.737-.148-.374.041-.464,0-.616-.071-.7S7.705,5.45,7.8,5.251s.405-.2.7-.3A3.4,3.4,0,0,0,9.2,4.339a1.053,1.053,0,0,1-.2.433,1.4,1.4,0,0,0-.362.919c-.026.3.329.368.415.472A1.9,1.9,0,0,1,9.53,7.1c.014.388,1.267,1.646,1.267,1.646a2.683,2.683,0,0,0,.843.552" transform="translate(-4.583 -4.339)" fill="#7a8045"/></g></g><g transform="translate(2.507 3.938)" style="mix-blend-mode:screen;isolation:isolate"><g clip-path="url(#r)"><path d="M6.087,9.023c.838.074,1.462.3,1.619,1.188.032.18.189.681-.1.707-.143.013-.3-.237-.334-.354-.055-.2.076-.389.046-.585-.042-.281-.617-.465-.819-.324-.227.158-.045.542-.13.75-.04.1-.144.123-.17.26-.019.1.045.254-.008.348a.287.287,0,0,1-.346.109c-.137-.086-.1-.454-.069-.588.076-.342.58-.639.438-.961-.043-.1-.462-.417-.123-.55" transform="translate(-5.743 -9.023)" fill="#7a8045"/></g></g><path d="M184.576,15.612a.617.617,0,0,1-.462-.184c-.447-.464-.458-1.123-.718-1.677a.869.869,0,0,0-.058-.122c-.161-.28-.323-.246-.591-.4-.314-.176-.171-.408-.378-.591-.256-.23-.329-.007-.474-.339a1.522,1.522,0,0,1-.062-.871c.594-.054.695.73.724,1.067s.072.086.33.353a5.637,5.637,0,0,1,.652.8,4.785,4.785,0,0,1,.333.555,7.207,7.207,0,0,1,.7,1.411" transform="translate(-102.453 -6.44)" fill="#7a8045"/></g></g></g></g></g></svg>