<svg xmlns="http://www.w3.org/2000/svg" width="190" height="190" viewBox="0 0 190 190"><g transform="translate(-1124.668 -851)"><rect width="190" height="190" transform="translate(1124.668 851)" fill="none"/><g transform="translate(9.454 -5.303)"><g transform="translate(1130.685 862.303)"><g transform="translate(6.446 6.446)"><path d="M67.834,0A67.833,67.833,0,1,1,0,67.833,67.833,67.833,0,0,1,67.834,0Z" transform="translate(0 0)" fill="#7a8045" opacity="0.444" style="mix-blend-mode:multiply;isolation:isolate"/><g transform="translate(26.485 28.042)"><path d="M416.056,51.1a.922.922,0,1,1-.922-.88A.9.9,0,0,1,416.056,51.1Z" transform="translate(-414.214 -50.224)" fill="#fff"/><path d="M424.5,51.1a.922.922,0,1,1-.92-.88A.9.9,0,0,1,424.5,51.1Z" transform="translate(-414.37 -50.224)" fill="#fff"/><path d="M432.948,51.1a.922.922,0,1,1-.921-.88A.9.9,0,0,1,432.948,51.1Z" transform="translate(-414.527 -50.224)" fill="#fff"/><path d="M441.4,51.1a.922.922,0,1,1-.922-.88A.9.9,0,0,1,441.4,51.1Z" transform="translate(-414.683 -50.224)" fill="#fff"/><path d="M449.841,51.1a.922.922,0,1,1-.921-.88A.9.9,0,0,1,449.841,51.1Z" transform="translate(-414.84 -50.224)" fill="#fff"/><path d="M458.287,51.1a.922.922,0,1,1-.921-.88A.9.9,0,0,1,458.287,51.1Z" transform="translate(-414.996 -50.224)" fill="#fff"/><path d="M466.734,51.1a.922.922,0,1,1-.922-.88A.9.9,0,0,1,466.734,51.1Z" transform="translate(-415.152 -50.224)" fill="#fff"/><path d="M475.18,51.1a.922.922,0,1,1-.921-.88A.9.9,0,0,1,475.18,51.1Z" transform="translate(-415.309 -50.224)" fill="#fff"/><path d="M483.626,51.1a.922.922,0,1,1-.921-.88A.9.9,0,0,1,483.626,51.1Z" transform="translate(-415.465 -50.224)" fill="#fff"/><path d="M492.073,51.1a.922.922,0,1,1-.922-.88A.9.9,0,0,1,492.073,51.1Z" transform="translate(-415.622 -50.224)" fill="#fff"/><path d="M500.519,51.1a.922.922,0,1,1-.922-.88A.9.9,0,0,1,500.519,51.1Z" transform="translate(-415.778 -50.224)" fill="#fff"/><g transform="translate(0 7.047)"><path d="M416.056,58.612a.922.922,0,1,1-.922-.88A.9.9,0,0,1,416.056,58.612Z" transform="translate(-414.214 -57.732)" fill="#fff"/><path d="M424.5,58.612a.922.922,0,1,1-.92-.88A.9.9,0,0,1,424.5,58.612Z" transform="translate(-414.37 -57.732)" fill="#fff"/><path d="M432.948,58.612a.922.922,0,1,1-.921-.88A.9.9,0,0,1,432.948,58.612Z" transform="translate(-414.527 -57.732)" fill="#fff"/><path d="M441.4,58.612a.922.922,0,1,1-.922-.88A.9.9,0,0,1,441.4,58.612Z" transform="translate(-414.683 -57.732)" fill="#fff"/><path d="M449.841,58.612a.922.922,0,1,1-.921-.88A.9.9,0,0,1,449.841,58.612Z" transform="translate(-414.84 -57.732)" fill="#fff"/><path d="M458.287,58.612a.922.922,0,1,1-.921-.88A.9.9,0,0,1,458.287,58.612Z" transform="translate(-414.996 -57.732)" fill="#fff"/><path d="M466.734,58.612a.922.922,0,1,1-.922-.88A.9.9,0,0,1,466.734,58.612Z" transform="translate(-415.152 -57.732)" fill="#fff"/><path d="M475.18,58.612a.922.922,0,1,1-.921-.88A.9.9,0,0,1,475.18,58.612Z" transform="translate(-415.309 -57.732)" fill="#fff"/><path d="M483.626,58.612a.922.922,0,1,1-.921-.88A.9.9,0,0,1,483.626,58.612Z" transform="translate(-415.465 -57.732)" fill="#fff"/><path d="M492.073,58.612a.922.922,0,1,1-.922-.88A.9.9,0,0,1,492.073,58.612Z" transform="translate(-415.622 -57.732)" fill="#fff"/><path d="M500.519,58.612a.922.922,0,1,1-.922-.88A.9.9,0,0,1,500.519,58.612Z" transform="translate(-415.778 -57.732)" fill="#fff"/></g><g transform="translate(0 14.094)"><ellipse cx="0.921" cy="0.881" rx="0.921" ry="0.881" fill="#fff"/><path d="M424.5,66.12a.922.922,0,1,1-.92-.88A.9.9,0,0,1,424.5,66.12Z" transform="translate(-414.37 -65.24)" fill="#fff"/><ellipse cx="0.921" cy="0.881" rx="0.921" ry="0.881" transform="translate(16.58)" fill="#fff"/><path d="M441.4,66.12a.922.922,0,1,1-.922-.88A.9.9,0,0,1,441.4,66.12Z" transform="translate(-414.683 -65.24)" fill="#fff"/><path d="M449.841,66.12a.922.922,0,1,1-.921-.88A.9.9,0,0,1,449.841,66.12Z" transform="translate(-414.84 -65.24)" fill="#fff"/><ellipse cx="0.921" cy="0.881" rx="0.921" ry="0.881" transform="translate(41.45)" fill="#fff"/><path d="M466.734,66.12a.922.922,0,1,1-.922-.88A.9.9,0,0,1,466.734,66.12Z" transform="translate(-415.152 -65.24)" fill="#fff"/><ellipse cx="0.921" cy="0.881" rx="0.921" ry="0.881" transform="translate(58.029)" fill="#fff"/><ellipse cx="0.921" cy="0.881" rx="0.921" ry="0.881" transform="translate(66.319)" fill="#fff"/><path d="M492.073,66.12a.922.922,0,1,1-.922-.88A.9.9,0,0,1,492.073,66.12Z" transform="translate(-415.622 -65.24)" fill="#fff"/><path d="M500.519,66.12a.922.922,0,1,1-.922-.88A.9.9,0,0,1,500.519,66.12Z" transform="translate(-415.778 -65.24)" fill="#fff"/></g><g transform="translate(0 21.14)"><ellipse cx="0.921" cy="0.881" rx="0.921" ry="0.881" transform="translate(0 0)" fill="#fff"/><path d="M424.5,73.628a.922.922,0,1,1-.92-.881A.9.9,0,0,1,424.5,73.628Z" transform="translate(-414.37 -72.747)" fill="#fff"/><ellipse cx="0.921" cy="0.881" rx="0.921" ry="0.881" transform="translate(16.58 0)" fill="#fff"/><path d="M441.4,73.628a.922.922,0,1,1-.922-.881A.9.9,0,0,1,441.4,73.628Z" transform="translate(-414.683 -72.747)" fill="#fff"/><path d="M449.841,73.628a.922.922,0,1,1-.921-.881A.9.9,0,0,1,449.841,73.628Z" transform="translate(-414.84 -72.747)" fill="#fff"/><ellipse cx="0.921" cy="0.881" rx="0.921" ry="0.881" transform="translate(41.45 0)" fill="#fff"/><path d="M466.734,73.628a.922.922,0,1,1-.922-.881A.9.9,0,0,1,466.734,73.628Z" transform="translate(-415.152 -72.747)" fill="#fff"/><ellipse cx="0.921" cy="0.881" rx="0.921" ry="0.881" transform="translate(58.029 0)" fill="#fff"/><ellipse cx="0.921" cy="0.881" rx="0.921" ry="0.881" transform="translate(66.319 0)" fill="#fff"/><path d="M492.073,73.628a.922.922,0,1,1-.922-.881A.9.9,0,0,1,492.073,73.628Z" transform="translate(-415.622 -72.747)" fill="#fff"/><path d="M500.519,73.628a.922.922,0,1,1-.922-.881A.9.9,0,0,1,500.519,73.628Z" transform="translate(-415.778 -72.747)" fill="#fff"/></g><g transform="translate(0 28.187)"><path d="M416.056,81.136a.922.922,0,1,1-.922-.881A.9.9,0,0,1,416.056,81.136Z" transform="translate(-414.214 -80.255)" fill="#fff"/><path d="M424.5,81.136a.922.922,0,1,1-.92-.881A.9.9,0,0,1,424.5,81.136Z" transform="translate(-414.37 -80.255)" fill="#fff"/><path d="M432.948,81.136a.922.922,0,1,1-.921-.881A.9.9,0,0,1,432.948,81.136Z" transform="translate(-414.527 -80.255)" fill="#fff"/><path d="M441.4,81.136a.922.922,0,1,1-.922-.881A.9.9,0,0,1,441.4,81.136Z" transform="translate(-414.683 -80.255)" fill="#fff"/><path d="M449.841,81.136a.922.922,0,1,1-.921-.881A.9.9,0,0,1,449.841,81.136Z" transform="translate(-414.84 -80.255)" fill="#fff"/><path d="M458.287,81.136a.922.922,0,1,1-.921-.881A.9.9,0,0,1,458.287,81.136Z" transform="translate(-414.996 -80.255)" fill="#fff"/><path d="M466.734,81.136a.922.922,0,1,1-.922-.881A.9.9,0,0,1,466.734,81.136Z" transform="translate(-415.152 -80.255)" fill="#fff"/><path d="M475.18,81.136a.922.922,0,1,1-.921-.881A.9.9,0,0,1,475.18,81.136Z" transform="translate(-415.309 -80.255)" fill="#fff"/><path d="M483.626,81.136a.922.922,0,1,1-.921-.881A.9.9,0,0,1,483.626,81.136Z" transform="translate(-415.465 -80.255)" fill="#fff"/><path d="M492.073,81.136a.922.922,0,1,1-.922-.881A.9.9,0,0,1,492.073,81.136Z" transform="translate(-415.622 -80.255)" fill="#fff"/><path d="M500.519,81.136a.922.922,0,1,1-.922-.881A.9.9,0,0,1,500.519,81.136Z" transform="translate(-415.778 -80.255)" fill="#fff"/></g><g transform="translate(0 35.234)"><ellipse cx="0.921" cy="0.881" rx="0.921" ry="0.881" transform="translate(0 0)" fill="#fff"/><path d="M424.5,88.644a.922.922,0,1,1-.92-.881A.9.9,0,0,1,424.5,88.644Z" transform="translate(-414.37 -87.763)" fill="#fff"/><ellipse cx="0.921" cy="0.881" rx="0.921" ry="0.881" transform="translate(16.58 0)" fill="#fff"/><path d="M441.4,88.644a.922.922,0,1,1-.922-.881A.9.9,0,0,1,441.4,88.644Z" transform="translate(-414.683 -87.763)" fill="#fff"/><path d="M449.841,88.644a.922.922,0,1,1-.921-.881A.9.9,0,0,1,449.841,88.644Z" transform="translate(-414.84 -87.763)" fill="#fff"/><ellipse cx="0.921" cy="0.881" rx="0.921" ry="0.881" transform="translate(41.45 0)" fill="#fff"/><path d="M466.734,88.644a.922.922,0,1,1-.922-.881A.9.9,0,0,1,466.734,88.644Z" transform="translate(-415.152 -87.763)" fill="#fff"/><ellipse cx="0.921" cy="0.881" rx="0.921" ry="0.881" transform="translate(58.029 0)" fill="#fff"/><ellipse cx="0.921" cy="0.881" rx="0.921" ry="0.881" transform="translate(66.319 0)" fill="#fff"/><path d="M492.073,88.644a.922.922,0,1,1-.922-.881A.9.9,0,0,1,492.073,88.644Z" transform="translate(-415.622 -87.763)" fill="#fff"/><path d="M500.519,88.644a.922.922,0,1,1-.922-.881A.9.9,0,0,1,500.519,88.644Z" transform="translate(-415.778 -87.763)" fill="#fff"/></g><g transform="translate(0 42.281)"><ellipse cx="0.921" cy="0.881" rx="0.921" ry="0.881" fill="#fff"/><path d="M424.5,96.151a.922.922,0,1,1-.92-.88A.9.9,0,0,1,424.5,96.151Z" transform="translate(-414.37 -95.271)" fill="#fff"/><ellipse cx="0.921" cy="0.881" rx="0.921" ry="0.881" transform="translate(16.58)" fill="#fff"/><path d="M441.4,96.151a.922.922,0,1,1-.922-.88A.9.9,0,0,1,441.4,96.151Z" transform="translate(-414.683 -95.271)" fill="#fff"/><path d="M449.841,96.151a.922.922,0,1,1-.921-.88A.9.9,0,0,1,449.841,96.151Z" transform="translate(-414.84 -95.271)" fill="#fff"/><ellipse cx="0.921" cy="0.881" rx="0.921" ry="0.881" transform="translate(41.45)" fill="#fff"/><path d="M466.734,96.151a.922.922,0,1,1-.922-.88A.9.9,0,0,1,466.734,96.151Z" transform="translate(-415.152 -95.271)" fill="#fff"/><ellipse cx="0.921" cy="0.881" rx="0.921" ry="0.881" transform="translate(58.029)" fill="#fff"/><ellipse cx="0.921" cy="0.881" rx="0.921" ry="0.881" transform="translate(66.319)" fill="#fff"/><path d="M492.073,96.151a.922.922,0,1,1-.922-.88A.9.9,0,0,1,492.073,96.151Z" transform="translate(-415.622 -95.271)" fill="#fff"/><path d="M500.519,96.151a.922.922,0,1,1-.922-.88A.9.9,0,0,1,500.519,96.151Z" transform="translate(-415.778 -95.271)" fill="#fff"/></g><g transform="translate(0 49.328)"><path d="M416.056,103.659a.922.922,0,1,1-.922-.88A.9.9,0,0,1,416.056,103.659Z" transform="translate(-414.214 -102.779)" fill="#fff"/><path d="M424.5,103.659a.922.922,0,1,1-.92-.88A.9.9,0,0,1,424.5,103.659Z" transform="translate(-414.37 -102.779)" fill="#fff"/><path d="M432.948,103.659a.922.922,0,1,1-.921-.88A.9.9,0,0,1,432.948,103.659Z" transform="translate(-414.527 -102.779)" fill="#fff"/><path d="M441.4,103.659a.922.922,0,1,1-.922-.88A.9.9,0,0,1,441.4,103.659Z" transform="translate(-414.683 -102.779)" fill="#fff"/><path d="M449.841,103.659a.922.922,0,1,1-.921-.88A.9.9,0,0,1,449.841,103.659Z" transform="translate(-414.84 -102.779)" fill="#fff"/><path d="M458.287,103.659a.922.922,0,1,1-.921-.88A.9.9,0,0,1,458.287,103.659Z" transform="translate(-414.996 -102.779)" fill="#fff"/><path d="M466.734,103.659a.922.922,0,1,1-.922-.88A.9.9,0,0,1,466.734,103.659Z" transform="translate(-415.152 -102.779)" fill="#fff"/><path d="M475.18,103.659a.922.922,0,1,1-.921-.88A.9.9,0,0,1,475.18,103.659Z" transform="translate(-415.309 -102.779)" fill="#fff"/><path d="M483.626,103.659a.922.922,0,1,1-.921-.88A.9.9,0,0,1,483.626,103.659Z" transform="translate(-415.465 -102.779)" fill="#fff"/><path d="M492.073,103.659a.922.922,0,1,1-.922-.88A.9.9,0,0,1,492.073,103.659Z" transform="translate(-415.622 -102.779)" fill="#fff"/><path d="M500.519,103.659a.922.922,0,1,1-.922-.88A.9.9,0,0,1,500.519,103.659Z" transform="translate(-415.778 -102.779)" fill="#fff"/></g><g transform="translate(0 56.375)"><ellipse cx="0.921" cy="0.881" rx="0.921" ry="0.881" fill="#fff"/><path d="M424.5,111.167a.922.922,0,1,1-.92-.88A.9.9,0,0,1,424.5,111.167Z" transform="translate(-414.37 -110.287)" fill="#fff"/><ellipse cx="0.921" cy="0.881" rx="0.921" ry="0.881" transform="translate(16.58)" fill="#fff"/><path d="M441.4,111.167a.922.922,0,1,1-.922-.88A.9.9,0,0,1,441.4,111.167Z" transform="translate(-414.683 -110.287)" fill="#fff"/><path d="M449.841,111.167a.922.922,0,1,1-.921-.88A.9.9,0,0,1,449.841,111.167Z" transform="translate(-414.84 -110.287)" fill="#fff"/><ellipse cx="0.921" cy="0.881" rx="0.921" ry="0.881" transform="translate(41.45)" fill="#fff"/><path d="M466.734,111.167a.922.922,0,1,1-.922-.88A.9.9,0,0,1,466.734,111.167Z" transform="translate(-415.152 -110.287)" fill="#fff"/><ellipse cx="0.921" cy="0.881" rx="0.921" ry="0.881" transform="translate(58.029)" fill="#fff"/><ellipse cx="0.921" cy="0.881" rx="0.921" ry="0.881" transform="translate(66.319)" fill="#fff"/><path d="M492.073,111.167a.922.922,0,1,1-.922-.88A.9.9,0,0,1,492.073,111.167Z" transform="translate(-415.622 -110.287)" fill="#fff"/><path d="M500.519,111.167a.922.922,0,1,1-.922-.88A.9.9,0,0,1,500.519,111.167Z" transform="translate(-415.778 -110.287)" fill="#fff"/></g><g transform="translate(0 63.421)"><path d="M416.056,118.675a.922.922,0,1,1-.922-.881A.9.9,0,0,1,416.056,118.675Z" transform="translate(-414.214 -117.794)" fill="#fff"/><path d="M424.5,118.675a.922.922,0,1,1-.92-.881A.9.9,0,0,1,424.5,118.675Z" transform="translate(-414.37 -117.794)" fill="#fff"/><path d="M432.948,118.675a.922.922,0,1,1-.921-.881A.9.9,0,0,1,432.948,118.675Z" transform="translate(-414.527 -117.794)" fill="#fff"/><path d="M441.4,118.675a.922.922,0,1,1-.922-.881A.9.9,0,0,1,441.4,118.675Z" transform="translate(-414.683 -117.794)" fill="#fff"/><path d="M449.841,118.675a.922.922,0,1,1-.921-.881A.9.9,0,0,1,449.841,118.675Z" transform="translate(-414.84 -117.794)" fill="#fff"/><path d="M458.287,118.675a.922.922,0,1,1-.921-.881A.9.9,0,0,1,458.287,118.675Z" transform="translate(-414.996 -117.794)" fill="#fff"/><path d="M466.734,118.675a.922.922,0,1,1-.922-.881A.9.9,0,0,1,466.734,118.675Z" transform="translate(-415.152 -117.794)" fill="#fff"/><path d="M475.18,118.675a.922.922,0,1,1-.921-.881A.9.9,0,0,1,475.18,118.675Z" transform="translate(-415.309 -117.794)" fill="#fff"/><path d="M483.626,118.675a.922.922,0,1,1-.921-.881A.9.9,0,0,1,483.626,118.675Z" transform="translate(-415.465 -117.794)" fill="#fff"/><path d="M492.073,118.675a.922.922,0,1,1-.922-.881A.9.9,0,0,1,492.073,118.675Z" transform="translate(-415.622 -117.794)" fill="#fff"/><path d="M500.519,118.675a.922.922,0,1,1-.922-.881A.9.9,0,0,1,500.519,118.675Z" transform="translate(-415.778 -117.794)" fill="#fff"/></g><g transform="translate(0 70.468)"><ellipse cx="0.921" cy="0.881" rx="0.921" ry="0.881" transform="translate(0 0)" fill="#fff"/><path d="M424.5,126.183a.922.922,0,1,1-.92-.881A.9.9,0,0,1,424.5,126.183Z" transform="translate(-414.37 -125.302)" fill="#fff"/><ellipse cx="0.921" cy="0.881" rx="0.921" ry="0.881" transform="translate(16.58 0)" fill="#fff"/><path d="M441.4,126.183a.922.922,0,1,1-.922-.881A.9.9,0,0,1,441.4,126.183Z" transform="translate(-414.683 -125.302)" fill="#fff"/><path d="M449.841,126.183a.922.922,0,1,1-.921-.881A.9.9,0,0,1,449.841,126.183Z" transform="translate(-414.84 -125.302)" fill="#fff"/><ellipse cx="0.921" cy="0.881" rx="0.921" ry="0.881" transform="translate(41.45 0)" fill="#fff"/><path d="M466.734,126.183a.922.922,0,1,1-.922-.881A.9.9,0,0,1,466.734,126.183Z" transform="translate(-415.152 -125.302)" fill="#fff"/><ellipse cx="0.921" cy="0.881" rx="0.921" ry="0.881" transform="translate(58.029 0)" fill="#fff"/><ellipse cx="0.921" cy="0.881" rx="0.921" ry="0.881" transform="translate(66.319 0)" fill="#fff"/><path d="M492.073,126.183a.922.922,0,1,1-.922-.881A.9.9,0,0,1,492.073,126.183Z" transform="translate(-415.622 -125.302)" fill="#fff"/><path d="M500.519,126.183a.922.922,0,1,1-.922-.881A.9.9,0,0,1,500.519,126.183Z" transform="translate(-415.778 -125.302)" fill="#fff"/></g><g transform="translate(0 77.516)"><ellipse cx="0.921" cy="0.881" rx="0.921" ry="0.881" transform="translate(0 0)" fill="#fff"/><path d="M424.5,133.691a.922.922,0,1,1-.92-.881A.9.9,0,0,1,424.5,133.691Z" transform="translate(-414.37 -132.81)" fill="#fff"/><ellipse cx="0.921" cy="0.881" rx="0.921" ry="0.881" transform="translate(16.58 0)" fill="#fff"/><path d="M441.4,133.691a.922.922,0,1,1-.922-.881A.9.9,0,0,1,441.4,133.691Z" transform="translate(-414.683 -132.81)" fill="#fff"/><path d="M449.841,133.691a.922.922,0,1,1-.921-.881A.9.9,0,0,1,449.841,133.691Z" transform="translate(-414.84 -132.81)" fill="#fff"/><ellipse cx="0.921" cy="0.881" rx="0.921" ry="0.881" transform="translate(41.45 0)" fill="#fff"/><path d="M466.734,133.691a.922.922,0,1,1-.922-.881A.9.9,0,0,1,466.734,133.691Z" transform="translate(-415.152 -132.81)" fill="#fff"/><ellipse cx="0.921" cy="0.881" rx="0.921" ry="0.881" transform="translate(58.029 0)" fill="#fff"/><ellipse cx="0.921" cy="0.881" rx="0.921" ry="0.881" transform="translate(66.319 0)" fill="#fff"/><path d="M492.073,133.691a.922.922,0,1,1-.922-.881A.9.9,0,0,1,492.073,133.691Z" transform="translate(-415.622 -132.81)" fill="#fff"/><path d="M500.519,133.691a.922.922,0,1,1-.922-.881A.9.9,0,0,1,500.519,133.691Z" transform="translate(-415.778 -132.81)" fill="#fff"/></g></g></g><path d="M90.1,1.675a1,1,0,0,1,.213.023q.553.12,1.1.248h.006l.024.006.008,0,.022.005.009,0,.019,0,.011,0,.018,0,.012,0,.017,0,.012,0,.017,0,.013,0,.015,0,.014,0,.014,0,.016,0,.01,0,.046.011h0l.021.005.008,0,.022.005.007,0,.021.005.008,0,.021.005.007,0,.022.005.007,0,.022.005h.006l.023.005h.005l.024.006h0q2.187.527,4.32,1.181h0l.025.008h0l.024.007h0l.024.007h0l.024.007h0l.162.05h0l.022.007.006,0,.022.007.005,0,.022.007.006,0,.021.007.007,0,.02.006.008,0,.02.006.008,0,.02.006.008,0,.02.006.007,0,.021.007h0l.078.025h0l.021.007.008,0,.019.006.009,0,.019.006.01,0,.018.006.011,0L97,3.482l.011,0,.018.006.01,0,.019.006.009,0,.02.006.007,0,.021.007.005,0,.1.031.01,0,.017.006.011,0,.017.005.012,0,.016.005.012,0,.016.005.013,0,.015,0,.013,0,.015,0,.014,0,.015,0,.014,0,.014,0,.015,0,.014,0,.012,0,.035.011.008,0,.017.006.011,0,.017.006.011,0,.016.005.012,0,.015.005.013,0,.014,0,.014,0,.015,0,.013,0,.015,0,.013,0,.015.005.013,0,.016.005.012,0,.016.005.01,0,.041.013h0l.014,0,.015,0,.015,0,.013,0,.016.005.012,0,.016.005.012,0,.016.005.012,0L98,3.809l.012,0,.011,0a1,1,0,0,1-.634,1.9,72.162,72.162,0,0,0-7.5-2.061A1,1,0,0,1,90.1,1.675Zm14.943,4.989a1,1,0,0,1,.415.091l.247.114h0l.022.01.005,0,.021.01.006,0,.02.009.008,0,.019.009.006,0,.02.009.006,0,.062.029.01,0,.014.007.014.006.012.006.015.007.012.006.016.007.011.005.016.007.011.005.017.008.01,0,.02.009.006,0,.025.012h0l.056.027h0l.027.013,0,0,.023.011.005,0,.023.011.005,0,.024.011,0,0,.026.012h0q3.2,1.518,6.223,3.326a1,1,0,1,1-1.025,1.717,72.507,72.507,0,0,0-6.886-3.624,1,1,0,0,1,.418-1.909Zm13.528,8.076a1,1,0,0,1,.6.2h0l.023.017,0,0,.022.016,0,0,.022.017,0,0,.024.018h0q1.347,1.018,2.646,2.1h0l.144.119h0l.023.019,0,0,.021.017,0,0,.02.017,0,0,.02.016,0,0,.02.017,0,0,.047.039h0l.022.018.007.006.016.013.008.007.014.012.01.008.013.011.01.008.013.011.01.008.014.011.009.008.014.012.009.008.02.017.008.007.016.014.01.009.012.011.012.01.01.009.013.011.01.008.013.011.009.007.014.012.008.007.015.012.005,0,.1.086h0l.02.017,0,0,.019.016,0,0,.019.017h0q1.3,1.113,2.554,2.284a1,1,0,0,1-1.37,1.457,73.1,73.1,0,0,0-5.957-5.008,1,1,0,0,1,.6-1.8Zm11.5,10.769a1,1,0,0,1,.756.345q1.119,1.3,2.178,2.647h0l.015.02,0,0,.015.019,0,0,.015.02,0,0,.015.02h0l.082.106,0,0,.013.017,0,.006.012.016.006.007.012.016.005.007.012.016.006.008.012.015.006.008.011.015.006.008.025.033,0,0,.011.014.007.009.01.013.008.011.01.013.008.01.01.013.008.011.009.012.009.012L133.4,29l.011.014.007.009.012.016.006.008.018.023,0,0,.016.02,0,.006.014.018.006.008.012.016.007.009.013.016,0,.006.014.019,0,.005.016.021,0,0,.018.024h0l.057.074v0l.017.022,0,0,.016.022,0,0,.017.022,0,0,.018.024h0q1.031,1.356,2,2.76a1,1,0,1,1-1.646,1.137,73.024,73.024,0,0,0-4.759-6.158,1,1,0,0,1,.757-1.653Zm8.952,12.964a1,1,0,0,1,.88.523q.119.219.236.438h0l.014.026h0l.014.027h0l.087.164v0l.013.024,0,0,.013.024,0,0,.013.024v0l.013.025v0l.057.109,0,0,.012.023,0,.006.011.021,0,.006.011.021,0,.007.01.02,0,.007.011.02,0,.006.011.022,0,0,.014.027h0l.029.055v0l.013.025,0,.006.011.021,0,.007.01.019,0,.009.01.019,0,.008.01.019,0,.008.01.019,0,.007.01.02,0,.007.028.054v0l.013.025,0,.006.011.021,0,.008.01.019,0,.007.01.019,0,.008.01.019,0,.007.01.019,0,.008.011.022,0,0,.041.081,0,.007.01.02,0,.008.009.019,0,.009.009.017,0,.01.009.017.005.011.009.017,0,.009.01.019,0,.008.011.022,0,0,.028.054,0,0,.011.023,0,.007.01.02,0,.008.009.019,0,.009.009.018,0,.009.009.018,0,.008.01.02,0,.007.01.02,0,.007.041.081,0,.006.01.02,0,.009.009.018,0,.008.01.019,0,.008.01.02,0,.007.01.02,0,.007.012.025h0l.041.083v0l.012.025,0,0,.011.023,0,.006.011.021,0,.006.01.021,0,.006.011.023,0,0,.012.024v0l.054.111v0l.012.025,0,0,.012.024,0,0,.012.024,0,0,.012.024,0,0,.013.026h0l.1.2h0l.013.028h0q.986,2.039,1.849,4.144a1,1,0,0,1-1.851.759,72.373,72.373,0,0,0-3.335-7.03,1,1,0,0,1,.878-1.477ZM145,53.049a1,1,0,0,1,.96.723q.872,3.026,1.492,6.153h0l.006.028v0l.005.027v0l.005.026v0l.005.027v0l.005.027v0l.024.121v.007l0,.024v.007l0,.022,0,.01,0,.019,0,.012,0,.018,0,.013,0,.017,0,.013,0,.016,0,.015,0,.015,0,.015,0,.013,0,.017,0,.011,0,.019v0l.021.109v0l0,.025v0l0,.025v0l0,.025v0l0,.026v0l0,.026v0c.051.276.1.548.149.826a1,1,0,0,1-1.971.34,72.243,72.243,0,0,0-1.748-7.582A1,1,0,0,1,145,53.049Zm2.707,15.52a1,1,0,0,1,1,.932c.059.9.1,1.8.128,2.711h0c0,.05,0,.1,0,.147v0l0,.114v.038l0,.081v.064h0v.126l0,.075v.747s0,.008,0,.01V73.7c0,.008,0,.015,0,.023v.081c0,.005,0,.009,0,.014v.258c0,.005,0,.007,0,.012s0,.016,0,.024,0,.01,0,.012,0,.021,0,.031,0,0,0,0,0,.023,0,.035,0,.009,0,.011,0,.016,0,.025v.012c0,.009,0,.017,0,.026v.01c0,.012,0,.023,0,.035v.047c0,.008,0,.017,0,.025V74.4c0,.012,0,.024,0,.035h0c0,.01,0,.017,0,.027v.009c0,.005,0,.014,0,.019v.01c0,.005,0,.014,0,.019s0,.006,0,.009,0,.015,0,.025,0,0,0,0,0,.016,0,.026,0,.006,0,.008,0,.014,0,.019,0,.006,0,.009,0,.015,0,.02,0,.006,0,.009,0,.016,0,.024,0,0,0,.007V74.7s0,.006,0,.009,0,.014,0,.019v.01c0,.005,0,.013,0,.018s0,.006,0,.01,0,.016,0,.023,0,0,0,.006,0,.016,0,.026,0,.005,0,.008v.088c0,.01,0,.014,0,.024v.01c0,.005,0,.012,0,.018s0,.007,0,.011,0,.013,0,.018v.009c0,.008,0,.014,0,.022v.033s0,.007,0,.01v.138s0,.007,0,.011v.611q0,.045,0,.09v.029q0,.059,0,.117h0q-.015.719-.045,1.435a1,1,0,0,1-2-.081c.04-.99.061-2,.061-2.989,0-1.6-.053-3.211-.156-4.8a1,1,0,0,1,.933-1.063Zm-.645,15.746a1.01,1.01,0,0,1,.148.011,1,1,0,0,1,.842,1.134l0,.015v.005l0,.024v.006l0,.023v.006l0,.023v.005l0,.025v0l-.021.141h0l0,.023v.007l0,.022V85.8l0,.022v.007l0,.022v.008l0,.021v.008l0,.022v.007l0,.022v.006l0,.023v.005l0,.024v0l-.021.136v.005l0,.022v.008l0,.021V86.2l0,.02,0,.01,0,.02v.009l0,.02v.009l0,.021v.009l0,.021v.009l0,.021v.007l0,.023v0l-.022.138v0l0,.023v.006l0,.022V86.6l0,.02,0,.009,0,.02,0,.009,0,.02,0,.01,0,.021v.008l0,.021v.009l0,.021v.006l0,.023v0l-.023.139h0l0,.025v0l0,.023v.006l0,.022v.008l0,.021v.008l0,.022V87.1l0,.022v.007l0,.022v.008l0,.023v0l-.029.167v0l0,.023v.007l0,.023v.006l0,.023v.006l0,.023v.006l0,.022V87.5l0,.022v.007l0,.023v.006l0,.023v0l0,.025v0l-.02.111h0l0,.025v0l0,.023v.006l0,.023v.006l0,.022v.008l0,.022v.006l0,.023V87.9l0,.024v0l0,.025v0l0,.026h0l-.031.17v0l0,.026v0l0,.025v0l0,.024v.006l0,.023v.005l0,.023V88.3l0,.024v0l-.005.027h0l-.043.226v0l0,.025v0l0,.025v0l-.005.026h0l-.005.028h0c-.018.095-.037.189-.056.284h0l-.005.027h0l-.006.028h0Q147,91.193,146.45,93.3a1,1,0,0,1-1.934-.51,72.332,72.332,0,0,0,1.557-7.624A1,1,0,0,1,147.061,84.315ZM143.08,99.556a1,1,0,0,1,.936,1.353q-.439,1.152-.914,2.285h0l-.087.206,0,0-.01.023,0,0-.01.023v0l-.01.024h0l-.011.025h0l-.066.155v0l-.01.024v0l-.01.024v0l-.01.023v0l-.01.023v0l-.01.024h0l-.055.128h0l-.01.023,0,0-.009.021,0,.006-.009.021,0,.006-.009.021,0,.006-.009.021,0,0-.01.023h0l-.045.1h0l-.01.022,0,.005-.009.02,0,.008-.008.019,0,.008-.008.019,0,.008-.008.019,0,.008-.008.019,0,.006-.009.021h0l-.044.1,0,.005-.009.02,0,.007-.009.02,0,.007-.008.019,0,.008-.009.019,0,.006-.009.02,0,.006-.009.021v0l-.044.1v0l-.009.019,0,.008-.008.018,0,.009-.008.018,0,.009-.008.018,0,.008-.008.018,0,.01-.007.017,0,.009-.008.018,0,.008-.029.064,0,.007-.007.016-.005.011-.007.015-.005.012-.007.014-.006.013-.007.015-.005.011-.007.015-.006.012-.007.015-.006.013-.006.014-.006.014-.006.014-.007.015-.008.018-.009.021-.006.012-.007.015-.006.013-.006.014-.006.014-.006.014-.006.013-.006.014-.006.013-.007.015-.006.013-.006.014-.006.013-.007.016-.005.011-.008.018,0,.009-.012.027,0,.007-.009.019-.006.012-.007.015-.006.012-.007.015-.006.012-.007.015-.006.012-.007.015-.006.012-.007.016,0,.01-.008.018,0,.01-.009.02,0,.007-.011.023,0,.005-.013.028v0l-.011.025,0,.008-.009.02,0,.008-.009.019,0,.008-.009.02,0,.007-.009.02,0,.007-.009.02,0,.007-.01.021,0,.006-.013.027h0l-.026.056v0l-.012.026,0,0-.011.023,0,.006-.01.021,0,.007-.01.021,0,.006-.01.021,0,.007-.011.023,0,0-.066.139,0,0-.012.024,0,0-.011.023,0,0-.011.024v0l-.012.026h0q-.417.872-.855,1.731a1,1,0,1,1-1.781-.909,72.312,72.312,0,0,0,3.158-7.111A1,1,0,0,1,143.08,99.556Zm-7.16,14.033a1,1,0,0,1,.836,1.548q-1.637,2.5-3.466,4.86h0l-.019.024h0l-.133.171,0,0-.017.022,0,0-.016.021,0,0-.017.021,0,0-.076.1,0,0-.017.021,0,0-.014.018-.006.008-.013.016-.006.007-.013.016-.006.008-.013.016-.006.008-.013.016-.006.007-.016.02-.006.008-.015.019-.007.009-.011.014-.009.011-.009.012-.01.013-.008.01-.01.013-.008.011-.01.013-.008.009-.011.014-.007.009-.012.015,0,0-.067.084h0l-.015.019,0,0-.015.019,0,0-.015.019,0,0c-.193.242-.385.479-.582.719a1,1,0,0,1-1.545-1.27,72.969,72.969,0,0,0,4.6-6.274A1,1,0,0,1,135.92,113.589Zm-9.989,12.186a1,1,0,0,1,.7,1.71q-.731.719-1.48,1.417h0l-.019.018,0,0-.019.017h0l-.1.094h0l-.018.017,0,0-.016.015-.006.006-.015.014-.005.005-.016.014-.006.005-.016.015,0,0-.058.053,0,0-.016.015-.006.005-.014.013-.008.008-.013.012-.009.008-.013.012-.009.009-.013.012-.009.008-.012.011-.011.01-.011.01-.012.011-.01.009-.021.019-.009.008-.013.012-.01.009-.012.011-.01.009-.012.011-.01.009-.012.011-.009.008-.013.012-.009.008-.015.013-.007.006-.018.016,0,0-.045.04-.006.005-.016.015-.007.006-.015.014-.007.006-.016.015-.006.006-.016.015-.006.006-.018.016,0,0-.068.062h0l-.022.02,0,0-.02.018,0,0-.019.017,0,0-.019.017,0,0-.021.018h0l-.115.1h0l-.021.019,0,0-.021.019,0,0-.022.02h0q-1.62,1.446-3.324,2.8a1,1,0,1,1-1.243-1.567,73.146,73.146,0,0,0,5.831-5.155A1,1,0,0,1,125.931,125.775Zm-12.347,9.789a1,1,0,0,1,.535,1.846,74.3,74.3,0,0,1-6.981,3.9,1,1,0,1,1-.88-1.8,72.583,72.583,0,0,0,6.793-3.795A1,1,0,0,1,113.584,135.564Zm-14.146,6.93a1,1,0,0,1,.343,1.94,73.786,73.786,0,0,1-7.661,2.314,1,1,0,0,1-.47-1.944,72.142,72.142,0,0,0,7.447-2.249A1,1,0,0,1,99.438,142.495Zm-15.3,3.733a1,1,0,0,1,.134,1.991,74.945,74.945,0,0,1-7.981.622,1,1,0,0,1-.046-2,73.278,73.278,0,0,0,7.76-.6A1.009,1.009,0,0,1,84.135,146.227Zm-23.574-.673a1.007,1.007,0,0,1,.189.018,72.73,72.73,0,0,0,7.71,1.047,1,1,0,1,1-.163,1.993q-.629-.051-1.255-.113h0l-.031,0h0l-.438-.045h0l-.03,0h0l-.03,0h0l-.343-.037h0l-.03,0h0l-.03,0h0l-.029,0h0l-.029,0h0l-.03,0h0l-.311-.036h0l-.031,0h0l-.03,0h0l-.03,0h0l-.03,0h0l-.4-.049h0q-2.423-.3-4.8-.755a1,1,0,0,1,.187-1.982ZM45.5,140.943a1,1,0,0,1,.394.081,72.177,72.177,0,0,0,7.3,2.677,1,1,0,0,1-.585,1.912h0l-.026-.008h0l-.028-.009h0q-2.553-.784-5.026-1.744h0l-.027-.011h0l-.027-.01h0l-.026-.01h0l-.027-.01h0l-.144-.056h0l-.025-.01,0,0-.023-.009-.006,0-.021-.008-.007,0-.022-.009-.006,0-.023-.009-.005,0-.026-.01h0L47,143.647l-.006,0-.021-.008-.01,0-.017-.007-.011,0-.017-.007-.011,0-.017-.007-.012,0-.017-.007-.011,0-.017-.007-.011,0-.018-.007-.01,0-.019-.007-.009,0-.027-.011-.008,0-.02-.008-.012,0-.015-.006-.013-.005-.014-.006-.014-.006-.013-.005-.015-.006-.013-.005-.015-.006-.012,0-.015-.006-.012,0-.016-.007-.01,0-.017-.007-.009,0-.091-.037-.008,0-.019-.008-.007,0-.019-.008-.009,0-.018-.007-.009,0-.018-.007-.009,0-.019-.008-.007,0-.021-.008-.005,0-.022-.009h0l-.128-.053h0l-.025-.01h0l-.025-.01h0l-.024-.01h0l-.024-.01h0c-.295-.122-.586-.245-.878-.37a1,1,0,0,1,.4-1.918Zm-13.725-7.734a1,1,0,0,1,.581.187,72.782,72.782,0,0,0,6.564,4.179,1,1,0,1,1-.982,1.742q-2.4-1.354-4.69-2.877h0q-1.04-.692-2.054-1.417a1,1,0,0,1,.582-1.814ZM20.007,122.729a1,1,0,0,1,.741.328,73.177,73.177,0,0,0,5.527,5.479,1,1,0,0,1-1.33,1.494l-.018-.016,0,0L24.91,130l-.008-.007-.013-.012-.009-.008-.013-.011-.009-.008-.013-.012-.008-.007-.014-.012-.008-.007L24.8,129.9l-.008-.007-.014-.013,0,0-.053-.047-.008-.007-.014-.012-.008-.007-.014-.013-.007-.006-.015-.013-.007-.006-.014-.013-.007-.006-.015-.014,0,0-.017-.016h0l-.079-.072,0,0-.016-.014-.006-.005-.015-.014-.007-.006-.015-.014-.006-.005-.016-.014-.005,0-.016-.015,0,0-.078-.071,0,0-.017-.015,0,0-.017-.015,0,0-.016-.015-.005,0-.017-.015,0,0-.017-.016,0,0-.1-.092h0l-.018-.016,0,0-.017-.015,0,0-.017-.015,0,0-.017-.016h0l-.1-.093h0l-.019-.018,0,0-.017-.016,0,0-.018-.016,0,0-.019-.017h0l-.119-.111,0,0-.017-.016,0,0-.017-.016,0,0-.018-.017,0,0-.141-.132h0l-.02-.019h0l-.02-.018h0l-.141-.133h0l-.018-.017,0,0-.018-.017,0,0-.018-.017h0l-.118-.112,0,0-.017-.016,0,0-.017-.016,0,0-.017-.016,0,0-.017-.016,0,0L23,128.234h0l-.017-.016,0,0-.016-.016,0,0-.016-.016,0,0-.016-.015-.005-.005-.016-.015,0,0-.017-.016h0l-.077-.074,0,0-.016-.016,0,0L22.759,128,22.753,128l-.016-.015,0,0-.016-.016,0,0-.017-.016,0,0-.075-.073,0,0-.015-.014-.007-.007-.014-.014-.006-.006-.015-.014-.007-.006-.014-.013-.007-.007-.014-.013-.007-.007-.014-.014,0,0-.05-.049-.008-.008-.012-.012-.009-.008-.013-.012-.008-.008-.013-.013-.008-.008-.012-.012-.009-.009-.012-.011-.009-.009-.012-.011-.01-.009-.011-.011-.02-.02-.008-.008-.013-.012-.01-.01-.011-.01-.011-.011-.01-.01-.011-.011-.011-.011-.01-.01-.011-.011-.01-.01-.012-.012-.009-.009-.013-.013-.008-.008-.017-.017-.007-.006-.019-.018-.008-.008-.013-.013-.009-.009-.012-.012-.01-.01-.012-.012L22,127.265l-.013-.013-.008-.008-.014-.014-.007-.007-.015-.015-.006-.006-.043-.043,0,0-.02-.02,0,0-.017-.017-.006-.006-.016-.016,0,0-.017-.017,0,0-.018-.018,0,0-.019-.019,0,0-.066-.066h0l-.021-.021,0,0-.019-.019,0,0-.019-.019,0,0-.019-.019,0,0-.02-.02,0,0-.131-.133h0l-.022-.022h0q-1.108-1.124-2.168-2.293a1,1,0,0,1,.741-1.672Zm-9.274-12.738a1,1,0,0,1,.868.5,72.806,72.806,0,0,0,4.237,6.527,1,1,0,0,1-1.617,1.177q-.514-.706-1.012-1.424h0l-.124-.179h0l-.017-.024,0,0-.016-.023v0l-.017-.024h0l-.1-.153,0,0-.016-.023,0,0-.016-.023,0,0-.016-.024h0l-.087-.128,0,0-.016-.024h0l-.016-.024v0l-.017-.024h0l-.087-.129h0l-.017-.025v0l-.015-.023,0,0-.015-.022,0,0-.015-.023,0,0-.069-.1h0l-.017-.025h0l-.016-.023,0,0-.015-.022,0,0-.014-.022,0,0-.015-.023v0l-.069-.1h0l-.017-.025,0,0-.015-.023,0,0-.014-.022,0,0-.014-.022,0,0-.015-.023,0,0-.068-.1h0l-.016-.024,0,0-.014-.022,0,0-.014-.021,0,0-.014-.021,0,0-.016-.024h0l-.068-.1,0,0-.015-.023,0,0-.013-.02,0-.005-.013-.02,0-.006-.014-.021,0,0-.015-.023,0,0-.051-.078h0l-.016-.024,0,0-.013-.021,0-.005-.013-.021,0-.005-.014-.021,0,0-.014-.022,0,0-.016-.025h0l-.05-.078v0l-.015-.024,0,0-.014-.023,0,0-.014-.022,0,0-.014-.022,0,0-.015-.024h0l-.067-.1,0,0-.014-.022,0-.005-.013-.021,0-.005-.013-.02,0-.006-.014-.021,0,0-.066-.1v0l-.015-.024,0,0-.013-.021,0-.006-.012-.019,0-.007-.012-.019,0-.007-.012-.02,0-.006-.015-.023v0l-.049-.078,0,0-.013-.021,0-.006-.012-.019,0-.008-.011-.018,0-.007-.012-.02,0-.006-.013-.021,0,0-.014-.023,0,0-.032-.052,0,0-.013-.021-.005-.008-.011-.017-.006-.009-.01-.017-.005-.008-.011-.017-.005-.008-.011-.018,0-.007-.011-.019,0-.007-.014-.023v0l-.016-.026,0,0-.014-.023,0-.007-.011-.018-.006-.009-.01-.017L11,113.394l-.01-.016-.006-.01-.009-.015-.006-.01-.009-.015-.006-.011-.01-.016-.006-.01-.011-.019,0-.007-.015-.025-.006-.01-.01-.016-.007-.012-.008-.013-.008-.012-.008-.013-.008-.013-.008-.012-.008-.013-.008-.013-.008-.013-.007-.012-.008-.013-.009-.014-.007-.011-.015-.024,0-.007L10.761,113l-.008-.014-.007-.012-.008-.013-.007-.012-.008-.013-.007-.012-.008-.013L10.7,112.9l-.009-.014-.007-.011-.009-.014-.007-.011-.009-.014-.005-.009-.038-.064h0l-.011-.018,0-.007-.011-.018,0-.007-.011-.018,0-.007-.011-.018,0-.007-.011-.018,0-.007-.011-.019v0l-.085-.142h0l-.013-.022,0,0-.013-.022h0c-.185-.312-.367-.622-.548-.937a1,1,0,0,1,.868-1.5ZM4.4,95.57a1,1,0,0,1,.953.7,72.176,72.176,0,0,0,2.741,7.281,1,1,0,0,1-1.829.809Q5,101.5,3.984,98.52h0l-.009-.025v0l-.008-.024v0l-.008-.023v0l-.008-.023,0-.005-.008-.023v0l-.042-.125,0-.008-.006-.017,0-.012L3.877,98.2l0-.013,0-.015,0-.014,0-.013-.005-.015,0-.013L3.843,98.1l0-.012-.006-.018,0-.011-.008-.023,0,0-.02-.059v0l-.009-.026,0-.006-.008-.023,0-.005-.008-.024,0-.005-.008-.024,0-.005-.008-.024,0-.005L3.742,97.8v0q-.152-.462-.3-.926a1,1,0,0,1,.954-1.3ZM1.3,80.123a1,1,0,0,1,.995.91,72.663,72.663,0,0,0,1.115,7.7,1,1,0,0,1-1.96.4c-.079-.393-.154-.784-.226-1.179h0l-.005-.027h0l0-.027v0l0-.025v0l0-.024v-.007l0-.023V87.8l0-.024v-.005l0-.024v-.006l0-.024v0l-.013-.074,0-.01,0-.013,0-.017,0-.013,0-.017,0-.013,0-.017,0-.012,0-.018,0-.011,0-.02,0-.01,0-.02,0-.01,0-.02,0-.01,0-.021v-.008l0-.023v-.007l0-.024v-.005l0-.027v0l-.042-.245h0Q.649,84.613.393,82.124v0l0-.028v0l0-.026v-.006l0-.025v-.007L.38,82v-.009l0-.021v-.01l0-.02v-.01l0-.02V81.9l0-.019v-.012l0-.018v-.013l0-.018v-.013l0-.016L.35,81.7v-.007l0-.023v-.006l0-.024v-.006l0-.024V81.6l0-.023v-.007l0-.023V81.54l0-.024v0l0-.026v0l0-.028h0Q.316,81.333.3,81.211a1,1,0,0,1,.906-1.084Q1.257,80.123,1.3,80.123Zm.251-15.757a1.011,1.011,0,0,1,.123.008,1,1,0,0,1,.87,1.115,73.378,73.378,0,0,0-.537,7.764,1,1,0,1,1-2-.032q.038-2.4.227-4.764h0l0-.031h0l0-.03h0l0-.031h0l0-.031h0q.02-.249.042-.5h0q.114-1.3.273-2.591A1,1,0,0,1,1.553,64.366Zm3.6-15.337a1,1,0,0,1,.943,1.332,72.148,72.148,0,0,0-2.183,7.467,1,1,0,0,1-1.948-.452q.222-.945.467-1.879h0L2.5,55.22v0l.006-.024v0l.006-.022,0-.008.006-.021,0-.007.006-.021,0-.008.006-.021,0-.007.006-.021,0-.006.027-.1,0-.006.005-.02,0-.009,0-.018,0-.011,0-.017,0-.011,0-.017,0-.012,0-.017,0-.012,0-.016,0-.013,0-.016,0-.014,0-.014,0-.015,0-.015,0-.015,0-.014.008-.028,0-.011.005-.019,0-.012,0-.017,0-.013,0-.016,0-.013,0-.016,0-.013,0-.017,0-.013,0-.015,0-.014,0-.015,0-.013,0-.016,0-.013,0-.018,0-.011.005-.019,0-.01.008-.029v0l.007-.025,0-.008.006-.021,0-.011,0-.017,0-.013,0-.016,0-.012,0-.017,0-.012.005-.018,0-.011.005-.019,0-.01.006-.021,0-.007.007-.023,0-.006L2.838,54h0l.009-.03h0l.008-.029v-.005l.007-.023,0-.01.005-.019,0-.011.005-.018,0-.012.005-.018,0-.011,0-.017,0-.013,0-.017,0-.012,0-.016,0-.012.005-.018,0-.01.006-.022,0-.007.017-.058,0-.007.006-.022,0-.01.005-.019,0-.012,0-.016,0-.012,0-.016,0-.013,0-.016,0-.012,0-.017,0-.012.005-.018,0-.011.005-.019,0-.011.007-.022,0-.006.017-.059,0-.007.006-.022,0-.011.005-.018,0-.011.005-.018,0-.011.005-.018,0-.011,0-.017,0-.013.005-.017,0-.012,0-.017,0-.013,0-.016,0-.013,0-.014,0-.015,0-.015.006-.021.006-.021,0-.011.005-.018,0-.013,0-.015,0-.015,0-.014,0-.014,0-.015,0-.014,0-.015,0-.014,0-.014,0-.015,0-.014,0-.014,0-.015,0-.014,0-.013,0-.016,0-.01.012-.039,0-.006.005-.018,0-.01.005-.018,0-.011.005-.018,0-.011.005-.017,0-.011.005-.017,0-.011.005-.018,0-.01.006-.018,0-.01.006-.018,0-.011.006-.018,0-.009.006-.02v0l.023-.075,0-.005.007-.021,0-.007.006-.02,0-.008.006-.019,0-.009.006-.02,0-.008.006-.02,0-.009.006-.02,0-.008.006-.02,0-.007.007-.022h0l.042-.133v0l.007-.023,0,0,.007-.022,0-.007.007-.022v0l.007-.023v0l.008-.024v0l.008-.025h0l.069-.216h0l.008-.026h0l.008-.026v0q.29-.9.6-1.785A1,1,0,0,1,5.152,49.029Zm6.807-14.208a1,1,0,0,1,.849,1.527,72.559,72.559,0,0,0-3.735,6.826,1,1,0,1,1-1.8-.864q.433-.9.89-1.8v0l.013-.025v0l.013-.025v0l.013-.025v0l.013-.026v0l.057-.11,0,0,.012-.023,0,0,.012-.022,0-.006.011-.021,0-.006.011-.021,0-.006.012-.024v0l.043-.082v0l.013-.025,0,0,.012-.022,0-.006.011-.021,0-.007.01-.02,0-.007.011-.02,0-.007.011-.021,0-.006.012-.023,0,0,.029-.055h0l.013-.025,0-.006.011-.021,0-.006.011-.02,0-.008.01-.018,0-.009.01-.018,0-.009.01-.019,0-.008.01-.019,0-.007.028-.053,0,0,.012-.022,0-.008.01-.018.005-.01.009-.017.005-.01.009-.017.005-.01.009-.017.005-.01.009-.017.005-.009.01-.019,0-.007.028-.053,0-.006L8.8,39.3l0-.009.01-.018,0-.009.009-.017.006-.01.008-.016.006-.011.008-.015.006-.012.008-.015.005-.01.01-.018,0-.008L8.9,39.1h0l.014-.026,0-.008.01-.019,0-.008.01-.018.005-.01L8.96,39l.005-.01.009-.017.005-.01.01-.018,0-.009L9,38.916l0-.009.011-.02,0-.007.029-.053,0-.006.011-.02,0-.009.009-.017.005-.01.009-.017.006-.011.008-.015.006-.011.009-.016.005-.01.01-.018,0-.008.01-.019,0-.007.029-.053,0,0,.012-.022,0-.007.01-.019.005-.009.01-.017,0-.009.01-.017,0-.009.01-.018,0-.008.01-.019,0-.007.012-.022,0,0,.03-.053,0,0,.012-.022,0-.007.011-.019,0-.008.011-.019,0-.008.011-.019,0-.007L9.4,38.2l0-.007.012-.022,0,0,.014-.026h0l.03-.054h0l.015-.026,0,0,.013-.023,0-.005L9.5,38.01l0-.006.012-.021,0-.006.012-.022,0,0,.013-.023,0,0,.015-.026h0l.046-.081h0l.014-.025,0,0,.014-.024,0,0,.014-.024,0,0,.014-.024v0l.092-.162h0l.015-.026h0l.015-.026h0q.636-1.11,1.309-2.2A1,1,0,0,1,11.959,34.821Zm9.681-12.431a1,1,0,0,1,.719,1.7,73.131,73.131,0,0,0-5.1,5.876,1,1,0,1,1-1.578-1.229A74.848,74.848,0,0,1,20.92,22.7,1,1,0,0,1,21.639,22.391ZM33.737,12.3a1,1,0,0,1,.556,1.832,72.993,72.993,0,0,0-6.234,4.659,1,1,0,1,1-1.281-1.536q1.318-1.1,2.687-2.139h0l.124-.094h0L29.613,15l0,0,.019-.015.006,0,.018-.014.007,0,.018-.013.007,0,.017-.013.007-.005.019-.014,0,0,.024-.018h0l.022-.016.009-.007.014-.011.011-.008.012-.009.012-.009.011-.008.013-.01.011-.008.013-.01.011-.008.014-.01.008-.006.015-.011,0,0,.083-.061,0,0,.018-.014,0,0,.018-.013.006,0,.018-.013,0,0,.02-.015h0q1.5-1.116,3.064-2.156A1,1,0,0,1,33.737,12.3Zm13.97-7.283a1,1,0,0,1,.364,1.932,72.331,72.331,0,0,0-7.082,3.22,1,1,0,1,1-.925-1.773q1.021-.532,2.061-1.034h0l.168-.081h0l.025-.012,0,0,.022-.01.007,0,.02-.01.008,0,.018-.009.009,0,.018-.009.009,0,.018-.009.009,0,.019-.009.008,0,.024-.012.009,0,.02-.009.011-.005.016-.008.012-.006.015-.007.013-.006.013-.006.015-.007.011-.005.015-.007.012-.006.015-.007.01,0,.017-.008.007,0,.02-.009h0l.074-.035h0l.021-.01.005,0L42.871,7l.008,0,.018-.009.008,0,.019-.009.008,0,.019-.009.007,0,.02-.009.006,0L43,6.941h0l.126-.059h0l.023-.011h0l.022-.01,0,0,.023-.011h0l.024-.011h0l.2-.094h0l.025-.011h0l.025-.012h0l.2-.093h0l.025-.011h0l.025-.011h0l.2-.092h0l.025-.011h0l.024-.011h0l.2-.091h0l.024-.011h0l.023-.01,0,0,.023-.01h0l.024-.011h0l.151-.067,0,0,.021-.009.006,0,.02-.009.008,0,.019-.009.007,0,.02-.009.007,0,.019-.009.007,0,.019-.008.006,0,.071-.031h0l.018-.008.01,0,.016-.007.011,0,.015-.007.012-.005.015-.006.013-.006.013-.006.014-.006.013-.006.015-.006.012-.005.015-.007.012-.005.024-.01h0l.027-.012.009,0,.019-.008.01,0,.018-.008.01,0,.018-.008.009,0,.019-.008.009,0L45.106,6l.007,0,.021-.009.007,0,.024-.01h0l.115-.049h0l.028-.012h0L45.34,5.9h0l.027-.012h0q.979-.416,1.973-.8A1,1,0,0,1,47.707,5.014ZM62.914.9a1,1,0,0,1,.154,1.988A72.3,72.3,0,0,0,55.46,4.509a1,1,0,0,1-.526-1.93c.557-.151,1.114-.295,1.676-.433h0l.024-.006h0l.023-.006.007,0,.022-.005.007,0,.02,0,.009,0,.02,0,.008,0,.021-.005.007,0,.023-.005h0l.1-.025.007,0,.018,0,.012,0,.016,0,.013,0,.016,0,.014,0,.015,0,.014,0,.015,0,.015,0,.014,0,.016,0,.013,0,.017,0,.011,0,.02,0,.009,0,.023-.006H57.2L57.226,2h0l.06-.014h0l.028-.006h.006l.023-.005.008,0,.022-.005.007,0,.023-.005.007,0,.024-.006h.006l.024-.006h.006l.025-.006h0l.027-.006h0l.3-.07h0Q60.267,1.3,62.757.91A1.008,1.008,0,0,1,62.914.9ZM74.431,0h1.2c.05,0,.1,0,.148,0h.392l.417.011h0q2.945.084,5.828.393a1,1,0,0,1-.215,1.988A73.585,73.585,0,0,0,74.431,2h0c-1.2,0-2.422.03-3.621.089a1,1,0,0,1-.1-2C71.673.044,72.646.015,73.619,0h.812Z" transform="translate(0)" fill="#12263f"/></g><circle cx="75" cy="75" r="75" transform="translate(1145.214 890.697)" fill="#e8f5f5"/><circle cx="67" cy="67" r="67" transform="translate(1153.214 898.697)" fill="#f6f7f8"/><g transform="translate(1158.523 902.188)"><g transform="translate(3.69 1.51)"><g transform="translate(23.797 28.152)"><g transform="translate(0.961 0.921)"><path d="M83.2,57.751a34.5,34.5,0,0,1-4.1,9.9A8.392,8.392,0,0,0,67.664,79.089a34.269,34.269,0,0,1-9.9,4.1,8.4,8.4,0,0,0-16.187,0,34.5,34.5,0,0,1-9.9-4.1A8.392,8.392,0,0,0,20.236,67.654a34.269,34.269,0,0,1-4.1-9.9,8.4,8.4,0,0,0,0-16.187,34.5,34.5,0,0,1,4.1-9.9A8.392,8.392,0,0,0,31.671,20.226a34.269,34.269,0,0,1,9.9-4.1,8.4,8.4,0,0,0,16.187,0,34.5,34.5,0,0,1,9.9,4.1A8.392,8.392,0,0,0,79.1,31.661a34.269,34.269,0,0,1,4.1,9.9,8.4,8.4,0,0,0,0,16.187Z" transform="translate(-16.14 -16.13)" fill="#ff9a9a"/><g transform="translate(0.219 15.889)"><path d="M83.086,49.872a34.38,34.38,0,0,1-4.1,9.883A8.4,8.4,0,0,0,67.556,71.19a33.949,33.949,0,0,1-9.9,4.1,8.4,8.4,0,0,0-16.187,0,34.38,34.38,0,0,1-9.883-4.1A8.34,8.34,0,0,0,30.19,61.147a8.431,8.431,0,0,0-10.062-1.392,34.951,34.951,0,0,1-3.878-9.008,43.684,43.684,0,0,0,20.622,5.111A44.029,44.029,0,0,0,79.149,24.12a34.2,34.2,0,0,1,3.9,9.565A8.4,8.4,0,0,0,76.9,41.779a8.493,8.493,0,0,0,6.184,8.094Z" transform="translate(-16.25 -24.12)" fill="#d86666"/></g></g><path d="M42.052,84.617a.746.746,0,0,1-.219-.02,35.128,35.128,0,0,1-10.182-4.216.963.963,0,0,1-.338-1.293A7.428,7.428,0,0,0,21.191,68.967a.958.958,0,0,1-1.293-.338,35.24,35.24,0,0,1-4.216-10.162.97.97,0,0,1,.676-1.153,7.435,7.435,0,0,0,0-14.318.969.969,0,0,1-.676-1.153A35.128,35.128,0,0,1,19.9,31.661a.963.963,0,0,1,1.293-.338A7.428,7.428,0,0,0,31.313,21.2a.958.958,0,0,1,.338-1.293,35.128,35.128,0,0,1,10.182-4.216.969.969,0,0,1,1.153.676,7.435,7.435,0,0,0,14.318,0,.969.969,0,0,1,1.153-.676,35.588,35.588,0,0,1,10.182,4.216.963.963,0,0,1,.338,1.293A7.428,7.428,0,0,0,79.1,31.323a.958.958,0,0,1,1.293.338,35.128,35.128,0,0,1,4.216,10.182A.97.97,0,0,1,83.931,43a7.435,7.435,0,0,0,0,14.318.97.97,0,0,1,.676,1.153,34.786,34.786,0,0,1-4.216,10.162.963.963,0,0,1-1.293.338A7.428,7.428,0,0,0,68.977,79.089a.958.958,0,0,1-.338,1.293A35.128,35.128,0,0,1,58.457,84.6a.97.97,0,0,1-1.153-.676,7.435,7.435,0,0,0-14.318,0A.961.961,0,0,1,42.052,84.617Zm8.094-8.074a9.362,9.362,0,0,1,8.71,5.946,33.131,33.131,0,0,0,7.994-3.321A9.343,9.343,0,0,1,79.159,66.859a33.8,33.8,0,0,0,3.321-7.994,9.352,9.352,0,0,1,0-17.42,33.13,33.13,0,0,0-3.321-7.994A9.343,9.343,0,0,1,66.849,21.142a33.806,33.806,0,0,0-7.994-3.321,9.352,9.352,0,0,1-17.42,0,33.13,33.13,0,0,0-7.994,3.321A9.343,9.343,0,0,1,21.132,33.451a33.805,33.805,0,0,0-3.321,7.994,9.353,9.353,0,0,1,0,17.42,33.13,33.13,0,0,0,3.321,7.994A9.343,9.343,0,0,1,33.441,79.169a33.805,33.805,0,0,0,7.994,3.321A9.362,9.362,0,0,1,50.145,76.544Z" transform="translate(-15.657 -15.667)"/></g><g transform="translate(20.985 26.623)"><g transform="translate(11.165 0.978)"><path d="M103.3,50.449a57.657,57.657,0,0,1-81.433,52.5,3.44,3.44,0,1,1,2.844-6.264,50.228,50.228,0,0,0,20.96,4.514A50.811,50.811,0,0,0,96.424,50.449a50.26,50.26,0,0,0-10.46-30.863l5.449-4.2A57,57,0,0,1,103.3,50.449Z" transform="translate(-19.857 -15.39)" fill="#b9dd53"/></g><g transform="translate(10.205)"><path d="M46.152,109.539a57.784,57.784,0,0,1-24.2-5.23,4.4,4.4,0,1,1,3.639-8.014,49.811,49.811,0,0,0,70.356-45.36A49.379,49.379,0,0,0,85.685,20.649a.975.975,0,0,1,.179-1.352l5.449-4.2a1.012,1.012,0,0,1,.716-.2.93.93,0,0,1,.636.378,58.019,58.019,0,0,1,12.091,35.655,58.67,58.67,0,0,1-58.6,58.6ZM23.781,97.826a2.466,2.466,0,0,0-1.034,4.713,56,56,0,0,0,23.406,5.051,56.739,56.739,0,0,0,56.675-56.675A56.084,56.084,0,0,0,91.711,17.209l-3.918,3.023A51.169,51.169,0,0,1,97.875,50.915a51.787,51.787,0,0,1-51.723,51.723,51.131,51.131,0,0,1-21.357-4.614,2.967,2.967,0,0,0-1.014-.2Z" transform="translate(-19.374 -14.898)"/></g><g transform="translate(0.969 77.499)"><path d="M14.73,53.93l23.247-.06L26.4,74.034Z" transform="translate(-14.73 -53.87)" fill="#b9dd53"/></g><g transform="translate(0 76.564)"><path d="M26.885,75.473A.976.976,0,0,1,26.05,75l-11.673-20.1a.916.916,0,0,1,0-.955.976.976,0,0,1,.835-.477l23.247-.06a.976.976,0,0,1,.835.477.916.916,0,0,1,0,.955L27.72,75A.976.976,0,0,1,26.885,75.473Zm-10-20.124,10,17.221,9.923-17.281Z" transform="translate(-14.242 -53.4)"/></g></g><g transform="translate(0.974 4.952)"><path d="M4.18,61.629a57.657,57.657,0,0,1,81.433-52.5,3.44,3.44,0,1,1-2.844,6.264,50.228,50.228,0,0,0-20.96-4.514A50.811,50.811,0,0,0,11.061,61.629,50.26,50.26,0,0,0,21.52,92.492l-5.449,4.2A57,57,0,0,1,4.18,61.629Z" transform="translate(-4.18 -4)" fill="#726ad3"/></g><g transform="translate(0 3.997)"><path d="M16.556,98.117h-.119a.93.93,0,0,1-.636-.378A57.939,57.939,0,0,1,3.69,62.1,58.648,58.648,0,0,1,62.274,3.52a57.784,57.784,0,0,1,24.2,5.23,4.4,4.4,0,0,1-3.639,8.014,49.8,49.8,0,0,0-60.1,75.646.975.975,0,0,1-.179,1.352l-5.449,4.2a.97.97,0,0,1-.557.159ZM62.294,5.429A56.739,56.739,0,0,0,5.619,62.1,56.084,56.084,0,0,0,16.735,95.81l3.918-3.023A51.169,51.169,0,0,1,10.571,62.1,51.787,51.787,0,0,1,62.294,10.381a51.131,51.131,0,0,1,21.357,4.614,2.506,2.506,0,0,0,3.281-1.233A2.477,2.477,0,0,0,85.7,10.5,56.014,56.014,0,0,0,62.294,5.429Z" transform="translate(-3.69 -3.52)"/></g><g transform="translate(71.37 0.955)"><path d="M62.827,22.095l-23.247.06L51.154,1.99Z" transform="translate(-39.58 -1.99)" fill="#726ad3"/></g><g transform="translate(70.401)"><path d="M40.062,23.583a.976.976,0,0,1-.835-.477.916.916,0,0,1,0-.955L50.8,1.987a.969.969,0,0,1,1.67,0l11.673,20.1a.916.916,0,0,1,0,.955.976.976,0,0,1-.835.477ZM51.635,4.374,41.712,21.654l19.926-.06Z" transform="translate(-39.093 -1.51)"/></g><g transform="translate(33.249 107.264)"><path d="M21.365,57.4a.955.955,0,0,1-.955-.955.972.972,0,0,1,.955-.974L25,55.45a.955.955,0,0,1,.955.955.972.972,0,0,1-.955.974Z" transform="translate(-20.41 -55.45)" fill="#fff"/></g><g transform="translate(29.53 107.304)"><path d="M19.495,57.4a.942.942,0,0,1-.955-.955.959.959,0,0,1,.955-.974h.418a.935.935,0,0,1,.974.955.959.959,0,0,1-.955.974Z" transform="translate(-18.54 -55.47)" fill="#fff"/></g><g transform="translate(68.687 42.975)"><path d="M49.345,42.766a.955.955,0,0,1-.955-.955,19.685,19.685,0,0,0-9.684-16.9.958.958,0,1,1,.974-1.651A21.6,21.6,0,0,1,50.32,41.812.985.985,0,0,1,49.345,42.766Z" transform="translate(-38.231 -23.121)" fill="#fff"/></g></g><g transform="translate(45.883 36.141)"><g transform="translate(16.211 0.984)"><path d="M38.27,30.477c0,6.125-5.21,11.076-5.21,11.076V19.42s5.21,4.952,5.21,11.057Z" transform="translate(-33.06 -19.42)" fill="#a3c134"/></g><g transform="translate(11.001 0.984)"><path d="M35.65,19.42V41.553S30.44,36.6,30.44,30.477C30.44,24.372,35.65,19.42,35.65,19.42Z" transform="translate(-30.44 -19.42)" fill="#b9dd53"/></g><g transform="translate(10.047)"><path d="M36.125,43a.916.916,0,0,1-.656-.259c-.219-.219-5.508-5.31-5.508-11.772,0-6.443,5.27-11.554,5.508-11.772a.961.961,0,0,1,1.332,0c.219.219,5.508,5.31,5.508,11.772S37.019,42.52,36.8,42.738a1,1,0,0,1-.676.259Zm0-21.7c-1.332,1.531-4.236,5.329-4.236,9.665,0,4.355,2.9,8.133,4.236,9.665,1.332-1.511,4.256-5.31,4.256-9.665C40.36,26.631,37.457,22.833,36.125,21.3Z" transform="translate(-29.96 -18.925)"/></g><g transform="translate(15.654 19.454)"><g transform="translate(0.974 0.957)"><path d="M48.921,29.191l-15.65,15.65s-.179-7.179,4.136-11.514C41.722,29.012,48.921,29.191,48.921,29.191Z" transform="translate(-33.269 -29.189)" fill="#b9dd53"/></g><g transform="translate(0.955 0.958)"><path d="M44.774,40.7C40.439,45.039,33.26,44.84,33.26,44.84L48.91,29.19c.02,0,.179,7.179-4.136,11.514Z" transform="translate(-33.26 -29.19)" fill="#a3c134"/></g><path d="M33.894,46.291h-.179a.946.946,0,0,1-.935-.935c0-.318-.139-7.636,4.435-12.21,4.554-4.554,11.892-4.454,12.21-4.435a.947.947,0,0,1,.935.935c0,.318.139,7.656-4.415,12.21-4.236,4.216-10.838,4.435-12.051,4.435Zm14.5-15.63c-2.028.139-6.761.776-9.824,3.838-3.082,3.082-3.7,7.815-3.838,9.824,2.028-.119,6.761-.756,9.844-3.838,3.062-3.062,3.7-7.8,3.818-9.824Z" transform="translate(-32.78 -28.708)"/></g><g transform="translate(0 19.454)"><g transform="translate(0.959 0.958)"><path d="M25.39,29.191l15.65,15.65s.179-7.179-4.136-11.514C32.569,29.012,25.39,29.191,25.39,29.191Z" transform="translate(-25.39 -29.189)" fill="#b9dd53"/></g><g transform="translate(0.958 0.959)"><path d="M29.527,40.7c4.335,4.335,11.514,4.136,11.514,4.136L25.391,29.19S25.212,36.369,29.527,40.7Z" transform="translate(-25.389 -29.19)" fill="#a3c134"/></g><path d="M41.358,46.291c-1.213,0-7.815-.2-12.031-4.435-4.554-4.554-4.435-11.912-4.415-12.21a.947.947,0,0,1,.935-.935c.318-.02,7.656-.139,12.21,4.435,4.574,4.574,4.435,11.912,4.435,12.21a.947.947,0,0,1-.935.935h-.2ZM30.679,40.5c3.082,3.082,7.815,3.7,9.844,3.838-.119-2.028-.756-6.761-3.838-9.824-3.062-3.062-7.8-3.7-9.824-3.838C26.98,32.689,27.617,37.422,30.679,40.5Z" transform="translate(-24.908 -28.708)"/></g><g transform="translate(1.791 21.188)"><path d="M26.766,69.073h-.04a.942.942,0,0,1-.915-.994,27.318,27.318,0,0,1,2.347-11.1,12.592,12.592,0,0,1,8.988-7.159,8.98,8.98,0,0,1,2.526-.04V30.535a.955.955,0,1,1,1.909,0V50.261a7.027,7.027,0,0,1,3.1,2.347,5.988,5.988,0,0,1,.994,2.327,4.132,4.132,0,0,1-.974,4.136,2.918,2.918,0,0,1-3.162.5,3.192,3.192,0,0,1-1.909-2.883V51.753a6.966,6.966,0,0,0-2.227,0c-3.023.457-5.906,2.8-7.557,6.1C28.178,61.2,27.82,65.136,27.7,68.178a.926.926,0,0,1-.935.895Zm14.815-16.7v4.3a1.261,1.261,0,0,0,.756,1.133.971.971,0,0,0,1.074-.139c.179-.159.716-.656.378-2.327a4.013,4.013,0,0,0-.676-1.571A4.092,4.092,0,0,0,41.581,52.369Z" transform="translate(-25.809 -29.58)"/></g></g></g><g transform="translate(1233.506 903.737) rotate(180)"><g transform="translate(0 0)"><path d="M14.183-.707l8.393,8.329L16.4,13.841l6.4,6.353-8.71,8.777L-.707,14.29,7.649,5.87Zm6.978,8.334L14.188.707,8.307,6.627l-7.6,7.658L14.084,27.557l7.3-7.357-6.4-6.354Z" transform="translate(57.468 0.14)" fill="#119798"/><path d="M14.183-.707l8.393,8.329L16.4,13.841l6.4,6.353-8.71,8.777L-.707,14.29,7.649,5.87Zm6.978,8.334L14.188.707,8.307,6.627l-7.6,7.658L14.084,27.557l7.3-7.357-6.4-6.354Z" transform="translate(28.734 0.14)" fill="#119798"/><path d="M14.183-.707l8.393,8.329L16.4,13.841l6.4,6.353-8.71,8.777L-.707,14.29,7.649,5.87Zm6.978,8.334L14.188.707,8.307,6.627l-7.6,7.658L14.084,27.557l7.3-7.357-6.4-6.354Z" transform="translate(0 0.14)" fill="#119798"/><path d="M14.183-.707l8.391,8.329L16.4,13.84l6.4,6.353-8.71,8.779L-.707,14.292,7.647,5.871ZM21.16,7.627,14.188.707,8.306,6.627l-7.6,7.659L14.083,27.558l7.3-7.359-6.4-6.354Z" transform="translate(86.2)" fill="#119798"/></g></g></g></g></svg>