<svg xmlns="http://www.w3.org/2000/svg" xmlns:xlink="http://www.w3.org/1999/xlink" width="168" height="168" viewBox="0 0 168 168"><defs><filter id="a" x="0" y="0" width="168" height="168" filterUnits="userSpaceOnUse"><feOffset dy="3" input="SourceAlpha"/><feGaussianBlur stdDeviation="3" result="b"/><feFlood flood-opacity="0.161"/><feComposite operator="in" in2="b"/><feComposite in="SourceGraphic"/></filter><clipPath id="c"><path d="M0-682.665H90.332v90.332H0Z" transform="translate(0 682.665)"/></clipPath></defs><g transform="translate(-1233 -426.466)"><g transform="translate(1242 432.466)"><g transform="matrix(1, 0, 0, 1, -9, -6)" filter="url(#a)"><circle cx="75" cy="75" r="75" transform="translate(9 6)" fill="#fff" opacity="0.45"/></g><circle cx="60.246" cy="60.246" r="60.246" transform="translate(14.754 14.754)" fill="#fff"/></g><g transform="translate(1271.834 1144.965)"><g transform="translate(0 -682.665)"><g clip-path="url(#c)"><g transform="translate(34.83 20.307)"><path d="M-41.61,0s-1.95,21.979,14.136,23.926a32.3,32.3,0,0,0,16.262-2.5,2.114,2.114,0,0,1,2.525.66l1.877,2.463a2.114,2.114,0,0,1,0,2.564C-9.75,30.961-19.342,41.672-32.729,38.25-52.963,33.077-47.2,5.009-47.2,5.009Z" transform="translate(47.956)" fill="#ffe177"/></g><g transform="translate(34.837 20.307)"><path d="M-82.8-156.891a29.636,29.636,0,0,0,7.415-.062c-15.615-2.288-13.7-23.864-13.7-23.864l-5.585,5.009A46.989,46.989,0,0,0-95.425-168c1.738,5.211,5.323,10.224,12.627,11.108" transform="translate(95.425 180.817)" fill="#ffd15c"/></g><g transform="translate(51.305 41.56)"><path d="M-161.765-21.627l-1.877-2.463a2.114,2.114,0,0,0-2.525-.66,33.015,33.015,0,0,1-4.61,1.595l1.164,1.528a2.114,2.114,0,0,1,0,2.564c-2.222,2.9-8.241,9.728-16.824,11.415,12.734,2.476,21.822-7.691,24.671-11.415a2.114,2.114,0,0,0,0-2.564" transform="translate(186.434 24.925)" fill="#ffd15c"/></g><g transform="translate(24.24 10.101)"><path d="M-119.625,0l-1.308,10.205s-9.761,29.248,10.583,35.781c9.9,3.18,18.9.4,22.721-1.15a2.725,2.725,0,0,1,3.242.933l1.825,2.542a2.721,2.721,0,0,1-.26,3.488c-5.453,5.579-24.389,22.429-43.4,9.558-25.282-17.113-1.518-52.127-1.518-52.127L-125.947,0Z" transform="translate(137.868)" fill="#ffe177"/></g><g transform="translate(30.987 10.101)"><path d="M-12.719-75.748C-14.334-69.934-19.458-47-1.735-41.313A31.664,31.664,0,0,0,11.7-40.09a30.31,30.31,0,0,1-5.587-1.224C-14.231-47.846-4.471-77.094-4.471-77.094L-3.163-87.3H-9.486l-1.795,9.23s-.57.84-1.439,2.322" transform="translate(14.659 87.3)" fill="#ffd15c"/></g><g transform="translate(46.852 54.736)"><path d="M-214.39-24.111l-1.825-2.542a2.725,2.725,0,0,0-3.242-.933,35.5,35.5,0,0,1-4.259,1.415l1.479,2.06a2.721,2.721,0,0,1-.259,3.488c-3.6,3.685-13.085,12.286-24.588,13.993,14.891,2.317,28.041-9.5,32.435-13.993a2.721,2.721,0,0,0,.26-3.488" transform="translate(247.085 27.789)" fill="#ffd15c"/></g><g transform="translate(9.487 10.101)"><path d="M-127.83,0l-4.1,7.692S-161.87,41.138-138.241,68.2c9.023,10.332,34.952,17.859,60.92-.25a3.165,3.165,0,0,0,1.254-3.384l-.873-3.4a3.161,3.161,0,0,0-4.11-2.2c-7.559,2.666-26.753,7.309-39.089-8.465-15.293-19.555-2.307-41.278-2.307-41.278L-120.651,0Z" transform="translate(147.324)" fill="#ffe177"/></g><g transform="translate(21.374 10.101)"><path d="M-33.732-60.522S-46.718-38.8-31.424-19.244c8.041,10.282,19,11.888,27.743,11.022a28.267,28.267,0,0,1-19.9-11.022C-38.87-38.8-25.884-60.522-25.884-60.522l1.795-9.23h-7.179l-1.052,1.973Z" transform="translate(38.876 69.752)" fill="#ffd15c"/></g><g transform="translate(42.824 68.893)"><path d="M-248.657-37.854l-.873-3.4a3.161,3.161,0,0,0-4.11-2.2c-1.139.4-2.543.848-4.147,1.263a3.164,3.164,0,0,1,.409.935l.873,3.4a3.165,3.165,0,0,1-1.254,3.384c-9.927,6.922-19.846,10.1-28.82,10.8,10.826.874,23.741-1.788,36.667-10.8a3.166,3.166,0,0,0,1.254-3.384" transform="translate(286.578 43.627)" fill="#ffd15c"/></g><g transform="translate(22.538 1.323)"><path d="M-15.459-57.56H5.86a2.357,2.357,0,0,0,2.357-2.357v-4.063A2.357,2.357,0,0,0,5.86-66.339H-15.459a2.357,2.357,0,0,0-2.357,2.357v4.063a2.357,2.357,0,0,0,2.357,2.357" transform="translate(17.816 66.339)" fill="#f6a96c"/></g><g transform="translate(40.353 1.323)"><path d="M-38.429,0h-5.86a2.358,2.358,0,0,1,2.358,2.357V6.42a2.358,2.358,0,0,1-2.358,2.358h5.86A2.358,2.358,0,0,0-36.071,6.42V2.357A2.357,2.357,0,0,0-38.429,0" transform="translate(44.289)" fill="#ea9b58"/></g><g transform="translate(19.86 60.675)"><path d="M-83.222-41.61a6.346,6.346,0,0,1-6.346,6.346,6.346,6.346,0,0,1-6.346-6.346,6.346,6.346,0,0,1,6.346-6.346,6.346,6.346,0,0,1,6.346,6.346" transform="translate(95.913 47.956)" fill="#4f66d0"/></g><g transform="translate(23.682 60.675)"><path d="M-16.549,0a6.323,6.323,0,0,0-2.524.523,6.346,6.346,0,0,1,3.822,5.823,6.346,6.346,0,0,1-3.822,5.823,6.323,6.323,0,0,0,2.524.523A6.346,6.346,0,0,0-10.2,6.346,6.346,6.346,0,0,0-16.549,0" transform="translate(19.073)" fill="#3c58bc"/></g><g transform="translate(9.487 10.101)"><path d="M-427.877-472.115a48.061,48.061,0,0,1-9.916-1.018A40.862,40.862,0,0,1-448.8-477.1a27.641,27.641,0,0,1-7.641-5.9,35.7,35.7,0,0,1-9.105-21.162,45.532,45.532,0,0,1,3.308-19.748,71.955,71.955,0,0,1,7.761-14.56,61.974,61.974,0,0,1,4.308-5.654l4.074-7.639a.5.5,0,0,1,.441-.265h7.179a.5.5,0,0,1,.386.182.5.5,0,0,1,.1.414l-1.795,9.23a.5.5,0,0,1-.062.161,42.044,42.044,0,0,0-4.523,13.168,36.416,36.416,0,0,0,.084,13.079,33.914,33.914,0,0,0,6.711,14.466c12.11,15.485,30.978,10.964,38.529,8.3a3.664,3.664,0,0,1,2.936.223,3.675,3.675,0,0,1,1.825,2.322l.873,3.4a3.68,3.68,0,0,1-1.452,3.918,67.387,67.387,0,0,1-8.518,5.068.5.5,0,0,1-.67-.225.5.5,0,0,1,.225-.67,66.386,66.386,0,0,0,8.391-4.993,2.675,2.675,0,0,0,1.056-2.849l-.873-3.4a2.637,2.637,0,0,0-1.327-1.688,2.626,2.626,0,0,0-2.132-.162,50.7,50.7,0,0,1-7.637,2.04,41.918,41.918,0,0,1-10.315.669,30.727,30.727,0,0,1-11.269-2.843,29.129,29.129,0,0,1-10.427-8.5,34.9,34.9,0,0,1-6.909-14.912,37.429,37.429,0,0,1-.079-13.452,45.271,45.271,0,0,1,2.823-9.715,33.486,33.486,0,0,1,1.777-3.686l1.663-8.551h-6.272l-3.961,7.427a.5.5,0,0,1-.069.1,61.025,61.025,0,0,0-4.285,5.622,71.816,71.816,0,0,0-7.647,14.357,44.521,44.521,0,0,0-3.233,19.3,33.69,33.69,0,0,0,2.436,10.34,37.059,37.059,0,0,0,6.424,10.223,26.638,26.638,0,0,0,7.363,5.675,39.865,39.865,0,0,0,10.738,3.867,50.291,50.291,0,0,0,28.126-2.428.5.5,0,0,1,.643.293.5.5,0,0,1-.293.643A53.378,53.378,0,0,1-427.877-472.115Z" transform="translate(465.147 551.523)"/></g><g transform="translate(22.538 1.323)"><path d="M5.86-57.06H-15.459a2.861,2.861,0,0,1-2.857-2.857v-4.063a2.861,2.861,0,0,1,2.857-2.857H5.86a2.861,2.861,0,0,1,2.857,2.857v4.063A2.861,2.861,0,0,1,5.86-57.06Zm-21.318-8.778a1.86,1.86,0,0,0-1.857,1.857v4.063a1.86,1.86,0,0,0,1.857,1.857H5.86a1.86,1.86,0,0,0,1.857-1.857v-4.063A1.86,1.86,0,0,0,5.86-65.839Z" transform="translate(17.816 66.339)"/></g><g transform="translate(34.361 10.101)"><path d="M33.023-8.177a.5.5,0,0,1-.433-.25.5.5,0,0,1,.182-.683,57.341,57.341,0,0,0,11.8-9.253,2.217,2.217,0,0,0,.21-2.847l-1.824-2.542a2.222,2.222,0,0,0-2.648-.762A36.681,36.681,0,0,1,31.1-22.129a32.1,32.1,0,0,1-13.856-1.221,17.488,17.488,0,0,1-10.7-8.919A24.959,24.959,0,0,1,4.12-41.318a42.71,42.71,0,0,1,.2-8.91,54.575,54.575,0,0,1,2-9.489l1.229-9.6H2.212L.495-60.487a.5.5,0,0,1-.048.137.5.5,0,0,1-.6.249.5.5,0,0,1-.321-.616l1.788-9.191a.5.5,0,0,1,.491-.4H8.121a.5.5,0,0,1,.375.17.5.5,0,0,1,.121.394L7.31-59.543a.5.5,0,0,1-.022.095,53.089,53.089,0,0,0-1.977,9.362,41.675,41.675,0,0,0-.194,8.692,23.959,23.959,0,0,0,2.323,8.676A16.521,16.521,0,0,0,17.549-24.3a31.106,31.106,0,0,0,13.427,1.181A35.667,35.667,0,0,0,39.93-25.44a3.219,3.219,0,0,1,3.837,1.1l1.824,2.543a3.216,3.216,0,0,1-.308,4.129,58.37,58.37,0,0,1-12.011,9.42A.5.5,0,0,1,33.023-8.177Z" transform="translate(0 69.813)"/></g><g transform="translate(49.998 41.559)"><path d="M13.571,8.547a.5.5,0,0,1-.2-.96,28.327,28.327,0,0,0,7.719-5.04A36.073,36.073,0,0,0,25.58-2.3a1.619,1.619,0,0,0,0-1.959L23.7-6.719a1.615,1.615,0,0,0-1.93-.5,33.866,33.866,0,0,1-6.521,2.057,30.819,30.819,0,0,1-10,.479,15.407,15.407,0,0,1-5.49-1.69.5.5,0,0,1-.2-.677.5.5,0,0,1,.677-.2A14.413,14.413,0,0,0,5.372-5.68a29.822,29.822,0,0,0,9.675-.465,32.851,32.851,0,0,0,6.327-2,2.613,2.613,0,0,1,3.124.815l1.876,2.463a2.622,2.622,0,0,1,0,3.172,37.09,37.09,0,0,1-4.613,4.982,29.322,29.322,0,0,1-7.994,5.215A.5.5,0,0,1,13.571,8.547Z" transform="translate(0 7.857)"/></g><g transform="translate(41.101 20.307)"><path d="M3.718,18.7a.5.5,0,0,1-.4-.206A20.557,20.557,0,0,1,.395,12.5,32,32,0,0,1-.827,6.484,36.223,36.223,0,0,1-.985-.044.5.5,0,0,1-.442-.5.5.5,0,0,1,.011.044,35.961,35.961,0,0,0,.17,6.4c.362,3.273,1.341,7.926,3.952,11.511a.5.5,0,0,1-.4.794Z" transform="translate(0.561)"/></g><g transform="translate(19.86 60.675)"><path d="M-89.567-48.456a6.853,6.853,0,0,1,6.846,6.846,6.853,6.853,0,0,1-6.846,6.846,6.853,6.853,0,0,1-6.846-6.846A6.853,6.853,0,0,1-89.567-48.456Zm0,12.691a5.852,5.852,0,0,0,5.846-5.846,5.852,5.852,0,0,0-5.846-5.846,5.852,5.852,0,0,0-5.846,5.846A5.852,5.852,0,0,0-89.567-35.765Z" transform="translate(95.913 47.956)"/></g><g transform="translate(25.437 66.252)"><path d="M-11.616,2.037a.5.5,0,0,1-.354-.146.5.5,0,0,1,0-.707l1.537-1.537a.5.5,0,0,1,.707,0,.5.5,0,0,1,0,.707l-1.537,1.537A.5.5,0,0,1-11.616,2.037Z" transform="translate(11.616)"/></g></g></g></g></g></svg>