<svg xmlns="http://www.w3.org/2000/svg" width="90.698" height="90.407" viewBox="0 0 90.698 90.407"><g transform="translate(-810 -981.533)"><rect width="89" height="89" rx="44.5" transform="translate(810 981.533)" fill="#769671"/><rect width="89" height="89" rx="44.5" transform="translate(811.698 982.94)" fill="none"/><g transform="translate(814.309 990.074)"><g transform="translate(11.145 9.144)"><g transform="translate(0 0)"><path d="M28.7,29.054a.616.616,0,0,1-.331-1.136,25.549,25.549,0,0,1,27.4,0,.616.616,0,1,1-.662,1.039,24.317,24.317,0,0,0-26.076,0,.614.614,0,0,1-.331.1ZM42.07,75A25.537,25.537,0,0,1,19.694,37.163a.616.616,0,1,1,1.08.595,24.3,24.3,0,1,0,42.594,0,.616.616,0,1,1,1.078-.595A25.536,25.536,0,0,1,42.07,75Z" transform="translate(-14.576 -18.552)" fill-rule="evenodd"/><path d="M92.419,123.03a.608.608,0,0,1-.3-.081,6.482,6.482,0,0,1-2.965-3.821,5.163,5.163,0,0,1,1.162-4.228c3.227-4.3,2.414-5.5,1.018-6.616a2.977,2.977,0,0,1-1.091-2.923c.339-1.9,2.2-3.549,5.106-4.517,4.924-1.641,7.019-.747,9.371,1.606l.358.356c1.979,1.968,4.444,4.417,4.952,8.03a.616.616,0,1,1-1.219.172c-.452-3.2-2.656-5.394-4.6-7.328l-.359-.358c-1.817-1.818-3.364-2.89-8.112-1.308-2.427.809-4.028,2.142-4.282,3.565a1.752,1.752,0,0,0,.648,1.744c2.476,1.981,2.259,4.235-.8,8.318a4,4,0,0,0-.942,3.237,5.269,5.269,0,0,0,2.368,3,.616.616,0,0,1-.3,1.153Z" transform="translate(-60.705 -66.941)" fill-rule="evenodd"/><path d="M23.746,52.014a6.466,6.466,0,0,1-3.3-.959,17.865,17.865,0,0,1-3.019-2.732.616.616,0,0,1,.889-.852A17.622,17.622,0,0,0,21.08,50a4.287,4.287,0,0,0,5.082-.075,2.811,2.811,0,0,0,.735-3.336,4.224,4.224,0,0,1,1.4-4.7,3.8,3.8,0,0,1,4.745.051c1.268.891,5.073-1.464,7.831-4.222.967-.967,1.377-1.732,1.221-2.275-.164-.567-1.058-1.4-4.381-2.152-2.118-.478-3.423-1.351-3.879-2.593a3.809,3.809,0,0,1,.617-3.292.616.616,0,0,1,.986.74,2.6,2.6,0,0,0-.444,2.134c.3.81,1.335,1.436,2.991,1.809,3.228.729,4.91,1.686,5.294,3.011.393,1.36-.687,2.643-1.533,3.489a24.591,24.591,0,0,1-4.571,3.574c-2.159,1.26-3.788,1.524-4.839.785a2.535,2.535,0,0,0-3.268-.1,3.039,3.039,0,0,0-1.029,3.264,4.046,4.046,0,0,1-1.07,4.738,4.874,4.874,0,0,1-3.22,1.159Z" transform="translate(-15.033 -20.606)" fill-rule="evenodd"/><path d="M34.576,125.43a.616.616,0,0,1-.551-.339,4.5,4.5,0,0,1,.051-3.874,7.075,7.075,0,0,1,4.19-3.87c1.167-.333,1.176-.743,1.2-1.56a3.093,3.093,0,0,1,.476-1.848,2.357,2.357,0,0,0-.365-2.021,4.58,4.58,0,0,0-4.206-2.469c-1.479.067-1.615.418-1.761.788-.448,1.143-1.24,1.288-3.532.646a3.431,3.431,0,0,0-2.783.259,5.769,5.769,0,0,0-2.165,3.319.616.616,0,0,1-1.2-.264,6.975,6.975,0,0,1,2.735-4.112,4.612,4.612,0,0,1,3.749-.39c1.629.456,1.932.318,1.961.3a1.551,1.551,0,0,0,.092-.211c.29-.742.75-1.474,2.852-1.57a5.808,5.808,0,0,1,5.344,3.111,3.33,3.33,0,0,1,.285,3.326,2,2,0,0,0-.246,1.16,2.445,2.445,0,0,1-2.088,2.716,5.861,5.861,0,0,0-3.4,3.179,3.314,3.314,0,0,0-.081,2.824.617.617,0,0,1-.549.895Z" transform="translate(-19.263 -72.161)" fill-rule="evenodd"/><path d="M121.087,51.963c-1.869,0-3.216-1.587-4.358-3.158-1.039-1.43-1.992-1.462-6.291,1.079a3.846,3.846,0,0,1-4.821-.808,3.382,3.382,0,0,1-.488-4.279,5.476,5.476,0,0,0-.077-6.4,6.375,6.375,0,0,1-.352-6.524,9.287,9.287,0,0,1,2.019-2.7.616.616,0,0,1,.807.931c-.176.154-4.019,3.594-1.436,7.63a6.65,6.65,0,0,1,.053,7.766,2.175,2.175,0,0,0,.375,2.74,2.636,2.636,0,0,0,3.292.587c3.68-2.174,6.048-3.309,7.914-.743,1.578,2.169,2.77,3.186,4.555,2.352a.616.616,0,0,1,.522,1.116,4.036,4.036,0,0,1-1.716.415Z" transform="translate(-70.19 -21.786)" fill-rule="evenodd"/><path d="M128.305,10.387a6.878,6.878,0,0,0-3.755,1.072c-2.074,1.362-2.934,3.73-2.422,6.669.324,1.857,2.855,6.226,4.7,9.416.56.966,1.069,1.847,1.474,2.578.406-.731.915-1.611,1.475-2.578,1.848-3.19,4.38-7.56,4.7-9.416.512-2.939-.349-5.307-2.422-6.669a6.88,6.88,0,0,0-3.755-1.072Zm0,21.662a.616.616,0,0,1-.551-.341c-.408-.816-1.141-2.081-1.99-3.546-2-3.453-4.49-7.75-4.851-9.823-.593-3.4.486-6.286,2.96-7.91a8.283,8.283,0,0,1,8.863,0c2.474,1.624,3.552,4.507,2.96,7.91l-.607-.106.607.106c-.362,2.073-2.851,6.37-4.851,9.823-.848,1.465-1.583,2.731-1.99,3.546a.618.618,0,0,1-.552.341Z" transform="translate(-80.868 -9.144)" fill-rule="evenodd"/><path d="M134.5,20.206a2.772,2.772,0,1,0,2.772,2.772,2.775,2.775,0,0,0-2.772-2.772Zm0,6.776a4,4,0,1,1,4-4,4.008,4.008,0,0,1-4,4Z" transform="translate(-87.067 -15.397)" fill-rule="evenodd"/><path d="M18.7,10.387a6.875,6.875,0,0,0-3.755,1.072c-2.074,1.362-2.934,3.73-2.422,6.669.324,1.857,2.853,6.226,4.7,9.416.56.966,1.071,1.847,1.475,2.578.406-.731.915-1.611,1.475-2.578,1.848-3.19,4.38-7.56,4.7-9.416h0c.512-2.939-.348-5.307-2.421-6.669A6.883,6.883,0,0,0,18.7,10.387Zm0,21.662a.615.615,0,0,1-.551-.341c-.408-.816-1.141-2.081-1.99-3.546-2-3.453-4.49-7.75-4.851-9.823-.593-3.4.486-6.286,2.96-7.91a8.283,8.283,0,0,1,8.863,0c2.474,1.624,3.552,4.507,2.959,7.91-.361,2.073-2.85,6.37-4.849,9.823-.85,1.465-1.583,2.731-1.991,3.547A.614.614,0,0,1,18.7,32.049Z" transform="translate(-11.145 -9.144)" fill-rule="evenodd"/><path d="M24.895,20.206a2.772,2.772,0,1,0,2.771,2.772A2.774,2.774,0,0,0,24.895,20.206Zm0,6.776a4,4,0,1,1,4-4,4.008,4.008,0,0,1-4,4Z" transform="translate(-17.345 -15.397)" fill-rule="evenodd"/></g><path d="M34.031,43.051a2.535,2.535,0,0,0-3.268-.1,3.039,3.039,0,0,0-1.029,3.264,4.046,4.046,0,0,1-1.07,4.738,4.874,4.874,0,0,1-3.22,1.159,6.466,6.466,0,0,1-3.3-.959,12.753,12.753,0,0,1-2.113-1.808q-.106,1.131-.107,2.272a24.165,24.165,0,0,0,1.992,9.633,5.947,5.947,0,0,1,2.207-2.621,4.612,4.612,0,0,1,3.749-.39c1.629.456,1.932.318,1.961.3a1.56,1.56,0,0,0,.092-.211c.29-.742.75-1.474,2.852-1.57a5.808,5.808,0,0,1,5.343,3.111,3.33,3.33,0,0,1,.285,3.326,2,2,0,0,0-.246,1.16,2.445,2.445,0,0,1-2.088,2.716,5.861,5.861,0,0,0-3.4,3.179,3.4,3.4,0,0,0-.162,2.649,24.151,24.151,0,0,0,11.712,3.013,24.453,24.453,0,0,0,2.677-.147,5.626,5.626,0,0,1-1.726-2.879,5.163,5.163,0,0,1,1.162-4.228c3.227-4.3,2.414-5.5,1.018-6.616a2.977,2.977,0,0,1-1.091-2.923c.339-1.9,2.2-3.549,5.106-4.517,4.924-1.641,7.019-.747,9.371,1.606l.358.356c1.674,1.664,3.694,3.672,4.586,6.437a24.151,24.151,0,0,0,2.837-11.388q0-.425-.015-.85a3.581,3.581,0,0,1-.881.113c-1.869,0-3.216-1.586-4.358-3.158-1.039-1.43-1.992-1.462-6.291,1.079A3.846,3.846,0,0,1,52.156,48a3.382,3.382,0,0,1-.488-4.279,5.476,5.476,0,0,0-.077-6.4,6.375,6.375,0,0,1-.352-6.524,9.4,9.4,0,0,1,1.333-2,24.4,24.4,0,0,0-15.541-.39,2.435,2.435,0,0,0-.342,1.978c.3.81,1.335,1.436,2.991,1.809,3.228.729,4.91,1.686,5.294,3.011.393,1.36-.687,2.643-1.533,3.489a24.59,24.59,0,0,1-4.571,3.574c-2.159,1.26-3.788,1.524-4.839.785Z" transform="translate(-16.73 -20.706)" fill="#0087ff" fill-rule="evenodd"/><g transform="translate(3.498 8.239)"><path d="M108.244,40.073a6.65,6.65,0,0,1,.053,7.767,2.175,2.175,0,0,0,.375,2.74,2.636,2.636,0,0,0,3.292.587c3.68-2.174,6.048-3.309,7.915-.743,1.46,2.007,2.59,3.028,4.166,2.507a24.327,24.327,0,0,0-2.4-8.614c-.555.964-1.02,1.788-1.314,2.378a.616.616,0,0,1-1.1,0c-.408-.816-1.141-2.081-1.99-3.547a66.1,66.1,0,0,1-4.545-8.727,24.174,24.174,0,0,0-3.286-1.718c-.872.89-3.379,3.911-1.166,7.37Z" transform="translate(-75.842 -32.369)" fill="#32d736" fill-rule="evenodd"/><path d="M106,105.486c-1.817-1.818-3.364-2.891-8.112-1.308-2.427.809-4.028,2.142-4.282,3.565a1.752,1.752,0,0,0,.648,1.744c2.476,1.981,2.259,4.235-.8,8.318a4,4,0,0,0-.942,3.237A5.084,5.084,0,0,0,94.7,123.93a24.358,24.358,0,0,0,16.227-10.99c-.523-3.077-2.667-5.208-4.565-7.095Z" transform="translate(-66.359 -77.345)" fill="#32d736" fill-rule="evenodd"/><path d="M42.166,116.093a2.357,2.357,0,0,0-.365-2.021A4.58,4.58,0,0,0,37.6,111.6c-1.479.067-1.615.417-1.761.788-.448,1.143-1.24,1.288-3.532.646a3.431,3.431,0,0,0-2.783.259,5.536,5.536,0,0,0-2.108,3.1,24.475,24.475,0,0,0,8.435,9.259,5.139,5.139,0,0,1,.46-2.289,7.075,7.075,0,0,1,4.19-3.87c1.167-.333,1.176-.743,1.2-1.56a3.093,3.093,0,0,1,.476-1.849Z" transform="translate(-24.99 -82.554)" fill="#32d736" fill-rule="evenodd"/><path d="M30.523,44.83a3.8,3.8,0,0,1,4.745.051c1.268.891,5.073-1.464,7.831-4.222.967-.967,1.377-1.732,1.221-2.275-.164-.567-1.058-1.4-4.381-2.152-2.118-.478-3.423-1.351-3.879-2.593A3.082,3.082,0,0,1,36,31.784,24.172,24.172,0,0,0,31.9,33.838a66.019,66.019,0,0,1-4.544,8.725c-.85,1.465-1.583,2.731-1.991,3.546a.615.615,0,0,1-1.1,0c-.295-.589-.759-1.413-1.314-2.377a24.3,24.3,0,0,0-2.188,6.9,16.232,16.232,0,0,0,2.549,2.305,4.287,4.287,0,0,0,5.082-.075,2.811,2.811,0,0,0,.735-3.336,4.224,4.224,0,0,1,1.4-4.7Z" transform="translate(-20.758 -31.784)" fill="#32d736" fill-rule="evenodd"/></g><path d="M22.318,29.718a63.335,63.335,0,0,0,4.506-8.678c.005-.019.012-.038.019-.057a5.073,5.073,0,0,0,.177-.681c.512-2.939-.348-5.307-2.421-6.669a7.114,7.114,0,0,0-7.51,0c-2.074,1.362-2.934,3.73-2.422,6.669.324,1.857,2.853,6.226,4.7,9.416l.1.173q.016.025.029.051c.509.878.972,1.68,1.345,2.354.406-.731.915-1.611,1.475-2.578ZM20.844,22.9a4,4,0,1,1,4-4A4.008,4.008,0,0,1,20.844,22.9Z" transform="translate(-13.294 -11.317)" fill="#fd481e" fill-rule="evenodd"/><path d="M124.475,21.046a63.6,63.6,0,0,0,4.5,8.672c.56.966,1.069,1.847,1.474,2.578.377-.679.843-1.487,1.356-2.373l.009-.015.11-.189c1.848-3.19,4.38-7.56,4.7-9.416.512-2.939-.349-5.307-2.422-6.669a7.114,7.114,0,0,0-7.51,0c-2.074,1.362-2.934,3.73-2.422,6.669a5.048,5.048,0,0,0,.174.672A.618.618,0,0,1,124.475,21.046Zm5.979,1.856a4,4,0,1,1,4-4A4.008,4.008,0,0,1,130.454,22.9Z" transform="translate(-83.016 -11.317)" fill="#fd481e" fill-rule="evenodd"/></g></g></g></svg>