<svg xmlns="http://www.w3.org/2000/svg" width="83" height="83" viewBox="0 0 83 83"><g transform="translate(-703 -1576.036)"><g transform="translate(418 666)"><circle cx="41.5" cy="41.5" r="41.5" transform="translate(285 910.036)" fill="#cfeaea"/></g><g transform="translate(683.901 1522.786)"><g transform="translate(47.451 77.481)"><g transform="translate(0.381 0.381)"><path d="M163.653,101.309a16.928,16.928,0,0,0-4.81.652c-1.883.683-5.754.965-11.107-1.407s-7.36-4.738-11.525-4.784l-1.888-.722-1.45,1.571,1.02,1.546s.215,2.868,3.809,5.571,14.224,7.289,20.362,6.023,6.624-5.352,6.882-6.5a1.651,1.651,0,0,0-1.295-1.948Z" transform="translate(-132.874 -95.046)" fill="#ffcb01"/></g><g transform="translate(0 0)"><path d="M152.6,107.237a27.956,27.956,0,0,1-8.912-1.761,37.993,37.993,0,0,1-9.333-4.556c-3.348-2.517-3.873-5.177-3.949-5.742l-.97-1.47a.382.382,0,0,1,.038-.469l1.45-1.571a.381.381,0,0,1,.417-.1l1.825.7c2.778.048,4.662,1.113,7.041,2.459a49.865,49.865,0,0,0,4.565,2.357c6.127,2.716,9.833,1.757,10.822,1.4a17.071,17.071,0,0,1,4.944-.674.382.382,0,0,1,.077.009,2,2,0,0,1,1.589,2.39l0,.013c-.014.064-.029.137-.046.218-.3,1.457-1.1,5.328-7.131,6.572a12.013,12.013,0,0,1-2.423.225Zm-22.363-13.7.856,1.3a.382.382,0,0,1,.062.182c0,.026.264,2.742,3.658,5.294,3.713,2.792,14.147,7.172,20.056,5.954,5.542-1.143,6.265-4.656,6.538-5.979.017-.083.032-.157.047-.223a1.254,1.254,0,0,0-.965-1.491,16.365,16.365,0,0,0-4.636.629c-1.058.383-5,1.414-11.392-1.417a50.483,50.483,0,0,1-4.632-2.39c-2.393-1.354-4.123-2.332-6.743-2.361a.382.382,0,0,1-.132-.025l-1.647-.63Z" transform="translate(-129.374 -91.546)"/></g><g transform="translate(3.532 1.05)"><path d="M189.213,106.778a16.21,16.21,0,0,0-4.618.651c-1.883.683-5.754.965-11.107-1.408s-7.36-4.738-11.525-4.784l-.138-.053-.049.167a37.192,37.192,0,0,0,13.807,8.465c9.8,3.537,13.634-2.924,13.634-2.924a.9.9,0,0,0,0-.113Z" transform="translate(-161.776 -101.184)" fill="#fe0"/></g><g transform="translate(0.381 0.382)"><path d="M136.211,95.769l-1.888-.722-1.45,1.571,1.02,1.546A4.127,4.127,0,0,0,136.211,95.769Z" transform="translate(-132.873 -95.047)" fill="#aece35"/></g><g transform="translate(3.15 0.669)"><path d="M177.992,108.129a16.938,16.938,0,0,1-5.658-1.074,41.816,41.816,0,0,1-7.892-3.821.381.381,0,0,1,.4-.648,41.052,41.052,0,0,0,7.748,3.752c3.9,1.408,7.421,1.369,10.181-.113a8.744,8.744,0,0,0,2.646-2.166,14.174,14.174,0,0,0-3.814.61,10.987,10.987,0,0,1-4.411.464,21.326,21.326,0,0,1-6.98-1.881,50.483,50.483,0,0,1-4.632-2.39c-2.188-1.238-3.821-2.161-6.086-2.333a30.325,30.325,0,0,0,2.632,2.2.381.381,0,0,1-.458.61,26.116,26.116,0,0,1-3.294-2.849.381.381,0,0,1-.085-.366l.049-.167a.381.381,0,0,1,.5-.248l.075.029c2.778.048,4.662,1.113,7.041,2.459a49.879,49.879,0,0,0,4.566,2.357c6.127,2.716,9.833,1.757,10.822,1.4a16.61,16.61,0,0,1,4.744-.674h0a.381.381,0,0,1,.38.347,1.245,1.245,0,0,1,.005.167.381.381,0,0,1-.053.175,8.867,8.867,0,0,1-3.291,2.93,10.744,10.744,0,0,1-5.143,1.232Z" transform="translate(-158.275 -97.684)"/></g><g transform="translate(0 0)"><path d="M130.776,95.426a.382.382,0,0,1-.318-.171l-1.02-1.546a.382.382,0,0,1,.038-.469l1.45-1.571a.381.381,0,0,1,.417-.1l1.888.722a.381.381,0,0,1,.224.482A4.489,4.489,0,0,1,130.9,95.4.38.38,0,0,1,130.776,95.426Zm-.538-1.888.677,1.025a3.808,3.808,0,0,0,1.677-1.7l-1.282-.49Z" transform="translate(-129.374 -91.546)"/></g></g><g transform="translate(42.262 83.791)"><g transform="translate(0.381 0.382)"><path d="M120.607,153.511a19.234,19.234,0,0,0-5.22,1.779c-1.95,1.173-6.205,2.335-12.692.86s-9.243-3.673-13.9-2.814l-2.263-.392-1.273,2.068,1.476,1.5s.867,3.151,5.466,5.378,17.455,5.016,24.022,2.261,6.215-7.416,6.251-8.754A1.876,1.876,0,0,0,120.607,153.511Z" transform="translate(-85.261 -152.945)" fill="#ffcb01"/></g><g transform="translate(0 0)"><path d="M105.979,162.569a41.924,41.924,0,0,1-5.671-.419,43.118,43.118,0,0,1-11.388-3.033c-4.3-2.081-5.442-4.94-5.636-5.52l-1.411-1.435a.382.382,0,0,1-.053-.467l1.273-2.068a.382.382,0,0,1,.39-.176l2.2.38c3.1-.555,5.429.22,8.372,1.2a56.693,56.693,0,0,0,5.611,1.631,25.719,25.719,0,0,0,5.7.687,13.117,13.117,0,0,0,6.716-1.5,19.358,19.358,0,0,1,5.347-1.827.355.355,0,0,1,.077-.006,2.218,2.218,0,0,1,2.244,2.266s0,.009,0,.014c0,.074,0,.159,0,.254-.016,1.681-.057,6.147-6.481,8.841a18.85,18.85,0,0,1-7.277,1.183ZM82.626,151.839l1.266,1.288a.381.381,0,0,1,.1.166c.008.029.9,3.021,5.264,5.136a41.759,41.759,0,0,0,11.159,2.964c5.276.722,9.733.47,12.55-.711,5.961-2.5,6-6.6,6.013-8.145,0-.1,0-.183,0-.259a1.473,1.473,0,0,0-1.458-1.5,18.7,18.7,0,0,0-5.054,1.723c-1.091.656-5.25,2.661-12.974.906a57.33,57.33,0,0,1-5.683-1.651c-2.972-.988-5.12-1.7-8.061-1.16a.382.382,0,0,1-.134,0l-2.009-.348Z" transform="translate(-81.763 -149.444)"/></g><g transform="translate(3.733 0.58)"><path d="M147.794,155.176a18.42,18.42,0,0,0-5.006,1.736c-1.95,1.173-6.205,2.335-12.692.86s-9.243-3.673-13.9-2.814l-.166-.029-.018.2a42.261,42.261,0,0,0,17.247,6.418c11.7,1.8,14.563-6.243,14.563-6.243a1.014,1.014,0,0,0-.03-.126Z" transform="translate(-116.014 -154.766)" fill="#fe0"/></g><g transform="translate(0.381 0.382)"><path d="M88.8,153.337l-2.263-.392-1.273,2.068,1.476,1.5A4.69,4.69,0,0,0,88.8,153.337Z" transform="translate(-85.262 -152.945)" fill="#aece35"/></g><g transform="translate(3.352 0.2)"><path d="M133.372,159.079a21.7,21.7,0,0,1-3.286-.261,47.635,47.635,0,0,1-8.661-2.178.381.381,0,1,1,.255-.719,46.879,46.879,0,0,0,8.522,2.142c4.654.717,8.573-.092,11.335-2.338a9.99,9.99,0,0,0,2.573-3.137,16.425,16.425,0,0,0-4.243,1.546c-1.091.656-5.251,2.661-12.974.906a57.331,57.331,0,0,1-5.683-1.651c-2.768-.92-4.82-1.6-7.463-1.254.574.368,1.531.947,2.828,1.605a.381.381,0,1,1-.345.68,27.808,27.808,0,0,1-3.559-2.09.382.382,0,0,1-.154-.343l.018-.2a.382.382,0,0,1,.445-.341l.1.017c3.1-.555,5.429.22,8.372,1.2a56.693,56.693,0,0,0,5.611,1.631c7.446,1.693,11.382-.2,12.411-.815A18.819,18.819,0,0,1,144.6,151.7a.381.381,0,0,1,.443.267,1.366,1.366,0,0,1,.041.178.381.381,0,0,1-.018.182,10.02,10.02,0,0,1-3.012,3.964,13.45,13.45,0,0,1-8.681,2.789Z" transform="translate(-112.515 -151.282)"/></g><g transform="translate(0 0)"><path d="M83.62,153.776a.381.381,0,0,1-.272-.114l-1.476-1.5a.381.381,0,0,1-.053-.467l1.273-2.068a.382.382,0,0,1,.39-.176l2.263.392a.381.381,0,0,1,.313.43,5.044,5.044,0,0,1-2.244,3.451A.38.38,0,0,1,83.62,153.776Zm-.995-1.936,1.04,1.057a4.376,4.376,0,0,0,1.567-2.369l-1.626-.282Z" transform="translate(-81.763 -149.444)"/></g></g><g transform="translate(37.43 84.156)"><g transform="translate(0.381 0.382)"><path d="M80.061,156.4a22.537,22.537,0,0,0-5.251,3.765c-1.789,1.977-6.167,4.723-13.943,5.27s-11.612-.985-16.54,1.558l-2.671.328-.726,2.751,2.164,1.182s2.041,3.24,7.954,4.178,21.276-.294,27.708-5.611,4.455-10.425,4.042-11.938a2.2,2.2,0,0,0-2.738-1.484Z" transform="translate(-40.93 -156.292)" fill="#ffcb01"/></g><g transform="translate(0 0)"><path d="M52.388,172.975a29.946,29.946,0,0,1-4.517-.29c-5.545-.88-7.776-3.718-8.159-4.265l-2.083-1.138a.381.381,0,0,1-.186-.432l.726-2.751a.381.381,0,0,1,.322-.281l2.6-.32c3.278-1.672,6.148-1.593,9.775-1.494a66.513,66.513,0,0,0,6.853-.074c8.948-.629,12.738-4.1,13.687-5.145a22.613,22.613,0,0,1,5.359-3.848.38.38,0,0,1,.072-.028,2.535,2.535,0,0,1,3.2,1.737l0,.013c.023.085.051.181.082.287.549,1.88,2.008,6.873-4.249,12.045-2.031,1.679-6.148,3.949-14.232,5.234a61.249,61.249,0,0,1-9.263.75Zm-14.131-6.219,1.9,1.039a.382.382,0,0,1,.14.131c.019.03,2.042,3.109,7.691,4,3.68.584,9.452.19,13.54-.46,6.174-.981,11.1-2.781,13.865-5.068,5.871-4.853,4.514-9.5,4-11.243-.032-.108-.06-.206-.084-.293a1.786,1.786,0,0,0-2.231-1.235,22.008,22.008,0,0,0-5.109,3.664c-1,1.1-4.966,4.746-14.2,5.394a67.138,67.138,0,0,1-6.927.076c-3.679-.1-6.336-.174-9.465,1.44a.378.378,0,0,1-.128.04l-2.415.3Z" transform="translate(-37.43 -152.789)"/></g><g transform="translate(3.583 0.606)"><path d="M106.005,158.354A21.582,21.582,0,0,0,100.98,162c-1.789,1.977-6.167,4.723-13.943,5.27s-11.612-.985-16.54,1.558l-.2.024.046.227s8.9,3.139,21.52,1.348c13.729-1.948,14.215-11.941,14.215-11.941a1.188,1.188,0,0,0-.076-.131Z" transform="translate(-70.301 -158.354)" fill="#fe0"/></g><g transform="translate(0.381 11.079)"><path d="M44.327,254.437l-2.671.328-.726,2.751,2.164,1.182A5.5,5.5,0,0,0,44.327,254.437Z" transform="translate(-40.93 -254.437)" fill="#aece35"/></g><g transform="translate(3.201 0.225)"><path d="M80.951,168.239h-.13a.381.381,0,0,1,0-.763c.047,0,.086,0,.129,0a55.327,55.327,0,0,0,7.745-.548c5.484-.778,9.623-3.026,11.969-6.5a11.7,11.7,0,0,0,1.852-4.548,19.644,19.644,0,0,0-4.371,3.256c-1,1.1-4.967,4.746-14.2,5.394a67.082,67.082,0,0,1-6.927.076c-3.488-.1-6.059-.166-8.984,1.2a43.938,43.938,0,0,0,8.2,1.461.381.381,0,1,1-.067.76,40.275,40.275,0,0,1-9.069-1.712.381.381,0,0,1-.247-.284l-.046-.227a.381.381,0,0,1,.327-.455l.128-.016c3.278-1.672,6.147-1.593,9.775-1.494a66.509,66.509,0,0,0,6.853-.074c8.948-.629,12.738-4.1,13.687-5.145a21.984,21.984,0,0,1,5.127-3.724.381.381,0,0,1,.5.127,1.548,1.548,0,0,1,.1.178.382.382,0,0,1,.035.179,11.67,11.67,0,0,1-2.023,5.434c-3.116,4.649-8.528,6.3-12.519,6.866a56.09,56.09,0,0,1-7.852.556Z" transform="translate(-66.802 -154.853)"/></g><g transform="translate(0 10.697)"><path d="M39.976,255.961a.38.38,0,0,1-.183-.047l-2.164-1.182a.381.381,0,0,1-.186-.432l.726-2.752a.381.381,0,0,1,.322-.281l2.671-.328a.381.381,0,0,1,.424.321,5.84,5.84,0,0,1-1.33,4.578A.381.381,0,0,1,39.976,255.961Zm-1.719-1.755,1.62.885a5.189,5.189,0,0,0,1-3.348l-2.032.249Z" transform="translate(-37.43 -250.937)"/></g></g><g transform="translate(42.466 75.76)"><g transform="translate(0.382 0.381)"><path d="M121.327,86.892a23.769,23.769,0,0,0-3.863,5.614c-1.068,2.6-4.429,6.893-11.948,10.217s-11.872,3.178-15.853,7.463l-2.533,1.281.264,2.99,2.57.4s3.184,2.485,9.387,1.3,21-7.9,25.483-15.48.69-11.937-.261-13.29a62.314,62.314,0,0,1,3.1-6.09s-1.972-1.959-3.5-2.032a13.4,13.4,0,0,0-4.336,1.2s2.891,2.8,1.5,6.432Z" transform="translate(-87.131 -79.259)" fill="#ffcb01"/></g><g transform="translate(3.979 8.506)"><path d="M154.248,167.1c4.479-7.576.69-11.937-.261-13.29,0,0,2.936,9.177-9.274,18.78a43.4,43.4,0,0,1-24.571,9.15,13.319,13.319,0,0,0,8.623.841c6.2-1.185,21-7.9,25.483-15.48Z" transform="translate(-120.142 -153.805)" fill="#c8a100"/></g><g transform="translate(0 0)"><path d="M92.966,113.742A11.031,11.031,0,0,1,86.7,112.1l-2.478-.384a.382.382,0,0,1-.322-.343l-.264-2.99a.381.381,0,0,1,.208-.374l2.472-1.251c2.651-2.829,5.525-3.778,9.157-4.976a70.146,70.146,0,0,0,6.774-2.526c8.66-3.828,11.183-8.632,11.749-10.012a23.491,23.491,0,0,1,3.885-5.673,5.146,5.146,0,0,0,.139-3.2.382.382,0,0,1,.736-.2,5.9,5.9,0,0,1-.188,3.74.384.384,0,0,1-.076.123,23.529,23.529,0,0,0-3.79,5.5c-.594,1.448-3.226,6.477-12.147,10.421a70.777,70.777,0,0,1-6.843,2.553c-3.689,1.217-6.354,2.1-8.884,4.821a.379.379,0,0,1-.107.081l-2.3,1.165.215,2.435,2.275.353a.382.382,0,0,1,.176.076c.03.023,3.145,2.36,9.08,1.226,3.862-.738,9.45-3.2,13.275-5.3,5.778-3.184,10.022-6.734,11.951-10,4.1-6.927,1.082-11.055-.052-12.61-.072-.1-.137-.188-.193-.267a.382.382,0,0,1-.037-.372,64.857,64.857,0,0,1,2.961-5.871,6.35,6.35,0,0,0-3.036-1.718,13.1,13.1,0,0,0-4.161,1.164.382.382,0,0,1-.315-.7,13.543,13.543,0,0,1,4.512-1.231c1.658.079,3.668,2.058,3.753,2.142a.382.382,0,0,1,.058.468,60.926,60.926,0,0,0-2.985,5.848l.06.082c1.215,1.665,4.443,6.089.092,13.448-1.413,2.39-4.683,6.113-12.239,10.277a53.177,53.177,0,0,1-13.5,5.384,17.784,17.784,0,0,1-3.339.33Zm25.242-29.967h0Z" transform="translate(-83.631 -75.761)"/></g><g transform="translate(2.728 8.214)"><path d="M140.332,151.123a22.761,22.761,0,0,0-3.682,5.414c-1.068,2.6-4.429,6.893-11.948,10.217s-11.872,3.178-15.853,7.463l-.186.094.127.209s9.951-.07,21.833-6.362c12.924-6.844,9.831-16.933,9.831-16.933a1.252,1.252,0,0,0-.122-.1Z" transform="translate(-108.664 -151.123)" fill="#fe0"/></g><g transform="translate(0.382 31.308)"><path d="M89.664,363.013l-2.533,1.281.264,2.99,2.57.4a5.8,5.8,0,0,0-.3-4.669Z" transform="translate(-87.131 -363.013)" fill="#aece35"/></g><g transform="translate(33.081 0.381)"><path d="M391.485,79.262a13.4,13.4,0,0,0-4.336,1.2s2.891,2.8,1.5,6.432c2.087,1.525,3.247.492,3.247.492a62.311,62.311,0,0,1,3.1-6.09S393.016,79.334,391.485,79.262Z" transform="translate(-387.149 -79.259)" fill="#aece35"/></g><g transform="translate(32.699 0)"><path d="M387.663,84.992a4.032,4.032,0,0,1-2.362-.91.382.382,0,0,1-.131-.445,5.15,5.15,0,0,0,.165-3.265.381.381,0,0,1,.736-.2,5.882,5.882,0,0,1-.087,3.456c1.428.942,2.266.534,2.481.394a64.194,64.194,0,0,1,2.92-5.778,6.349,6.349,0,0,0-3.036-1.718,13.143,13.143,0,0,0-4.161,1.164.381.381,0,0,1-.315-.7,13.542,13.542,0,0,1,4.512-1.231c1.658.079,3.668,2.058,3.753,2.142a.382.382,0,0,1,.058.468,62.348,62.348,0,0,0-3.072,6.046.381.381,0,0,1-.1.132A2.12,2.12,0,0,1,387.663,84.992Z" transform="translate(-383.648 -75.76)"/></g><g transform="translate(2.347 7.832)"><path d="M105.672,171.782a.381.381,0,0,1-.326-.183l-.127-.209a.381.381,0,0,1,.154-.539l.125-.063c2.651-2.829,5.525-3.778,9.157-4.976a70.148,70.148,0,0,0,6.774-2.526c8.66-3.828,11.183-8.632,11.749-10.012a23.159,23.159,0,0,1,3.75-5.523.382.382,0,0,1,.515-.05,1.605,1.605,0,0,1,.162.138.381.381,0,0,1,.094.157,11.524,11.524,0,0,1,.264,4.265,14.836,14.836,0,0,1-4.512,8.974.381.381,0,1,1-.538-.54,14.313,14.313,0,0,0,4.288-8.479,11.9,11.9,0,0,0-.113-3.485,20.841,20.841,0,0,0-3.2,4.834c-.594,1.448-3.226,6.477-12.147,10.421a70.789,70.789,0,0,1-6.843,2.553c-3.516,1.16-6.1,2.014-8.529,4.452a53.994,53.994,0,0,0,20.961-6.286.381.381,0,0,1,.357.674c-11.827,6.263-21.908,6.405-22.009,6.406h0Z" transform="translate(-105.164 -147.622)"/></g><g transform="translate(0 30.927)"><path d="M86.846,364.944a.388.388,0,0,1-.059,0l-2.57-.4a.382.382,0,0,1-.322-.343l-.264-2.99a.381.381,0,0,1,.208-.374l2.533-1.281a.381.381,0,0,1,.508.159,6.137,6.137,0,0,1,.318,5,.381.381,0,0,1-.351.233Zm-2.217-1.111,1.959.3a5.493,5.493,0,0,0-.215-3.729l-1.959.991Z" transform="translate(-83.63 -359.512)"/></g></g><g transform="translate(54.661 112.747)"><path d="M209.038,415.875H195.905a.381.381,0,0,1,0-.763h13.133a.381.381,0,0,1,0,.763Z" transform="translate(-195.524 -415.112)"/></g><g transform="translate(69.952 112.747)"><path d="M338.15,415.875H336.2a.381.381,0,0,1,0-.763h1.947a.381.381,0,0,1,0,.763Z" transform="translate(-335.821 -415.112)"/></g></g></g></svg>