<svg xmlns="http://www.w3.org/2000/svg" width="83" height="83" viewBox="0 0 83 83"><g transform="translate(4079 10031.964)"><g transform="translate(-4364 -10942)"><circle cx="41.5" cy="41.5" r="41.5" transform="translate(285 910.036)" fill="#cfeaea"/></g><g transform="translate(-4059.138 -10013.11)"><path d="M43.278,4.713a.347.347,0,0,0-.2-.3,15.7,15.7,0,0,0-2.84-.94c-.007,0-.007-.007-.014-.007a14.419,14.419,0,0,0-3.185-.358,15.114,15.114,0,0,0-4.423.676,17.214,17.214,0,0,0-7.026,4.362L12.057,21.679c0,.007,0,.007-.007.014l-.007.007L.466,35.177a1.929,1.929,0,0,0,.162,2.685l4.45,4.1a.838.838,0,0,0,.568.223.808.808,0,0,0,.331-.068.831.831,0,0,0,.521-.744l.081-2.387a1.727,1.727,0,0,1,.656-1.278c3.036-2.441,7.324-7.58,9.751-10.623l.784.778a.747.747,0,0,0,.541.23.329.329,0,0,0,.081-.007.767.767,0,0,0,.568-.352h.007c2.718-4.24,6.12-8.23,12.49-8.71a12.037,12.037,0,0,0,4.781-1.379C43.454,13.781,43.278,4.8,43.278,4.713ZM26.061,8.621a16.51,16.51,0,0,1,6.755-4.193,13.966,13.966,0,0,1,7.06-.352,12.769,12.769,0,0,1-5.295,9.244,11.88,11.88,0,0,1-4.767,1.839l-3.936.676C21.429,16.946,18,19.806,15.411,24.56l-2.644-2.644ZM6.816,37.185a2.431,2.431,0,0,0-.906,1.778l-.081,2.38a.166.166,0,0,1-.108.162.178.178,0,0,1-.189-.034l-4.456-4.1a1.276,1.276,0,0,1-.1-1.765l11.34-13.2,4.2,4.2C14.5,29.124,9.926,34.69,6.816,37.185ZM35.927,17.061A11.468,11.468,0,0,1,31.4,18.352c-6.661.507-10.184,4.632-13,9.021a.1.1,0,0,1-.081.047.1.1,0,0,1-.088-.027L15.9,25.053c2.509-4.693,5.822-7.5,10.11-8.568l3.909-.669a12.413,12.413,0,0,0,5.038-1.948,13.205,13.205,0,0,0,5.572-9.636,15.012,15.012,0,0,1,2.076.7c-.02,1.339-.426,8.771-6.681,12.125Z" transform="translate(0)"/><path d="M45.99,4.4A12.769,12.769,0,0,1,40.7,13.642a11.88,11.88,0,0,1-4.767,1.839l-3.936.676c-4.45,1.109-7.878,3.969-10.468,8.723L18.88,22.237,32.175,8.942A16.51,16.51,0,0,1,38.93,4.749,13.966,13.966,0,0,1,45.99,4.4Z" transform="translate(-6.113 -0.321)" fill="#7a8c98"/><path d="M50.224,5.473C50.2,6.812,49.8,14.244,43.543,17.6a11.468,11.468,0,0,1-4.524,1.292c-6.661.507-10.184,4.632-13,9.021a.1.1,0,0,1-.081.047.1.1,0,0,1-.088-.027l-2.333-2.34c2.509-4.693,5.822-7.5,10.11-8.568l3.909-.669a12.413,12.413,0,0,0,5.038-1.948A13.205,13.205,0,0,0,48.148,4.77a15.012,15.012,0,0,1,2.076.7Z" transform="translate(-7.616 -0.537)" fill="#72848e"/><path d="M12.634,31.65,1.293,44.85a1.276,1.276,0,0,0,.1,1.765l4.456,4.1a.177.177,0,0,0,.189.034.166.166,0,0,0,.108-.162L6.23,48.2a2.431,2.431,0,0,1,.906-1.778c3.111-2.5,7.689-8.061,9.7-10.576ZM5.046,45.912A1.552,1.552,0,1,1,6.6,44.363,1.553,1.553,0,0,1,5.046,45.912Zm3.53-3.557A1.552,1.552,0,1,1,10.125,40.8,1.55,1.55,0,0,1,8.576,42.355Zm3.5-3.435a1.549,1.549,0,1,1,1.549-1.549,1.554,1.554,0,0,1-1.549,1.549Z" transform="translate(-0.32 -9.241)" fill="#e9a834"/><path d="M6.249,48.15A1.552,1.552,0,1,0,7.8,49.705,1.554,1.554,0,0,0,6.249,48.15Zm0,2.434a.882.882,0,1,1,.886-.879A.877.877,0,0,1,6.249,50.584Z" transform="translate(-1.522 -14.583)"/><path d="M7.455,50.026a.882.882,0,1,1-.886-.886.883.883,0,0,1,.886.886Z" transform="translate(-1.843 -14.903)" fill="#ffc233"/><path d="M11.469,42.89a1.552,1.552,0,1,0,1.549,1.549A1.548,1.548,0,0,0,11.469,42.89Zm0,2.434a.882.882,0,1,1,.886-.886.885.885,0,0,1-.886.886Z" transform="translate(-3.212 -12.88)"/><path d="M12.672,44.759a.886.886,0,1,1-.886-.879A.885.885,0,0,1,12.672,44.759Z" transform="translate(-3.53 -13.2)" fill="#ffc233"/><path d="M16.635,37.82a1.549,1.549,0,1,0,1.549,1.549A1.55,1.55,0,0,0,16.635,37.82Zm0,2.434a.886.886,0,1,1,.879-.886A.889.889,0,0,1,16.635,40.254Z" transform="translate(-4.883 -11.238)"/><path d="M17.835,39.686a.882.882,0,1,1-.879-.886A.883.883,0,0,1,17.835,39.686Z" transform="translate(-5.204 -11.556)" fill="#ffc233"/></g></g></svg>