<svg xmlns="http://www.w3.org/2000/svg" width="48.92" height="49.398" viewBox="0 0 48.92 49.398"><g transform="translate(-511.668 -3553)"><g transform="translate(511.668 3553)"><path d="M81.765,129.083h-33.3a1.637,1.637,0,0,1-1.637-1.637V88.57H81.765Z" transform="translate(-42.99 -80.375)" fill="#a2aa5c"/><path d="M51.321,129.083H48.469a1.637,1.637,0,0,1-1.637-1.637V88.57h2.852v38.876A1.637,1.637,0,0,0,51.321,129.083Z" transform="translate(-42.99 -80.375)" fill="#7a8045"/><path d="M406.921,109.072l-5.7,1.558V70.117L408.6,68.1v38.77a2.283,2.283,0,0,1-1.681,2.2Z" transform="translate(-362.444 -61.922)" fill="#7a8045"/><path d="M192.1,201.119c-.451,3.712-1.83,7.388-3.545,9.1l-1.766,1.766c-2.637,2.263-6.3,3.633-10.571,4.478a35.283,35.283,0,0,1,5.338-10.359L183,204.666A14.006,14.006,0,0,1,192.1,201.119Z" transform="translate(-159.625 -181.83)" fill="#f5f5f5"/><path d="M107.151,379.027l3.057,3.057-.574.574a12.672,12.672,0,0,0-3.38,1.9l-1.616-1.616a11.906,11.906,0,0,0,1.955-3.572Z" transform="translate(-95.097 -342.201)" fill="#94e671"/><path d="M131.126,314.509c6.151-5.179,10.535-7.211,18.3-8.108a47.545,47.545,0,0,0-6.556,4.66l-6.277,6.277a2.1,2.1,0,0,1-2.686.233l-1.619-1.046s-1.4-1.819-1.162-2.017Z" transform="translate(-118.951 -276.734)" fill="#52cc7b"/><path d="M195.293,273.6a15.373,15.373,0,0,1-2.264,4.8,16.305,16.305,0,0,1-5.239,2.579,15.285,15.285,0,0,1,2.928-5.31,11.613,11.613,0,0,1,4.576-2.069Z" transform="translate(-170.054 -247.166)" fill="#94e671"/><path d="M117.237,227.044l-2.454-3.5a2.1,2.1,0,0,1,.234-2.686l6.277-6.277c2.2-2.2,5.3-7.45,5.3-7.45C125.66,215.2,122.869,220.508,117.237,227.044Z" transform="translate(-103.901 -187.252)" fill="#3d997a"/><path d="M99.9,17.4l-4.392,2.54L62.079,17.4l2.364-4.965h37.822Z" transform="translate(-56.734 -11.74)" fill="#bfbfbf"/><path d="M403.257,19.41l7.42-1.9-2.072,4.987-7.383,2.018Z" transform="translate(-362.447 -16.316)" fill="#f5f5f5"/><path d="M52.941,38.323H18.009l-3.152-5.495H49.79Z" transform="translate(-14.167 -30.127)" fill="#f6f7f8"/><path d="M20.86,38.323H18.009l-3.152-5.495h3.359Z" transform="translate(-14.167 -30.127)" fill="#eceef1"/><path d="M18.524,48.274a.69.69,0,0,0,.925.046,11.373,11.373,0,0,1,2.78-1.619l.187.132a2.781,2.781,0,0,0,3.571-.31l6.277-6.277a47.2,47.2,0,0,1,6.423-4.556.69.69,0,0,0-.434-1.277c-.421.049-.831.1-1.233.156l.257-.257c1.789-1.79,3.258-5.522,3.742-9.508a.69.69,0,0,0-.708-.773,14.756,14.756,0,0,0-9.394,3.58q.182-1.076.313-2.218a.69.69,0,0,0-1.28-.43c-.031.052-3.078,5.2-5.19,7.313l-6.277,6.277a2.782,2.782,0,0,0-.31,3.571l.007.01.4.547a10.557,10.557,0,0,1-1.7,3.037.69.69,0,0,0,.031.943Zm12.764-9-6.277,6.277a1.4,1.4,0,0,1-1.8.157l-.95-.667a50.065,50.065,0,0,0,4.19-5.625,26.3,26.3,0,0,1,8.78-3.159,29.115,29.115,0,0,0-3.941,3.017ZM28.279,36.11q.4-.835.747-1.691a11.105,11.105,0,0,1,3.023-1.564A14.263,14.263,0,0,1,30.4,36.079a25.893,25.893,0,0,0-2.658,1.089Q28.024,36.64,28.279,36.11Zm9-4.047a13.876,13.876,0,0,1-4.456-4.236,11.2,11.2,0,0,1,1.245-.766,15.521,15.521,0,0,0,3.844,3.833,12.047,12.047,0,0,1-.633,1.169Zm1.182-2.473A14.131,14.131,0,0,1,35.34,26.47a14.993,14.993,0,0,1,4.194-1.01,21.765,21.765,0,0,1-1.072,4.129Zm-6.742-.836.034-.033a15.494,15.494,0,0,0,4.7,4.455q-.076.083-.152.16l-1.616,1.615c-.8.154-1.563.327-2.3.522a17.5,17.5,0,0,0,1.37-3.422.69.69,0,0,0-.8-.864,11.99,11.99,0,0,0-3.178,1.139q.355-1.106.634-2.271ZM19.461,39.528l6.277-6.277a33.462,33.462,0,0,0,3.615-4.738c-1.124,5.641-3.458,10.062-8.068,15.539L19.3,41.325a1.4,1.4,0,0,1,.16-1.8Zm.065,4.452,1.158,1.591a1.989,1.989,0,0,0,.235.21,12.556,12.556,0,0,0-1.846,1.089l-.752-.752a11.927,11.927,0,0,0,1.206-2.138ZM56.608,6.168a.69.69,0,0,0-.693-.217L54,6.444l.013-.028a.69.69,0,0,0-.623-.987H16.092a.69.69,0,0,0-.623.393L14.7,7.441H8.546a.69.69,0,0,0-.6,1.033l3.06,5.335V52.5a2.33,2.33,0,0,0,2.327,2.327h33.3a.69.69,0,0,0,.182-.025l5.7-1.558A2.98,2.98,0,0,0,54.7,50.377V11.746l2.019-4.86a.69.69,0,0,0-.116-.717Zm-40.08.642H52.294l-.039.081-3.761.965a.69.69,0,0,0-.469.413l-1.506,3.775L44.078,7.787a.69.69,0,0,0-.6-.347H16.228ZM43.079,8.821l2.36,4.115H12.1L9.738,8.821Zm2.862,44.628H13.335a.948.948,0,0,1-.947-.947V14.315H45.941Zm7.383-3.071a1.6,1.6,0,0,1-1.173,1.537l-4.83,1.32V14.152l6-1.641Zm.183-39.347-5.722,1.564,1.392-3.489,5.742-1.473Z" transform="translate(-7.856 -5.43)"/><rect width="29.938" height="34.047" transform="translate(7.352 12.037)" fill="#a2aa5c"/></g><g transform="translate(523.825 3570.383)"><g transform="translate(0.294 0.295)"><path d="M1769,260.563v-.372a.294.294,0,0,1,.283-.294,10.864,10.864,0,0,0,6.915-3.356,5.912,5.912,0,0,0,1.936-3.71,1.317,1.317,0,0,0-.312-1,.669.669,0,0,0-.442-.182.3.3,0,0,1-.23-.125,2.211,2.211,0,0,1,.006-2.373l.009-.011a.264.264,0,0,1,.25-.136h9.564a.293.293,0,0,1,.295.292,10.08,10.08,0,0,1-.074,1.393,2.647,2.647,0,0,1-.088.409.672.672,0,0,1-.139.263,1.089,1.089,0,0,1-.574.263l-.6.031a1.716,1.716,0,0,0,0,1.768,4.536,4.536,0,0,1,1.178,2.946c0,2.623-1.685,5.348-3.927,7.418s-5.041,3.484-7.269,3.484a12.8,12.8,0,0,1-4.661-.764,10.069,10.069,0,0,0-1.836-.407c-.236,0-.283-.151-.28-.295v-.62a.294.294,0,0,1,.268-.293,15.94,15.94,0,0,0,3.9-.857.275.275,0,0,1-.094.016,10.54,10.54,0,0,1-3.857-.848l-.068-.028a.291.291,0,0,1-.15-.265v-.488a.3.3,0,0,1,.088-.209.292.292,0,0,1,.209-.085,7.55,7.55,0,0,0,2.1-.306.285.285,0,0,1-.118-.015c-.822-.28-1.4-.712-2.08-.953l-.044-.019A.292.292,0,0,1,1769,260.563Zm13.845-4.82.082-.145a8.277,8.277,0,0,0,1.1-3.063,1.786,1.786,0,0,0-.112-.857.5.5,0,0,0-.477-.322,1.153,1.153,0,0,0-.645.416c-.572.62-1.1,1.912.027,3.713A.284.284,0,0,1,1782.845,255.743Zm-2.387-.926a2.565,2.565,0,0,0,.327-1.1,5.609,5.609,0,0,0-.165-1.683c-.091-.242-.224-.38-.424-.38a.682.682,0,0,0-.675.624,2.832,2.832,0,0,0,.887,2.222A.3.3,0,0,1,1780.458,254.817Z" transform="translate(-1769 -249)" fill="#f5e730" fill-rule="evenodd"/></g><g transform="translate(0.295 0.295)"><path d="M1785.537,252.536a1.468,1.468,0,0,0,.256.884,4.536,4.536,0,0,1,1.178,2.946c0,2.623-1.685,5.348-3.927,7.418s-5.042,3.484-7.269,3.484a12.81,12.81,0,0,1-4.664-.764,9.963,9.963,0,0,0-1.836-.407.25.25,0,0,1-.277-.295v-.222c6,.454,9.2-1.178,11.638-3.616A19.486,19.486,0,0,0,1785.537,252.536Zm-8.727-2.357a2.648,2.648,0,0,1,.345-1.032s0-.007.006-.011a.268.268,0,0,1,.25-.136h9.567a.3.3,0,0,1,.295.292,10.08,10.08,0,0,1-.074,1.393,2.6,2.6,0,0,1-.091.409.673.673,0,0,1-.135.263,1.111,1.111,0,0,1-.574.263l-.6.031a1.421,1.421,0,0,0-.086.163c.1-.693.027-1.636-1.093-1.636Z" transform="translate(-1768.998 -249)" fill="#eac910" fill-rule="evenodd"/><path d="M1782.27,266.212a4.434,4.434,0,0,0,.6,1.415.316.316,0,0,1,.044.124,4.375,4.375,0,0,1-.309.608c-.89,1.453-4.213,5.913-8.545,7.513a7.961,7.961,0,0,1-1.078.313,10.783,10.783,0,0,1-3.715-.847l-.068-.028a.292.292,0,0,1-.127-.144,12.367,12.367,0,0,0,9.116-3.419C1781.132,268.973,1782.028,267.192,1782.27,266.212Z" transform="translate(-1769.049 -261.141)" fill="#eac910" fill-rule="evenodd"/><path d="M1779.545,261.405a3.487,3.487,0,0,0,.863,1.557c.009.009.015.019.024.029a3.352,3.352,0,0,1-.531,1.1,17.421,17.421,0,0,1-8.4,6.188,2.134,2.134,0,0,1-.377.07c.088-.022.18-.046.268-.071a.292.292,0,0,1-.121-.015c-.819-.28-1.394-.712-2.08-.953l-.041-.019a.3.3,0,0,1-.153-.224,8.807,8.807,0,0,0,7.366-2.618C1779.124,263.776,1779.531,262.117,1779.545,261.405ZM1779.5,261h0Z" transform="translate(-1769 -257.464)" fill="#eac910" fill-rule="evenodd"/></g><g transform="translate(0 0)"><path d="M1769.691,261.036a6.236,6.236,0,0,1-1.379.076.292.292,0,0,0-.218.079.287.287,0,0,0-.094.215v1.031a.3.3,0,0,0,.227.287c.961.227,1.556.59,2.608.782a15.766,15.766,0,0,1-2.563.405.294.294,0,0,0-.271.294v1.179a.3.3,0,0,0,.295.295,6,6,0,0,1,2.024.4,13.036,13.036,0,0,0,4.753.778c2.286,0,5.168-1.437,7.469-3.562s4.022-4.938,4.022-7.634a4.8,4.8,0,0,0-1.229-3.111,1.333,1.333,0,0,1-.068-1.3,2.706,2.706,0,0,0,.48-.042,1.393,1.393,0,0,0,.731-.345,1.627,1.627,0,0,0,.309-.837,11.935,11.935,0,0,0,.071-1.739.294.294,0,0,0-.295-.283h-10.018a.291.291,0,0,0-.239.123,2.581,2.581,0,0,0,.012,3.01.291.291,0,0,0,.286.1.389.389,0,0,1,.312.1,1.063,1.063,0,0,1,.218.789,5.616,5.616,0,0,1-1.853,3.505,10.4,10.4,0,0,1-6.986,3.272.3.3,0,0,0-.295.295v.884a.3.3,0,0,0,.215.284,8.275,8.275,0,0,1,1.476.672Zm2.678,2.01a18.605,18.605,0,0,0,9.5-8.11c-1.235-1.973-.622-3.389,0-4.068a1.435,1.435,0,0,1,.863-.511.783.783,0,0,1,.745.491,2.11,2.11,0,0,1,.138,1,8.555,8.555,0,0,1-1.137,3.185.262.262,0,0,1-.032.062,18.35,18.35,0,0,1-1.515,2.3,17.823,17.823,0,0,1-12.343,7.083v.621a6.962,6.962,0,0,1,1.912.422,12.545,12.545,0,0,0,4.57.749c2.169,0,4.888-1.391,7.068-3.406s3.833-4.652,3.833-7.2a4.273,4.273,0,0,0-1.129-2.781,2.036,2.036,0,0,1-.006-2.089.3.3,0,0,1,.277-.137,2.163,2.163,0,0,0,.524-.027.79.79,0,0,0,.418-.182.39.39,0,0,0,.068-.145,2.487,2.487,0,0,0,.077-.362,9.407,9.407,0,0,0,.071-1.347h-9.567a1.907,1.907,0,0,0-.021,2.056.964.964,0,0,1,.633.263,1.577,1.577,0,0,1,.4,1.217,6.209,6.209,0,0,1-2.018,3.915,11.177,11.177,0,0,1-7.116,3.445v.379c.684.24,1.258.672,2.077.952a17.071,17.071,0,0,0,6.485-3.951,12.45,12.45,0,0,0,2.183-2.6q.084-.139.15-.272a3.1,3.1,0,0,1-.958-2.474.958.958,0,0,1,.964-.864.741.741,0,0,1,.7.572,5.873,5.873,0,0,1,.183,1.785,3.285,3.285,0,0,1-.53,1.549,13.088,13.088,0,0,1-2.289,2.736c-2.419,2.279-6,4.442-8.966,4.416v.5a10.318,10.318,0,0,0,3.78.838Zm.607,1.411c-.192.021-.38.035-.569.043a.295.295,0,1,0,.024.589c.2-.008.4-.023.61-.046a.295.295,0,0,0-.065-.586Zm6.031-2.736a12.355,12.355,0,0,1-4.6,2.463.295.295,0,0,0,.153.569,12.952,12.952,0,0,0,4.826-2.578.295.295,0,1,0-.377-.453Zm2.024-2.042c-.188.23-.383.452-.58.666a.3.3,0,0,0,.436.4c.2-.222.4-.453.6-.692a.294.294,0,0,0-.454-.374Zm2.893-5.291a16.943,16.943,0,0,1-1.977,4.054.294.294,0,1,0,.489.328,17.466,17.466,0,0,0,2.048-4.2.295.295,0,1,0-.56-.186Zm-1.187-3.442a.9.9,0,0,0-.13.062,1.546,1.546,0,0,0-.306.259,2.545,2.545,0,0,0-.112,3.058,7.138,7.138,0,0,0,.837-2.514,1.507,1.507,0,0,0-.083-.712A.229.229,0,0,0,1782.738,250.947Zm-3.005,2.425a1.39,1.39,0,0,0,.053-.363,6.76,6.76,0,0,0-.1-1.416.956.956,0,0,0-.1-.277c-.024-.042-.05-.075-.094-.075-.212,0-.342.159-.386.385A2.355,2.355,0,0,0,1779.733,253.372Z" transform="translate(-1768 -248)" fill-rule="evenodd"/></g></g></g></svg>