<svg xmlns="http://www.w3.org/2000/svg" width="89" height="89" viewBox="0 0 89 89"><g transform="translate(4946 9452.063)"><rect width="89" height="89" rx="44.5" transform="translate(-4946 -9452.063)" fill="#769671"/><rect width="89" height="89" rx="44.5" transform="translate(-4946 -9452.063)" fill="none"/><g transform="translate(-4929.163 -9435.163)"><g transform="translate(0.876 7.01)"><g transform="translate(7.01)"><path d="M27.322,23.062a3.282,3.282,0,0,0-2.48-2.506L16.01,18.515a7.425,7.425,0,0,1,4.206-2.1L22.45,16.1a7.493,7.493,0,0,1,2.8.123c.018.009.044.009.061.018l1.7.429a3.542,3.542,0,0,0,.8.1h2.059a5.415,5.415,0,0,0,5.424-5.424V9.752A1.758,1.758,0,0,1,37.039,8a1.765,1.765,0,0,1,1.752,1.752v1.253a5.417,5.417,0,0,0,1.586,3.838l.166.166-1.752,2.629C40.2,19.049,42.883,19.706,45.056,20a27.065,27.065,0,0,0,3.373.263,2.632,2.632,0,0,1,1.752,4.591,2.773,2.773,0,0,1-1.5.657l-.114.009v.009A2.613,2.613,0,0,1,51.032,27.8a2.627,2.627,0,0,1-2.252,2.953l-.21.026v.009a2.617,2.617,0,0,1,2.261,1.533A2.647,2.647,0,0,1,50.515,35a2.562,2.562,0,0,1-1.735,1.008l-.175.026v.009a2.632,2.632,0,0,1,2.427,2.269A2.627,2.627,0,0,1,48.78,41.27l-.35.044v2.278a2.614,2.614,0,0,0,.92,2l4.583,3.925a1.82,1.82,0,0,1,.631,1.376,1.795,1.795,0,0,1-1.8,1.8h-.289a1.788,1.788,0,0,1-1-.307l-.123-.079a8.129,8.129,0,0,0-4.512-1.367,8.187,8.187,0,0,1-3.636-.859l-1.831-.92a8.081,8.081,0,0,0-9.332,1.516L28.776,53.94a1.718,1.718,0,0,1-1.209.5h-.21A1.712,1.712,0,0,1,26.41,51.3l1.1-.736a1.711,1.711,0,0,0-.946-3.137h-.613a1.743,1.743,0,0,0-.6.105L19.339,49.8a4.109,4.109,0,0,1-1.455.263h-.894a4.137,4.137,0,0,1-1.858-.438,4.137,4.137,0,0,0-1.858-.438H10.358A1.354,1.354,0,0,1,9,47.824v-.035A1.385,1.385,0,0,1,10.218,46.4c1.157-.149,2.9-.368,4.171-.526a4.74,4.74,0,0,0,2.769-1.349l.035-.035a4.907,4.907,0,0,1,3.479-1.446h2.392a1.715,1.715,0,0,0,1.717-1.717v-.044a1.783,1.783,0,0,0-1.928-1.8c-.219.018-.359.026-.359.026a3.466,3.466,0,0,1-.412.026,2.618,2.618,0,0,1-2.024-4.223,2.562,2.562,0,0,1,1.735-1.008l.2-.026a2.636,2.636,0,0,1-2.453-2.278,2.627,2.627,0,0,1,2.252-2.953l.2-.026a2.652,2.652,0,0,1-2.453-2.278A2.627,2.627,0,0,1,21.793,23.8Z" transform="translate(-9 -8)" fill="#cf9e76"/></g><g transform="translate(0 3.505)"><path d="M15.019,19.01A4.38,4.38,0,0,1,11.506,23.3c0,.026.009.061.009.088a3.5,3.5,0,1,1-7.01,0,3.274,3.274,0,0,1,.131-.885c-.044,0-.088.009-.131.009a3.5,3.5,0,0,1-.867-6.887c0-.044-.009-.079-.009-.123a3.5,3.5,0,0,1,6.887-.867c.044,0,.079-.009.123-.009A4.383,4.383,0,0,1,15.019,19.01Z" transform="translate(-1 -12)" fill="#b4dd7f"/></g></g><path d="M47.183,16.42c1.293-.965,2.761-2.059,2.761-4.153V9.3L52.78,7.886h1.546V6.133H52.366L49.944,7.344V5.257H48.192V9.1l-2.8-1.4-3.076,3.076,1.239,1.239,2.182-2.182,2.456,1.228v1.211c0,1.157-.782,1.8-2.056,2.748a7.741,7.741,0,0,0-2.775,3.022,11.828,11.828,0,0,1-4.518-1.557l1.715-2.573-.672-.67a4.519,4.519,0,0,1-1.332-3.217V8.762A2.625,2.625,0,0,0,36.8,6.295V3.313L39.642,2.6,39.218.9l-2.417.6V0H35.049V2.963L32.812,1.845l-.784,1.568,3.021,1.51V6.295A2.625,2.625,0,0,0,33.3,8.762v1.584A4.551,4.551,0,0,1,28.747,14.9H26.693a2.424,2.424,0,0,1-.589-.073l-.845-.211,1.153-3.458L22.268,7.01,24.9,4.381,21.649,1.133,20.41,2.372l2.009,2.009L20.556,6.244l-2.128.71L14.344,5.32l-.65,1.627,4.679,1.872,2.419-.806,3.614,3.615-.868,2.606a8.225,8.225,0,0,0-2.324,0l-2.239.32a8.348,8.348,0,0,0-3.481,1.353,5.255,5.255,0,0,0-4.471-3.616,4.373,4.373,0,0,0-8.365,1.216,4.374,4.374,0,0,0,.847,8.31c0,.029,0,.059,0,.088a4.381,4.381,0,0,0,8.723.589,5.268,5.268,0,0,0,3.419-3.9l7.882,1.819a2.413,2.413,0,0,1,1.413.938l-4.376.584a3.5,3.5,0,0,0-1.849,6.1,3.538,3.538,0,0,0-.471.506,3.49,3.49,0,0,0,.471,4.753,3.579,3.579,0,0,0-.471.5,3.5,3.5,0,0,0,2.7,5.633,3.266,3.266,0,0,0,.5-.025l.365-.03a.878.878,0,0,1,.687.237.937.937,0,0,1,.293.727.849.849,0,0,1-.845.842h-2.39a5.785,5.785,0,0,0-4.131,1.735,3.9,3.9,0,0,1-2.258,1.1L9,44.541A2.285,2.285,0,0,0,7.01,46.834a2.237,2.237,0,0,0,2.234,2.234h2.92a3.289,3.289,0,0,1,1.464.346,5.057,5.057,0,0,0,2.247.53h.9a5.026,5.026,0,0,0,1.765-.32l6.013-2.255a.854.854,0,0,1,.3-.053h.605a.836.836,0,0,1,.464,1.532l-1.1.736a2.589,2.589,0,0,0,1.436,4.742h.207a2.575,2.575,0,0,0,1.83-.758L31.548,50.3a7.161,7.161,0,0,1,5.1-2.111,7.252,7.252,0,0,1,3.224.761l1.834.917a9.044,9.044,0,0,0,4.027.951,7.222,7.222,0,0,1,4.024,1.218l.128.087a2.684,2.684,0,0,0,1.484.448h.283a2.677,2.677,0,0,0,1.742-4.71l-4.585-3.93a1.751,1.751,0,0,1-.613-1.332V41.054a3.479,3.479,0,0,0,1.434-6,3.569,3.569,0,0,0,.473-.507,3.5,3.5,0,0,0,.42-3.564,3.366,3.366,0,0,0-.881-1.2,3.55,3.55,0,0,0,.462-.5,3.493,3.493,0,0,0-.471-4.754c.01-.009.021-.015.03-.024a3.482,3.482,0,0,0,1.13-3.071A3.518,3.518,0,0,0,47.314,18.4c-.5,0-1.246-.033-2.1-.117a7.629,7.629,0,0,1,1.974-1.863ZM11.209,20.959l-.725.146.021.739c0,.047.005.088.009.061a2.629,2.629,0,1,1-5.257,0,2.6,2.6,0,0,1,.1-.665l.3-1.146-1.184.046a.251.251,0,0,0-.094.012,2.622,2.622,0,0,1-.648-5.164l.689-.176-.03-.711a.27.27,0,0,0-.011-.085v0a2.622,2.622,0,0,1,5.165-.648l.172.675.7-.015c.055,0,.11-.008.1-.012a3.5,3.5,0,0,1,3.38,2.629H10.877L8.505,14.276,7.266,15.515l2.092,2.092L7.185,20.5l1.4,1.051L10.953,18.4h2.941a3.5,3.5,0,0,1-2.685,2.559Zm37.843.715a1.75,1.75,0,0,1-.574,1.544,1.913,1.913,0,0,1-1.032.437l-.063.009c-.023,0-.046-.006-.069-.006a3.619,3.619,0,0,0-.461.031l-12.8,1.706.231,1.737,12.79-1.705a1.857,1.857,0,0,1,.236-.016,1.758,1.758,0,0,1,1.738,1.521A1.755,1.755,0,0,1,47.547,28.9l-.13.018h0a3.086,3.086,0,0,0-.563.029l-6.643.886.231,1.737,6.636-.885a1.662,1.662,0,0,1,.283-.016,1.753,1.753,0,0,1,.188,3.489L26.215,37l.231,1.737,21.023-2.8a1.758,1.758,0,0,1,1.582,1.511,1.755,1.755,0,0,1-1.505,1.969L34.933,41.1l.231,1.737,11.275-1.5V42.6a3.5,3.5,0,0,0,1.224,2.662l4.586,3.931a.925.925,0,0,1-.6,1.626h-.283a.929.929,0,0,1-.512-.154l-.128-.086a8.975,8.975,0,0,0-5-1.512,7.281,7.281,0,0,1-3.244-.766l-1.835-.917a9.012,9.012,0,0,0-4.006-.945,8.9,8.9,0,0,0-6.336,2.624l-3.265,3.265a.844.844,0,0,1-.591.244h-.207a.836.836,0,0,1-.464-1.532l1.1-.736a2.589,2.589,0,0,0-1.436-4.742h-.605a2.592,2.592,0,0,0-.91.165l-6.014,2.255a3.265,3.265,0,0,1-1.149.209h-.9a3.289,3.289,0,0,1-1.464-.346,5.064,5.064,0,0,0-2.248-.53H9.244a.491.491,0,0,1-.482-.514.516.516,0,0,1,.45-.522l4.174-.52A5.685,5.685,0,0,0,16.7,44.122a4.017,4.017,0,0,1,2.858-1.188h2.39a2.616,2.616,0,0,0,2.6-2.631,2.661,2.661,0,0,0-2.877-2.677l-.4.034a1.465,1.465,0,0,1-.277.016,1.746,1.746,0,0,1-1.549-1,1.773,1.773,0,0,1,.2-1.82,1.743,1.743,0,0,1,1.159-.673l16.149-2.153L36.714,30.3,20.876,32.409a1.753,1.753,0,0,1-1.584-1.51A1.755,1.755,0,0,1,20.8,28.931l8.233-1.1L28.8,26.1l-7.924,1.057a1.75,1.75,0,0,1-.079-3.479l11.738-1.565L32.3,20.373l-5.5.733a4.151,4.151,0,0,0-2.878-2.4L16.9,17.089a6.6,6.6,0,0,1,2.324-.8l2.239-.32a6.555,6.555,0,0,1,2.518.131l1.7.423a4.22,4.22,0,0,0,1.016.124h2.054a6.3,6.3,0,0,0,6.3-6.3V8.762a.876.876,0,0,1,1.752,0v1.257a6.25,6.25,0,0,0,1.512,4.1l-1.764,2.644.508.508c2.853,2.852,9.955,2.885,10.256,2.885a1.758,1.758,0,0,1,1.738,1.521Z"/></g></g></svg>