<svg xmlns="http://www.w3.org/2000/svg" width="54.321" height="48.825" viewBox="0 0 54.321 48.825"><g transform="translate(-1 -26.8)"><g transform="translate(1 26.8)"><path d="M48.866,42.617h-.32c-.053-.767.16-5.986-.17-6.6-.011,0,0-.011-.011-.011a2.944,2.944,0,0,0-.927-1.331c-.895-.746-4.782-3.984-5.6-4.655a.57.57,0,0,0,.3-.49A2.732,2.732,0,0,0,39.408,26.8H32.7a.568.568,0,0,0-.565.565c0,1.438.011,5.954.011,7.456H30.653V29.346a1.593,1.593,0,0,0-1.587-1.6h-8.34a1.593,1.593,0,0,0-1.587,1.6V34.82h-1.31V29.346a1.593,1.593,0,0,0-1.587-1.6H7.891a1.593,1.593,0,0,0-1.587,1.6V34.82H3.62A1.493,1.493,0,0,0,2.129,36.3v6.316A1.024,1.024,0,0,0,1,43.639V44.96a1,1,0,0,0,.991,1.023H6.464a4.581,4.581,0,0,0,8.83,0H34.487a4.581,4.581,0,0,0,8.83,0h5.539a1,1,0,0,0,.98-1.023V43.639A.992.992,0,0,0,48.866,42.617ZM42.486,32.03l4.228,3.515a.961.961,0,0,1,.107.1H40.036a.069.069,0,0,1-.064-.064l.011-3.547Zm-9.224-4.1h6.146A1.6,1.6,0,0,1,40.9,28.962H33.262Zm-9.384.959h2.013v2.727c-.234-.192-.65-.788-.991-.756-.351-.043-.788.607-1.023.788Zm-3.621.458a.462.462,0,0,1,.447-.469h2.034V33.02a.559.559,0,0,0,.959.394l1.193-1.193,1.15,1.15a.569.569,0,0,0,.969-.394v-4.1h2.034a.464.464,0,0,1,.458.469V34.82H20.247V29.346Zm-9.2-.458h2.013v2.727c-.234-.192-.639-.788-.991-.756-.351-.043-.788.607-1.023.788Zm-3.621.458a.464.464,0,0,1,.458-.469H9.926V33.02a.569.569,0,0,0,.969.394l1.182-1.193,1.15,1.15a.569.569,0,0,0,.969-.394v-4.1h2.034a.464.464,0,0,1,.458.469V34.82H7.433ZM3.269,39.965h1.64v.426a.578.578,0,0,1-.586.586H3.269ZM6.411,43.81A4.89,4.89,0,0,0,6.3,44.854H2.129V43.746H6.421A.135.135,0,0,1,6.411,43.81Zm4.463,4.42a3.441,3.441,0,0,1,0-6.881A3.441,3.441,0,0,1,10.874,48.23ZM14.9,42.617a4.61,4.61,0,0,0-8.052,0H3.269v-.511H4.323a1.714,1.714,0,0,0,1.715-1.715V39.4a.561.561,0,0,0-.565-.565h-2.2V36.311a.355.355,0,0,1,.351-.351H32.133v6.657ZM34.444,43.8a4.99,4.99,0,0,0-.107,1.054H15.454a5.677,5.677,0,0,0-.117-1.108H34.455a.116.116,0,0,0-.011.053Zm4.463,4.431A3.438,3.438,0,1,1,41.9,43.107a3.469,3.469,0,0,1-2.993,5.123Zm4.015-5.6a4.608,4.608,0,0,0-8.042,0c-.533,0-1.076,0-1.619-.011V30.1c2.088,0,4.186,0,6.284-.011a1.841,1.841,0,0,1,1.566.852c-1.331-.288-2.428.107-2.279,1.662.011.895.021,1.789.032,2.695a1.708,1.708,0,0,0,.256,1.076,1.7,1.7,0,0,0,1.353.4H46.9a1.5,1.5,0,0,1,.437,0c.138.043.085.192.085.33,0,.575.011,1.15.011,1.725a9.537,9.537,0,0,0-2.546.117.891.891,0,0,0-.234.692c-.234,1.938.991,2.695,2.78,2.45v.511C45.916,42.628,44.424,42.628,42.923,42.628Zm4.495-2.663v1.023H46.363a.578.578,0,0,1-.586-.586v-.426h1.64Zm1.3,4.889h-5.24a5.055,5.055,0,0,0-.128-1.108h5.368Z" transform="translate(-1 -26.8)"/></g><g transform="translate(3.269 39.954)"><path d="M23.94,150.311v.426a.577.577,0,0,1-.586.586H22.3V150.3h1.64Z" transform="translate(-22.3 -150.3)" fill="#feddcc"/></g><g transform="translate(45.777 39.965)"><path d="M423.04,150.4v1.022h-1.054a.577.577,0,0,1-.586-.586v-.426h1.64Z" transform="translate(-421.4 -150.4)" fill="#feddcc"/></g><g transform="translate(39.972 32.03)"><path d="M373.749,79.511h-6.785a.069.069,0,0,1-.064-.064l.011-3.547h2.514l4.228,3.515Z" transform="translate(-366.9 -75.9)" fill="#feddcc"/></g><g transform="translate(3.269 35.96)"><path d="M51.164,112.8v6.657H33.931a4.61,4.61,0,0,0-8.052,0H22.3v-.511h1.054a1.714,1.714,0,0,0,1.715-1.715v-.991a.561.561,0,0,0-.565-.565H22.3v-2.524a.355.355,0,0,1,.351-.351Z" transform="translate(-22.3 -112.8)" fill="#cad473"/></g><g transform="translate(33.262 30.085)"><path d="M315.275,67.211c-.234,1.938.991,2.695,2.78,2.45v.511c-1.5.011-2.993.011-4.495.011a4.608,4.608,0,0,0-8.042,0c-.533,0-1.076,0-1.619-.011V57.657c2.088,0,4.186,0,6.284-.011a1.841,1.841,0,0,1,1.566.852c-1.331-.288-2.428.107-2.279,1.662.011.895.021,1.789.032,2.695a1.262,1.262,0,0,0,1.608,1.481h6.423a1.5,1.5,0,0,1,.437,0c.138.043.085.192.085.33,0,.575.011,1.15.011,1.725a9.537,9.537,0,0,0-2.546.117.871.871,0,0,0-.245.7Z" transform="translate(-303.9 -57.64)" fill="#119798"/></g><g transform="translate(20.257 28.877)"><path d="M191.056,46.769v5.475H181.8V46.769a.462.462,0,0,1,.447-.469h2.034v4.143a.559.559,0,0,0,.959.394l1.193-1.193,1.15,1.15a.569.569,0,0,0,.969-.394V46.3h2.034A.473.473,0,0,1,191.056,46.769Z" transform="translate(-181.8 -46.3)" fill="#0a5b5b"/></g><g transform="translate(7.433 28.877)"><path d="M70.656,46.769v5.475H61.4V46.769a.464.464,0,0,1,.458-.469h2.034v4.143a.569.569,0,0,0,.969.394l1.182-1.193,1.15,1.15a.569.569,0,0,0,.969-.394V46.3H70.2A.471.471,0,0,1,70.656,46.769Z" transform="translate(-61.4 -46.3)" fill="#0a5b5b"/></g><g transform="translate(11.055 28.877)"><path d="M97.413,46.311v2.727c-.234-.192-.639-.788-.991-.756-.351-.043-.788.607-1.023.788V46.3h2.013Z" transform="translate(-95.4 -46.3)" fill="#cfeaea"/></g><g transform="translate(23.879 28.877)"><path d="M217.813,46.311v2.727c-.234-.192-.65-.788-.991-.756-.351-.043-.788.607-1.023.788V46.3h2.013Z" transform="translate(-215.8 -46.3)" fill="#cfeaea"/></g><g transform="translate(33.262 27.929)"><path d="M311.537,38.433H303.9V37.4h6.146A1.612,1.612,0,0,1,311.537,38.433Z" transform="translate(-303.9 -37.4)" fill="#a2aa5c"/></g><g transform="translate(7.447 41.374)"><path d="M68.119,165.675a3.445,3.445,0,0,0-6.582,1.608,3.439,3.439,0,1,0,6.582-1.608ZM67,167.337a2.056,2.056,0,0,1-4.09-.288A2.056,2.056,0,1,1,67,167.337Z" transform="translate(-61.529 -163.634)" fill="#aa6e15"/></g><g transform="translate(35.482 41.398)"><path d="M331.163,165.567a3.438,3.438,0,1,0-2.993,5.123A3.494,3.494,0,0,0,331.163,165.567Zm-.959,1.97a2.056,2.056,0,0,1-4.09-.288A2.056,2.056,0,1,1,330.2,167.538Z" transform="translate(-324.745 -163.859)" fill="#aa6e15"/></g><g transform="translate(43.349 43.746)"><path d="M403.968,185.9v1.108h-5.24a5.053,5.053,0,0,0-.128-1.108Z" transform="translate(-398.6 -185.9)" fill="#f6ede6"/></g><g transform="translate(2.129 43.746)"><path d="M15.892,185.9a4.833,4.833,0,0,0-.117,1.108H11.6V185.9Z" transform="translate(-11.6 -185.9)" fill="#f6ede6"/></g><g transform="translate(15.336 43.746)"><path d="M154.719,185.9a4.306,4.306,0,0,0-.117,1.108H135.717a5.677,5.677,0,0,0-.117-1.108Z" transform="translate(-135.6 -185.9)" fill="#dfbba0"/></g><g transform="translate(8.821 42.749)"><path d="M78.364,177.763a2.056,2.056,0,0,0-3.909,1.15A2.056,2.056,0,1,0,78.364,177.763Zm-.959.927a.931.931,0,0,1-1.853-.107A.931.931,0,1,1,77.405,178.689Z" transform="translate(-74.426 -176.543)"/></g><g transform="translate(36.847 42.752)"><path d="M341.489,177.788a2.057,2.057,0,0,0-3.909,1.15A2.057,2.057,0,1,0,341.489,177.788Zm-1.875,1.747a.927.927,0,0,1,0-1.853A.927.927,0,0,1,339.614,179.534Z" transform="translate(-337.554 -176.57)"/></g><g transform="translate(43.051 58.093)"><path d="M401.935,320.6a6.15,6.15,0,0,0-6.135,6.135c0,3.227,5.443,10.843,5.677,11.162a.569.569,0,0,0,.916,0c.234-.33,5.677-7.935,5.677-11.162A6.144,6.144,0,0,0,401.935,320.6Zm0,15.977c-1.725-2.5-5.006-7.679-5.006-9.842a5,5,0,0,1,10,0C406.941,328.9,403.671,334.084,401.935,336.577Z" transform="translate(-395.8 -320.6)"/></g><g transform="translate(44.18 59.233)"><path d="M411.406,331.3a5.012,5.012,0,0,0-5.006,5c0,2.162,3.27,7.349,5.006,9.842,1.725-2.5,5-7.679,5-9.842A4.989,4.989,0,0,0,411.406,331.3Zm0,8.446a3.142,3.142,0,0,1,0-6.284A3.142,3.142,0,0,1,411.406,339.746Z" transform="translate(-406.4 -331.3)" fill="#cad473"/></g><g transform="translate(46.07 61.395)"><path d="M427.265,351.6a3.142,3.142,0,0,0,0,6.284A3.142,3.142,0,0,0,427.265,351.6Zm0,5.155a2.008,2.008,0,0,1,0-4.015A2.008,2.008,0,0,1,427.265,356.755Z" transform="translate(-424.15 -351.6)"/></g><g transform="translate(34.881 74.496)"><path d="M319.1,475.165a.568.568,0,0,0,.565.565h2.247a.565.565,0,0,0,0-1.129h-2.247A.561.561,0,0,0,319.1,475.165Z" transform="translate(-319.1 -474.6)"/></g><g transform="translate(30.397 74.496)"><path d="M277,475.165a.561.561,0,0,0,.565.565h2.247a.565.565,0,0,0,0-1.129h-2.247A.561.561,0,0,0,277,475.165Z" transform="translate(-277 -474.6)"/></g><g transform="translate(31.904 57.401)"><path d="M293.957,314.1h-2.247a.565.565,0,0,0,0,1.129h2.247A.565.565,0,0,0,293.957,314.1Z" transform="translate(-291.15 -314.1)"/></g><g transform="translate(36.388 57.401)"><path d="M336.057,314.1h-2.247a.565.565,0,0,0,0,1.129h2.247A.565.565,0,0,0,336.057,314.1Z" transform="translate(-333.25 -314.1)"/></g><g transform="translate(48.654 51.839)"><path d="M448.507,264.167a.567.567,0,0,0,.469.873.552.552,0,0,0,.479-.256,8.626,8.626,0,0,0,1.022-2.173.566.566,0,1,0-1.086-.32A7.928,7.928,0,0,1,448.507,264.167Z" transform="translate(-448.412 -261.886)"/></g><g transform="translate(27.424 57.401)"><path d="M251.879,314.1h-2.237a.565.565,0,0,0,0,1.129h2.237A.565.565,0,0,0,251.879,314.1Z" transform="translate(-249.087 -314.1)"/></g><g transform="translate(40.888 57.334)"><path d="M377.257,314.666c.565-.043,1.651.138,1.608-.7a.575.575,0,0,0-.639-.49,20.855,20.855,0,0,1-2.162.064.565.565,0,0,0,0,1.129Z" transform="translate(-375.5 -313.47)"/></g><g transform="translate(39.376 74.496)"><path d="M361.3,475.165a.568.568,0,0,0,.565.565h2.247a.565.565,0,0,0,0-1.129h-2.247A.561.561,0,0,0,361.3,475.165Z" transform="translate(-361.3 -474.6)"/></g><g transform="translate(49.665 47.411)"><path d="M458.743,223.655a.578.578,0,0,0,.575-.66c-.064-.66.021-2.918-1-2.663a.565.565,0,0,0-.394.692,7.207,7.207,0,0,1,.266,1.97A.573.573,0,0,0,458.743,223.655Z" transform="translate(-457.902 -220.312)"/></g><g transform="translate(18.441 57.401)"><path d="M167.557,314.1h-2.247a.565.565,0,0,0,0,1.129h2.247A.565.565,0,0,0,167.557,314.1Z" transform="translate(-164.75 -314.1)"/></g><g transform="translate(25.913 74.496)"><path d="M234.9,475.165a.568.568,0,0,0,.565.565h2.247a.565.565,0,1,0,0-1.129h-2.247A.561.561,0,0,0,234.9,475.165Z" transform="translate(-234.9 -474.6)"/></g><g transform="translate(4.019 72.361)"><path d="M29.487,454.735c-.714.809,1.417,1.821,1.981,2.173a.554.554,0,0,0,.756-.245.563.563,0,0,0-.245-.756,7.488,7.488,0,0,1-1.694-1.193.569.569,0,0,0-.8.021Z" transform="translate(-29.342 -454.56)"/></g><g transform="translate(5.196 57.697)"><path d="M42.846,316.909c-.628.234-2.918.831-2.365,1.757a.549.549,0,0,0,.778.17,7.234,7.234,0,0,1,1.9-.852A.56.56,0,0,0,42.846,316.909Z" transform="translate(-40.396 -316.886)"/></g><g transform="translate(45.281 55.535)"><path d="M417.3,298.905a6.306,6.306,0,0,0,2.258-1.321.567.567,0,0,0-.735-.863,7.531,7.531,0,0,1-1.757,1.108A.565.565,0,0,0,417.3,298.905Z" transform="translate(-416.743 -296.581)"/></g><g transform="translate(1.531 64.085)"><path d="M6.083,377.329a15.343,15.343,0,0,0-.1,2.322.565.565,0,0,0,1.129,0,16.02,16.02,0,0,1,.075-2.152.56.56,0,0,0-1.108-.17Z" transform="translate(-5.986 -376.856)"/></g><g transform="translate(43.865 74.496)"><path d="M406.257,475.729a.565.565,0,0,0,0-1.129h-2.247a.565.565,0,0,0,0,1.129Z" transform="translate(-403.45 -474.6)"/></g><g transform="translate(1.772 68.536)"><path d="M9.17,421.567a.568.568,0,0,0,.98-.575,7.351,7.351,0,0,1-.788-1.917.562.562,0,0,0-.682-.415.57.57,0,0,0-.415.682A8.29,8.29,0,0,0,9.17,421.567Z" transform="translate(-8.249 -418.643)"/></g><g transform="translate(2.283 60.066)"><path d="M14.4,339.315c-.415.543-2.247,2.6-.8,2.812a.562.562,0,0,0,.511-.32,7.524,7.524,0,0,1,1.14-1.736A.57.57,0,0,0,14.4,339.315Z" transform="translate(-13.051 -339.126)"/></g><g transform="translate(16.934 74.496)"><path d="M150.6,475.165a.568.568,0,0,0,.564.565h2.247a.565.565,0,0,0,0-1.129h-2.247A.555.555,0,0,0,150.6,475.165Z" transform="translate(-150.6 -474.6)"/></g><g transform="translate(21.418 74.496)"><path d="M192.7,475.165a.568.568,0,0,0,.565.565h2.247a.565.565,0,0,0,0-1.129h-2.247A.561.561,0,0,0,192.7,475.165Z" transform="translate(-192.7 -474.6)"/></g><g transform="translate(7.963 74.366)"><path d="M66.377,473.84c-.075.959,1.363.714,1.992.8h.8a.564.564,0,1,0,0-1.129h-.8c-.628.117-1.768-.543-1.992.33Z" transform="translate(-66.374 -473.38)"/></g><g transform="translate(22.929 57.401)"><path d="M209.69,314.1h-2.247a.565.565,0,0,0,0,1.129h2.247A.565.565,0,0,0,209.69,314.1Z" transform="translate(-206.887 -314.1)"/></g><g transform="translate(9.462 57.401)"><path d="M83.257,314.1H81.009a.565.565,0,0,0,0,1.129h2.247A.565.565,0,0,0,83.257,314.1Z" transform="translate(-80.45 -314.1)"/></g><g transform="translate(12.439 74.496)"><path d="M108.4,475.165a.568.568,0,0,0,.565.565h2.247a.565.565,0,0,0,0-1.129h-2.247A.561.561,0,0,0,108.4,475.165Z" transform="translate(-108.4 -474.6)"/></g><g transform="translate(13.946 57.401)"><path d="M125.357,314.1h-2.247a.565.565,0,0,0,0,1.129h2.247A.565.565,0,0,0,125.357,314.1Z" transform="translate(-122.55 -314.1)"/></g></g></svg>